<?xml version="1.0" encoding="UTF-8" standalone="no"?>
<svg
   xmlns:dc="http://purl.org/dc/elements/1.1/"
   xmlns:cc="http://creativecommons.org/ns#"
   xmlns:rdf="http://www.w3.org/1999/02/22-rdf-syntax-ns#"
   xmlns:svg="http://www.w3.org/2000/svg"
   xmlns="http://www.w3.org/2000/svg"
   xmlns:sodipodi="http://sodipodi.sourceforge.net/DTD/sodipodi-0.dtd"
   xmlns:inkscape="http://www.inkscape.org/namespaces/inkscape"
   data-name="Layer 1"
   viewBox="0 0 90.010132 90.010132"
   x="0px"
   y="0px"
   version="1.1"
   id="svg10"
   sodipodi:docname="academics.svg"
   width="90.010132"
   height="90.010132"
   inkscape:version="0.92.5 (2060ec1f9f, 2020-04-08)">
  <metadata
     id="metadata16">
    <rdf:RDF>
      <cc:Work
         rdf:about="">
        <dc:format>image/svg+xml</dc:format>
        <dc:type
           rdf:resource="http://purl.org/dc/dcmitype/StillImage" />
        <dc:title>7</dc:title>
      </cc:Work>
    </rdf:RDF>
  </metadata>
  <defs
     id="defs14" />
  <sodipodi:namedview
     pagecolor="#ffffff"
     bordercolor="#666666"
     borderopacity="1"
     objecttolerance="10"
     gridtolerance="10"
     guidetolerance="10"
     inkscape:pageopacity="0"
     inkscape:pageshadow="2"
     inkscape:window-width="764"
     inkscape:window-height="480"
     id="namedview12"
     showgrid="false"
     inkscape:zoom="1.888"
     inkscape:cx="46.064544"
     inkscape:cy="29.851695"
     inkscape:window-x="401"
     inkscape:window-y="339"
     inkscape:window-maximized="0"
     inkscape:current-layer="svg10"
     inkscape:showpageshadow="true" />
  <title
     id="title2">7</title>
  <path
     d="m 40.327422,81.717767 a 1.884,1.884 0 0 0 0.301,-1.5625 1.63315,1.63315 0 0 0 -0.946,-1.0321 3.2709,3.2709 0 0 0 -2.96716,0.11 3.17684,3.17684 0 0 0 -1.35522,1.48255 4.44154,4.44154 0 0 0 2.1651,5.88281 5.90629,5.90629 0 0 0 7.82653,-2.88831 7.73022,7.73022 0 0 0 -3.7771,-10.25628 10.02451,10.02451 0 0 0 -12.69738,3.79187 1.46738,1.46738 0 0 1 -1.86249,0.52508 1.382,1.382 0 0 1 -0.621,-1.95971 12.89063,12.89063 0 0 1 7.48327,-5.66138 l 18.76368,-5.29645 a 13.75426,13.75426 0 0 1 6.988,1.204 10.94319,10.94319 0 0 1 5.33957,14.50643 8.58256,8.58256 0 0 1 -3.10339,3.6051 l -19.48761,5.5044 a 8.89533,8.89533 0 0 1 -2.39385,0.33685 8.72381,8.72381 0 0 1 -3.65527,-0.80988 7.30872,7.30872 0 0 1 -3.56922,-9.68286 6.12485,6.12485 0 0 1 8.12757,-2.99585 4.47179,4.47179 0 0 1 2.50134,2.84534 4.77522,4.77522 0 0 1 -0.66651,3.92761 z m 48.69373,-8.39276 a 10.5929,10.5929 0 0 0 -5.18182,-14.06207 12.841,12.841 0 0 0 -8.79411,-0.73108 c -0.03583,0.0072 -0.06452,0.02154 -0.0932,0.02869 -0.0071,0 -18.434,5.20343 -18.434,5.20343 a 13.72338,13.72338 0 0 1 6.3,1.25421 10.91609,10.91609 0 0 1 5.33953,14.4992 8.542,8.542 0 0 1 -3.54779,3.87744 l 18.82819,-5.31091 a 7.653,7.653 0 0 0 0.78119,-0.258 8.72232,8.72232 0 0 0 4.80201,-4.50091 z m -23.3847,-37.694 c 0,0 0,17.16467 0.0055,17.20227 0,3.89954 -9.2395,7.06079 -20.637,7.06079 -11.3975,0 -20.637,-3.16125 -20.63141,-7.09839 v -17.1647 c 0,-3.90216 9.22339,-8.05756 20.63153,-8.05756 11.38902,0 20.63133,4.1554 20.63133,8.05756 z m -1.99445,17.20224 c 0,-1.51349 -6.34082,-5.06079 -18.637,-5.06079 -12.29618,0 -18.637,3.5473 -18.637,5.06079 0,1.51349 6.34082,5.06079 18.637,5.06079 12.29618,0 18.637,-3.5473 18.637,-5.06079 z M 4.0673525,24.785337 v 18.72937 a 3.48127,3.48127 0 0 0 -0.1344,6.20929 l -3.22800002,12.02118 c 0,1.54474 9.78856952,1.54474 9.78856952,0 L 7.2656225,49.724057 a 3.48134,3.48134 0 0 0 -0.13434,-6.20935 v -16.45819 a 92.4501,92.4501 0 0 0 13.4675295,8.02813 c 0.57007,-8.78173 12.5506,-12.71624 24.41125,-12.71624 11.87043,0 23.83094,3.93451 24.39106,12.72851 a 97.18189,97.18189 0 0 0 20.171,-13.24658 1.33611,1.33611 0 0 0 -0.35,-2.20776 c -6.67033,-1.78845 -27.15129,-7.89374 -42.85209,-19.17920007 a 2.28227,2.28227 0 0 0 -2.73011,0 C 27.939222,11.748837 7.4583525,17.854127 0.78800248,19.642577 a 1.33612,1.33612 0 0 0 -0.35,2.20776 c 0.90853002,0.77527 2.14046002,1.78796 3.62935002,2.935 z"
     id="path4"
     inkscape:connector-curvature="0" />
</svg>
