<?xml version="1.0" encoding="UTF-8" standalone="no"?>
<svg
   xmlns:dc="http://purl.org/dc/elements/1.1/"
   xmlns:cc="http://creativecommons.org/ns#"
   xmlns:rdf="http://www.w3.org/1999/02/22-rdf-syntax-ns#"
   xmlns:svg="http://www.w3.org/2000/svg"
   xmlns="http://www.w3.org/2000/svg"
   xmlns:sodipodi="http://sodipodi.sourceforge.net/DTD/sodipodi-0.dtd"
   xmlns:inkscape="http://www.inkscape.org/namespaces/inkscape"
   version="1.1"
   x="0px"
   y="0px"
   viewBox="0 0 40.00031 40.000309"
   enable-background="new 0 0 50 50"
   xml:space="preserve"
   id="svg8"
   sodipodi:docname="explosives.svg"
   width="40.000309"
   height="40.000309"
   inkscape:version="0.92.5 (2060ec1f9f, 2020-04-08)"><metadata
     id="metadata14"><rdf:RDF><cc:Work
         rdf:about=""><dc:format>image/svg+xml</dc:format><dc:type
           rdf:resource="http://purl.org/dc/dcmitype/StillImage" /><dc:title></dc:title></cc:Work></rdf:RDF></metadata><defs
     id="defs12" /><sodipodi:namedview
     pagecolor="#ffffff"
     bordercolor="#666666"
     borderopacity="1"
     objecttolerance="10"
     gridtolerance="10"
     guidetolerance="10"
     inkscape:pageopacity="0"
     inkscape:pageshadow="2"
     inkscape:window-width="1920"
     inkscape:window-height="1043"
     id="namedview10"
     showgrid="false"
     inkscape:zoom="3.776"
     inkscape:cx="-30.039771"
     inkscape:cy="24.926002"
     inkscape:window-x="0"
     inkscape:window-y="0"
     inkscape:window-maximized="1"
     inkscape:current-layer="svg8" /><path
     d="m 26.347654,9.5433115 c -0.804,0 -1.569,0.087 -2.276,0.24 -0.122,-1.572 0.791,-3.147 1.011,-3.498 0.645,-0.399 1.121,-0.895 1.405,-1.4980005 0.977,-2.07 -0.63,-4.44699996 -0.698,-4.54699996 -0.173,-0.253 -0.519,-0.315 -0.773,-0.144 -0.253,0.173 -0.318,0.52 -0.145,0.774 0.013,0.019 1.313,1.95599996 0.607,3.44499996 -0.508,1.0700005 -2.019,1.7440005 -4.372,1.9490005 -3.109,0.27 -5.373,1.233 -6.729,2.862 -0.119,0.142 -0.211,0.286 -0.309,0.429 -0.138,-0.005 -0.276,-0.012 -0.416,-0.012 -3.536,0 -6.4019995,1.6200005 -6.4019995,3.6180005 0,0.262 0.051,0.516 0.145,0.761 l 2.9429995,19.49 h 0.032 c 0.17,1.596 1.565,2.505 3.282,2.505 1.116,0 2.088,-0.389 2.685,-1.095 l 0.403,2.673 h 0.033 c 0.169,1.595 1.564,2.505 3.281,2.505 1.718,0 3.113,-0.91 3.283,-2.505 h 0.033 l 0.387,-2.561 c 0.602,0.636 1.533,0.982 2.59,0.982 1.717,0 3.112,-0.909 3.281,-2.505 h 0.033 l 2.943,-19.49 c 0.093,-0.246 0.145,-0.5 0.145,-0.761 0,-1.997 -2.866,-3.6170005 -6.402,-3.6170005 z m -3.355,0.5410005 c -1.611,0.563 -2.747,1.516 -2.992,2.627 -0.139,-0.628 -0.562,-1.205 -1.195,-1.69 0.068,-0.415 0.201,-0.811 0.442,-1.1620005 1.644,-2.394 3.271,-2.659 3.28,-2.661 0.021,-0.002 0.037,-0.014 0.057,-0.019 0.322,-0.061 0.625,-0.133 0.912,-0.216 -0.352,0.843 -0.648,1.964 -0.504,3.1210005 z m -3.846,3.582 c -0.01,0 -0.021,0.001 -0.031,0.002 -0.169,-0.518 -0.297,-1.063 -0.343,-1.606 0.317,0.356 0.503,0.732 0.503,1.099 0,0.168 -0.053,0.337 -0.129,0.505 z m 0.854,-0.056 c 10e-4,0.006 0.004,0.011 0.005,0.018 -0.003,0 -0.006,0 -0.01,0 0.001,-0.007 0.003,-0.012 0.005,-0.018 z m -0.257,-6.0360005 c -0.456,0.422 -0.937,0.959 -1.413,1.654 -0.253,0.369 -0.428,0.766 -0.538,1.1760005 -0.694,-0.333 -1.516,-0.5820005 -2.418,-0.7240005 0.796,-0.873 2.136,-1.695 4.369,-2.106 z M 8.0306545,13.162312 c 0,-1.338 2.2939995,-2.826 5.5869995,-2.836 -0.612,1.296 -0.525,2.402 -0.519,2.462 0.028,0.288 0.27,0.502 0.553,0.502 0.017,0 0.034,0 0.051,-0.002 0.305,-0.028 0.531,-0.298 0.505,-0.603 -0.008,-0.09 -0.069,-1.144 0.634,-2.294 1.122,0.128 2.082,0.433 2.821,0.829 -0.069,0.875 0.085,1.775 0.335,2.601 -1.817,0.349 -3.263,1.146 -3.934,2.158 -0.136,0.01 -0.268,0.023 -0.411,0.023 -3.312,-0.001 -5.6219995,-1.497 -5.6219995,-2.84 z m 12.0249995,6.921 c -3.313,0 -5.622,-1.496 -5.622,-2.839 0,-1.081 1.511,-2.248 3.823,-2.667 0.513,1.34 1.167,2.344 1.227,2.432 0.107,0.161 0.284,0.248 0.464,0.248 0.105,0 0.212,-0.031 0.308,-0.094 0.256,-0.17 0.325,-0.515 0.155,-0.771 -0.012,-0.019 -0.549,-0.839 -1.01,-1.95 0.217,-0.014 0.428,-0.037 0.655,-0.037 3.314,0 5.623,1.496 5.623,2.839 0,1.343 -2.309,2.839 -5.623,2.839 z m 6.292,-4.082 c -0.104,0 -0.199,-0.009 -0.297,-0.017 -0.817,-1.241 -2.801,-2.159 -5.202,-2.328 -0.073,-0.165 -0.124,-0.33 -0.124,-0.495 0,-0.847 0.922,-1.753 2.432,-2.308 0.378,1.167 1.235,2.091 2.589,2.732 0.077,0.036 0.158,0.053 0.238,0.053 0.208,0 0.408,-0.118 0.504,-0.319 0.131,-0.277 0.013,-0.61 -0.266,-0.741 -1.046,-0.496 -1.706,-1.182 -1.994,-2.028 0.644,-0.141 1.352,-0.228 2.119,-0.228 3.313,0 5.622,1.496 5.622,2.839 10e-4,1.344 -2.307,2.84 -5.621,2.84 z"
     id="path2"
     inkscape:connector-curvature="0"
     style="fill:#000000" /></svg>