<?xml version="1.0" encoding="UTF-8" standalone="no"?>
<svg
   xmlns:dc="http://purl.org/dc/elements/1.1/"
   xmlns:cc="http://creativecommons.org/ns#"
   xmlns:rdf="http://www.w3.org/1999/02/22-rdf-syntax-ns#"
   xmlns:svg="http://www.w3.org/2000/svg"
   xmlns="http://www.w3.org/2000/svg"
   xmlns:sodipodi="http://sodipodi.sourceforge.net/DTD/sodipodi-0.dtd"
   xmlns:inkscape="http://www.inkscape.org/namespaces/inkscape"
   version="1.1"
   x="0px"
   y="0px"
   viewBox="0 0 90.105584 90.105583"
   enable-background="new 0 0 96 96"
   xml:space="preserve"
   id="svg8"
   sodipodi:docname="fire gun.svg"
   width="90.105583"
   height="90.105583"
   inkscape:version="0.92.5 (2060ec1f9f, 2020-04-08)"><metadata
     id="metadata14"><rdf:RDF><cc:Work
         rdf:about=""><dc:format>image/svg+xml</dc:format><dc:type
           rdf:resource="http://purl.org/dc/dcmitype/StillImage" /><dc:title></dc:title></cc:Work></rdf:RDF></metadata><defs
     id="defs12" /><sodipodi:namedview
     pagecolor="#ffffff"
     bordercolor="#666666"
     borderopacity="1"
     objecttolerance="10"
     gridtolerance="10"
     guidetolerance="10"
     inkscape:pageopacity="0"
     inkscape:pageshadow="2"
     inkscape:window-width="1920"
     inkscape:window-height="1043"
     id="namedview10"
     showgrid="false"
     inkscape:zoom="1.9666667"
     inkscape:cx="-42.145812"
     inkscape:cy="23"
     inkscape:window-x="0"
     inkscape:window-y="0"
     inkscape:window-maximized="1"
     inkscape:current-layer="svg8" /><path
     d="m 88.105576,16.052792 h -2 v -4 c 0,-1.104 -0.899,-2 -2,-2 -1.104,0 -2,0.896 -2,2 v 4 h -64 v -4 c 0,-1.104 -0.896,-2 -2,-2 -1.104,0 -2,0.896 -2,2 v 4 h -3.096 c -3.4799999,0 -6.2639999,1.688 -7.4399999,4.492 l -2.216,5.06 c -0.96799999,2.3 -0.82799999,4.776 0.396,6.964 1.2,2.148 3.32,3.6 5.824,3.992 1.004,0.156 1.876,0.728 2.384,1.572 0.4999999,0.828 0.6479999,2.56 0.3039999,3.572 l -9.91999989,29.588 c -0.676,2.02 -0.336,4.26 0.90799999,5.996 1.248,1.737 3.264,2.764 5.4,2.764 H 23.965576 c 3.1,0 5.764,-2.107 6.476,-5.128 l 4.884,-20.765 c 17.964,-0.228 22.436,-7.051 22.876,-18.1 h 24.104 c 4.596,0 7.8,-4.98 7.8,-9.452 v -8.552 c 0,-1.107 -0.9,-2.003 -2,-2.003 z m -51.844,34.084 2.172,-9.248 c 1.112,2.26 3.124,4.032 6.096,5.332 0.26,0.112 0.532,0.168 0.8,0.168 0.772,0 1.503,-0.443 1.832,-1.196 0.44,-1.016 -0.016,-2.196 -1.027,-2.636 -3.288,-1.44 -4.692,-3.372 -4.708,-6.364 0.268,-0.08 0.54,-0.148 0.828,-0.148 h 11.941 c -0.37,9.18 -3.73,13.74 -17.934,14.092 z"
     id="path2"
     inkscape:connector-curvature="0" /></svg>