<?xml version="1.0" encoding="UTF-8" standalone="no"?>
<svg
   xmlns:dc="http://purl.org/dc/elements/1.1/"
   xmlns:cc="http://creativecommons.org/ns#"
   xmlns:rdf="http://www.w3.org/1999/02/22-rdf-syntax-ns#"
   xmlns:svg="http://www.w3.org/2000/svg"
   xmlns="http://www.w3.org/2000/svg"
   xmlns:sodipodi="http://sodipodi.sourceforge.net/DTD/sodipodi-0.dtd"
   xmlns:inkscape="http://www.inkscape.org/namespaces/inkscape"
   version="1.1"
   x="0px"
   y="0px"
   viewBox="0 0 100 100"
   enable-background="new 0 0 100 100"
   xml:space="preserve"
   id="svg8"
   sodipodi:docname="first aid.svg"
   width="100"
   height="100"
   inkscape:version="0.92.5 (2060ec1f9f, 2020-04-08)"><metadata
     id="metadata14"><rdf:RDF><cc:Work
         rdf:about=""><dc:format>image/svg+xml</dc:format><dc:type
           rdf:resource="http://purl.org/dc/dcmitype/StillImage" /><dc:title></dc:title></cc:Work></rdf:RDF></metadata><defs
     id="defs12" /><sodipodi:namedview
     pagecolor="#ffffff"
     bordercolor="#666666"
     borderopacity="1"
     objecttolerance="10"
     gridtolerance="10"
     guidetolerance="10"
     inkscape:pageopacity="0"
     inkscape:pageshadow="2"
     inkscape:window-width="760"
     inkscape:window-height="480"
     id="namedview10"
     showgrid="false"
     inkscape:zoom="1.888"
     inkscape:cx="50"
     inkscape:cy="62.5"
     inkscape:window-x="0"
     inkscape:window-y="0"
     inkscape:window-maximized="0"
     inkscape:current-layer="svg8" /><path
     d="M 24.669,35.215 V 19.881 c 0,-2.505 2.086,-4.543 4.642,-4.543 h 41.377 c 2.556,0 4.639,2.038 4.639,4.543 v 15.334 c -1.716,0.051 -3.428,-0.051 -5.14,0 V 20.443 H 29.816 v 14.772 z m 66.238,0 h -15.58 v 49.447 h 15.58 C 93.16,84.662 95,82.765 95,80.426 V 39.458 c 0,-2.345 -1.84,-4.243 -4.093,-4.243 z m -81.815,0 H 24.669 V 84.662 H 9.092 C 6.84,84.662 5,82.765 5,80.426 V 39.458 C 5,37.113 6.84,35.215 9.092,35.215 Z M 29.816,84.662 H 70.188 V 35.215 H 29.816 Z M 33.589,55.565 H 46.4 V 43.636 h 7.201 V 55.565 H 66.409 V 62.72 H 53.601 V 76.241 H 46.4 V 62.721 H 33.589 Z"
     id="path2"
     inkscape:connector-curvature="0" /></svg>