<?xml version="1.0" encoding="UTF-8" standalone="no"?>
<svg
   xmlns:dc="http://purl.org/dc/elements/1.1/"
   xmlns:cc="http://creativecommons.org/ns#"
   xmlns:rdf="http://www.w3.org/1999/02/22-rdf-syntax-ns#"
   xmlns:svg="http://www.w3.org/2000/svg"
   xmlns="http://www.w3.org/2000/svg"
   xmlns:sodipodi="http://sodipodi.sourceforge.net/DTD/sodipodi-0.dtd"
   xmlns:inkscape="http://www.inkscape.org/namespaces/inkscape"
   version="1.1"
   x="0px"
   y="0px"
   viewBox="0 0 24 24"
   xml:space="preserve"
   id="svg22"
   sodipodi:docname="games.svg"
   width="24"
   height="24"
   inkscape:version="0.92.5 (2060ec1f9f, 2020-04-08)"><metadata
     id="metadata28"><rdf:RDF><cc:Work
         rdf:about=""><dc:format>image/svg+xml</dc:format><dc:type
           rdf:resource="http://purl.org/dc/dcmitype/StillImage" /><dc:title></dc:title></cc:Work></rdf:RDF></metadata><defs
     id="defs26" /><sodipodi:namedview
     pagecolor="#ffffff"
     bordercolor="#666666"
     borderopacity="1"
     objecttolerance="10"
     gridtolerance="10"
     guidetolerance="10"
     inkscape:pageopacity="0"
     inkscape:pageshadow="2"
     inkscape:window-width="760"
     inkscape:window-height="480"
     id="namedview24"
     showgrid="false"
     inkscape:zoom="7.8666667"
     inkscape:cx="12"
     inkscape:cy="15"
     inkscape:window-x="0"
     inkscape:window-y="0"
     inkscape:window-maximized="0"
     inkscape:current-layer="svg22" /><g
     id="g16"
     transform="translate(0,-2.103411e-4)"><polygon
       points="11.486,4.329 12.536,3.715 12.105,2.467 11.013,3.149 "
       id="polygon2" /><polygon
       points="14.8,8.293 11.904,10.101 13.149,13.205 15.935,11.577 "
       id="polygon4" /><path
       d="M 5.176,8.674 C 5.269,8.71 5.367,8.717 5.47,8.7 c 0.001,0 0.001,0 0.002,0 C 5.615,8.675 5.739,8.594 5.823,8.475 5.906,8.355 5.938,8.21 5.912,8.066 5.883,7.906 5.785,7.769 5.644,7.688 L 4.144,6.836 3.034,8.158 C 2.93,8.283 2.887,8.446 2.916,8.605 2.942,8.748 3.022,8.873 3.142,8.956 3.263,9.04 3.41,9.071 3.555,9.045 3.652,9.028 3.743,8.984 3.818,8.918 L 4.235,8.554 C 4.35,8.453 4.512,8.423 4.656,8.478 Z"
       id="path6"
       inkscape:connector-curvature="0" /><polygon
       points="4.555,10.138 4.904,10.087 4.673,9.373 4.595,9.343 4.531,9.399 "
       id="polygon8" /><path
       d="M 4.451,17.79 C 4.316,17.536 4.287,17.244 4.37,16.969 L 8.101,4.705 1.5,6.096 C 1.354,6.13 1.261,6.275 1.292,6.43 l 3.612,17.064 c 0.015,0.07 0.055,0.129 0.116,0.168 0.061,0.041 0.134,0.056 0.205,0.041 L 15.586,21.505 5.087,18.311 C 4.813,18.228 4.587,18.044 4.451,17.79 Z M 3.733,10.287 3.725,10.184 3.715,9.859 C 3.711,9.859 3.707,9.862 3.703,9.862 3.62,9.877 3.536,9.884 3.453,9.884 3.175,9.884 2.903,9.801 2.669,9.638 2.366,9.43 2.163,9.116 2.098,8.754 2.025,8.35 2.135,7.938 2.398,7.625 L 3.73,6.037 C 3.858,5.883 4.079,5.844 4.253,5.943 L 6.054,6.967 C 6.41,7.169 6.656,7.516 6.728,7.919 6.793,8.281 6.713,8.647 6.503,8.949 6.295,9.251 5.98,9.453 5.618,9.518 5.612,9.519 5.606,9.518 5.6,9.519 L 5.698,9.811 C 5.703,9.825 5.725,9.897 5.728,9.912 5.771,10.149 5.721,10.375 5.591,10.56 5.462,10.743 5.27,10.865 5.05,10.904 L 4.712,10.965 C 4.661,10.974 4.611,10.979 4.56,10.979 4.391,10.979 4.225,10.927 4.083,10.829 3.897,10.7 3.774,10.508 3.733,10.287 Z"
       id="path10"
       inkscape:connector-curvature="0" /><polygon
       points="16.532,17.464 15.44,18.145 15.913,19.326 16.963,18.712 "
       id="polygon12" /><path
       d="M 22.541,3.946 10.565,0.303 C 10.502,0.283 10.436,0.29 10.378,0.321 10.32,0.352 10.278,0.403 10.259,0.466 L 5.166,17.211 c -0.019,0.063 -0.013,0.129 0.018,0.187 0.031,0.058 0.082,0.099 0.144,0.119 l 11.975,3.643 c 0.128,0.037 0.266,-0.034 0.306,-0.162 L 22.703,4.252 C 22.722,4.189 22.716,4.123 22.685,4.065 22.655,4.007 22.603,3.965 22.541,3.946 Z M 10.894,5.086 10.112,3.136 C 10.037,2.949 10.107,2.735 10.277,2.629 l 1.83,-1.142 c 0.109,-0.066 0.24,-0.082 0.359,-0.039 0.119,0.042 0.213,0.136 0.254,0.256 l 0.713,2.064 C 13.498,3.956 13.421,4.163 13.25,4.263 L 11.489,5.292 C 11.425,5.33 11.353,5.349 11.28,5.349 11.235,5.349 11.189,5.342 11.145,5.327 11.03,5.285 10.939,5.198 10.894,5.086 Z m 2.048,9.137 c -0.045,0 -0.091,-0.008 -0.135,-0.023 -0.114,-0.039 -0.206,-0.126 -0.251,-0.238 L 11.003,10.088 C 10.928,9.901 10.998,9.688 11.168,9.582 L 14.802,7.313 C 14.91,7.247 15.041,7.231 15.161,7.274 15.28,7.316 15.374,7.41 15.415,7.53 l 1.417,4.1 c 0.065,0.188 -0.012,0.395 -0.183,0.495 l -3.497,2.043 c -0.065,0.036 -0.137,0.055 -0.21,0.055 z m 4.735,5.035 -1.761,1.029 c -0.064,0.038 -0.136,0.057 -0.209,0.057 -0.046,0 -0.091,-0.008 -0.135,-0.023 -0.114,-0.039 -0.206,-0.126 -0.251,-0.238 l -0.782,-1.951 c -0.075,-0.187 -0.005,-0.4 0.165,-0.507 l 1.829,-1.141 c 0.108,-0.067 0.24,-0.08 0.359,-0.039 0.119,0.042 0.213,0.136 0.254,0.256 l 0.713,2.064 c 0.066,0.186 -0.011,0.392 -0.182,0.493 z"
       id="path14"
       inkscape:connector-curvature="0" /></g></svg>