<?xml version="1.0" encoding="UTF-8" standalone="no"?>
<svg
   xmlns:i="http://ns.adobe.com/AdobeIllustrator/10.0/"
   xmlns:dc="http://purl.org/dc/elements/1.1/"
   xmlns:cc="http://creativecommons.org/ns#"
   xmlns:rdf="http://www.w3.org/1999/02/22-rdf-syntax-ns#"
   xmlns:svg="http://www.w3.org/2000/svg"
   xmlns="http://www.w3.org/2000/svg"
   xmlns:sodipodi="http://sodipodi.sourceforge.net/DTD/sodipodi-0.dtd"
   xmlns:inkscape="http://www.inkscape.org/namespaces/inkscape"
   height="94.912987"
   width="94.912987"
   version="1.1"
   x="0px"
   y="0px"
   viewBox="0 0 94.912986 94.912987"
   style="fill:#000000"
   xml:space="preserve"
   id="svg8"
   sodipodi:docname="hide.svg"
   inkscape:version="0.92.5 (2060ec1f9f, 2020-04-08)"><metadata
     id="metadata14"><rdf:RDF><cc:Work
         rdf:about=""><dc:format>image/svg+xml</dc:format><dc:type
           rdf:resource="http://purl.org/dc/dcmitype/StillImage" /><dc:title></dc:title></cc:Work></rdf:RDF></metadata><defs
     id="defs12" /><sodipodi:namedview
     pagecolor="#ffffff"
     bordercolor="#666666"
     borderopacity="1"
     objecttolerance="10"
     gridtolerance="10"
     guidetolerance="10"
     inkscape:pageopacity="0"
     inkscape:pageshadow="2"
     inkscape:window-width="760"
     inkscape:window-height="480"
     id="namedview10"
     showgrid="false"
     inkscape:zoom="2.36"
     inkscape:cx="47.45"
     inkscape:cy="40.3"
     inkscape:window-x="0"
     inkscape:window-y="0"
     inkscape:window-maximized="0"
     inkscape:current-layer="svg8" /><g
     id="g6"
     transform="translate(-2.55,-2.5560066)"><g
       i:extraneous="self"
       id="g4"><path
         d="M 96.8,47.9 C 95.9,46.8 75.7,21.7 50,21.7 c -6.4,0 -12.5,1.6 -18,4 L 17.3,11 C 15.6,9.3 12.7,9.3 11,11 9.3,12.7 9.3,15.6 11,17.3 L 23.7,30 c -12,7.4 -19.9,17.3 -20.4,17.9 -1,1.2 -1,2.9 0,4.2 0.8,1.1 21,26.2 46.7,26.2 6.4,0 12.5,-1.6 18,-4 L 82.7,89 c 0.9,0.9 2,1.3 3.2,1.3 1.1,0 2.3,-0.4 3.2,-1.3 1.7,-1.7 1.7,-4.6 0,-6.3 L 76.3,70 c 12,-7.4 19.9,-17.3 20.4,-17.9 1,-1.2 1,-3 0.1,-4.2 z M 50,70 C 38.9,70 30,61 30,50 c 0,-3.9 1.1,-7.5 3.1,-10.6 l 4.7,4.7 c -0.9,1.8 -1.4,3.8 -1.4,5.9 0,7.5 6.1,13.6 13.6,13.6 2.1,0 4.1,-0.5 5.9,-1.4 l 4.7,4.7 C 57.5,68.9 53.9,70 50,70 Z M 62.2,55.9 c 0.9,-1.8 1.4,-3.8 1.4,-5.9 0,-7.5 -6.1,-13.6 -13.6,-13.6 -2.1,0 -4.1,0.5 -5.9,1.4 l -4.7,-4.7 c 3.1,-2 6.7,-3.1 10.6,-3.1 11.1,0 20,9 20,20 0,3.9 -1.1,7.5 -3.1,10.6 z"
         id="path2"
         inkscape:connector-curvature="0" /></g></g></svg>