<?xml version="1.0" encoding="UTF-8" standalone="no"?>
<svg
   xmlns:dc="http://purl.org/dc/elements/1.1/"
   xmlns:cc="http://creativecommons.org/ns#"
   xmlns:rdf="http://www.w3.org/1999/02/22-rdf-syntax-ns#"
   xmlns:svg="http://www.w3.org/2000/svg"
   xmlns="http://www.w3.org/2000/svg"
   xmlns:sodipodi="http://sodipodi.sourceforge.net/DTD/sodipodi-0.dtd"
   xmlns:inkscape="http://www.inkscape.org/namespaces/inkscape"
   viewBox="0 0 56 56"
   x="0px"
   y="0px"
   version="1.1"
   id="svg24"
   sodipodi:docname="human studies.svg"
   width="56"
   height="56"
   inkscape:version="0.92.5 (2060ec1f9f, 2020-04-08)">
  <metadata
     id="metadata30">
    <rdf:RDF>
      <cc:Work
         rdf:about="">
        <dc:format>image/svg+xml</dc:format>
        <dc:type
           rdf:resource="http://purl.org/dc/dcmitype/StillImage" />
        <dc:title>History</dc:title>
      </cc:Work>
    </rdf:RDF>
  </metadata>
  <defs
     id="defs28" />
  <sodipodi:namedview
     pagecolor="#ffffff"
     bordercolor="#666666"
     borderopacity="1"
     objecttolerance="10"
     gridtolerance="10"
     guidetolerance="10"
     inkscape:pageopacity="0"
     inkscape:pageshadow="2"
     inkscape:window-width="760"
     inkscape:window-height="480"
     id="namedview26"
     showgrid="false"
     inkscape:zoom="2.95"
     inkscape:cx="28"
     inkscape:cy="13.998126"
     inkscape:window-x="0"
     inkscape:window-y="0"
     inkscape:window-maximized="0"
     inkscape:current-layer="svg24" />
  <title
     id="title2">History</title>
  <g
     id="g18"
     transform="translate(-4,-4.1390629)">
    <path
       d="M 59,47 H 39.24 a 9.3,9.3 0 0 0 -6.53,2.71 l -0.07,0.06 a 0.94,0.94 0 0 1 -0.45,0.21 L 32,50 a 0.62,0.62 0 0 1 -0.19,0 0.6,0.6 0 0 1 -0.19,-0.06 1.1,1.1 0 0 1 -0.26,-0.15 L 31.29,49.73 A 9.3,9.3 0 0 0 24.76,47 H 5 a 1,1 0 0 0 -1,1 v 1 a 1,1 0 0 0 1,1 h 14.78 a 16.46,16.46 0 0 1 10.34,3.34 3,3 0 0 0 3.75,0 A 16.51,16.51 0 0 1 44.22,50 H 59 a 1,1 0 0 0 1,-1 v -1 a 1,1 0 0 0 -1,-1 z"
       id="path4"
       inkscape:connector-curvature="0" />
    <path
       d="M 18.55,42.28 A 17.4,17.4 0 0 1 28.6,39 H 29 a 4,4 0 0 1 2,0.54 V 33 a 2,2 0 0 0 -2,-2 h -0.4 -0.74 a 15.53,15.53 0 0 0 -8.15,2.9 16.43,16.43 0 0 1 -7.54,3 L 12,37 h -0.2 v 0 l -5,8 h 5 a 14.41,14.41 0 0 0 6.75,-2.72 z"
       id="path6"
       inkscape:connector-curvature="0" />
    <path
       d="m 28.6,41 a 15.38,15.38 0 0 0 -8.89,2.92 C 19.13,44.32 18.57,44.68 18,45 h 6.76 q 0.4,0 0.81,0 v 0 a 7.46,7.46 0 0 1 0.81,0.1 10.74,10.74 0 0 1 1.61,0.36 c 0.24,0.07 0.47,0.15 0.7,0.24 a 11.25,11.25 0 0 1 1.57,0.74 c 0.21,0.11 0.41,0.24 0.61,0.37 l 0.1,0.06 V 43 a 2,2 0 0 0 -2,-2 z"
       id="path8"
       inkscape:connector-curvature="0" />
    <path
       d="m 35.4,39 a 17.4,17.4 0 0 1 10.05,3.28 14.41,14.41 0 0 0 6.77,2.72 h 5 L 52.17,37 H 52 a 16.16,16.16 0 0 1 -6,-2 v 4 a 1,1 0 0 1 -2,0 v -4.06 0 c -0.22,0 -0.45,-0.08 -0.67,-0.13 h -0.08 a 4.4,4.4 0 0 1 -0.62,-0.18 l -0.4,-0.15 -0.62,-0.29 v 0 c -0.2,-0.11 -0.4,-0.23 -0.59,-0.36 a 3.18,3.18 0 0 1 -0.37,-0.27 c 0,0 0,0 0,0 0,0 -0.23,-0.19 -0.34,-0.29 C 40.2,33.17 40,33 39.9,32.89 v 0 A 2.4,2.4 0 0 1 39.68,32.65 0.39,0.39 0 0 1 39.6,32.55 L 39.33,32.22 C 39.24,32.1 39.15,31.97 39.07,31.84 A 4.23,4.23 0 0 1 38.83,31.44 15.11,15.11 0 0 0 36.14,31 H 35.4 35 a 2,2 0 0 0 -2,2 v 6.54 A 4,4 0 0 1 35,39 Z"
       id="path10"
       inkscape:connector-curvature="0" />
    <path
       d="m 33.71,46.47 a 11.25,11.25 0 0 1 1.57,-0.74 c 0.23,-0.09 0.46,-0.17 0.7,-0.24 a 10.74,10.74 0 0 1 1.61,-0.36 7.46,7.46 0 0 1 0.81,-0.1 v 0 q 0.41,0 0.81,0 H 46 C 45.43,44.71 44.87,44.35 44.29,43.95 A 15.38,15.38 0 0 0 35.4,41 H 35 a 2,2 0 0 0 -2,2 v 3.9 l 0.1,-0.06 c 0.2,-0.13 0.4,-0.26 0.61,-0.37 z"
       id="path12"
       inkscape:connector-curvature="0" />
    <path
       d="m 40.4,30.14 a 4.3,4.3 0 0 0 0.47,0.8 l 0.23,0.3 a 4.61,4.61 0 0 0 0.63,0.62 L 42,32 a 2.25,2.25 0 0 0 0.36,0.24 3.9,3.9 0 0 0 0.35,0.19 4.41,4.41 0 0 0 0.54,0.24 4.91,4.91 0 0 0 0.51,0.15 l 0.27,0.06 v 0 V 17 a 1,1 0 0 1 2,0 v 15.91 0 a 4.78,4.78 0 0 0 4,-4.55 v -4.75 l -1.35,0.67 a 1,1 0 0 1 -0.44,0.1 1,1 0 0 1 -0.45,-1.9 L 50,21.38 V 20.76 A 13.09,13.09 0 0 0 48.53,14.7 14,14 0 0 0 45,10.28 13.64,13.64 0 0 0 40,20.76 v 3.58 l 2.6,1.12 a 1,1 0 0 1 0.53,1.31 1,1 0 0 1 -0.92,0.61 1.14,1.14 0 0 1 -0.4,-0.08 L 40,26.52 v 1.83 a 4.1,4.1 0 0 0 0.3,1.54 c 0.03,0.11 0.07,0.17 0.1,0.25 z"
       id="path14"
       inkscape:connector-curvature="0" />
    <path
       d="M 45.91,34.94 46,35 v -0.07 z"
       id="path16"
       inkscape:connector-curvature="0" />
  </g>
</svg>
