<?xml version="1.0" encoding="UTF-8" standalone="no"?>
<svg
   xmlns:dc="http://purl.org/dc/elements/1.1/"
   xmlns:cc="http://creativecommons.org/ns#"
   xmlns:rdf="http://www.w3.org/1999/02/22-rdf-syntax-ns#"
   xmlns:svg="http://www.w3.org/2000/svg"
   xmlns="http://www.w3.org/2000/svg"
   xmlns:sodipodi="http://sodipodi.sourceforge.net/DTD/sodipodi-0.dtd"
   xmlns:inkscape="http://www.inkscape.org/namespaces/inkscape"
   version="1.1"
   x="0px"
   y="0px"
   viewBox="9.142 0.25 100 100"
   enable-background="new 9.142 0.25 96.947 100"
   xml:space="preserve"
   id="svg14"
   sodipodi:docname="infiltrate.svg"
   width="100"
   height="100"
   inkscape:version="0.92.5 (2060ec1f9f, 2020-04-08)"><metadata
     id="metadata20"><rdf:RDF><cc:Work
         rdf:about=""><dc:format>image/svg+xml</dc:format><dc:type
           rdf:resource="http://purl.org/dc/dcmitype/StillImage" /><dc:title></dc:title></cc:Work></rdf:RDF></metadata><defs
     id="defs18" /><sodipodi:namedview
     pagecolor="#ffffff"
     bordercolor="#666666"
     borderopacity="1"
     objecttolerance="10"
     gridtolerance="10"
     guidetolerance="10"
     inkscape:pageopacity="0"
     inkscape:pageshadow="2"
     inkscape:window-width="760"
     inkscape:window-height="480"
     id="namedview16"
     showgrid="false"
     inkscape:zoom="1.888"
     inkscape:cx="48.473499"
     inkscape:cy="37.5"
     inkscape:window-x="0"
     inkscape:window-y="0"
     inkscape:window-maximized="0"
     inkscape:current-layer="svg14" /><path
     d="m 49.172845,60.65 c -19.095,0 -34.935,-4.411 -37.971,-10.204 3.04,22.626 18.9,49.804 38.021,49.804 19.2,0 35.116,-27.406 38.061,-50.083 -2.662,5.927 -18.707,10.483 -38.111,10.483 z"
     id="path2"
     inkscape:connector-curvature="0" /><path
     d="m 102.31284,19.487 c -4.563995,2.482 -14.293995,-4.7 -19.785995,-5.778 0.531,-0.2 1.037,-0.38 1.486,-0.514 4.641,-1.382 17.788995,4.609 22.171995,5.837 4.385,1.228 -2.321,-18.74 -6.572995,-14.287 -4.253,4.455 -17.788,-0.614 -22.171,1.844 -1.24,0.694 -2.391,2.074 -3.413,3.682 -6.704,-6.25 -15.355,-10.021 -24.804,-10.021 -21.293,0 -38.555,19.12 -38.555,42.704 0,1.394 0.064,2.828 0.182,4.284 1.876,-6.197 18.315,-8.125 38.322,-8.125 20.344,0 36.992,2.091 38.4,8.439 0.133,-1.566 0.204,-3.103 0.204,-4.598 0,-7.528 -1.766,-14.599 -4.853,-20.741 0.89,-0.037 1.715,-0.046 2.409,-0.006 4.777,0.273 15.915995,10.533 19.811995,13.217 3.899,2.687 2.32,-18.737 -2.832,-15.937 z"
     id="path4"
     inkscape:connector-curvature="0" /><path
     d="m 46.633845,52.502 -22.511,-8.253 -1.691,4.616 9.014,1.355 c -0.622,0.564 -1.02,1.375 -1.02,2.282 0,1.71 1.387,3.097 3.097,3.097 1.711,0 3.098,-1.387 3.098,-3.097 0,-0.576 -0.168,-1.109 -0.441,-1.572 z"
     id="path6"
     inkscape:connector-curvature="0" /><path
     d="m 67.002845,50.22 9.014,-1.355 -1.691,-4.617 -22.512,8.254 10.456,-1.57 c -0.275,0.463 -0.441,0.995 -0.441,1.57 0,1.71 1.387,3.098 3.097,3.098 1.71,0 3.1,-1.388 3.1,-3.098 -0.005,-0.907 -0.4,-1.718 -1.023,-2.282 z"
     id="path8"
     inkscape:connector-curvature="0" /></svg>