<?xml version="1.0" encoding="UTF-8" standalone="no"?>
<svg
   xmlns:dc="http://purl.org/dc/elements/1.1/"
   xmlns:cc="http://creativecommons.org/ns#"
   xmlns:rdf="http://www.w3.org/1999/02/22-rdf-syntax-ns#"
   xmlns:svg="http://www.w3.org/2000/svg"
   xmlns="http://www.w3.org/2000/svg"
   xmlns:sodipodi="http://sodipodi.sourceforge.net/DTD/sodipodi-0.dtd"
   xmlns:inkscape="http://www.inkscape.org/namespaces/inkscape"
   version="1.1"
   x="0px"
   y="0px"
   viewBox="0 0 95.288681 95.288681"
   xml:space="preserve"
   id="svg16"
   sodipodi:docname="leadership.svg"
   width="95.288681"
   height="95.288681"
   inkscape:version="0.92.5 (2060ec1f9f, 2020-04-08)"><metadata
     id="metadata22"><rdf:RDF><cc:Work
         rdf:about=""><dc:format>image/svg+xml</dc:format><dc:type
           rdf:resource="http://purl.org/dc/dcmitype/StillImage" /><dc:title></dc:title></cc:Work></rdf:RDF></metadata><defs
     id="defs20" /><sodipodi:namedview
     pagecolor="#ffffff"
     bordercolor="#666666"
     borderopacity="1"
     objecttolerance="10"
     gridtolerance="10"
     guidetolerance="10"
     inkscape:pageopacity="0"
     inkscape:pageshadow="2"
     inkscape:window-width="760"
     inkscape:window-height="480"
     id="namedview18"
     showgrid="false"
     inkscape:zoom="1.888"
     inkscape:cx="41.8"
     inkscape:cy="35.3"
     inkscape:window-x="0"
     inkscape:window-y="0"
     inkscape:window-maximized="0"
     inkscape:current-layer="svg16" /><path
     d="m 5.7943405,83.088681 v 12.2 H 59.894341 v -12.2 c 0,-7.4 -5.7,-13.1 -13.1,-13.1 h -27.8 c -7.1,0 -13.2000005,5.8 -13.2000005,13.1 z"
     id="path2"
     inkscape:connector-curvature="0" /><path
     d="m 32.794341,64.588681 c 8.3,0 15.1,-6.8 15.1,-15.1 0,-8.3 -6.8,-15.1 -15.1,-15.1 -8.3,0 -15.1,6.8 -15.1,15.1 0.1,8.3 6.8,15.1 15.1,15.1 z"
     id="path4"
     inkscape:connector-curvature="0" /><path
     d="m 68.194341,66.788681 c 6.6,0 11.8,-5.4 11.8,-11.8 0,-6.4 -5.4,-11.9 -11.8,-11.9 -6.6,0 -11.8,5.4 -11.8,11.8 0,6.4 5.2,11.9 11.8,11.9 z"
     id="path6"
     inkscape:connector-curvature="0" /><path
     d="m 79.094341,71.088681 h -20.4 c 3.4,2.9 5.5,7.3 5.5,12.1 l 0.5,12.1 h 24.8 v -13.9 c 0,-5.7 -4.6,-10.3 -10.4,-10.3 z"
     id="path8"
     inkscape:connector-curvature="0" /><path
     d="m 81.594341,13.188681 c -2.5,-9.4000007 -12.1,-15.1000007 -21.6,-12.60000077 -9.4,2.50000007 -15.1,12.20000077 -12.6,21.60000077 1.2,4.5 4,8.1 7.6,10.4 l -4.6,7.1 18.7,-4.9 c 9.4,-2.5 15,-12.1 12.5,-21.6 z m -9.5,2.8 -5.9,6.1 -4.6,-3.1 -5,5.9 -2.5,-2.2 7.1,-8.1 4.7,3.1 3.5,-3.6 -2.8,-1.6 7.8,-2.7000007 0.5,7.9000007 z"
     id="path10"
     inkscape:connector-curvature="0" /></svg>