<?xml version="1.0" encoding="UTF-8" standalone="no"?>
<svg
   xmlns:dc="http://purl.org/dc/elements/1.1/"
   xmlns:cc="http://creativecommons.org/ns#"
   xmlns:rdf="http://www.w3.org/1999/02/22-rdf-syntax-ns#"
   xmlns:svg="http://www.w3.org/2000/svg"
   xmlns="http://www.w3.org/2000/svg"
   xmlns:sodipodi="http://sodipodi.sourceforge.net/DTD/sodipodi-0.dtd"
   xmlns:inkscape="http://www.inkscape.org/namespaces/inkscape"
   version="1.0"
   x="0px"
   y="0px"
   viewBox="0 0 32.07513 32.07513"
   enable-background="new 0 0 32 32"
   xml:space="preserve"
   id="svg8"
   sodipodi:docname="maintenance.svg"
   width="32.07513"
   height="32.07513"
   inkscape:version="0.92.5 (2060ec1f9f, 2020-04-08)"><metadata
     id="metadata14"><rdf:RDF><cc:Work
         rdf:about=""><dc:format>image/svg+xml</dc:format><dc:type
           rdf:resource="http://purl.org/dc/dcmitype/StillImage" /><dc:title></dc:title></cc:Work></rdf:RDF></metadata><defs
     id="defs12" /><sodipodi:namedview
     pagecolor="#ffffff"
     bordercolor="#666666"
     borderopacity="1"
     objecttolerance="10"
     gridtolerance="10"
     guidetolerance="10"
     inkscape:pageopacity="0"
     inkscape:pageshadow="2"
     inkscape:window-width="1920"
     inkscape:window-height="1043"
     id="namedview10"
     showgrid="false"
     inkscape:zoom="5.9"
     inkscape:cx="-2.5093134"
     inkscape:cy="11.174292"
     inkscape:window-x="0"
     inkscape:window-y="0"
     inkscape:window-maximized="1"
     inkscape:current-layer="svg8" /><path
     d="m 21.713009,15.812379 -15.4800003,15.677 c -0.779,0.781 -2.044,0.781 -2.825,0 l -2.82600005,-2.826 c -0.78,-0.78 -0.774,-2.045 0.006,-2.826 L 16.231009,9.9993786 c -0.145,-0.605 -0.211,-1.229 -0.211,-1.877 0,-4.423 4.03,-8.006 8.03,-8.022 v 3.993 c -2,0 -4.032,1.782 -4.032,3.987 0,2.2090004 1.753,3.9900004 3.958,3.9900004 2.21,0 3.997,-2.018 3.997,-4.0180004 h 4.077 c 0,0 0,0.057 0,0.069 0,4.4350004 -3.602,8.0260004 -8.033,8.0260004 -0.799,10e-4 -1.574,-0.12 -2.304,-0.335 z m 9.191,9.435 c -0.027,-0.031 -0.062,-0.047 -0.09,-0.074 l -6.921,-6.944 -5.652,5.652 7.007,7.022 c 1.562,1.562 4.095,1.562 5.656,0 1.561,-1.562 1.562,-4.094 0,-5.656 z m -20.9660003,-12.484 2.8280003,-2.8270004 -8.0240003,-8.025 -3.687,-1.858 -1.00000005,1 1.85800005,3.689 z"
     id="path2"
     inkscape:connector-curvature="0" /></svg>