<?xml version="1.0" encoding="UTF-8" standalone="no"?>
<svg
   xmlns:dc="http://purl.org/dc/elements/1.1/"
   xmlns:cc="http://creativecommons.org/ns#"
   xmlns:rdf="http://www.w3.org/1999/02/22-rdf-syntax-ns#"
   xmlns:svg="http://www.w3.org/2000/svg"
   xmlns="http://www.w3.org/2000/svg"
   xmlns:sodipodi="http://sodipodi.sourceforge.net/DTD/sodipodi-0.dtd"
   xmlns:inkscape="http://www.inkscape.org/namespaces/inkscape"
   viewBox="0 0 477.88617 477.88617"
   x="0px"
   y="0px"
   version="1.1"
   id="svg16"
   sodipodi:docname="natural science.svg"
   width="477.88617"
   height="477.88617"
   inkscape:version="0.92.5 (2060ec1f9f, 2020-04-08)">
  <metadata
     id="metadata22">
    <rdf:RDF>
      <cc:Work
         rdf:about="">
        <dc:format>image/svg+xml</dc:format>
        <dc:type
           rdf:resource="http://purl.org/dc/dcmitype/StillImage" />
        <dc:title>Glyph Faculty natural sciences</dc:title>
      </cc:Work>
    </rdf:RDF>
  </metadata>
  <defs
     id="defs20" />
  <sodipodi:namedview
     pagecolor="#ffffff"
     bordercolor="#666666"
     borderopacity="1"
     objecttolerance="10"
     gridtolerance="10"
     guidetolerance="10"
     inkscape:pageopacity="0"
     inkscape:pageshadow="2"
     inkscape:window-width="758"
     inkscape:window-height="480"
     id="namedview18"
     showgrid="false"
     inkscape:zoom="0.26074563"
     inkscape:cx="222.24009"
     inkscape:cy="450.31541"
     inkscape:window-x="0"
     inkscape:window-y="0"
     inkscape:window-maximized="0"
     inkscape:current-layer="svg16" />
  <title
     id="title2">Glyph Faculty natural sciences</title>
  <path
     d="m 459.19,237.75168 -27.12,28.39 a 11.005862,11.005862 0 0 0 15.94,15.18 l 27.06,-28.39 a 11,11 0 0 0 -15.91,-15.18 z"
     id="path4"
     inkscape:connector-curvature="0" />
  <path
     d="m 402.07,377.76168 c -6.83,0.7 -9.44,0.94 -10.52,1 a 7.5,7.5 0 0 1 -8.07,-6.24 7.34,7.34 0 0 1 7,-8.37 c 0.91,-0.06 5.17,-0.48 10.3,-1 a 2.66,2.66 0 0 0 2.36,-3 c -3.48,-21.46 -12.74,-45.34 -35,-60.62 a 9.31,9.31 0 0 0 -11.83,1.22 l -0.61,0.61 a 20.22,20.22 0 0 0 -1.63,26.78 c 11.17,13.95 17.62,32.88 14.26,57.24 -1.93,14 -10,27.38 -22.59,37.7 a 56,56 0 0 1 -35.26,12.64 52.86,52.86 0 0 1 -12.3,-1.4 c -13.64,-3.25 -23.59,-11.34 -28.77,-23.4 -5.33,-12.42 -3.88,-26.54 3.78,-36.85 4.6,-6.2 13.34,-13.74 28.84,-14.44 a 21.91,21.91 0 0 1 12.89,3.33 c 5.95,3.82 9.43,10.24 9.79,18.06 a 7.33,7.33 0 0 1 -14.64,0.68 c -0.19,-4.11 -1.84,-5.63 -3.07,-6.42 a 7.35,7.35 0 0 0 -4.31,-1 c -7.94,0.36 -13.74,3.15 -17.74,8.53 -4.56,6.14 -5.35,14.7 -2.07,22.34 3.37,7.85 9.49,12.73 18.7,14.93 a 40.66,40.66 0 0 0 34.85,-8.31 c 9.62,-7.85 15.95,-18.19 17.35,-28.35 4.42,-32.15 -11.67,-52.48 -32.11,-62.95 a 42.84,42.84 0 0 0 -19.53,-4.61 h -0.07 a 80,80 0 0 0 -13.22,1.09 3.54,3.54 0 0 0 -2.93,4 l 1.37,9.12 a 7.3,7.3 0 0 1 -7.22,8.62 7.33,7.33 0 0 1 -7.24,-6.23 l -0.88,-5.88 a 3.53,3.53 0 0 0 -5,-2.67 80.42,80.42 0 0 0 -38.34,105 3.74,3.74 0 0 0 5.35,1.66 l 6,-3.63 a 7.53,7.53 0 0 1 9.93,1.73 7.31,7.31 0 0 1 -2.13,10.65 l -5.88,3.56 a 3.73,3.73 0 0 0 -0.92,5.62 c 12.11,14 28.95,23.15 48.08,27.48 a 80.71,80.71 0 0 0 26.44,1.4 139.31,139.31 0 0 0 21.38,-4 4.06,4.06 0 0 0 2.35,-6.06 l -3.33,-5.35 a 7.54,7.54 0 0 1 1.6,-9.95 7.33,7.33 0 0 1 10.68,1.94 l 5.5,8.84 a 4.08,4.08 0 0 0 5.5,1.39 89.62,89.62 0 0 0 22.91,-18.79 c 15.57,-17.74 23.44,-40.94 22.89,-64.53 v -0.55 a 2.64,2.64 0 0 0 -2.89,-2.56 z"
     id="path6"
     inkscape:connector-curvature="0" />
  <path
     d="m 289.07,165.32168 q -1,-10.57 -3,-21.95 a 6.54,6.54 0 0 0 -11.41,-3.13 c -10.51,12.26 -27.55,28.31 -48.41,44.14 q -3.51,2.67 -7.14,5.17 c -11.29,7.74 -66.95,49.71 -63.3,122.58 0.09,1.74 0.16,3.47 0.23,5.21 a 3.53,3.53 0 0 0 6.47,1.81 c 7.21,-10.87 15.33,-22.38 22.42,-31.92 a 449.12,449.12 0 0 1 31.85,-37.84 136.8,136.8 0 0 0 20.35,-28.32 7.44,7.44 0 0 1 8.45,-3.83 7.34,7.34 0 0 1 4.57,10.55 151.6,151.6 0 0 1 -22.58,31.53 434.19,434.19 0 0 0 -30.83,36.61 c -13.19,17.74 -30.88,43.76 -37.69,57 a 7.32,7.32 0 0 1 -13.8,-4.07 c -0.17,-0.94 -0.25,-1.55 -0.25,-1.55 -3.35,-43.89 -24.27,-126.26 -132.22,-145.62 A 10.89,10.89 0 0 0 0,212.41168 c 0,32.94 9.73,121.37 109.28,154.13 a 4.79,4.79 0 0 0 5.59,-7 511.09,511.09 0 0 0 -59.1,-80.22 7.53,7.53 0 0 1 -0.2,-10 7.33,7.33 0 0 1 10.86,0 c 18.33,20.33 52.73,62 77.23,113.08 v 0 a 13.84,13.84 0 0 1 1.33,6.8 c 0,0.39 0,0.79 0,1.3 0,0.51 0,0.76 0,0.76 v 74.55 a 9.34,9.34 0 1 0 18.68,0 v -76.21 -0.26 a 62.92,62.92 0 0 1 29.47,-44.53 c 9.49,-5.8 19.93,-11.89 30.24,-17.33 a 78.32,78.32 0 0 0 14.69,-10.06 c 17.43,-15.06 50.79,-53 52.12,-123.58 a 194.47,194.47 0 0 0 -1.12,-28.52 z"
     id="path8"
     inkscape:connector-curvature="0" />
  <path
     d="m 451.49,317.00167 c -25.29,-10 -39,-34.46 -46.34,-59.18 l 25.69,-27.17 a 11.24,11.24 0 0 0 0.8,-14.75 11,11 0 0 0 -16.52,-0.62 l -15.7,16.61 a 242.56,242.56 0 0 1 -2.78,-37.8 c 0.07,-6.43 -0.23,-12.81 -0.51,-19 l -0.12,-2.53 q -1.32,-29.64 -10.29,-52.61 v 0 c -7.37,-18.94 -18.58,-34.41999 -33.6,-46.23999 -37.12,-29.22 -85.93,-26.9 -104.36,-24.72 0,-0.3 0,-0.61 0,-0.9 a 189.15,189.15 0 0 0 -1.38,-31.520001 11.003318,11.003318 0 1 0 -21.82,2.860001 164.52,164.52 0 0 1 1.22,28 c 0,1.33 -0.09,2.7 -0.16,4.1 -11.08,1 -21.23,1.48 -30.58,1.6 l 10.39,-15.48 a 11.25,11.25 0 0 0 -1.66,-14.69 11,11 0 0 0 -16.39,2.14 l -18.31,27.32 a 178.85,178.85 0 0 1 -33,-5.41 l 9.64,-13.6 c 3.48,-4.91 2.74,-11.87 -2.07,-15.5 a 11,11 0 0 0 -15.57,2.41 l -13.22,18.56 a 66.14,66.14 0 0 1 -12.09,-8.1 42.67,42.67 0 0 1 -12.24,-16.540001 11.3,11.3 0 0 0 -10.64,-7.2200008 11,11 0 0 0 -10,14.8900018 63.5,63.5 0 0 0 17.55,24.66 c 28.84,25.62 81.44,34.11 156.31,25.21 0.27,0 0.54,-0.07 0.8,-0.12 a 139.25,139.25 0 0 1 22.78,-1.83 l -21.86,25.12 a 11,11 0 0 0 -11.39,-5.08 11.27,11.27 0 0 0 -8.86,12.70999 132.86,132.86 0 0 0 9.92,35.66 11,11 0 0 0 10,6.54 11,11 0 0 0 9.92,-15.73 c -1.15,-2.62 -2.19,-5.34 -3.13,-8.13 l 42.44,-48.78999 a 107.11,107.11 0 0 1 32.17,11 l -27.23,33.73999 a 11.26,11.26 0 0 0 1.05,15.49 11,11 0 0 0 15.79,-1.37 L 344.3,96.11168 a 85.17,85.17 0 0 1 18.5,26.20999 l -10.73,13.19 a 11.26,11.26 0 0 0 1,15.52 11,11 0 0 0 15.77,-1.29 l 2.06,-2.53 a 164.64,164.64 0 0 1 3.17,26.36 l 0.12,2.56 c 0.12,2.61 0.23,5.15 0.32,7.66 a 238.39,238.39 0 0 1 -33.65,0.13 l 2.73,-3.33 a 11.24,11.24 0 0 0 -0.26,-14.77 11,11 0 0 0 -16.52,0.57 l -11,13.41 -0.58,-0.16 a 11.26,11.26 0 0 0 -14.07,10 v 0 a 11.24,11.24 0 0 0 8.66,11.91 219.6,219.6 0 0 0 45.68,4.94 c 6.14,0 12.6,-0.23 19.32,-0.67 1.35,35.59 11.25,109.13 68.79,131.7 a 11,11 0 0 0 14.61,-7.28 11.15,11.15 0 0 0 -6.73,-13.24 z"
     id="path10"
     inkscape:connector-curvature="0" />
</svg>
