<?xml version="1.0" encoding="UTF-8" standalone="no"?>
<svg
   xmlns:dc="http://purl.org/dc/elements/1.1/"
   xmlns:cc="http://creativecommons.org/ns#"
   xmlns:rdf="http://www.w3.org/1999/02/22-rdf-syntax-ns#"
   xmlns:svg="http://www.w3.org/2000/svg"
   xmlns="http://www.w3.org/2000/svg"
   xmlns:sodipodi="http://sodipodi.sourceforge.net/DTD/sodipodi-0.dtd"
   xmlns:inkscape="http://www.inkscape.org/namespaces/inkscape"
   version="1.1"
   x="0px"
   y="0px"
   viewBox="0 0 90.107803 90.107804"
   xml:space="preserve"
   id="svg20"
   sodipodi:docname="negotiate.svg"
   width="90.107803"
   height="90.107803"
   inkscape:version="0.92.5 (2060ec1f9f, 2020-04-08)"><metadata
     id="metadata26"><rdf:RDF><cc:Work
         rdf:about=""><dc:format>image/svg+xml</dc:format><dc:type
           rdf:resource="http://purl.org/dc/dcmitype/StillImage" /><dc:title></dc:title></cc:Work></rdf:RDF></metadata><defs
     id="defs24" /><sodipodi:namedview
     pagecolor="#ffffff"
     bordercolor="#666666"
     borderopacity="1"
     objecttolerance="10"
     gridtolerance="10"
     guidetolerance="10"
     inkscape:pageopacity="0"
     inkscape:pageshadow="2"
     inkscape:window-width="760"
     inkscape:window-height="480"
     id="namedview22"
     showgrid="false"
     inkscape:zoom="1.888"
     inkscape:cx="45.077153"
     inkscape:cy="28.147231"
     inkscape:window-x="0"
     inkscape:window-y="0"
     inkscape:window-maximized="0"
     inkscape:current-layer="svg20" /><style
     type="text/css"
     id="style2">
	.st0{fill:#010202;}
	.st1{fill:#020304;}
</style><path
     class="st0"
     d="m 40.677153,4.2802867 h 9.5 c 1.4,0 2.4,1.2999999 2.2,2.5999997 l -6.2,45.4999986 -7.6,-45.3999986 c -0.4,-1.2999998 0.7,-2.6999997 2.1,-2.6999997 z"
     id="path4"
     inkscape:connector-curvature="0"
     style="fill:#010202" /><path
     class="st1"
     d="m 47.177153,73.580285 c 1.4,2.7 0.3,4.6 0.2,5.5 0,0.6 0.4,0.9 1.5,2.1 0.9,0.9 2.7,0.1 3.9,-0.7 0.8,-0.4 1,-2.1 0.9,-2.9 -0.1,-0.8 -0.1,-0.8 -1.5,-2.2 -0.8,-1.4 -0.2,-2 0.5,-1.9 1.7,0.5 2.7,2.6 3.8,3.3 1.4,0.4 4.5,0.3 4.8,-0.4 0.3,-0.7 0.7,-1.7 0.1,-2.7 -0.6,-1.1 -5.8,-7.1 -6.2,-8.4 -0.3,-1.3 0,-2 1,-1.9 1,0.1 5.1,6.7 6.4,8.1 1.3,1.4 1.7,2 2.9,2.4 1.2,0.2 2.9,-1.4 3.8,-2.5 0.9,-1.4 -0.3,-3.6 -0.7,-4.1 -0.8,-1.4 -5.6,-6.8 -6,-7.6 -1,-1.6 0.1,-2.5 0.8,-2.4 1,-0.1 5.4,6.2 6.5,7.6 1.3,1.4 2,2.3 3.2,2.4 1.2,0.4 2.7,-1.2 3.4,-2.8 0.7,-1.7 -2.1,-6.8 -3.2,-8.2 -1.1,-1.4 -5.6,-7.3 -7.3,-9 -3.6,-3.5 -9.8,-9.3 -11.6,-10.8 -0.8,-0.6 -2.1,-1.2 -3.2,-1.3 l -5,37.7 c 0.5,0 0.7,0.3 1,0.7 z"
     id="path6"
     inkscape:connector-curvature="0"
     style="fill:#020304" /><path
     class="st1"
     d="m 89.577153,43.780285 c -1.7,-4.5 -2.7,-7.6 -4.6,-10.4 -1.9,-2.8 -4.4,-4.4 -5,-3.9 -0.6,0.4 -7.3,2 -9,1.6 -1.7,-0.2 -10.4,-4.9 -11.6,-5.6 -1.4,-0.4 -4,-0.3 -4.7,-0.4 -0.2,0 -0.9,0.1 -1.9,0.3 l -1,7.3 c 1.6,-0.7 4,0 8,3.3 4.3,3.3 9.4,8.5 13.8,13.4 1.1,1.2 5.5,2 8.8,1.7 -2.8,1.9 -5.8,2.2 -4.5,3.4 3.5,4 2.9,6.4 3.2,6 1.2,-1.1 7,-3.3 7.8,-3.7 0.8,-0.4 1.9,-9 0.7,-13 z"
     id="path8"
     inkscape:connector-curvature="0"
     style="fill:#020304" /><path
     class="st1"
     d="m 38.377153,36.280285 c -0.8,1.1 -2.6,5.7 -4.5,8.3 -1.9,2.3 -5.4,3.9 -8.2,2.6 -2.8,-1.6 -3.7,-4.4 -3,-5.8 1.9,-3.6 2,-6.6 2.2,-8.4 0.5,-1.8 1.7,-3.8 2.3,-4.7 0.8,-1.1 5.1,-2.8 5.4,-3.9 0.4,-0.6 -2.2,-0.9 -4.4,-0.8 -2,0.3 -5,3.3 -5.7,3.9 -3,3 -6,3.7 -7.6,4.3 -1.7,0.3 -3.6,-0.2 -6.5000003,-1 -2.9,-0.5 -6.2,7 -7.6,13.6 -1.5,6.5 -0.7,14.5 1.3,14.4 1.9,1 5.5,1.4 8.0000003,2.5 0.8,0.4 3.3,1.7 3.3,1.7 0,0 2.8,-1.5 5.8,-1.4 3.5,-0.1 4.9,5.5 5.4,3.7 0.8,-2.7 4,-4.7 6.9,-4.4 5.1,0.4 3.6,5.2 4.6,5.3 1,0.1 3.7,-3.4 7,-1.6 4.2,2.4 0.8,6.4 1.7,7.5 0.5,0.6 0.8,0.5 1.5,0.8 l -6.1,-37.5 c -0.6,0 -1.4,0.3 -1.8,0.9 z"
     id="path10"
     inkscape:connector-curvature="0"
     style="fill:#020304" /><path
     class="st1"
     d="m 30.277153,31.280285 c -1.3,1.5 -1.5,6.5 -1.6,7.1 0.1,0.5 -2.3,4.7 -2.3,4.7 0,0 0.1,0.7 1.7,1.2 1.9,0.7 2.8,0.3 3.9,-0.6 2.6,-2.4 2.7,-5 3.8,-6.4 1,-1.9 -0.4,-7.2 -0.4,-7.2 1.5,-0.2 2.8,4.8 4.3,3.3 0.1,-0.1 0.2,-0.2 0.3,-0.3 l -1.2,-7.3 c -2.7,1.4 -7.7,4.4 -8.5,5.5 z"
     id="path12"
     inkscape:connector-curvature="0"
     style="fill:#020304" /><path
     class="st1"
     d="m 15.177153,75.280285 c 4,2.6 5.1,-2.8 6.1,-2.5 1.1,0.6 -3.4,4.1 1.6,6.8 4.2,2.4 6.2,-2 6.5,-1.8 0.2,0 -1.5,3 1.2,4.6 3.6,1.9 4.8,-1.5 5.4,-1.1 0.3,0.5 -1.4,2.5 1.2,4.1 2.2,1.4 5.2,-0.8 6.4,-2.3 1.5,-1.5 2.2,-2.1 2.5,-3.4 0.3,-1.1 -0.1,-3.8 -1.5,-4.5 -1.4,-0.8 -2.5,0.4 -3.6,1.1 -0.9,0.9 1.2,-2 1.6,-4 0.4,-2.1 -0.1,-3.8 -2,-4.7 -1.9,-0.7 -5.2,0.8 -6.5,3.6 -0.8,1.4 -1.7,0.3 -1.4,-0.8 0.9,-2.2 -0.2,-4.5 -3.3,-5 -3.1,-0.5 -4.3,1.4 -5.5,4.7 -0.7,1.9 -1.4,0.7 -1.3,-0.3 0.1,-2.3 -1.4,-4.3 -3.3,-4.8 -3.2,-1 -5.1,1.1 -6.4,2.8 -1.5,2.6 -0.8,5.5 2.3,7.5 z"
     id="path14"
     inkscape:connector-curvature="0"
     style="fill:#020304" /></svg>