<?xml version="1.0" encoding="UTF-8" standalone="no"?>
<svg
   xmlns:dc="http://purl.org/dc/elements/1.1/"
   xmlns:cc="http://creativecommons.org/ns#"
   xmlns:rdf="http://www.w3.org/1999/02/22-rdf-syntax-ns#"
   xmlns:svg="http://www.w3.org/2000/svg"
   xmlns="http://www.w3.org/2000/svg"
   xmlns:sodipodi="http://sodipodi.sourceforge.net/DTD/sodipodi-0.dtd"
   xmlns:inkscape="http://www.inkscape.org/namespaces/inkscape"
   version="1.1"
   x="0px"
   y="0px"
   viewBox="0 0 100 100"
   enable-background="new 0 0 100 100"
   xml:space="preserve"
   id="svg10"
   sodipodi:docname="perception.svg"
   width="100"
   height="100"
   inkscape:version="0.92.5 (2060ec1f9f, 2020-04-08)"><metadata
     id="metadata16"><rdf:RDF><cc:Work
         rdf:about=""><dc:format>image/svg+xml</dc:format><dc:type
           rdf:resource="http://purl.org/dc/dcmitype/StillImage" /><dc:title></dc:title></cc:Work></rdf:RDF></metadata><defs
     id="defs14" /><sodipodi:namedview
     pagecolor="#ffffff"
     bordercolor="#666666"
     borderopacity="1"
     objecttolerance="10"
     gridtolerance="10"
     guidetolerance="10"
     inkscape:pageopacity="0"
     inkscape:pageshadow="2"
     inkscape:window-width="760"
     inkscape:window-height="480"
     id="namedview12"
     showgrid="false"
     inkscape:zoom="1.888"
     inkscape:cx="50"
     inkscape:cy="62.5"
     inkscape:window-x="0"
     inkscape:window-y="0"
     inkscape:window-maximized="0"
     inkscape:current-layer="svg10" /><path
     d="M 0,49.999 C 0,46.875 15.625,25 50,25 84.375,25 100,46.875 100,50 100,53.125 84.375,75 50,75 15.625,75 0,53.124 0,49.999 Z M 50,29.626 c -11.251,0 -20.372,9.121 -20.372,20.373 0,11.251 9.121,20.373 20.372,20.373 11.252,0 20.373,-9.121 20.373,-20.373 C 70.373,38.748 61.252,29.626 50,29.626 Z"
     id="path2"
     inkscape:connector-curvature="0"
     style="fill:#000000" /><path
     d="m 61.498,50 c 0,6.349 -5.148,11.498 -11.499,11.498 -6.351,0 -11.498,-5.148 -11.498,-11.498 0,-6.351 5.148,-11.498 11.498,-11.498 6.35,0 11.499,5.147 11.499,11.498 z M 46.392,42.658 c -1.522,0 -2.757,1.234 -2.757,2.757 0,1.523 1.235,2.758 2.757,2.758 1.523,0 2.758,-1.234 2.758,-2.758 -10e-4,-1.523 -1.235,-2.757 -2.758,-2.757 z"
     id="path4"
     inkscape:connector-curvature="0"
     style="fill:#000000" /></svg>