<?xml version="1.0" encoding="UTF-8" standalone="no"?>
<svg
   xmlns:dc="http://purl.org/dc/elements/1.1/"
   xmlns:cc="http://creativecommons.org/ns#"
   xmlns:rdf="http://www.w3.org/1999/02/22-rdf-syntax-ns#"
   xmlns:svg="http://www.w3.org/2000/svg"
   xmlns="http://www.w3.org/2000/svg"
   xmlns:sodipodi="http://sodipodi.sourceforge.net/DTD/sodipodi-0.dtd"
   xmlns:inkscape="http://www.inkscape.org/namespaces/inkscape"
   version="1.1"
   x="0px"
   y="0px"
   viewBox="9.724 0 99.999997 100"
   enable-background="new 9.724 0 80.551 100"
   xml:space="preserve"
   id="svg110"
   sodipodi:docname="pickpocket.svg"
   width="100"
   height="100"
   inkscape:version="0.92.5 (2060ec1f9f, 2020-04-08)"><metadata
     id="metadata116"><rdf:RDF><cc:Work
         rdf:about=""><dc:format>image/svg+xml</dc:format><dc:type
           rdf:resource="http://purl.org/dc/dcmitype/StillImage" /><dc:title></dc:title></cc:Work></rdf:RDF></metadata><defs
     id="defs114" /><sodipodi:namedview
     pagecolor="#ffffff"
     bordercolor="#666666"
     borderopacity="1"
     objecttolerance="10"
     gridtolerance="10"
     guidetolerance="10"
     inkscape:pageopacity="0"
     inkscape:pageshadow="2"
     inkscape:window-width="760"
     inkscape:window-height="480"
     id="namedview112"
     showgrid="false"
     inkscape:zoom="1.888"
     inkscape:cx="40.275501"
     inkscape:cy="37.5"
     inkscape:window-x="0"
     inkscape:window-y="0"
     inkscape:window-maximized="0"
     inkscape:current-layer="svg110" /><g
     id="g8"
     transform="translate(9.7245)"><g
       id="g6"><path
         d="M 59.562,43.206 49.288,32.932 h 9.104 l 3.574,6.192 v 3.254 c 0,2.944 2.321,5.356 5.229,5.504 V 47.638 34.33 l -3.186,-5.517 10.562,6.098 c 2.771,1.6 6.315,0.651 7.917,-2.121 L 67.72,24.264 h 11.969 c 3.201,0 5.796,-2.595 5.796,-5.794 H 67.299 l 5.172,-2.986 c 2.332,-1.346 3.234,-4.229 2.171,-6.638 L 58.021,18.44 57.973,18.468 H 34.824 L 16.356,0 9.724,19.163 51.366,43.206 59.56,51.4 c 2.263,-2.262 2.263,-5.931 0.002,-8.194 z"
         id="path2"
         inkscape:connector-curvature="0" /><path
         d="M 86.85,61.635 88.342,56.064 63.264,49.345 59.97,61.635 H 56.046 V 90.119 L 73.16,100 90.275,90.119 V 61.635 Z M 64.7,51.832 85.853,57.501 84.746,61.635 H 62.074 Z"
         id="path4"
         inkscape:connector-curvature="0" /></g></g><g
     display="none"
     id="g104"
     style="display:none"><path
       display="inline"
       d="M 74.824,27.615 H 45.587 l -6.718,3.878 v 5.033 l 0.272,0.158 h 26.135 c 5.107,0 9.292,-4.026 9.548,-9.069 z"
       id="path10"
       inkscape:connector-curvature="0"
       style="display:inline" /><polygon
       display="inline"
       points="-40.687,36.547 -40.687,27.615 -40.196,27.615 -3.405,27.615 -38.523,-19.006 -63.815,23.194 "
       id="polygon12"
       style="display:inline" /><path
       display="inline"
       d="m 10.59,66.152 12.564,16.678 0.782,-0.59 c 4.858,-3.658 5.833,-10.59 2.173,-15.447 L 15.49,52.696 h -28.207 z"
       id="path14"
       inkscape:connector-curvature="0"
       style="display:inline" /><path
       display="inline"
       d="m 38.87,48.129 15.413,8.899 c 4.806,2.774 10.952,1.128 13.728,-3.679 L 50.604,43.301 39.143,36.684 H 38.87 Z"
       id="path16"
       inkscape:connector-curvature="0"
       style="display:inline" /><polygon
       display="inline"
       points="39.142,36.684 38.87,36.525 38.87,36.684 "
       id="polygon18"
       style="display:inline" /><polygon
       display="inline"
       points="29.801,62.55 29.801,52.696 24.112,52.696 "
       id="polygon20"
       style="display:inline" /><path
       display="inline"
       d="M 35.85,73.026 29.801,62.548 v 6.281 c 0,5.106 4.025,9.291 9.069,9.547 v -2.06 c -1.211,-0.858 -2.255,-1.964 -3.02,-3.29 z"
       id="path22"
       inkscape:connector-curvature="0"
       style="display:inline" /><polygon
       display="inline"
       points="38.87,31.492 34.511,34.009 38.87,36.525 "
       id="polygon24"
       style="display:inline" /><polygon
       display="inline"
       points="33.088,36.684 33.088,44.792 38.87,48.129 38.87,36.684 "
       id="polygon26"
       style="display:inline" /><polygon
       display="inline"
       points="34.511,34.009 33.088,34.831 33.088,36.684 38.87,36.684 38.87,36.525 "
       id="polygon28"
       style="display:inline" /><path
       display="inline"
       d="M 33.088,52.696 H 29.8 v 9.854 l 6.049,10.478 c 0.765,1.324 1.809,2.431 3.02,3.292 V 56.197 L 33.088,46.183 Z"
       id="path30"
       inkscape:connector-curvature="0"
       style="display:inline" /><path
       display="inline"
       d="m 40.685,27.615 8.969,-5.178 c 4.043,-2.334 5.61,-7.334 3.764,-11.513 l -19.45,11.229 v 5.462 z"
       id="path32"
       inkscape:connector-curvature="0"
       style="display:inline" /><polygon
       display="inline"
       points="29.411,27.615 29.801,27.615 29.801,27.389 "
       id="polygon34"
       style="display:inline" /><polygon
       display="inline"
       points="45.587,27.615 38.87,27.615 38.87,31.492 "
       id="polygon36"
       style="display:inline" /><polygon
       display="inline"
       points="24.899,27.615 28.186,27.615 33.968,27.615 33.968,22.153 24.899,27.389 "
       id="polygon38"
       style="display:inline" /><polygon
       display="inline"
       points="38.87,27.615 33.088,27.615 33.088,33.188 34.511,34.009 38.87,31.492 "
       id="polygon40"
       style="display:inline" /><polygon
       display="inline"
       points="33.088,33.188 33.088,34.831 34.511,34.009 "
       id="polygon42"
       style="display:inline" /><polygon
       display="inline"
       points="15.49,52.696 24.112,52.696 18.62,43.184 12.812,46.537 8.768,39.532 13.704,36.684 3.427,36.684 "
       id="polygon44"
       style="display:inline" /><polygon
       display="inline"
       points="12.052,31.808 11.014,30.009 14.129,28.21 14.474,27.615 -3.405,27.615 3.427,36.684 13.704,36.684 14.577,36.178 12.778,33.065 11.689,32.437 "
       id="polygon46"
       style="display:inline" /><polygon
       display="inline"
       points="23.434,27.615 26.422,29.339 29.411,27.615 "
       id="polygon48"
       style="display:inline" /><polygon
       display="inline"
       points="-12.717,52.696 15.49,52.696 3.427,36.684 -40.196,36.684 -40.196,27.615 -40.687,27.615 -40.687,36.547 "
       id="polygon50"
       style="display:inline" /><polygon
       display="inline"
       points="-40.196,36.684 3.427,36.684 -3.405,27.615 -40.196,27.615 "
       id="polygon52"
       style="display:inline" /><polygon
       display="inline"
       points="29.801,36.729 28.171,37.668 29.801,40.49 "
       id="polygon54"
       style="display:inline" /><polygon
       display="inline"
       points="12.778,33.065 12.052,31.808 11.689,32.437 "
       id="polygon56"
       style="display:inline" /><polygon
       display="inline"
       points="14.474,27.615 14.129,28.21 15.161,27.615 "
       id="polygon58"
       style="display:inline" /><polygon
       display="inline"
       points="24.127,30.664 26.422,29.339 23.434,27.615 22.367,27.615 "
       id="polygon60"
       style="display:inline" /><polygon
       display="inline"
       points="29.801,52.696 29.801,42.893 24.462,39.811 18.62,43.184 24.112,52.696 "
       id="polygon62"
       style="display:inline" /><polygon
       display="inline"
       points="12.052,31.808 14.129,28.21 11.014,30.009 "
       id="polygon64"
       style="display:inline" /><polygon
       display="inline"
       points="14.577,36.178 16.374,35.141 12.778,33.065 "
       id="polygon66"
       style="display:inline" /><polygon
       display="inline"
       points="28.171,37.668 24.462,39.811 29.801,42.893 29.801,40.49 "
       id="polygon68"
       style="display:inline" /><polygon
       display="inline"
       points="12.052,31.808 12.778,33.065 16.374,35.141 24.127,30.664 22.367,27.615 15.161,27.615 14.129,28.21 "
       id="polygon70"
       style="display:inline" /><polygon
       display="inline"
       points="33.088,36.684 29.879,36.684 29.801,36.729 29.801,40.49 31.882,44.096 33.088,44.792 "
       id="polygon72"
       style="display:inline" /><polygon
       display="inline"
       points="33.088,36.684 33.088,34.831 29.879,36.684 "
       id="polygon74"
       style="display:inline" /><polygon
       display="inline"
       points="31.882,44.096 29.801,42.893 29.801,52.696 33.088,52.696 33.088,46.184 "
       id="polygon76"
       style="display:inline" /><polygon
       display="inline"
       points="29.801,42.893 31.882,44.096 29.801,40.49 "
       id="polygon78"
       style="display:inline" /><polygon
       display="inline"
       points="14.867,36.684 13.704,36.684 8.768,39.532 12.812,46.537 18.62,43.184 "
       id="polygon80"
       style="display:inline" /><polygon
       display="inline"
       points="29.801,31.29 29.801,27.615 29.411,27.615 26.422,29.339 "
       id="polygon82"
       style="display:inline" /><polygon
       display="inline"
       points="13.704,36.684 14.867,36.684 14.577,36.178 "
       id="polygon84"
       style="display:inline" /><polygon
       display="inline"
       points="27.603,36.684 28.171,37.668 29.801,36.729 29.801,36.684 "
       id="polygon86"
       style="display:inline" /><polygon
       display="inline"
       points="27.603,36.684 29.801,36.684 29.801,31.29 26.422,29.339 24.127,30.664 "
       id="polygon88"
       style="display:inline" /><polygon
       display="inline"
       points="14.867,36.684 18.62,43.184 24.462,39.811 19.043,36.684 "
       id="polygon90"
       style="display:inline" /><polygon
       display="inline"
       points="19.043,36.684 16.374,35.141 14.577,36.178 14.867,36.684 "
       id="polygon92"
       style="display:inline" /><polygon
       display="inline"
       points="27.603,36.684 19.043,36.684 24.462,39.811 28.171,37.668 "
       id="polygon94"
       style="display:inline" /><polygon
       display="inline"
       points="19.043,36.684 27.603,36.684 24.127,30.664 16.374,35.141 "
       id="polygon96"
       style="display:inline" /><polygon
       display="inline"
       points="33.088,27.615 29.801,27.615 29.801,31.29 33.088,33.188 "
       id="polygon98"
       style="display:inline" /><polygon
       display="inline"
       points="29.879,36.684 29.801,36.684 29.801,36.729 "
       id="polygon100"
       style="display:inline" /><polygon
       display="inline"
       points="29.801,36.684 29.879,36.684 33.088,34.831 33.088,33.188 29.801,31.29 "
       id="polygon102"
       style="display:inline" /></g></svg>