<?xml version="1.0" encoding="UTF-8" standalone="no"?>
<svg
   xmlns:dc="http://purl.org/dc/elements/1.1/"
   xmlns:cc="http://creativecommons.org/ns#"
   xmlns:rdf="http://www.w3.org/1999/02/22-rdf-syntax-ns#"
   xmlns:svg="http://www.w3.org/2000/svg"
   xmlns="http://www.w3.org/2000/svg"
   xmlns:sodipodi="http://sodipodi.sourceforge.net/DTD/sodipodi-0.dtd"
   xmlns:inkscape="http://www.inkscape.org/namespaces/inkscape"
   version="1.1"
   x="0px"
   y="0px"
   viewBox="0 0 310.305 310.30501"
   xml:space="preserve"
   id="svg42"
   sodipodi:docname="pilot.svg"
   width="310.30499"
   height="310.30499"
   inkscape:version="0.92.5 (2060ec1f9f, 2020-04-08)"><metadata
     id="metadata48"><rdf:RDF><cc:Work
         rdf:about=""><dc:format>image/svg+xml</dc:format><dc:type
           rdf:resource="http://purl.org/dc/dcmitype/StillImage" /><dc:title></dc:title></cc:Work></rdf:RDF></metadata><defs
     id="defs46" /><sodipodi:namedview
     pagecolor="#ffffff"
     bordercolor="#666666"
     borderopacity="1"
     objecttolerance="10"
     gridtolerance="10"
     guidetolerance="10"
     inkscape:pageopacity="0"
     inkscape:pageshadow="2"
     inkscape:window-width="760"
     inkscape:window-height="480"
     id="namedview44"
     showgrid="false"
     inkscape:zoom="0.75372876"
     inkscape:cx="155.1525"
     inkscape:cy="156.55499"
     inkscape:window-x="0"
     inkscape:window-y="0"
     inkscape:window-maximized="0"
     inkscape:current-layer="svg42" /><g
     id="g36"
     transform="translate(0,29.908496)"><path
       d="M 165.634,61.005 164.295,38.24 h -3.109 l -1.339,22.765 c 0.953,-0.1 1.915,-0.165 2.893,-0.165 0.978,0 1.941,0.065 2.894,0.165 z"
       id="path2"
       inkscape:connector-curvature="0" /><path
       d="m 128.8,109.087 -24.261,-1.814 c 0.514,4.079 0.893,8.414 1.136,13.012 0.025,0.062 0.044,0.126 0.068,0.188 l 7.702,1.236 v 18.75 h -1.948 v -3.162 c 0,-0.888 -0.72,-1.607 -1.606,-1.607 h -3.896 c -0.038,4.105 -0.16,8.391 -0.372,12.83 0.083,0.013 0.165,0.025 0.251,0.025 h 4.018 c 0.887,0 1.606,-0.72 1.606,-1.606 v -3.162 h 6.696 v 3.162 c 0,0.886 0.719,1.606 1.606,1.606 h 4.018 c 0.887,0 1.606,-0.72 1.606,-1.606 v -9.643 c 0,-0.888 -0.72,-1.607 -1.606,-1.607 H 119.8 c -0.888,0 -1.606,0.72 -1.606,1.607 v 3.162 h -1.948 v -18.301 l 22.298,3.58 0.063,-0.194 c -4.873,-4.202 -8.288,-9.828 -9.807,-16.456 z"
       id="path4"
       inkscape:connector-curvature="0" /><path
       d="m 112.334,76.518 2.01,3.997 16.908,4.45 c 0.701,-1.691 1.505,-3.346 2.404,-4.943 z"
       id="path6"
       inkscape:connector-curvature="0" /><path
       d="m 310.305,90.904 -3.525,0.83 -4.147,9.434 -105.951,7.919 c -1.52,6.628 -4.934,12.254 -9.806,16.457 l 0.063,0.194 20.743,-3.33 v 18.051 h -1.949 v -3.162 c 0,-0.888 -0.719,-1.607 -1.606,-1.607 h -4.018 c -0.888,0 -1.607,0.72 -1.607,1.607 v 9.643 c 0,0.886 0.719,1.606 1.607,1.606 h 4.018 c 0.888,0 1.606,-0.72 1.606,-1.606 v -3.162 h 6.695 v 3.162 c 0,0.886 0.721,1.606 1.607,1.606 h 4.018 c 0.887,0 1.607,-0.72 1.607,-1.606 v -9.643 c 0,-0.888 -0.72,-1.607 -1.607,-1.607 h -4.018 c -0.887,0 -1.607,0.72 -1.607,1.607 v 3.162 h -1.947 v -18.5 l 9.256,-1.486 c 2.103,-5.288 7.261,-9.041 13.291,-9.041 4.406,0 8.351,2.004 10.978,5.146 l 61.116,-9.812 z"
       id="path8"
       inkscape:connector-curvature="0" /><path
       d="m 211.139,80.515 2.01,-3.997 -21.323,3.504 c 0.899,1.598 1.702,3.252 2.404,4.943 z"
       id="path10"
       inkscape:connector-curvature="0" /><path
       d="m 195.086,101.064 c 0,-18.779 -14.482,-37.736 -32.346,-37.736 -17.864,0 -32.345,18.957 -32.345,37.736 0,18.287 13.731,29.656 30.945,30.241 v 2.487 6.666 h -1.948 v -3.162 c 0,-0.888 -0.719,-1.607 -1.607,-1.607 h -4.017 c -0.888,0 -1.607,0.72 -1.607,1.607 v 9.643 c 0,0.886 0.719,1.606 1.607,1.606 h 4.017 c 0.889,0 1.607,-0.72 1.607,-1.606 v -3.162 h 6.695 v 3.162 c 0,0.886 0.719,1.606 1.607,1.606 h 4.018 c 0.887,0 1.606,-0.72 1.606,-1.606 v -9.643 c 0,-0.888 -0.72,-1.607 -1.606,-1.607 h -4.018 c -0.889,0 -1.607,0.72 -1.607,1.607 v 3.162 h -1.947 v -6.666 -2.487 c 17.214,-0.584 30.946,-11.954 30.946,-30.241 z m -52.08,-7.159 2.146,-11.806 9.378,1.705 -2.497,11.74 z m 30.442,1.64 -2.496,-11.742 9.373,-1.703 2.146,11.806 z m -6.277,-11.055 1.285,-0.233 2.496,11.742 -2.693,0.489 h -11.036 l -2.694,-0.489 2.496,-11.741 1.279,0.232 z m -22.589,33.775 c 4.528,2.537 10.985,4.126 18.158,4.126 7.173,0 13.63,-1.589 18.158,-4.126 -3.47,4.064 -10.298,6.831 -18.158,6.831 -7.86,0 -14.688,-2.766 -18.158,-6.831 z"
       id="path12"
       inkscape:connector-curvature="0" /><path
       d="m 221.209,125.738 c 0,6.526 5.292,11.818 11.818,11.818 6.527,0 11.818,-5.292 11.818,-11.818 0,-6.527 -5.291,-11.818 -11.818,-11.818 -6.526,0 -11.818,5.291 -11.818,11.818 z m 11.82,5.6 c -3.09,0 -5.601,-2.512 -5.601,-5.601 0,-3.086 2.511,-5.598 5.601,-5.598 3.086,0 5.598,2.512 5.598,5.598 0,3.089 -2.512,5.601 -5.598,5.601 z"
       id="path14"
       inkscape:connector-curvature="0" /><path
       d="m 104.743,156.045 h 202.62 v -4 H 105.44 c -0.01,0.17 -0.017,0.334 -0.026,0.504 -0.071,1.217 -0.311,2.385 -0.671,3.496 z"
       id="path16"
       inkscape:connector-curvature="0" /><path
       d="m 83.702,146.428 c -0.071,1.577 -0.154,3.19 -0.251,4.84 -0.258,4.41 3.109,8.195 7.52,8.452 0.16,0.009 0.318,0.014 0.477,0.014 4.205,0.001 7.728,-3.281 7.978,-7.534 0.115,-1.974 0.208,-3.889 0.289,-5.771 H 83.702 Z"
       id="path18"
       inkscape:connector-curvature="0" /><path
       d="m 22.964,236.762 v 1.363 c 0,6.83 5.537,12.363 12.363,12.363 6.828,0 12.365,-5.533 12.365,-12.363 v -1.363 z"
       id="path20"
       inkscape:connector-curvature="0" /><path
       d="m 52.327,238.125 c 0,6.83 5.537,12.363 12.363,12.363 6.828,0 12.365,-5.533 12.365,-12.363 v -1.363 H 52.327 Z"
       id="path22"
       inkscape:connector-curvature="0" /><path
       d="m 0.191,143.428 h 16.012 c -0.054,-1.477 -0.096,-2.92 -0.126,-4.332 H 0.072 c 0.03,1.417 0.069,2.858 0.119,4.332 z"
       id="path24"
       inkscape:connector-curvature="0" /><path
       d="m 83.94,139.096 c -0.03,1.412 -0.072,2.855 -0.125,4.332 h 16.013 c 0.05,-1.473 0.088,-2.915 0.117,-4.332 z"
       id="path26"
       inkscape:connector-curvature="0" /><path
       d="m 16.568,151.266 c -0.097,-1.649 -0.181,-3.261 -0.251,-4.838 H 0.306 c 0.081,1.884 0.175,3.801 0.29,5.774 0.25,4.252 3.777,7.532 7.981,7.532 0.157,0 0.314,-0.004 0.473,-0.014 4.411,-0.258 7.778,-4.043 7.518,-8.454 z"
       id="path28"
       inkscape:connector-curvature="0" /><path
       d="M 77.056,140.125 V 121.186 88.167 c 0.593,1.216 1.19,2.612 1.781,4.239 2.817,7.812 5.188,20.631 5.179,40.638 0,0.993 -0.013,2.023 -0.024,3.052 h 16.002 c 0.011,-1.025 0.024,-2.057 0.024,-3.052 C 99.977,102.862 95.157,86.158 88.582,76.113 85.299,71.127 81.455,67.929 77.903,66.159 74.59,64.486 71.668,64.072 69.849,64.029 69.675,64.017 69.503,64.003 69.327,64.003 h -5.522 c 0.807,2.54 1.26,5.482 1.26,8.825 0,7.22 -4.658,14.741 -8.792,19.998 L 54.037,76.353 c -1.295,0.486 -2.657,0.74 -4.021,0.74 -0.002,0 -0.006,0 -0.006,0 h -0.002 c -1.364,10e-4 -2.729,-0.253 -4.026,-0.739 l -2.235,16.47 c -4.134,-5.256 -8.791,-12.777 -8.791,-19.996 0,-3.343 0.454,-6.285 1.26,-8.825 h -5.522 c -0.165,0 -0.325,0.015 -0.487,0.024 -1.815,0.039 -4.756,0.449 -8.092,2.131 C 16.736,68.824 10.937,74.66 6.879,84.998 2.772,95.379 0.014,110.386 0,133.043 c 0,0.995 0.014,2.027 0.024,3.053 h 16.001 c -0.012,-1.028 -0.024,-2.06 -0.024,-3.053 -0.035,-24.215 3.495,-37.817 6.963,-44.917 v 33.06 18.939 93.637 h 24.728 v -85.908 h 4.635 v 85.908 h 24.729 z"
       id="path30"
       inkscape:connector-curvature="0" /><path
       d="M 53.809,64.176 H 50.01 46.209 l -1.9,7.5 0.292,0.46 c 1.564,1.303 3.479,1.956 5.407,1.958 1.928,-0.002 3.847,-0.656 5.412,-1.962 l 0.289,-0.456 z"
       id="path32"
       inkscape:connector-curvature="0" /><path
       d="m 50.01,58.305 c 3.261,0 6.356,-0.699 9.154,-1.947 7.862,-3.507 13.346,-11.387 13.346,-20.553 0,-2.814 -0.521,-5.506 -1.465,-7.988 0.537,-0.558 0.859,-1.144 0.94,-1.75 2.618,0.092 4.632,-0.331 5.521,-1.732 C 80.488,19.631 72.843,0 50.01,0 27.177,0 19.531,19.631 22.514,24.334 c 0.889,1.402 2.902,1.824 5.521,1.732 0.081,0.606 0.403,1.192 0.94,1.75 -0.943,2.482 -1.465,5.174 -1.465,7.988 0,9.166 5.483,17.046 13.346,20.553 2.797,1.248 5.893,1.948 9.154,1.948 z m 0,-54.211 c 2.117,0 3.881,1.468 4.36,3.437 2.524,-0.352 5.64,-0.853 5.64,-0.853 0,0 -2.919,2.379 -5.814,3.541 -0.652,1.68 -2.274,2.875 -4.186,2.875 -1.911,0 -3.533,-1.195 -4.186,-2.875 C 42.928,9.057 40.01,6.678 40.01,6.678 c 0,0 3.115,0.502 5.64,0.853 0.479,-1.969 2.243,-3.437 4.36,-3.437 z m 0,11.334 c 12.15,0 22,3.135 22,7 0,0.574 -0.223,1.133 -0.633,1.667 -2.352,-3.061 -11.023,-5.333 -21.367,-5.333 -10.344,0 -19.016,2.272 -21.367,5.333 -0.41,-0.534 -0.633,-1.093 -0.633,-1.667 0,-3.866 9.849,-7 22,-7 z"
       id="path34"
       inkscape:connector-curvature="0" /></g></svg>