<?xml version="1.0" encoding="UTF-8" standalone="no"?>
<svg
   xmlns:dc="http://purl.org/dc/elements/1.1/"
   xmlns:cc="http://creativecommons.org/ns#"
   xmlns:rdf="http://www.w3.org/1999/02/22-rdf-syntax-ns#"
   xmlns:svg="http://www.w3.org/2000/svg"
   xmlns="http://www.w3.org/2000/svg"
   xmlns:sodipodi="http://sodipodi.sourceforge.net/DTD/sodipodi-0.dtd"
   xmlns:inkscape="http://www.inkscape.org/namespaces/inkscape"
   version="1.1"
   x="0px"
   y="0px"
   viewBox="0 0 64 64"
   xml:space="preserve"
   id="svg28"
   sodipodi:docname="preparation.svg"
   width="64"
   height="64"
   inkscape:version="0.92.5 (2060ec1f9f, 2020-04-08)"><metadata
     id="metadata34"><rdf:RDF><cc:Work
         rdf:about=""><dc:format>image/svg+xml</dc:format><dc:type
           rdf:resource="http://purl.org/dc/dcmitype/StillImage" /><dc:title></dc:title></cc:Work></rdf:RDF></metadata><defs
     id="defs32" /><sodipodi:namedview
     pagecolor="#ffffff"
     bordercolor="#666666"
     borderopacity="1"
     objecttolerance="10"
     gridtolerance="10"
     guidetolerance="10"
     inkscape:pageopacity="0"
     inkscape:pageshadow="2"
     inkscape:window-width="1920"
     inkscape:window-height="1043"
     id="namedview30"
     showgrid="false"
     inkscape:zoom="2.95"
     inkscape:cx="-5.7966102"
     inkscape:cy="40"
     inkscape:window-x="0"
     inkscape:window-y="0"
     inkscape:window-maximized="1"
     inkscape:current-layer="svg28" /><g
     id="g22"><path
       d="m 19,38 v 11 h 2 V 38 c 0,-1.654 -1.346,-3 -3,-3 H 9 C 8.448,35 8,34.551 8,34 8,33.449 8.448,33 9,33 h 7 c 1.654,0 3,-1.346 3,-3 v -3 h -2 v 3 c 0,0.551 -0.448,1 -1,1 H 9 c -1.654,0 -3,1.346 -3,3 0,1.654 1.346,3 3,3 h 9 c 0.552,0 1,0.449 1,1 z"
       id="path2"
       inkscape:connector-curvature="0" /><path
       d="m 3,54 c 0,1.654 1.346,3 3,3 H 9 V 51 H 6 c -1.654,0 -3,1.346 -3,3 z"
       id="path4"
       inkscape:connector-curvature="0" /><rect
       x="15"
       y="51"
       width="12"
       height="2"
       id="rect6" /><path
       d="m 8,25 h 27.787 l -1.064,-1.064 1.479,-2.489 C 36.055,21.13 35.921,20.81 35.802,20.491 L 33,19.777 v -7.555 l 2.802,-0.713 c 0.119,-0.319 0.253,-0.639 0.4,-0.957 L 35.008,8.543 C 33.904,7.55 32.495,7 31,7 27.691,7 25,9.691 25,13 H 23 C 23,10.69 23.99,8.612 25.56,7.151 23.912,4.58 21.091,3 18,3 13.037,3 9,7.038 9,12 c 0,0.366 0.026,0.73 0.07,1.092 1.216,0.187 2.37,0.683 3.343,1.474 C 14.058,15.903 15,17.883 15,20 h -2 c 0,-1.512 -0.674,-2.927 -1.849,-3.882 -1.174,-0.955 -2.718,-1.322 -4.238,-1.004 -1.881,0.392 -3.407,1.919 -3.8,3.799 -0.316,1.519 0.05,3.063 1.005,4.238 C 5.073,24.326 6.488,25 8,25 Z"
       id="path8"
       inkscape:connector-curvature="0" /><rect
       x="11"
       y="51"
       width="2"
       height="6"
       id="rect10" /><path
       d="M 58.478,19.35 58.646,18.822 61,18.223 V 13.778 L 58.646,13.179 58.478,12.651 C 58.299,12.093 58.062,11.526 57.773,10.968 L 57.518,10.475 58.764,8.38 55.621,5.237 53.526,6.483 53.034,6.229 C 52.474,5.94 51.908,5.704 51.348,5.525 L 50.82,5.354 50.223,3 H 45.778 L 45.18,5.354 44.652,5.523 c -0.56,0.179 -1.126,0.415 -1.686,0.704 l -0.492,0.254 -2.095,-1.246 -3.143,3.143 1.246,2.095 -0.255,0.493 c -0.289,0.559 -0.526,1.125 -0.705,1.683 l -0.168,0.528 -2.354,0.6 v 4.445 l 2.354,0.599 0.168,0.528 c 0.179,0.559 0.416,1.125 0.704,1.683 l 0.256,0.493 -1.246,2.096 3.143,3.143 2.095,-1.246 0.492,0.254 c 0.56,0.289 1.126,0.525 1.686,0.704 L 45.18,26.645 45.777,29 h 4.445 l 0.598,-2.354 0.528,-0.169 c 0.56,-0.179 1.126,-0.415 1.686,-0.704 l 0.492,-0.254 2.095,1.246 3.143,-3.143 -1.246,-2.096 0.256,-0.493 c 0.288,-0.559 0.525,-1.125 0.704,-1.683 z M 48,24 c -4.418,0 -8,-3.582 -8,-8 0,-4.418 3.582,-8 8,-8 4.418,0 8,3.582 8,8 0,4.418 -3.582,8 -8,8 z"
       id="path12"
       inkscape:connector-curvature="0" /><rect
       x="15"
       y="55"
       width="12"
       height="2"
       id="rect14" /><path
       d="m 35,54 c 0,-0.184 -0.115,-0.35 -0.287,-0.415 L 29,51.443 v 5.114 l 5.712,-2.142 C 34.885,54.35 35,54.184 35,54 Z"
       id="path16"
       inkscape:connector-curvature="0" /><path
       d="m 53.446,27.798 c -0.317,0.147 -0.638,0.281 -0.956,0.4 L 51.777,31 h -7.555 l -0.713,-2.802 c -0.318,-0.119 -0.639,-0.252 -0.956,-0.4 L 40.064,29.278 37.787,27 H 25 v 22 h 3.182 l 7.233,2.712 C 36.362,52.067 37,52.987 37,54 c 0,1.013 -0.638,1.933 -1.586,2.288 L 28.182,59 H 25 v 2 H 57 V 28.213 l -1.064,1.065 z M 29,47.414 26.293,44.707 27.707,43.293 29,44.586 l 4.293,-4.293 1.414,1.414 z m 0,-8 -2.707,-2.707 1.414,-1.414 1.293,1.293 4.293,-4.293 1.414,1.414 z M 37,37 h 2 v 2 h -2 z m 0,8 h 14 v 2 H 37 Z m 5,11 c -1.105,0 -2,-0.895 -2,-2 0,-1.105 0.895,-2 2,-2 1.105,0 2,0.895 2,2 0,1.105 -0.895,2 -2,2 z m 8,0 c -1.105,0 -2,-0.895 -2,-2 0,-1.105 0.895,-2 2,-2 1.105,0 2,0.895 2,2 0,1.105 -0.895,2 -2,2 z m 5,-9 h -2 v -2 h 2 z m 0,-4 H 37 v -2 h 18 z m 0,-4 H 41 v -2 h 14 z m 0,-4 H 37 v -2 h 18 z"
       id="path18"
       inkscape:connector-curvature="0" /><circle
       cx="48"
       cy="16"
       r="4"
       id="circle20" /></g></svg>