<?xml version="1.0" encoding="UTF-8" standalone="no"?>
<svg
   xmlns:dc="http://purl.org/dc/elements/1.1/"
   xmlns:cc="http://creativecommons.org/ns#"
   xmlns:rdf="http://www.w3.org/1999/02/22-rdf-syntax-ns#"
   xmlns:svg="http://www.w3.org/2000/svg"
   xmlns="http://www.w3.org/2000/svg"
   xmlns:sodipodi="http://sodipodi.sourceforge.net/DTD/sodipodi-0.dtd"
   xmlns:inkscape="http://www.inkscape.org/namespaces/inkscape"
   version="1.1"
   x="0px"
   y="0px"
   viewBox="0 0 100 100"
   enable-background="new 0 0 100 100"
   xml:space="preserve"
   id="svg38"
   sodipodi:docname="presence.svg"
   width="100"
   height="100"
   inkscape:version="0.92.5 (2060ec1f9f, 2020-04-08)"><metadata
     id="metadata44"><rdf:RDF><cc:Work
         rdf:about=""><dc:format>image/svg+xml</dc:format><dc:type
           rdf:resource="http://purl.org/dc/dcmitype/StillImage" /><dc:title></dc:title></cc:Work></rdf:RDF></metadata><defs
     id="defs42" /><sodipodi:namedview
     pagecolor="#ffffff"
     bordercolor="#666666"
     borderopacity="1"
     objecttolerance="10"
     gridtolerance="10"
     guidetolerance="10"
     inkscape:pageopacity="0"
     inkscape:pageshadow="2"
     inkscape:window-width="760"
     inkscape:window-height="480"
     id="namedview40"
     showgrid="false"
     inkscape:zoom="1.888"
     inkscape:cx="50"
     inkscape:cy="62.5"
     inkscape:window-x="0"
     inkscape:window-y="0"
     inkscape:window-maximized="0"
     inkscape:current-layer="svg38" /><g
     id="g32"
     transform="translate(0,0.1665)"><path
       d="m 2.835,0.492 h 32.214 c 0,0 3.057,8.294 3.057,9.936 0,1.645 -1.744,3.595 -1.744,5.441 0,1.849 7.454,11.548 7.454,11.548 0,0 0.617,1.07 0.31,1.992 -0.12,0.364 -0.647,0.878 -1.296,1.104 -1.493,0.519 -3.544,1.274 -3.544,1.274 0,0 -0.587,0.139 -0.476,0.907 0.083,0.606 0.518,1.003 0.518,1.003 l 2.329,2.457 c 0,0 0.519,0.562 0.288,1.122 -0.167,0.411 -0.461,0.503 -0.461,0.503 0,0 -3.158,1.458 -3.243,1.552 l 2.205,2.009 c 0,0 0.648,0.418 0.648,1.362 0,0.842 -0.777,1.363 -0.777,1.363 l -4.098,1.422 c 0,0 1.77,6.201 0.204,8.01 -3.902,4.517 -17.454,-0.615 -17.454,-0.615 0,0 -3.144,-0.212 -4.519,0.615 -2.392,1.435 -7.642,6.667 -11.615,10.791 z"
       id="path2"
       inkscape:connector-curvature="0" /><path
       d="M 2.835,76.349 30.038,60.933 c 0,0 1.403,-1.07 3.316,-1.418 1.28,-0.233 2.659,-0.317 2.659,-0.317 l 17.519,0.017 c 0.643,0 1.264,0.181 1.814,0.521 0.465,0.32 0.867,0.745 1.135,1.259 0.266,0.474 0.406,1.02 0.414,1.584 -0.021,1.858 -1.529,3.363 -3.383,3.366 l -9.896,-0.029 -0.023,1.772 9.994,0.026 c 2.516,0.006 5.299,-1.734 5.299,-4.858 0.102,-0.956 -0.482,-2.888 -1.59,-3.62 l 22.77,0.032 c 1.662,0 3.008,1.344 3.008,3.007 0,1.66 -1.346,3.005 -3.006,3.005 0,0 -9.26,-0.055 -16.371,2.525 -5.193,1.88 -8.762,5.374 -8.762,5.374 0,0 -2.201,1.289 -3.861,1.463 L 31.908,77.88 2.835,99.175 Z"
       id="path4"
       inkscape:connector-curvature="0" /><circle
       cx="47.653999"
       cy="41.207001"
       r="1.785"
       id="circle6" /><circle
       cx="52.327999"
       cy="47.914001"
       r="1.785"
       id="circle8" /><circle
       cx="57.589001"
       cy="44.658001"
       r="1.786"
       id="circle10" /><circle
       cx="74.453003"
       cy="33.915001"
       r="1.785"
       id="circle12" /><circle
       cx="65.642998"
       cy="42.674999"
       r="1.785"
       id="circle14" /><circle
       cx="63.601002"
       cy="48.165001"
       r="1.784"
       id="circle16" /><circle
       cx="67.724998"
       cy="53.909"
       r="1.785"
       id="circle18" /><circle
       cx="70.780998"
       cy="47.080002"
       r="1.785"
       id="circle20" /><circle
       cx="77.389999"
       cy="43.409"
       r="1.786"
       id="circle22" /><circle
       cx="79.960999"
       cy="50.016998"
       r="1.785"
       id="circle24" /><circle
       cx="88.210999"
       cy="52.833"
       r="1.785"
       id="circle26" /><circle
       cx="84.641998"
       cy="44.908001"
       r="1.784"
       id="circle28" /><circle
       cx="96.111"
       cy="48.549"
       r="1.785"
       id="circle30" /></g></svg>