<?xml version="1.0" encoding="UTF-8" standalone="no"?>
<svg
   xmlns:dc="http://purl.org/dc/elements/1.1/"
   xmlns:cc="http://creativecommons.org/ns#"
   xmlns:rdf="http://www.w3.org/1999/02/22-rdf-syntax-ns#"
   xmlns:svg="http://www.w3.org/2000/svg"
   xmlns="http://www.w3.org/2000/svg"
   xmlns:sodipodi="http://sodipodi.sourceforge.net/DTD/sodipodi-0.dtd"
   xmlns:inkscape="http://www.inkscape.org/namespaces/inkscape"
   version="1.1"
   x="0px"
   y="0px"
   viewBox="0 0 100 100"
   xml:space="preserve"
   id="svg10"
   sodipodi:docname="survival.svg"
   width="100"
   height="100"
   inkscape:version="0.92.5 (2060ec1f9f, 2020-04-08)"><metadata
     id="metadata16"><rdf:RDF><cc:Work
         rdf:about=""><dc:format>image/svg+xml</dc:format><dc:type
           rdf:resource="http://purl.org/dc/dcmitype/StillImage" /><dc:title></dc:title></cc:Work></rdf:RDF></metadata><defs
     id="defs14" /><sodipodi:namedview
     pagecolor="#ffffff"
     bordercolor="#666666"
     borderopacity="1"
     objecttolerance="10"
     gridtolerance="10"
     guidetolerance="10"
     inkscape:pageopacity="0"
     inkscape:pageshadow="2"
     inkscape:window-width="760"
     inkscape:window-height="480"
     id="namedview12"
     showgrid="false"
     inkscape:zoom="1.888"
     inkscape:cx="50"
     inkscape:cy="62.5"
     inkscape:window-x="0"
     inkscape:window-y="0"
     inkscape:window-maximized="0"
     inkscape:current-layer="svg10" /><g
     id="g4"><path
       d="M 25,5 H 10 C 4.478,5 0,9.478 0,15 v 70 c 0,5.522 4.478,10 10,10 h 15 c 5.523,0 10,-4.478 10,-10 V 15 C 35,9.478 30.523,5 25,5 Z m 0,75 h -5 v 5 h -5 v -5 h -5 v -5 h 5 v -5 h 5 v 5 h 5 z M 17.5,29.998 c -4.141,0 -7.5,-3.357 -7.5,-7.5 0,-4.143 3.359,-7.5 7.5,-7.5 4.14,0 7.5,3.356 7.5,7.5 0,4.144 -3.359,7.5 -7.5,7.5 z m 2.5,-7.5 c 0,1.379 -1.123,2.5 -2.5,2.5 -1.377,0 -2.5,-1.121 -2.5,-2.5 0,-1.379 1.124,-2.5 2.5,-2.5 1.376,0 2.5,1.12 2.5,2.5 z M 75,65 85,85 75,95 55,85 V 75 L 39.682,59.682 v -20 L 65,65 Z m 25,-55 c 0,0 -5,25 -50,25 H 39.682 V 10 Z"
       id="path2"
       inkscape:connector-curvature="0" /></g></svg>