<?xml version="1.0" encoding="UTF-8" standalone="no"?>
<svg
   xmlns:dc="http://purl.org/dc/elements/1.1/"
   xmlns:cc="http://creativecommons.org/ns#"
   xmlns:rdf="http://www.w3.org/1999/02/22-rdf-syntax-ns#"
   xmlns:svg="http://www.w3.org/2000/svg"
   xmlns="http://www.w3.org/2000/svg"
   xmlns:sodipodi="http://sodipodi.sourceforge.net/DTD/sodipodi-0.dtd"
   xmlns:inkscape="http://www.inkscape.org/namespaces/inkscape"
   version="1.1"
   x="0px"
   y="0px"
   viewBox="0 0 50.4 50.400002"
   enable-background="new 0 0 50.4 50.4"
   xml:space="preserve"
   id="svg18"
   sodipodi:docname="surveillance.svg"
   width="50.400002"
   height="50.400002"
   inkscape:version="0.92.5 (2060ec1f9f, 2020-04-08)"><metadata
     id="metadata24"><rdf:RDF><cc:Work
         rdf:about=""><dc:format>image/svg+xml</dc:format><dc:type
           rdf:resource="http://purl.org/dc/dcmitype/StillImage" /><dc:title></dc:title></cc:Work></rdf:RDF></metadata><defs
     id="defs22" /><sodipodi:namedview
     pagecolor="#ffffff"
     bordercolor="#666666"
     borderopacity="1"
     objecttolerance="10"
     gridtolerance="10"
     guidetolerance="10"
     inkscape:pageopacity="0"
     inkscape:pageshadow="2"
     inkscape:window-width="760"
     inkscape:window-height="480"
     id="namedview20"
     showgrid="false"
     inkscape:zoom="3.7460317"
     inkscape:cx="25.200001"
     inkscape:cy="31.5"
     inkscape:window-x="0"
     inkscape:window-y="0"
     inkscape:window-maximized="0"
     inkscape:current-layer="svg18" /><g
     id="g12"
     transform="translate(0,-0.00650884)"><path
       d="M 48.667,12.272 C 48.666,12.266 48.665,12.26 48.665,12.253 L 48.643,12.081 C 48.561,11.545 48.309,11.037 47.932,10.642 46.772,9.273 45.355,7.938 43.476,6.442 39.541,3.309 35.582,1.301 31.709,0.478 29.189,-0.056 26.581,-0.094 23.98,0.37 21.864,0.75 19.624,1.538 17.32,2.715 14.272,4.275 11.331,6.449 8.579,9.182 8.114,9.643 7.622,10.143 7.177,10.673 c -0.935,1.105 -0.935,2.533 -10e-4,3.636 1.145,1.361 2.571,2.706 4.485,4.231 3.931,3.134 7.891,5.14 11.767,5.965 1.352,0.288 2.734,0.434 4.113,0.434 0,0 0,0 0.001,0 1.191,0 2.408,-0.11 3.613,-0.324 2.142,-0.384 4.32,-1.151 6.658,-2.347 3.052,-1.559 5.992,-3.733 8.739,-6.462 0.449,-0.444 0.927,-0.929 1.378,-1.462 0.369,-0.386 0.618,-0.881 0.707,-1.403 l 0.034,-0.082 0.002,-0.267 c 0.002,-0.033 0.002,-0.066 0.002,-0.1 z m -23.038,0.237 h 3.896 c 0.086,0.228 0.135,0.474 0.135,0.732 0,1.15 -0.934,2.082 -2.082,2.082 -1.149,0 -2.083,-0.932 -2.083,-2.082 -0.001,-0.259 0.048,-0.505 0.134,-0.732 z m 20.575,0.189 -0.067,0.074 c -0.401,0.475 -0.844,0.923 -1.263,1.339 -2.573,2.557 -5.315,4.586 -8.146,6.031 -2.126,1.087 -4.087,1.781 -5.991,2.122 -1.067,0.191 -2.144,0.287 -3.194,0.287 h -10e-4 c -1.212,0 -2.43,-0.128 -3.616,-0.38 C 20.415,21.423 16.789,19.575 13.149,16.674 11.361,15.25 10.044,14.01 9,12.771 8.845,12.587 8.946,12.509 8.946,12.509 h 11.908 c -0.029,0.256 -0.048,0.515 -0.048,0.78 0,3.74 3.034,6.77 6.771,6.77 3.74,0 6.771,-3.03 6.771,-6.77 0,-0.265 -0.021,-0.524 -0.05,-0.78 h 11.978 l 0.003,0.063 c -0.013,0.046 -0.04,0.091 -0.075,0.126 z"
       id="path2"
       inkscape:connector-curvature="0" /><path
       d="m 4.719,49.976 c 0.332,0.287 0.725,0.415 1.179,0.385 0.815,-0.061 1.301,-0.482 1.45,-1.271 l 1.044,-5.574 3.4,-3.719 0.771,3.627 c 0.12,0.273 0.225,0.483 0.317,0.634 l 3.264,5.487 c 0.334,0.575 0.832,0.83 1.497,0.771 0.424,-0.029 0.778,-0.21 1.066,-0.544 0.287,-0.333 0.415,-0.711 0.385,-1.134 0,-0.271 -0.076,-0.499 -0.226,-0.68 l -2.993,-5.077 -2.54,-11.199 1.633,1.316 0.907,3.989 c 0.121,0.635 0.499,0.937 1.133,0.905 0.695,-0.059 1.013,-0.452 0.952,-1.178 0,-0.06 0,-0.105 0,-0.138 l -1.042,-4.623 c -0.061,-0.211 -0.167,-0.377 -0.317,-0.5 L 11.837,27.6 c -0.451,-0.361 -0.995,-0.528 -1.63,-0.498 -0.786,0.061 -1.406,0.454 -1.859,1.179 l -2.402,4.716 -3.219,2.22 c -0.303,0.213 -0.438,0.529 -0.41,0.952 0.062,0.695 0.439,1.013 1.135,0.952 C 3.664,37.062 3.83,37.016 3.95,36.986 L 7.486,34.538 C 7.576,34.446 7.653,34.341 7.714,34.22 L 8.621,32.453 9.663,37.167 5.49,42.11 C 5.4,42.229 5.338,42.398 5.307,42.608 l -1.132,5.939 c 0,0.152 0,0.257 0,0.318 0.032,0.451 0.212,0.823 0.544,1.111 z"
       id="path4"
       inkscape:connector-curvature="0" /><path
       d="m 11.474,25.812 c 0.422,-0.5 0.605,-1.065 0.544,-1.7 -0.061,-0.635 -0.333,-1.162 -0.817,-1.586 -0.483,-0.423 -1.057,-0.62 -1.723,-0.591 -0.635,0.061 -1.162,0.341 -1.586,0.839 -0.422,0.498 -0.604,1.066 -0.544,1.701 0.031,0.664 0.295,1.2 0.793,1.608 0.5,0.408 1.066,0.598 1.701,0.567 0.665,-0.058 1.21,-0.339 1.632,-0.838 z"
       id="path6"
       inkscape:connector-curvature="0" /><path
       d="m 23.912,50.067 c 0.253,0.221 0.553,0.318 0.899,0.294 0.624,-0.045 0.994,-0.367 1.107,-0.969 l 0.798,-4.26 2.598,-2.84 0.589,2.771 c 0.091,0.208 0.172,0.37 0.243,0.483 l 2.492,4.191 c 0.254,0.438 0.635,0.634 1.142,0.589 0.325,-0.023 0.595,-0.161 0.815,-0.416 0.22,-0.253 0.316,-0.542 0.295,-0.864 0,-0.209 -0.059,-0.383 -0.174,-0.521 l -2.286,-3.878 -1.939,-8.555 1.246,1.005 0.693,3.048 c 0.092,0.484 0.382,0.716 0.864,0.691 0.532,-0.044 0.774,-0.346 0.729,-0.9 0,-0.044 0,-0.08 0,-0.104 L 33.226,36.301 C 33.18,36.139 33.1,36.013 32.984,35.92 l -3.638,-2.944 c -0.345,-0.276 -0.761,-0.402 -1.244,-0.381 -0.601,0.047 -1.074,0.347 -1.421,0.902 l -1.835,3.6 -2.458,1.696 c -0.231,0.163 -0.335,0.403 -0.313,0.728 0.048,0.53 0.335,0.773 0.867,0.728 0.162,-0.046 0.288,-0.08 0.381,-0.104 l 2.701,-1.87 c 0.068,-0.069 0.126,-0.15 0.173,-0.243 l 0.692,-1.351 0.798,3.603 -3.187,3.776 c -0.068,0.092 -0.113,0.22 -0.14,0.38 l -0.864,4.538 c 0,0.114 0,0.196 0,0.242 0.025,0.344 0.162,0.628 0.416,0.847 z"
       id="path8"
       inkscape:connector-curvature="0" /><path
       d="m 29.071,31.61 c 0.323,-0.381 0.463,-0.813 0.416,-1.299 -0.047,-0.486 -0.254,-0.888 -0.624,-1.212 -0.369,-0.322 -0.808,-0.474 -1.316,-0.45 -0.484,0.045 -0.889,0.261 -1.212,0.641 -0.321,0.38 -0.46,0.814 -0.416,1.299 0.025,0.508 0.226,0.918 0.606,1.229 0.383,0.312 0.814,0.457 1.3,0.433 0.509,-0.046 0.924,-0.26 1.246,-0.641 z"
       id="path10"
       inkscape:connector-curvature="0" /></g></svg>