<?xml version="1.0" encoding="UTF-8" standalone="no"?>
<svg
   xmlns:dc="http://purl.org/dc/elements/1.1/"
   xmlns:cc="http://creativecommons.org/ns#"
   xmlns:rdf="http://www.w3.org/1999/02/22-rdf-syntax-ns#"
   xmlns:svg="http://www.w3.org/2000/svg"
   xmlns="http://www.w3.org/2000/svg"
   xmlns:sodipodi="http://sodipodi.sourceforge.net/DTD/sodipodi-0.dtd"
   xmlns:inkscape="http://www.inkscape.org/namespaces/inkscape"
   version="1.1"
   x="0px"
   y="0px"
   viewBox="0 0 82 82"
   xml:space="preserve"
   id="svg8"
   sodipodi:docname="antropology.svg"
   width="82"
   height="82"
   inkscape:version="0.92.5 (2060ec1f9f, 2020-04-08)"><metadata
     id="metadata14"><rdf:RDF><cc:Work
         rdf:about=""><dc:format>image/svg+xml</dc:format><dc:type
           rdf:resource="http://purl.org/dc/dcmitype/StillImage" /><dc:title></dc:title></cc:Work></rdf:RDF></metadata><defs
     id="defs12" /><sodipodi:namedview
     pagecolor="#ffffff"
     bordercolor="#666666"
     borderopacity="1"
     objecttolerance="10"
     gridtolerance="10"
     guidetolerance="10"
     inkscape:pageopacity="0"
     inkscape:pageshadow="2"
     inkscape:window-width="760"
     inkscape:window-height="480"
     id="namedview10"
     showgrid="false"
     inkscape:zoom="1.888"
     inkscape:cx="33"
     inkscape:cy="28.5"
     inkscape:window-x="0"
     inkscape:window-y="0"
     inkscape:window-maximized="0"
     inkscape:current-layer="svg8" /><path
     d="M 70,48.7 C 72.6,43.9 74,38.5 74,33 74,16.6 62,3 46.4,0.5 l -6.6,6.5 6.6,6.6 c 0.8,0.8 0.8,2 0,2.8 l -8,8 C 38,24.8 37.5,25 37,25 c -0.5,0 -1,-0.2 -1.4,-0.6 -0.8,-0.8 -0.8,-2 0,-2.8 L 42.2,15 35.6,8.4 c -0.8,-0.8 -0.8,-2 0,-2.8 L 41.2,0 H 41 C 22.8,0 8,14.8 8,33 c 0,5.5 1.4,10.9 4,15.7 0.3,0.5 0.3,1.2 0.1,1.7 -0.7,1.8 -1.1,3.7 -1.1,5.6 0,8.3 6.7,15 15,15 1.1,0 2,0.9 2,2 v 9 h 26 v -9 c 0,-1.1 0.9,-2 2,-2 8.3,0 15,-6.7 15,-15 0,-1.9 -0.4,-3.8 -1.1,-5.6 -0.2,-0.5 -0.2,-1.2 0.1,-1.7 z M 26,65.5 c -5.2,0 -9.5,-4.3 -9.5,-9.5 0,-5.2 4.3,-9.5 9.5,-9.5 5.2,0 9.5,4.3 9.5,9.5 0,5.2 -4.3,9.5 -9.5,9.5 z M 43,72 c 0,1.1 -0.9,2 -2,2 -1.1,0 -2,-0.9 -2,-2 v -4 c 0,-1.1 0.9,-2 2,-2 1.1,0 2,0.9 2,2 z m 13,-6.5 c -5.2,0 -9.5,-4.3 -9.5,-9.5 0,-5.2 4.3,-9.5 9.5,-9.5 5.2,0 9.5,4.3 9.5,9.5 0,5.2 -4.3,9.5 -9.5,9.5 z M 31.5,56 c 0,3 -2.5,5.5 -5.5,5.5 -3,0 -5.5,-2.5 -5.5,-5.5 0,-3 2.5,-5.5 5.5,-5.5 3,0 5.5,2.5 5.5,5.5 z m 30,0 c 0,3 -2.5,5.5 -5.5,5.5 -3,0 -5.5,-2.5 -5.5,-5.5 0,-3 2.5,-5.5 5.5,-5.5 3,0 5.5,2.5 5.5,5.5 z"
     id="path2"
     inkscape:connector-curvature="0" /></svg>