<?xml version="1.0" encoding="UTF-8" standalone="no"?>
<svg
   xmlns:dc="http://purl.org/dc/elements/1.1/"
   xmlns:cc="http://creativecommons.org/ns#"
   xmlns:rdf="http://www.w3.org/1999/02/22-rdf-syntax-ns#"
   xmlns:svg="http://www.w3.org/2000/svg"
   xmlns="http://www.w3.org/2000/svg"
   xmlns:sodipodi="http://sodipodi.sourceforge.net/DTD/sodipodi-0.dtd"
   xmlns:inkscape="http://www.inkscape.org/namespaces/inkscape"
   version="1.1"
   x="0px"
   y="0px"
   viewBox="0 0 45.900002 45.900002"
   xml:space="preserve"
   id="svg18"
   sodipodi:docname="architecture.svg"
   width="45.900002"
   height="45.900002"
   inkscape:version="0.92.5 (2060ec1f9f, 2020-04-08)"><metadata
     id="metadata24"><rdf:RDF><cc:Work
         rdf:about=""><dc:format>image/svg+xml</dc:format><dc:type
           rdf:resource="http://purl.org/dc/dcmitype/StillImage" /><dc:title></dc:title></cc:Work></rdf:RDF></metadata><defs
     id="defs22" /><sodipodi:namedview
     pagecolor="#ffffff"
     bordercolor="#666666"
     borderopacity="1"
     objecttolerance="10"
     gridtolerance="10"
     guidetolerance="10"
     inkscape:pageopacity="0"
     inkscape:pageshadow="2"
     inkscape:window-width="760"
     inkscape:window-height="480"
     id="namedview20"
     showgrid="false"
     inkscape:zoom="3.6307692"
     inkscape:cx="19.9"
     inkscape:cy="16.4"
     inkscape:window-x="0"
     inkscape:window-y="0"
     inkscape:window-maximized="0"
     inkscape:current-layer="svg18" /><g
     id="g12"
     transform="translate(-2.9558296,-3.000003)"><path
       d="m 40.6,3 c -2.9,0 -5.2,2.3 -5.2,5.2 v 2.1 c 0,0.6 -0.5,1 -1,1 h -22 v 29.3 h 22 c 0.6,0 1,0.5 1,1 v 1.8 0.3 c 0,0 0,0.1 0,0.1 0,0 0,0.1 0,0.1 0.1,2.2 1.6,4.1 3.6,4.7 0.1,0 0.3,0.1 0.4,0.1 0.1,0 0.2,0.1 0.3,0.1 0.1,0 0.2,0 0.3,0 0.1,0 0.3,0 0.4,0 h 0.1 v 0 c 1.4,0 2.7,-0.5 3.6,-1.5 1,-1 1.6,-2.3 1.6,-3.7 V 8.2 C 45.9,5.3 43.5,3 40.6,3 Z M 20,37.5 c -0.6,0 -1,-0.5 -1,-1 V 22.6 l -0.2,0.1 C 18.3,23 17.7,22.9 17.4,22.4 17,22 17.2,21.3 17.7,21 l 1.7,-1.1 c 0,0 0,0 0,0 l 0.1,-0.1 7.9,-5.1 c 0.3,-0.2 0.8,-0.2 1.1,0 l 7.9,5.1 0.1,0.1 c 0,0 0,0 0,0 l 1.7,1.1 c 0.5,0.3 0.6,1 0.3,1.4 -0.2,0.3 -0.5,0.5 -0.9,0.5 -0.2,0 -0.4,-0.1 -0.6,-0.2 l -0.2,-0.1 v 13.8 c 0,0.6 -0.5,1 -1,1 H 20 Z"
       id="path2"
       inkscape:connector-curvature="0" /><path
       d="m 21.1,21.3 v 14.1 h 14 V 21.3 l -7,-4.5 z m 11.8,3.9 V 31 c 0,0.6 -0.5,1 -1,1 h -7.5 c -0.6,0 -1,-0.5 -1,-1 v -5.8 c 0,-0.6 0.3,-1.3 1.8,-1.8 0.8,-0.3 1.9,-0.4 3,-0.4 2.2,0 4.7,0.6 4.7,2.2 z"
       id="path4"
       inkscape:connector-curvature="0" /><path
       d="m 25.7,25.4 c -0.2,0.1 -0.3,0.1 -0.3,0.1 V 30 h 5.4 v -4.4 c -0.4,-0.2 -1.3,-0.4 -2.7,-0.4 -0.9,-0.1 -1.8,0 -2.4,0.2 z"
       id="path6"
       inkscape:connector-curvature="0" /><path
       d="M 33.3,42.7 H 6.1 v 1 c 0,2.9 2.3,5.2 5.2,5.2 h 24.2 c -1.4,-1.3 -2.2,-3.2 -2.2,-5.2 z"
       id="path8"
       inkscape:connector-curvature="0" /><path
       d="m 33.3,8.2 c 0,-0.2 0,-0.4 0,-0.6 0,-0.1 0,-0.2 0,-0.3 0,0 0,0 0,0 0,-0.2 0,-0.3 0.1,-0.5 0,-0.2 0.1,-0.4 0.1,-0.5 0,-0.1 0.1,-0.3 0.1,-0.4 0,-0.1 0.1,-0.2 0.1,-0.4 0,-0.1 0,-0.1 0.1,-0.2 C 34,5.2 34.1,5 34.1,4.9 34.4,4.4 34.7,4 35,3.5 35.1,3.3 35.3,3.1 35.5,3 H 11.4 C 8.5,3 6.1,5.3 6.1,8.2 v 1 h 27.2 z"
       id="path10"
       inkscape:connector-curvature="0" /></g></svg>