<?xml version="1.0" encoding="UTF-8" standalone="no"?>
<svg
   xmlns:dc="http://purl.org/dc/elements/1.1/"
   xmlns:cc="http://creativecommons.org/ns#"
   xmlns:rdf="http://www.w3.org/1999/02/22-rdf-syntax-ns#"
   xmlns:svg="http://www.w3.org/2000/svg"
   xmlns="http://www.w3.org/2000/svg"
   xmlns:sodipodi="http://sodipodi.sourceforge.net/DTD/sodipodi-0.dtd"
   xmlns:inkscape="http://www.inkscape.org/namespaces/inkscape"
   version="1.1"
   x="0px"
   y="0px"
   viewBox="0 0 315.089 315.089"
   xml:space="preserve"
   id="svg30"
   sodipodi:docname="archeology.svg"
   inkscape:version="0.92.5 (2060ec1f9f, 2020-04-08)"
   width="315.08899"
   height="315.08899"><metadata
     id="metadata36"><rdf:RDF><cc:Work
         rdf:about=""><dc:format>image/svg+xml</dc:format><dc:type
           rdf:resource="http://purl.org/dc/dcmitype/StillImage" /><dc:title></dc:title></cc:Work></rdf:RDF></metadata><defs
     id="defs34" /><sodipodi:namedview
     pagecolor="#ffffff"
     bordercolor="#666666"
     borderopacity="1"
     objecttolerance="10"
     gridtolerance="10"
     guidetolerance="10"
     inkscape:pageopacity="0"
     inkscape:pageshadow="2"
     inkscape:window-width="760"
     inkscape:window-height="480"
     id="namedview32"
     showgrid="false"
     inkscape:zoom="0.72505791"
     inkscape:cx="157.54449"
     inkscape:cy="162.74562"
     inkscape:window-x="0"
     inkscape:window-y="0"
     inkscape:window-maximized="0"
     inkscape:current-layer="svg30" /><g
     id="g24"
     transform="translate(0,27.348495)"><polygon
       points="259.746,124.733 243.744,124.733 239.72,129.874 263.769,129.874 "
       id="polygon2" /><polygon
       points="245.685,122.252 257.802,122.252 251.744,114.512 "
       id="polygon4" /><path
       d="m 250.792,184.443 h -3.809 l -58.09,-74.212 h -39.398 l -14.736,18.827 c 0.256,4.386 0.393,9.002 0.398,13.881 0,6.076 -0.201,12.639 -0.6,19.508 -0.43,7.396 -6.566,13.188 -13.968,13.188 -0.264,0 -0.525,-0.006 -0.791,-0.021 -2.859,-0.167 -5.471,-1.178 -7.602,-2.777 v 17.892 h 202.892 v -6.285 h -8.605 L 265.71,132.356 h -27.934 l -13.879,17.73 26.881,34.34 z"
       id="path6"
       inkscape:connector-curvature="0" /><polygon
       points="180.48,99.481 157.91,99.481 152.236,106.731 186.156,106.731 "
       id="polygon8" /><polygon
       points="160.65,95.981 177.74,95.981 169.195,85.064 "
       id="polygon10" /><path
       d="m 79.153,33.391 c 12.192,0 24.499,3.5 24.499,11.318 0,0.802 -0.042,1.594 -0.117,2.376 12.017,-2.147 19.949,-5.832 19.949,-10.021 0,-4.487 -9.107,-8.397 -22.586,-10.456 C 98.346,16.984 89.578,9.89 79.151,9.89 c -10.429,0 -19.195,7.094 -21.747,16.719 -13.478,2.059 -22.586,5.968 -22.586,10.456 0,4.189 7.935,7.875 19.951,10.021 -0.075,-0.782 -0.117,-1.575 -0.117,-2.376 0,-7.819 12.306,-11.319 24.501,-11.319 z"
       id="path12"
       inkscape:connector-curvature="0" /><path
       d="m 71.553,220.46 c -8.754,-0.001 -15.616,-1.351 -19.447,-2.329 v 29.898 c 0,6.83 5.537,12.363 12.363,12.363 6.828,0 12.365,-5.533 12.365,-12.363 v -27.746 c -1.819,0.113 -3.592,0.177 -5.281,0.177 z"
       id="path14"
       inkscape:connector-curvature="0" /><path
       d="m 86.749,220.46 c -1.689,0 -3.462,-0.064 -5.28,-0.177 v 27.746 c 0,6.83 5.537,12.363 12.363,12.363 6.828,0 12.366,-5.533 12.366,-12.363 V 218.13 c -3.832,0.978 -10.694,2.328 -19.449,2.33 z"
       id="path16"
       inkscape:connector-curvature="0" /><path
       d="m 101.651,45.71 c 0,-12.427 -45,-12.427 -45,0 0,12.427 10.074,22.5 22.5,22.5 12.428,0 22.5,-10.073 22.5,-22.5 z"
       id="path18"
       inkscape:connector-curvature="0" /><path
       d="m 2.323,215.496 26.588,-26.915 -8.299,-8.2 6.025,-6.096 c 1.107,0.32 2.348,0.055 3.215,-0.823 l 0.155,-0.157 4.361,-4.415 c 1.023,0.475 2.156,0.746 3.348,0.746 0.158,0 0.315,-0.005 0.475,-0.014 4.41,-0.26 7.777,-4.045 7.518,-8.457 -0.071,-1.215 -0.128,-2.389 -0.185,-3.565 l 3.655,-3.7 c 1.262,-1.276 1.25,-3.334 -0.027,-4.596 -1.075,-1.062 -2.697,-1.21 -3.938,-0.472 -0.043,-2.019 -0.071,-3.997 -0.071,-5.887 -0.035,-24.217 3.495,-37.82 6.963,-44.92 v 33.064 18.939 65.003 c 0.938,0.253 2.138,0.549 3.571,0.846 3.82,0.789 9.303,1.583 15.876,1.583 1.687,0 3.458,-0.064 5.281,-0.181 v -59.522 h 4.635 v 59.521 c 1.821,0.117 3.593,0.182 5.28,0.182 9.049,0 16.016,-1.503 19.449,-2.431 V 150.028 131.09 98.072 c 0.593,1.215 1.19,2.609 1.78,4.236 2.818,7.813 5.188,20.629 5.18,40.639 0,5.512 -0.18,11.57 -0.564,18.225 -0.258,4.41 3.109,8.193 7.521,8.451 0.158,0.009 0.314,0.014 0.471,0.014 4.206,0 7.734,-3.283 7.982,-7.537 0.402,-6.93 0.59,-13.296 0.59,-19.152 -0.041,-30.183 -4.861,-46.887 -11.433,-56.933 -3.287,-4.985 -7.131,-8.183 -10.678,-9.955 -3.431,-1.729 -6.445,-2.114 -8.244,-2.135 -0.111,-0.005 -0.221,-0.017 -0.334,-0.017 h -4.21 l 8.268,10.44 -13.499,-4.162 -8.75,12.75 4.968,-19.027 H 73.059 l 4.968,19.027 -8.75,-12.75 -13.499,4.162 8.268,-10.44 h -4.211 c -0.134,0 -0.264,0.014 -0.396,0.02 -1.809,0.027 -4.79,0.422 -8.184,2.133 -5.379,2.666 -11.176,8.5 -15.234,18.84 -4.107,10.379 -6.865,25.387 -6.877,48.045 0,5.855 0.188,12.224 0.593,19.158 0.039,0.653 0.162,1.28 0.347,1.879 l -4.517,4.572 -0.336,0.34 c -0.892,0.902 -1.133,2.19 -0.757,3.315 l -8.102,8.199 3.248,3.209 L 0,213.622 Z M 79.152,99.398 c 1.564,0 2.833,1.268 2.833,2.833 0,1.565 -1.269,2.833 -2.833,2.833 -1.565,0 -2.834,-1.268 -2.834,-2.833 0,-1.565 1.269,-2.833 2.834,-2.833 z m 0,11.5 c 1.564,0 2.833,1.268 2.833,2.834 0,1.564 -1.269,2.832 -2.833,2.832 -1.565,0 -2.834,-1.268 -2.834,-2.832 0,-1.566 1.269,-2.834 2.834,-2.834 z m -57.356,74.87 2.873,2.839 -13.986,14.158 z"
       id="path20"
       inkscape:connector-curvature="0" /><path
       d="m 178.521,35.178 c 14.52,2.853 15.096,5.57 2.766,13.693 14.42,-3.18 15.936,-0.954 7.537,11.181 12.137,-8.396 14.361,-6.884 11.182,7.54 8.123,-12.332 10.84,-11.754 13.693,2.764 2.854,-14.518 5.57,-15.096 13.693,-2.764 -3.18,-14.424 -0.955,-15.935 11.182,-7.54 -8.398,-12.135 -6.883,-14.36 7.537,-11.181 -12.33,-8.123 -11.752,-10.841 2.766,-13.693 -14.518,-2.852 -15.096,-5.569 -2.766,-13.692 -14.42,3.18 -15.936,0.954 -7.537,-11.182 -12.137,8.397 -14.361,6.884 -11.182,-7.539 -8.123,12.331 -10.84,11.754 -13.693,-2.765 -2.854,14.519 -5.57,15.096 -13.693,2.765 3.18,14.423 0.955,15.936 -11.182,7.539 8.398,12.136 6.883,14.361 -7.537,11.182 12.33,8.122 11.753,10.84 -2.766,13.692 z m 35.178,-11.687 c 6.455,0 11.687,5.232 11.687,11.687 0,6.455 -5.232,11.687 -11.687,11.687 -6.455,0 -11.688,-5.232 -11.688,-11.687 0,-6.455 5.233,-11.687 11.688,-11.687 z"
       id="path22"
       inkscape:connector-curvature="0" /></g></svg>