<?xml version="1.0" encoding="UTF-8" standalone="no"?>
<svg
   xmlns:dc="http://purl.org/dc/elements/1.1/"
   xmlns:cc="http://creativecommons.org/ns#"
   xmlns:rdf="http://www.w3.org/1999/02/22-rdf-syntax-ns#"
   xmlns:svg="http://www.w3.org/2000/svg"
   xmlns="http://www.w3.org/2000/svg"
   xmlns:sodipodi="http://sodipodi.sourceforge.net/DTD/sodipodi-0.dtd"
   xmlns:inkscape="http://www.inkscape.org/namespaces/inkscape"
   version="1.1"
   x="0px"
   y="0px"
   viewBox="0 0 64 64"
   xml:space="preserve"
   id="svg8"
   sodipodi:docname="art history.svg"
   width="64"
   height="64"
   inkscape:version="0.92.5 (2060ec1f9f, 2020-04-08)"><metadata
     id="metadata14"><rdf:RDF><cc:Work
         rdf:about=""><dc:format>image/svg+xml</dc:format><dc:type
           rdf:resource="http://purl.org/dc/dcmitype/StillImage" /><dc:title></dc:title></cc:Work></rdf:RDF></metadata><defs
     id="defs12" /><sodipodi:namedview
     pagecolor="#ffffff"
     bordercolor="#666666"
     borderopacity="1"
     objecttolerance="10"
     gridtolerance="10"
     guidetolerance="10"
     inkscape:pageopacity="0"
     inkscape:pageshadow="2"
     inkscape:window-width="760"
     inkscape:window-height="480"
     id="namedview10"
     showgrid="false"
     inkscape:zoom="2.95"
     inkscape:cx="32"
     inkscape:cy="40"
     inkscape:window-x="0"
     inkscape:window-y="0"
     inkscape:window-maximized="0"
     inkscape:current-layer="svg8" /><path
     d="m 20,49 h 6.171 c 2.091,0 4.057,-0.814 5.536,-2.293 L 30.293,45.293 C 29.192,46.394 27.728,47 26.171,47 H 20 v -6 h -2 v 4 h -5 v -6 c 0,-3.825 3.085,-6.939 6.897,-6.995 l 3.844,0.961 c 2.269,0.567 4.169,2.091 5.215,4.183 l 0.149,0.298 1.789,-0.895 -0.149,-0.298 c -1.307,-2.614 -3.683,-4.52 -6.519,-5.229 l -0.383,-0.096 c 1.653,-0.972 2.941,-2.538 3.491,-4.463 L 27.96,24.274 C 27.987,24.186 28,24.093 28,24 v -2 c 0,-0.552 -0.448,-1 -1,-1 h -3 v -4 c 0,-0.552 -0.448,-1 -1,-1 h -0.613 l 1.562,-4.684 C 23.983,11.214 24,11.107 24,11 24,6.589 27.589,3 32,3 h 1 c 4.411,0 8,3.589 8,8 v 1.798 c 0,1.729 -0.774,3.34 -2.125,4.421 C 37.048,18.681 36,20.862 36,23.202 V 24 c 0,0.093 0.013,0.186 0.039,0.275 l 0.626,2.192 c 0.55,1.925 1.838,3.491 3.491,4.463 l -0.383,0.096 c -2.835,0.709 -5.211,2.615 -6.519,5.229 l -0.149,0.298 1.789,0.895 0.149,-0.298 c 1.045,-2.092 2.946,-3.616 5.215,-4.183 l 3.844,-0.961 C 47.915,32.061 51,35.175 51,39 v 6 h -5 v -4 h -2 v 6 h -6.171 c -1.557,0 -3.021,-0.606 -4.122,-1.707 l -1.414,1.414 C 33.772,48.186 35.738,49 37.829,49 H 44 v 4 H 20 Z m -9,6 h 42 v 2 H 11 Z m 50,6 H 3 v -2 h 58 z"
     id="path2"
     inkscape:connector-curvature="0" /></svg>