<?xml version="1.0" encoding="UTF-8" standalone="no"?>
<svg
   xmlns:dc="http://purl.org/dc/elements/1.1/"
   xmlns:cc="http://creativecommons.org/ns#"
   xmlns:rdf="http://www.w3.org/1999/02/22-rdf-syntax-ns#"
   xmlns:svg="http://www.w3.org/2000/svg"
   xmlns="http://www.w3.org/2000/svg"
   xmlns:sodipodi="http://sodipodi.sourceforge.net/DTD/sodipodi-0.dtd"
   xmlns:inkscape="http://www.inkscape.org/namespaces/inkscape"
   viewBox="0 0 51.873409 51.87341"
   x="0px"
   y="0px"
   version="1.1"
   id="svg12"
   sodipodi:docname="astronomy.svg"
   width="51.873409"
   height="51.873409"
   inkscape:version="0.92.5 (2060ec1f9f, 2020-04-08)">
  <metadata
     id="metadata18">
    <rdf:RDF>
      <cc:Work
         rdf:about="">
        <dc:format>image/svg+xml</dc:format>
        <dc:type
           rdf:resource="http://purl.org/dc/dcmitype/StillImage" />
        <dc:title>Astronomy</dc:title>
      </cc:Work>
    </rdf:RDF>
  </metadata>
  <defs
     id="defs16" />
  <sodipodi:namedview
     pagecolor="#ffffff"
     bordercolor="#666666"
     borderopacity="1"
     objecttolerance="10"
     gridtolerance="10"
     guidetolerance="10"
     inkscape:pageopacity="0"
     inkscape:pageshadow="2"
     inkscape:window-width="760"
     inkscape:window-height="480"
     id="namedview14"
     showgrid="false"
     inkscape:zoom="2.95"
     inkscape:cx="26"
     inkscape:cy="18.000027"
     inkscape:window-x="0"
     inkscape:window-y="0"
     inkscape:window-maximized="0"
     inkscape:current-layer="svg12" />
  <title
     id="title2">Astronomy</title>
  <g
     id="g6"
     transform="translate(-6,-6.1675262)">
    <path
       d="M 57.5,22.35 49,7.58 a 2.75,2.75 0 0 0 -3.76,-1 l -4.79,2.74 a 2.76,2.76 0 0 0 -1.2,3.34 L 25,20.91 v 0 l -1,-1.73 v 0 l 3.46,-2 a 1,1 0 0 0 1.37,0.37 l 3.46,-2 a 1,1 0 0 0 0.37,-1.37 L 29.62,9 A 1,1 0 0 0 28.25,8.63 l -3.46,2 A 1,1 0 0 0 24.42,12 l -9.52,5.5 a 1,1 0 0 0 -0.37,1.36 l 2,3.47 a 1,1 0 0 0 0.61,0.46 0.75,0.75 0 0 0 0.26,0 1,1 0 0 0 0.5,-0.14 l 4.33,-2.5 1,1.73 L 20,23.8 A 3.22,3.22 0 0 0 18.37,27 L 12,30.69 a 2.92,2.92 0 0 0 -1.07,4 v 0.07 L 10.51,35 H 7 a 1,1 0 0 0 -1,1 v 6 a 1,1 0 0 0 1,1 h 5 a 1,1 0 0 0 0.45,-0.11 l 2.55,-1.27 0.07,0.12 a 2.87,2.87 0 0 0 1.78,1.36 2.78,2.78 0 0 0 0.76,0.1 2.9,2.9 0 0 0 1.39,-0.39 l 6.34,-3.66 a 3.12,3.12 0 0 0 1.14,0.56 3,3 0 0 0 0.84,0.11 A 3.29,3.29 0 0 0 29,39.39 L 30.37,38.6 23.24,49 H 22 a 1,1 0 0 0 -1,1 1,1 0 0 0 0.9,1 v 0 l -3.72,5.45 A 1,1 0 0 0 18.45,57.84 1,1 0 0 0 19,58 1,1 0 0 0 19.83,57.56 L 24.3,51 H 33 v 6 a 1,1 0 0 0 2,0 v -6 h 8.7 l 4.47,6.56 A 1,1 0 0 0 49,58 1,1 0 0 0 49.56,57.83 1,1 0 0 0 49.83,56.44 L 46.11,51 v 0 a 1,1 0 0 0 0.9,-1 1,1 0 0 0 -1,-1 H 44.76 L 37.58,38.48 A 4.93,4.93 0 0 0 39,35 4.74,4.74 0 0 0 38.82,33.7 l 9.44,-5.45 a 2.65,2.65 0 0 0 1.39,0.88 2.44,2.44 0 0 0 0.71,0.1 2.8,2.8 0 0 0 1.38,-0.37 l 4.75,-2.74 v 0 a 2.75,2.75 0 0 0 1.01,-3.77 z m -1.66,1.57 a 0.79,0.79 0 0 1 -0.35,0.47 l -4.75,2.74 a 0.76,0.76 0 0 1 -1,-0.29 l -0.25,-0.43 -8,-13.86 -0.27,-0.47 a 0.75,0.75 0 0 1 0.27,-1 L 46.21,8.3 a 0.86,0.86 0 0 1 0.38,-0.1 0.76,0.76 0 0 1 0.65,0.38 l 8.53,14.77 a 0.76,0.76 0 0 1 0.07,0.57 z M 8,41 v -4 h 2.85 a 1.13,1.13 0 0 0 0.5,-0.13 L 12,36.49 14,39.9 11.76,41 Z m 27.72,-3.55 v 0 0 A 3,3 0 0 1 34,38 3,3 0 0 1 32.36,37.51 v 0 l -0.13,-0.08 a 2.79,2.79 0 0 1 -0.66,-0.71 3,3 0 1 1 5.17,-3 A 2.9,2.9 0 0 1 37,35 3,3 0 0 1 35.72,37.45 Z m -3.65,2.16 A 4.33,4.33 0 0 0 33,39.89 V 49 H 25.67 Z M 35,39.9 a 5,5 0 0 0 0.93,-0.29 L 42.33,49 H 35 Z M 26.42,15.45 22.09,18 l -4.33,2.5 -1,-1.73 8.66,-5 z"
       id="path4"
       inkscape:connector-curvature="0" />
  </g>
</svg>
