<?xml version="1.0" encoding="UTF-8" standalone="no"?>
<svg
   xmlns:dc="http://purl.org/dc/elements/1.1/"
   xmlns:cc="http://creativecommons.org/ns#"
   xmlns:rdf="http://www.w3.org/1999/02/22-rdf-syntax-ns#"
   xmlns:svg="http://www.w3.org/2000/svg"
   xmlns="http://www.w3.org/2000/svg"
   xmlns:sodipodi="http://sodipodi.sourceforge.net/DTD/sodipodi-0.dtd"
   xmlns:inkscape="http://www.inkscape.org/namespaces/inkscape"
   version="1.1"
   x="0px"
   y="0px"
   viewBox="0 0 94.782997 94.782997"
   enable-background="new 0 0 100 100"
   xml:space="preserve"
   id="svg38"
   sodipodi:docname="ballistics.svg"
   width="94.782997"
   height="94.782997"
   inkscape:version="0.92.5 (2060ec1f9f, 2020-04-08)"><metadata
     id="metadata44"><rdf:RDF><cc:Work
         rdf:about=""><dc:format>image/svg+xml</dc:format><dc:type
           rdf:resource="http://purl.org/dc/dcmitype/StillImage" /><dc:title></dc:title></cc:Work></rdf:RDF></metadata><defs
     id="defs42" /><sodipodi:namedview
     pagecolor="#ffffff"
     bordercolor="#666666"
     borderopacity="1"
     objecttolerance="10"
     gridtolerance="10"
     guidetolerance="10"
     inkscape:pageopacity="0"
     inkscape:pageshadow="2"
     inkscape:window-width="760"
     inkscape:window-height="480"
     id="namedview40"
     showgrid="false"
     inkscape:zoom="1.888"
     inkscape:cx="31.388"
     inkscape:cy="35.643"
     inkscape:window-x="0"
     inkscape:window-y="0"
     inkscape:window-maximized="0"
     inkscape:current-layer="svg38" /><path
     d="m 57.395999,83.917006 c 10e-4,-0.01 0.011,-0.015 0.014,-0.023 0.003,-0.01 -0.003,-0.019 10e-4,-0.028 l 1.024,-2.266 c 0.005,-0.01 0.016,-0.012 0.021,-0.02 0.005,-0.009 0.002,-0.021 0.009,-0.028 l 0.123,-0.145 0.14,-0.313 c 0.004,-0.009 0.014,-0.01 0.019,-0.018 0.005,-0.009 0.002,-0.019 0.008,-0.026 l 1.53,-1.923 c 0.005,-0.006 0.015,-0.005 0.021,-0.011 0.005,-0.006 0.004,-0.016 0.011,-0.021 l 1.974,-1.582 c 0.006,-0.005 0.015,-0.002 0.021,-0.006 0.006,-0.005 0.007,-0.013 0.014,-0.017 l 2.33,-1.178 c 0.007,-0.004 0.015,0.001 0.021,-0.002 0.006,-0.003 0.009,-0.011 0.017,-0.013 l 2.48,-0.658 c 0.008,-0.002 0.015,0.004 0.022,0.003 0.007,-10e-4 0.013,-0.01 0.021,-0.01 l 2.492,-0.113 c 0.01,0 0.014,0.008 0.023,0.009 0.009,10e-4 0.015,-0.007 0.024,-0.005 l 0.507,0.101 2.48,0.481 c 0.01,0.002 0.015,0.013 0.023,0.016 0.01,0.003 0.02,-0.003 0.028,0.002 l 1.812,0.905 -0.219,-0.206 -2.077,-1.038 -2.442,-0.484 -2.613,0.125 -2.63,0.71 -2.442,1.221 -2.105,1.683 -1.617,2.028 -1.003,2.203 -0.346,2.258 0.019,0.115 z"
     id="path2"
     inkscape:connector-curvature="0"
     style="fill:#000000" /><polygon
     points="74.816,92.494 75.802,91.263 76.423,89.909 76.631,88.521 76.425,87.232 75.812,86.062 74.845,85.144 73.568,84.524 72.059,84.229 70.464,84.316 68.842,84.725 67.337,85.501 66.042,86.537 65.059,87.78 64.447,89.139 64.228,90.497 64.446,91.812 65.048,92.956 66.012,93.873 67.294,94.507 68.785,94.801 70.401,94.728 72.003,94.308 73.522,93.542 "
     id="polygon4"
     style="fill:#000000"
     transform="translate(-2.1790014,-3.3599942)" /><path
     d="m 17.895999,44.444006 1.642,1.234 2.166,0.971 2.498,0.585 h 0.055 c 0.005,0 0.01,0 0.016,10e-4 l 2.631,0.201 2.702,-0.2 2.508,-0.587 2.154,-0.971 1.64,-1.233 1.01,-1.412 0.354,-1.504 v -0.035 c 0.002,-0.012 -0.005,-0.023 -10e-4,-0.035 l -0.012,-0.41 -0.062,-2.15 -0.227,-2.572 -0.14,-0.949 c 0,-0.002 10e-4,-0.003 10e-4,-0.005 0,-10e-4 -0.002,-0.002 -0.002,-0.004 l -0.013,-0.126 v -10e-4 l -0.225,-1.485 -10e-4,-10e-4 -0.518,-2.556 -0.315,-1.389 -0.643,-2.432 -0.793,-2.366 -0.933,-2.346 -1.056,-2.234 -1.213,-2.212 -1.309,-2.114 -1.477,-2.044 c -0.001,-10e-4 0,-0.003 -0.001,-0.004 0,-10e-4 -0.001,0 -0.002,-10e-4 l -0.161,-0.235 -0.896,-1.103 c -0.01,-0.007 -0.023,-0.004 -0.032,-0.013 -0.019,-0.019 -0.021,-0.043 -0.031,-0.065 l -0.308,-0.369 -1.267,1.547 -0.147,0.233 c -10e-4,0.002 -0.003,10e-4 -0.004,0.002 -0.002,0.002 -0.001,0.005 -0.002,0.007 l -1.468,2.05 -1.329,2.106 -1.209,2.204 -1.051,2.253 c 0,0 -0.001,0 -0.001,0.001 l -0.93,2.337 -0.792,2.365 -0.641,2.432 -0.315,1.389 -0.519,2.549 -0.378,2.578 -0.214,2.572 -0.075,2.151 -0.014,0.442 v 0.032 0.005 l 0.353,1.506 z"
     id="path6"
     inkscape:connector-curvature="0"
     style="fill:#000000" /><path
     d="m 18.169999,88.937006 c -0.006,-0.007 -0.017,-0.004 -0.022,-0.012 l -0.543,-0.741 -0.071,-0.062 c -0.008,-0.007 -0.006,-0.018 -0.013,-0.024 -0.006,-0.006 -0.016,-0.004 -0.021,-0.011 l -0.835,-1.173 0.121,0.517 1.022,1.438 1.655,1.246 2.176,0.971 2.548,0.611 2.715,0.201 2.741,-0.201 2.546,-0.61 2.153,-0.973 1.665,-1.245 1.024,-1.438 0.121,-0.518 -0.837,1.174 c -0.006,0.008 -0.017,0.005 -0.023,0.012 -0.008,0.01 -0.008,0.023 -0.018,0.031 l -0.08,0.062 -0.524,0.731 c -0.006,0.008 -0.017,0.005 -0.023,0.012 -0.008,0.01 -0.008,0.024 -0.019,0.032 l -1.582,1.189 c -0.008,0.006 -0.018,0.004 -0.025,0.009 -0.007,0.003 -0.008,0.012 -0.015,0.015 l -2.051,0.899 c -0.009,0.004 -0.018,0.003 -0.025,0.005 -0.004,0.001 -0.005,0.005 -0.008,0.006 l -2.391,0.582 c -0.01,0.003 -0.02,0.003 -0.03,0.004 -0.001,0 -0.001,0.001 -0.002,0.001 l -2.583,0.189 c -0.005,0.001 -0.01,0.001 -0.015,0.001 -0.005,0 -0.01,0 -0.015,-0.001 l -2.569,-0.189 c -10e-4,0 -10e-4,-0.001 -0.002,-0.001 -0.011,-0.001 -0.021,-0.001 -0.03,-0.004 l -2.404,-0.582 c -0.003,-0.001 -0.004,-0.005 -0.008,-0.006 -0.008,-0.002 -0.017,-0.001 -0.025,-0.005 l -2.051,-0.899 c -0.007,-0.003 -0.009,-0.012 -0.015,-0.016 -0.009,-0.005 -0.019,-0.003 -0.026,-0.009 l -1.569,-1.189 c -0.01,-0.008 -0.009,-0.02 -0.017,-0.029 z"
     id="path8"
     inkscape:connector-curvature="0"
     style="fill:#000000" /><path
     d="m 21.994999,90.706006 2.37,0.573 2.537,0.188 2.551,-0.188 2.356,-0.573 2.016,-0.884 0.252,-0.189 -1.74,0.774 c -0.009,0.004 -0.018,0.003 -0.025,0.006 -0.004,0.001 -0.005,0.005 -0.009,0.006 l -2.581,0.62 c -0.01,0.003 -0.02,0.003 -0.03,0.004 -10e-4,0 -10e-4,10e-4 -0.002,10e-4 l -2.772,0.202 c -0.005,0.001 -0.01,0.001 -0.015,0.001 -0.005,0 -0.01,0 -0.015,-0.001 l -2.747,-0.202 c -0.001,0 -0.001,-10e-4 -0.002,-10e-4 -0.011,-0.001 -0.021,-0.001 -0.03,-0.004 l -2.58,-0.62 c -0.004,-10e-4 -0.005,-0.005 -0.009,-0.007 -0.008,-0.002 -0.017,-0.001 -0.024,-0.005 l -1.773,-0.78 0.257,0.194 z"
     id="path10"
     inkscape:connector-curvature="0"
     style="fill:#000000" /><path
     d="m 16.785999,86.394006 1.028,1.444 0.058,0.05 h 0.001 l 1.592,1.19 2.172,0.956 2.551,0.612 2.715,0.2 2.741,-0.2 2.549,-0.612 2.149,-0.957 1.589,-1.188 v -10e-4 l 0.078,-0.06 1.022,-1.435 0.231,-1.024 c 0,-0.001 10e-4,-0.001 10e-4,-0.002 10e-4,-0.001 0,-0.001 0,-0.002 l 0.121,-0.494 v -3.052 -2.189 -0.442 -0.608 -35.287 c -0.003,0.005 0,0.012 -0.004,0.017 l -1.064,1.494 c -0.006,0.008 -0.018,0.006 -0.024,0.013 -0.009,0.01 -0.008,0.023 -0.019,0.031 l -1.708,1.278 c -0.008,0.006 -0.018,0.004 -0.025,0.009 -0.006,0.003 -0.008,0.011 -0.014,0.014 l -2.189,0.974 c -0.009,0.004 -0.018,0.003 -0.025,0.006 -0.004,0.001 -0.005,0.005 -0.009,0.006 l -2.582,0.62 c -0.01,0.003 -0.02,0.003 -0.03,0.004 -0.001,0 -0.001,10e-4 -0.002,10e-4 l -2.772,0.201 c -0.005,0.001 -0.01,0.001 -0.015,0.001 -0.005,0 -0.01,0 -0.016,-0.001 l -2.633,-0.2 h -0.099 c -0.016,0 -0.031,-0.002 -0.047,-0.006 l -2.58,-0.621 c -0.004,-10e-4 -0.005,-0.005 -0.009,-0.007 -0.008,-0.002 -0.017,-0.001 -0.024,-0.005 l -2.215,-0.974 c -0.006,-0.003 -0.007,-0.01 -0.013,-0.014 -0.009,-0.004 -0.02,-0.003 -0.027,-0.009 l -1.697,-1.278 c -0.011,-0.008 -0.01,-0.021 -0.019,-0.031 -0.007,-0.007 -0.019,-0.005 -0.024,-0.013 l -1.062,-1.494 c -0.004,-0.005 -0.001,-0.012 -0.004,-0.017 v 41.583 l 0.108,0.495 z"
     id="path12"
     inkscape:connector-curvature="0"
     style="fill:#000000" /><polygon
     points="30.643,13.783 30.642,13.784 29.805,15.878 30.667,16.939 30.67,16.948 30.677,16.953 30.841,17.192 32.318,19.238 32.32,19.246 32.326,19.25 33.643,21.377 33.644,21.383 33.648,21.387 34.863,23.602 34.864,23.608 34.868,23.612 35.933,25.865 35.933,25.871 35.938,25.876 36.873,28.229 36.873,28.235 36.877,28.24 37.675,30.619 37.674,30.626 37.679,30.632 38.324,33.075 38.324,33.079 38.326,33.082 38.643,34.475 38.643,34.477 38.644,34.479 39.161,37.034 39.16,37.04 39.162,37.044 39.363,38.367 39.821,38.332 42.341,37.733 44.483,36.774 46.111,35.541 47.132,34.13 47.474,32.609 47.474,32.581 47.474,32.144 47.41,29.996 47.171,27.419 46.805,24.847 46.287,22.294 46.287,22.293 45.962,20.915 45.961,20.914 45.306,18.468 44.521,16.089 43.595,13.784 43.594,13.783 42.531,11.506 42.531,11.505 41.353,9.325 40.002,7.191 38.555,5.152 38.377,4.924 38.376,4.921 37.118,3.36 35.855,4.927 35.687,5.145 35.687,5.146 34.234,7.191 32.883,9.325 31.705,11.505 31.705,11.506 "
     id="polygon14"
     style="fill:#000000"
     transform="translate(-2.1790014,-3.3599942)" /><path
     d="m 17.807999,91.071006 1.656,1.248 2.172,0.956 2.551,0.611 2.715,0.213 2.741,-0.213 2.549,-0.611 2.149,-0.957 1.666,-1.247 1.023,-1.437 0.354,-1.518 v -0.501 c -0.003,0.005 0,0.012 -0.004,0.017 l -1.064,1.494 c -0.006,0.008 -0.018,0.006 -0.024,0.013 -0.009,0.01 -0.008,0.023 -0.019,0.031 l -1.708,1.277 c -0.008,0.006 -0.017,0.004 -0.024,0.008 -0.006,0.004 -0.007,0.012 -0.014,0.015 l -2.189,0.988 c -0.009,0.004 -0.018,0.003 -0.027,0.006 -0.003,0.001 -0.004,0.005 -0.008,0.006 l -2.582,0.619 c -0.01,0.003 -0.02,0.003 -0.03,0.004 -0.001,0 -0.001,10e-4 -0.002,10e-4 l -2.772,0.203 c -0.005,0.001 -0.01,0.001 -0.015,0.001 -0.005,0 -0.01,0 -0.015,-0.001 l -2.747,-0.203 c -0.001,0 -0.001,-10e-4 -0.002,-10e-4 -0.011,-0.001 -0.021,-0.001 -0.03,-0.004 l -2.58,-0.619 c -0.004,-0.001 -0.005,-0.005 -0.009,-0.006 -0.008,-0.003 -0.017,-0.002 -0.025,-0.006 l -2.215,-0.988 c -0.007,-0.003 -0.007,-0.011 -0.013,-0.014 -0.009,-0.005 -0.019,-0.003 -0.026,-0.009 l -1.697,-1.277 c -0.011,-0.008 -0.01,-0.021 -0.019,-0.031 -0.007,-0.007 -0.019,-0.005 -0.024,-0.013 l -1.062,-1.494 c -0.004,-0.005 -0.001,-0.012 -0.004,-0.017 v 0.501 l 0.354,1.519 z"
     id="path16"
     inkscape:connector-curvature="0"
     style="fill:#000000" /><path
     d="m 59.476999,91.773006 1.598,1.501 2.088,1.037 2.43,0.472 2.629,-0.099 2.614,-0.698 2.458,-1.248 2.104,-1.693 1.615,-2.013 1.005,-2.219 0.332,-2.247 -0.33,-2.137 -0.995,-1.89 -1.6,-1.502 -2.087,-1.037 -2.442,-0.484 -2.615,0.125 -2.63,0.698 -2.441,1.232 -2.105,1.682 -1.617,2.042 -1.002,2.199 -0.334,2.252 0.331,2.147 z m 2.172,-4.668 0.229,-1.418 c 0.002,-0.009 0.011,-0.014 0.014,-0.022 0.003,-0.008 -0.003,-0.019 0.001,-0.027 l 0.633,-1.404 c 0.004,-0.008 0.014,-0.01 0.019,-0.018 0.004,-0.008 0.001,-0.018 0.007,-0.024 l 1.012,-1.279 c 0.006,-0.007 0.015,-0.006 0.021,-0.012 0.006,-0.006 0.005,-0.015 0.012,-0.021 l 1.329,-1.062 c 0.006,-0.005 0.014,-0.002 0.02,-0.006 0.007,-0.004 0.007,-0.012 0.014,-0.016 l 1.544,-0.798 c 0.008,-0.004 0.016,10e-4 0.023,-0.002 0.007,-0.003 0.011,-0.013 0.02,-0.015 l 1.658,-0.417 c 0.008,-0.002 0.014,0.004 0.021,0.003 0.006,-0.001 0.01,-0.008 0.017,-0.008 l 1.645,-0.09 c 0.009,-0.002 0.016,0.008 0.023,0.008 0.009,10e-4 0.017,-0.007 0.025,-0.005 l 1.557,0.305 c 0.01,0.002 0.014,0.012 0.022,0.015 0.008,0.003 0.018,-0.002 0.026,0.002 l 1.329,0.645 c 0.01,0.005 0.012,0.018 0.021,0.023 0.009,0.007 0.021,0.004 0.029,0.012 l 1.013,0.963 c 0.009,0.008 0.007,0.021 0.014,0.03 0.007,0.01 0.02,0.011 0.025,0.021 l 0.645,1.229 c 0.005,0.01 -0.001,0.021 0.003,0.031 0.004,0.012 0.016,0.018 0.018,0.03 l 0.216,1.354 c 0.002,0.011 -0.007,0.019 -0.007,0.029 0,0.01 0.01,0.02 0.008,0.031 l -0.216,1.442 c -0.002,0.012 -0.012,0.018 -0.016,0.028 -0.003,0.009 0.003,0.017 -10e-4,0.025 l -0.645,1.405 c -0.004,0.01 -0.014,0.015 -0.02,0.022 -0.004,0.006 -10e-4,0.014 -0.006,0.02 l -1.013,1.266 c -0.005,0.006 -0.014,0.004 -0.019,0.009 -0.006,0.007 -0.005,0.016 -0.012,0.021 l -1.329,1.075 c -0.007,0.006 -0.016,0.004 -0.022,0.008 -0.006,0.004 -0.007,0.013 -0.014,0.016 l -1.557,0.784 c -0.009,0.005 -0.02,0.004 -0.029,0.007 -0.004,0.002 -0.005,0.007 -0.01,0.008 l -1.645,0.432 c -0.013,0.004 -0.025,0.005 -0.038,0.005 -0.002,0 -0.003,0.002 -0.004,0.002 l -1.658,0.075 c -0.003,0 -0.006,0 -0.009,0 -0.013,0 -0.025,-0.001 -0.039,-0.004 l -1.544,-0.304 c -0.005,-0.001 -0.007,-0.007 -0.012,-0.008 -0.013,-0.003 -0.026,-0.003 -0.038,-0.009 l -1.328,-0.657 c -0.01,-0.005 -0.012,-0.018 -0.021,-0.023 -0.009,-0.005 -0.021,-0.004 -0.028,-0.012 l -1.012,-0.962 c -0.006,-0.005 -0.004,-0.014 -0.009,-0.02 -0.01,-0.012 -0.023,-0.019 -0.03,-0.032 l -0.633,-1.202 c -0.005,-0.01 0.001,-0.02 -0.003,-0.029 -0.004,-0.012 -0.016,-0.019 -0.018,-0.031 l -0.229,-1.379 c -0.002,-0.012 0.008,-0.021 0.008,-0.032 0,-0.011 -0.009,-0.021 -0.007,-0.033 z"
     id="path18"
     inkscape:connector-curvature="0"
     style="fill:#000000" /><path
     d="m 50.911999,36.666006 -1.178,-0.582 c 0,0 0,-0.001 -10e-4,-0.001 l -1.344,-0.653 -1.388,-0.513 -1.18,-0.301 v 14.892 l 0.223,-0.287 c 0.006,-0.008 0.016,-0.006 0.021,-0.013 0.006,-0.006 0.005,-0.016 0.012,-0.021 l 2.14,-1.721 c 0.006,-0.005 0.015,-0.002 0.021,-0.006 0.006,-0.005 0.007,-0.013 0.014,-0.017 l 2.492,-1.253 c 0.007,-0.004 0.014,0.001 0.021,-0.002 0.007,-0.002 0.009,-0.011 0.017,-0.013 l 2.658,-0.708 c 0.008,-0.002 0.015,0.004 0.022,0.003 0.007,-10e-4 0.012,-0.01 0.021,-0.01 l 2.684,-0.115 c 0.009,-10e-4 0.015,0.008 0.023,0.009 0.009,0 0.015,-0.007 0.023,-0.005 l 2.48,0.482 c 0.01,0.002 0.015,0.013 0.023,0.016 0.01,0.003 0.019,-0.003 0.028,0.002 l 2.127,1.062 c 0.01,0.005 0.011,0.016 0.019,0.021 0.009,0.006 0.021,0.003 0.028,0.011 l 0.582,0.543 -0.276,-0.517 c 0,-10e-4 0,-10e-4 0,-0.002 l -0.999,-1.624 -1.116,-1.529 -1.239,-1.479 -1.365,-1.353 -1.32,-1.258 c -10e-4,0 -10e-4,0 -10e-4,0 l -1.366,-1.164 -1.408,-1.01 z"
     id="path20"
     inkscape:connector-curvature="0"
     style="fill:#000000" /><path
     d="m 58.106999,85.385006 c 0.003,-0.01 -0.003,-0.019 10e-4,-0.028 l 1.025,-2.252 c 0.004,-0.008 0.013,-0.009 0.018,-0.017 0.004,-0.008 0.001,-0.018 0.007,-0.024 l 1.645,-2.076 c 0.005,-0.007 0.015,-0.006 0.021,-0.011 0.006,-0.007 0.005,-0.016 0.012,-0.021 l 2.14,-1.709 c 0.006,-0.005 0.015,-0.002 0.021,-0.006 0.007,-0.005 0.008,-0.013 0.015,-0.017 l 2.479,-1.252 c 0.007,-0.004 0.015,0.001 0.021,-0.002 0.006,-0.003 0.009,-0.011 0.017,-0.013 l 2.672,-0.709 c 0.008,-0.002 0.014,0.004 0.021,0.003 0.008,-0.002 0.013,-0.01 0.021,-0.01 l 2.658,-0.127 c 0.004,0 0.007,0 0.01,0 0.008,0 0.012,0.007 0.019,0.008 0.008,0.001 0.013,-0.006 0.021,-0.004 l 2.492,0.494 c 0.01,0.002 0.014,0.013 0.023,0.016 0.009,0.003 0.018,-0.003 0.026,0.002 l 2.139,1.063 c 0.01,0.005 0.011,0.017 0.02,0.022 0.009,0.005 0.021,0.003 0.028,0.011 l 0.946,0.888 -0.308,-0.582 -1.598,-1.501 -2.077,-1.037 -2.429,-0.472 -2.616,0.124 -2.641,0.698 -2.442,1.222 -2.107,1.695 -1.49,1.879 c -10e-4,0.001 -0.002,0 -0.002,0.001 -0.002,0.002 -0.001,0.004 -0.002,0.005 l -0.122,0.144 -1.003,2.217 -0.345,2.241 0.337,2.046 c 0,0.002 -0.002,0.004 -10e-4,0.006 0,0.003 0.003,0.003 0.003,0.006 l 0.01,0.094 0.086,0.188 -0.125,-0.812 c -0.002,-0.011 0.007,-0.019 0.007,-0.028 0,-0.012 -0.01,-0.02 -0.008,-0.031 l 0.342,-2.305 c -10e-4,-0.012 0.01,-0.017 0.013,-0.027 z"
     id="path22"
     inkscape:connector-curvature="0"
     style="fill:#000000" /><path
     d="m 57.081999,83.157006 c 0.003,-0.009 -0.003,-0.018 10e-4,-0.026 l 1.025,-2.252 c 0.004,-0.008 0.014,-0.01 0.019,-0.017 0.004,-0.008 0.001,-0.018 0.007,-0.025 l 1.646,-2.064 c 0.005,-0.006 0.015,-0.005 0.021,-0.011 0.005,-0.006 0.004,-0.016 0.011,-0.021 l 2.14,-1.709 c 0.006,-0.005 0.015,-0.002 0.021,-0.006 0.007,-0.004 0.008,-0.013 0.015,-0.017 l 2.479,-1.24 c 0.007,-0.004 0.014,10e-4 0.021,-0.002 0.007,-0.003 0.009,-0.011 0.017,-0.013 l 2.671,-0.721 c 0.008,-0.002 0.014,0.004 0.021,0.003 0.007,-0.001 0.013,-0.01 0.021,-0.01 l 2.657,-0.127 c 0.004,0 0.007,0 0.01,0 0.007,0 0.012,0.007 0.019,0.008 0.008,0.001 0.013,-0.006 0.021,-0.004 l 2.493,0.494 c 0.01,0.002 0.014,0.013 0.023,0.016 0.009,0.003 0.019,-0.003 0.027,0.002 l 2.127,1.063 c 0.01,0.005 0.012,0.017 0.02,0.023 0.009,0.005 0.02,0.003 0.027,0.01 l 1.129,1.06 -12.484,-26.896 -1.021,-1.92 -0.149,-0.148 c -10e-4,-10e-4 -0.002,-10e-4 -0.002,-10e-4 l -1.446,-1.349 -2.076,-1.036 -2.429,-0.473 -2.641,0.113 -2.617,0.697 -2.453,1.233 -2.104,1.692 -0.525,0.677 v 12.428 l 11.018,23.763 -0.127,-0.791 c -0.002,-0.012 0.007,-0.02 0.008,-0.031 -0.001,-0.011 -0.01,-0.02 -0.008,-0.03 l 0.354,-2.316 c 0,-0.011 0.01,-0.016 0.013,-0.026 z"
     id="path24"
     inkscape:connector-curvature="0"
     style="fill:#000000" /><path
     d="m 42.114999,77.369006 -1.768,0.787 c -0.009,0.004 -0.018,0.003 -0.027,0.006 -0.003,10e-4 -0.004,0.005 -0.008,0.006 l -2.527,0.589 v 0.179 l 2.05,-0.493 2.027,-0.884 z"
     id="path26"
     inkscape:connector-curvature="0"
     style="fill:#000000" /><path
     d="m 37.365999,36.279006 0.229,2.595 c 0,0.002 -0.002,0.004 -0.002,0.006 0,0.002 0.003,0.004 0.003,0.006 l 0.062,2.133 0.123,0.538 c 0.002,0.008 -0.005,0.015 -0.004,0.022 10e-4,0.007 0.009,0.014 0.009,0.021 v 36.747 l 2.417,-0.564 2.176,-0.969 1.579,-1.19 c 0,0 0,0 10e-4,0 v -10e-4 l 0.077,-0.058 1.032,-1.434 0.232,-1.036 c 0,-0.001 10e-4,-0.001 10e-4,-0.002 0.001,-0.001 0,-0.001 0,-0.002 l 0.121,-0.495 v -9.963 -12.541 -15.732 -3.338 c -0.004,0.009 -10e-4,0.018 -0.006,0.025 l -1.075,1.494 c -0.006,0.008 -0.018,0.006 -0.023,0.012 -0.009,0.01 -0.008,0.023 -0.019,0.031 l -1.697,1.277 c -0.008,0.006 -0.018,0.004 -0.026,0.009 -0.006,0.003 -0.006,0.011 -0.013,0.014 l -2.215,0.987 c -0.009,0.004 -0.019,0.004 -0.028,0.006 -0.003,10e-4 -0.004,0.005 -0.008,0.006 l -2.555,0.595 c -0.008,0.002 -0.015,0.002 -0.022,0.003 -0.002,0 -0.003,0.002 -0.004,0.002 l -0.474,0.044 0.108,0.74 c 0,0.002 -0.002,0.004 -0.002,0.007 10e-4,0.002 0.003,0.003 0.003,0.005 z"
     id="path28"
     inkscape:connector-curvature="0"
     style="fill:#000000" /><path
     d="m 37.784999,79.408006 2.417,-0.587 2.176,-0.97 1.657,-1.248 1.032,-1.421 0.125,-0.539 -0.852,1.183 c -0.006,0.008 -0.018,0.006 -0.024,0.013 -0.008,0.009 -0.008,0.023 -0.019,0.031 l -0.076,0.056 -0.512,0.731 c -0.006,0.009 -0.018,0.006 -0.024,0.013 -0.009,0.01 -0.009,0.025 -0.02,0.033 l -1.582,1.189 c -0.008,0.006 -0.018,0.004 -0.025,0.009 -0.007,0.003 -0.008,0.012 -0.015,0.015 l -2.062,0.898 c -0.009,0.004 -0.018,0.003 -0.025,0.005 -0.004,0.001 -0.005,0.005 -0.008,0.006 l -2.163,0.521 z"
     id="path30"
     inkscape:connector-curvature="0"
     style="fill:#000000" /><path
     d="m 37.784999,81.598006 2.417,-0.574 2.176,-0.971 1.657,-1.248 1.032,-1.422 0.354,-1.547 v -0.478 c -0.004,0.008 -0.001,0.017 -0.006,0.024 l -1.075,1.479 c -0.006,0.008 -0.018,0.005 -0.023,0.012 -0.009,0.01 -0.008,0.023 -0.019,0.031 l -1.697,1.278 c -0.008,0.006 -0.018,0.004 -0.026,0.009 -0.006,0.003 -0.006,0.011 -0.013,0.014 l -2.215,0.987 c -0.009,0.004 -0.018,0.003 -0.025,0.006 -0.004,10e-4 -0.005,0.005 -0.009,0.006 l -2.528,0.613 z"
     id="path32"
     inkscape:connector-curvature="0"
     style="fill:#000000" /></svg>