<?xml version="1.0" encoding="UTF-8" standalone="no"?>
<svg
   xmlns:dc="http://purl.org/dc/elements/1.1/"
   xmlns:cc="http://creativecommons.org/ns#"
   xmlns:rdf="http://www.w3.org/1999/02/22-rdf-syntax-ns#"
   xmlns:svg="http://www.w3.org/2000/svg"
   xmlns="http://www.w3.org/2000/svg"
   xmlns:sodipodi="http://sodipodi.sourceforge.net/DTD/sodipodi-0.dtd"
   xmlns:inkscape="http://www.inkscape.org/namespaces/inkscape"
   viewBox="0 0 56 56"
   x="0px"
   y="0px"
   version="1.1"
   id="svg30"
   sodipodi:docname="biology.svg"
   width="56"
   height="56"
   inkscape:version="0.92.5 (2060ec1f9f, 2020-04-08)">
  <metadata
     id="metadata36">
    <rdf:RDF>
      <cc:Work
         rdf:about="">
        <dc:format>image/svg+xml</dc:format>
        <dc:type
           rdf:resource="http://purl.org/dc/dcmitype/StillImage" />
        <dc:title></dc:title>
      </cc:Work>
    </rdf:RDF>
  </metadata>
  <defs
     id="defs34" />
  <sodipodi:namedview
     pagecolor="#ffffff"
     bordercolor="#666666"
     borderopacity="1"
     objecttolerance="10"
     gridtolerance="10"
     guidetolerance="10"
     inkscape:pageopacity="0"
     inkscape:pageshadow="2"
     inkscape:window-width="760"
     inkscape:window-height="480"
     id="namedview32"
     showgrid="false"
     inkscape:zoom="2.95"
     inkscape:cx="28"
     inkscape:cy="20"
     inkscape:window-x="0"
     inkscape:window-y="0"
     inkscape:window-maximized="0"
     inkscape:current-layer="svg30" />
  <g
     id="g24"
     transform="translate(-4,-4)">
    <path
       d="M 14.424,47.483 10.553,56 H 16 v -8.175 a 0.825,0.825 0 0 0 -1.576,-0.342 z"
       id="path2"
       inkscape:connector-curvature="0" />
    <polygon
       points="4,60 35,60 35,58 17,58 9,58 4,58 "
       id="polygon4" />
    <path
       d="m 12.6,46.655 a 2.825,2.825 0 0 1 5.4,1.17 V 56 h 5 V 42 h -1 a 1,1 0 0 1 -1,-1 v -4 a 1,1 0 0 1 1,-1 h -3 a 4,4 0 0 1 -8,0 v -8 a 4,4 0 0 1 8,0 h 6 V 15 H 24 A 17.019,17.019 0 0 0 7,32 22.935,22.935 0 0 0 12.5,46.888 Z"
       id="path6"
       inkscape:connector-curvature="0" />
    <path
       d="m 29,42 v 3 h 3.3 A 15.059,15.059 0 0 1 32,42 Z"
       id="path8"
       inkscape:connector-curvature="0" />
    <polygon
       points="28,13 35,13 33.5,11 29.5,11 "
       id="polygon10" />
    <rect
       x="30"
       y="4"
       width="3"
       height="5"
       id="rect12" />
    <rect
       x="27"
       y="15"
       width="9"
       height="10"
       id="rect14" />
    <path
       d="m 23,38 v 2 h 9.149 a 15.014,15.014 0 0 1 0.409,-2 z"
       id="path16"
       inkscape:connector-curvature="0" />
    <rect
       x="31"
       y="27"
       width="2"
       height="3"
       id="rect18" />
    <path
       d="M 47,29 A 13,13 0 1 0 60,42 13.015,13.015 0 0 0 47,29 Z m 6.323,11.108 -0.549,0.916 a 11.437,11.437 0 0 0 -1.629,5.883 5.575,5.575 0 0 1 -5.55,5.57 5.65,5.65 0 0 1 -1.544,-0.218 5.566,5.566 0 0 1 -3.463,-7.814 l 0.1,-0.169 0.2,-0.257 a 11.429,11.429 0 0 0 2.321,-5.708 l 0.206,-1.806 a 5.367,5.367 0 1 1 9.9,3.6 z"
       id="path20"
       inkscape:connector-curvature="0" />
    <path
       d="M 50.227,34.334 A 3.368,3.368 0 0 0 45.4,36.785 l -0.2,1.752 a 13.417,13.417 0 0 1 -2.726,6.7 l -0.133,0.173 a 3.566,3.566 0 1 0 6.8,1.492 13.433,13.433 0 0 1 1.915,-6.912 l 0.548,-0.915 A 3.368,3.368 0 0 0 50.223,34.329 Z M 46.29,38.29 a 1.7,1.7 0 0 1 0.149,-0.12 0.782,0.782 0 0 1 0.181,-0.09 0.636,0.636 0 0 1 0.18,-0.06 0.852,0.852 0 0 1 0.389,0 0.609,0.609 0 0 1 0.191,0.06 0.776,0.776 0 0 1 0.18,0.09 1.712,1.712 0 0 1 0.15,0.12 1.032,1.032 0 0 1 0.21,0.33 0.99,0.99 0 0 1 -1.3,1.3 A 1.155,1.155 0 0 1 46.29,39.71 1.169,1.169 0 0 1 46.08,39.38 1,1 0 0 1 46,39 1.045,1.045 0 0 1 46.29,38.29 Z m -2,7.42 A 0.99,0.99 0 0 1 44,45 a 1.045,1.045 0 0 1 0.29,-0.71 1.7,1.7 0 0 1 0.149,-0.12 0.782,0.782 0 0 1 0.181,-0.09 0.636,0.636 0 0 1 0.18,-0.06 0.852,0.852 0 0 1 0.389,0 0.609,0.609 0 0 1 0.191,0.06 0.568,0.568 0 0 1 0.17,0.09 1,1 0 0 1 0.16,0.12 1.05,1.05 0 0 1 0.29,0.71 0.994,0.994 0 0 1 -0.29,0.71 1.169,1.169 0 0 1 -0.33,0.21 0.943,0.943 0 0 1 -0.76,0 1.155,1.155 0 0 1 -0.33,-0.21 z m 2.63,2.67 a 1,1 0 0 1 -0.21,0.32 1.015,1.015 0 0 1 -0.33,0.22 0.942,0.942 0 0 1 -0.76,0 0.911,0.911 0 0 1 -0.33,-0.22 1,1 0 0 1 -0.21,-0.32 0.943,0.943 0 0 1 0,-0.76 1.155,1.155 0 0 1 0.21,-0.33 l 0.149,-0.12 a 0.782,0.782 0 0 1 0.181,-0.09 0.636,0.636 0 0 1 0.18,-0.06 0.852,0.852 0 0 1 0.389,0 0.609,0.609 0 0 1 0.191,0.06 0.568,0.568 0 0 1 0.17,0.09 c 0.059,0.04 0.11,0.08 0.16,0.12 a 1.155,1.155 0 0 1 0.21,0.33 0.942,0.942 0 0 1 0,0.76 z m 2,-6 a 0.9,0.9 0 0 1 -0.54,0.54 0.99,0.99 0 0 1 -1.09,-0.21 1.169,1.169 0 0 1 -0.21,-0.33 0.943,0.943 0 0 1 0,-0.76 1.032,1.032 0 0 1 0.21,-0.33 1.7,1.7 0 0 1 0.149,-0.12 0.782,0.782 0 0 1 0.181,-0.09 0.636,0.636 0 0 1 0.18,-0.06 0.852,0.852 0 0 1 0.389,0 0.609,0.609 0 0 1 0.191,0.06 0.568,0.568 0 0 1 0.17,0.09 1,1 0 0 1 0.16,0.12 1.032,1.032 0 0 1 0.21,0.33 0.942,0.942 0 0 1 0,0.76 z m 1.79,-4.67 a 1.014,1.014 0 0 1 -1.42,0 1.169,1.169 0 0 1 -0.21,-0.33 0.943,0.943 0 0 1 0,-0.76 1.032,1.032 0 0 1 0.21,-0.33 1.7,1.7 0 0 1 0.149,-0.12 0.782,0.782 0 0 1 0.181,-0.09 0.636,0.636 0 0 1 0.18,-0.06 0.852,0.852 0 0 1 0.389,0 0.609,0.609 0 0 1 0.191,0.06 0.568,0.568 0 0 1 0.17,0.09 1,1 0 0 1 0.16,0.12 1.032,1.032 0 0 1 0.21,0.33 0.99,0.99 0 0 1 -0.21,1.09 z"
       id="path22"
       inkscape:connector-curvature="0" />
  </g>
</svg>
