<?xml version="1.0" encoding="UTF-8" standalone="no"?>
<svg
   xmlns:dc="http://purl.org/dc/elements/1.1/"
   xmlns:cc="http://creativecommons.org/ns#"
   xmlns:rdf="http://www.w3.org/1999/02/22-rdf-syntax-ns#"
   xmlns:svg="http://www.w3.org/2000/svg"
   xmlns="http://www.w3.org/2000/svg"
   xmlns:sodipodi="http://sodipodi.sourceforge.net/DTD/sodipodi-0.dtd"
   xmlns:inkscape="http://www.inkscape.org/namespaces/inkscape"
   version="1.1"
   x="0px"
   y="0px"
   viewBox="0 0 64.099998 64.099998"
   enable-background="new 0 0 66 66"
   xml:space="preserve"
   id="svg16"
   sodipodi:docname="botanics.svg"
   width="64.099998"
   height="64.099998"
   inkscape:version="0.92.5 (2060ec1f9f, 2020-04-08)"><metadata
     id="metadata22"><rdf:RDF><cc:Work
         rdf:about=""><dc:format>image/svg+xml</dc:format><dc:type
           rdf:resource="http://purl.org/dc/dcmitype/StillImage" /><dc:title></dc:title></cc:Work></rdf:RDF></metadata><defs
     id="defs20" /><sodipodi:namedview
     pagecolor="#ffffff"
     bordercolor="#666666"
     borderopacity="1"
     objecttolerance="10"
     gridtolerance="10"
     guidetolerance="10"
     inkscape:pageopacity="0"
     inkscape:pageshadow="2"
     inkscape:window-width="760"
     inkscape:window-height="480"
     id="namedview18"
     showgrid="false"
     inkscape:zoom="2.8606061"
     inkscape:cx="26"
     inkscape:cy="23.85"
     inkscape:window-x="0"
     inkscape:window-y="0"
     inkscape:window-maximized="0"
     inkscape:current-layer="svg16" /><g
     id="g10"
     transform="translate(-0.98186688,-0.99999694)"><path
       d="M 30.5,45.5 H 11.8 l 4.4,17.1 c 0.4,1.5 1.7,2.5 3.1,2.5 h 19.2 c 1.5,0 2.8,-1 3.2,-2.5 l 1.2,-8.5 C 37.7,53.9 32.6,50.6 30.5,45.5 Z"
       id="path2"
       inkscape:connector-curvature="0" /><path
       d="m 30.4,35.5 v -8.1 l 3.2,-3.2 C 42.7,23.5 48.4,17.4 49,9.5 49,9.2 48.9,8.9 48.7,8.7 48.5,8.5 48.2,8.4 47.9,8.4 39.8,8.4 33.1,14 32,22.9 l -1.7,1.7 V 8.4 c 0,-0.5 -0.4,-1 -1,-1 -0.6,0 -1,0.5 -1,1 v 2.4 C 25.6,4.3 19.8,1.2 13.1,1 12.8,1 12.5,1.1 12.3,1.3 12.1,1.5 12,1.8 12,2.1 13,10.8 18.9,17 28.4,17.7 V 36.4 H 10.5 c -2,0 -3.5,1.6 -3.5,3.5 0,2 1.6,3.6 3.5,3.6 h 19.4 c -0.7,-2.8 -0.4,-5.7 0.5,-8 z"
       id="path4"
       inkscape:connector-curvature="0" /><path
       d="m 45.3,28.9 c -6.3,-1.2 -12.4,3 -13.6,9.3 -1.9,10.2 9.5,17.6 18,11.8 8.5,-5.8 5.9,-19.2 -4.4,-21.1 z m -11.6,9.7 c 1,-5.2 6,-8.7 11.3,-7.7 8.4,1.6 10.7,12.6 3.7,17.4 -7.2,4.8 -16.6,-1.3 -15,-9.7 z"
       id="path6"
       inkscape:connector-curvature="0" /><path
       d="m 58.3,53.3 -3.9,-5.2 c -0.9,1.3 -2.1,2.5 -3.5,3.4 -0.8,0.5 -1.6,1 -2.4,1.3 l 3.8,5 c 1.3,1.6 3.6,2 5.3,0.7 1.7,-1.1 1.9,-3.5 0.7,-5.2 z"
       id="path8"
       inkscape:connector-curvature="0" /></g></svg>