<?xml version="1.0" encoding="UTF-8" standalone="no"?>
<svg
   xmlns:dc="http://purl.org/dc/elements/1.1/"
   xmlns:cc="http://creativecommons.org/ns#"
   xmlns:rdf="http://www.w3.org/1999/02/22-rdf-syntax-ns#"
   xmlns:svg="http://www.w3.org/2000/svg"
   xmlns="http://www.w3.org/2000/svg"
   xmlns:sodipodi="http://sodipodi.sourceforge.net/DTD/sodipodi-0.dtd"
   xmlns:inkscape="http://www.inkscape.org/namespaces/inkscape"
   version="1.1"
   x="0px"
   y="0px"
   viewBox="0 0 512 512"
   xml:space="preserve"
   id="svg34"
   sodipodi:docname="building.svg"
   width="512"
   height="512"
   inkscape:version="0.92.5 (2060ec1f9f, 2020-04-08)"><metadata
     id="metadata40"><rdf:RDF><cc:Work
         rdf:about=""><dc:format>image/svg+xml</dc:format><dc:type
           rdf:resource="http://purl.org/dc/dcmitype/StillImage" /><dc:title></dc:title></cc:Work></rdf:RDF></metadata><defs
     id="defs38" /><sodipodi:namedview
     pagecolor="#ffffff"
     bordercolor="#666666"
     borderopacity="1"
     objecttolerance="10"
     gridtolerance="10"
     guidetolerance="10"
     inkscape:pageopacity="0"
     inkscape:pageshadow="2"
     inkscape:window-width="760"
     inkscape:window-height="480"
     id="namedview36"
     showgrid="false"
     inkscape:zoom="0.36875"
     inkscape:cx="256"
     inkscape:cy="320"
     inkscape:window-x="0"
     inkscape:window-y="0"
     inkscape:window-maximized="0"
     inkscape:current-layer="svg34" /><g
     id="g28"
     transform="translate(0,-1.0050877)"><g
       id="g26"><polygon
         points="136.002,358.092 127.869,358.092 21.286,433.993 21.286,439.789 "
         id="polygon2" /><polygon
         points="21.286,358.092 21.286,377.146 49.649,358.092 "
         id="polygon4" /><path
         d="m 330.341,50.836 c -30.558,-2.782 -59.509,10.658 -84.548,25.417 l 39.111,39.102 c 9.595,-27.248 23.881,-47.602 45.437,-64.519 z"
         id="path6"
         inkscape:connector-curvature="0" /><polygon
         points="114.078,358.092 105.764,358.092 21.286,419.169 21.286,424.173 "
         id="polygon8" /><path
         d="m 63.859,358.092 c -0.177,0.174 -0.368,0.338 -0.581,0.481 l -41.993,28.21 v 7.038 L 70.07,358.092 Z"
         id="path10"
         inkscape:connector-curvature="0" /><polygon
         points="92.109,358.092 83.61,358.092 21.286,403.738 21.286,409.297 "
         id="polygon12" /><polygon
         points="147.531,183.429 172.767,208.654 176.356,212.243 191.915,196.685 163.1,167.87 "
         id="polygon14" /><path
         d="m 486.413,351.926 -83.834,-83.83 -6.274,6.274 c -0.023,0.023 -0.039,0.052 -0.063,0.075 l -39.42,39.408 c -0.006,0.006 -0.015,0.011 -0.021,0.018 l -6.302,6.301 82.63,82.642 c 4.372,4.367 10.215,6.773 16.448,6.773 6.233,0 12.072,-2.405 16.44,-6.773 l 20.381,-20.381 c 8.412,-8.409 8.417,-22.094 0.015,-30.507 z"
         id="path16"
         inkscape:connector-curvature="0" /><polygon
         points="387.752,271.609 279.27,163.101 259.451,182.918 245.492,196.878 353.992,305.365 "
         id="polygon18" /><path
         d="m 165.928,159.383 c 0.001,10e-4 0.002,10e-4 0.002,0.002 l 34.471,34.471 v 0 l 9.178,9.178 c 2.45,2.451 5.725,3.801 9.221,3.801 3.496,0 6.771,-1.35 9.22,-3.801 l 36.338,-36.336 12.083,-12.083 c 0.002,-0.002 0.004,-0.003 0.006,-0.005 l 8.979,-8.979 c 5.083,-5.085 5.084,-13.358 0,-18.442 L 235.384,77.16 c -2.45,-2.45 -5.725,-3.799 -9.221,-3.799 -3.497,0 -6.771,1.349 -9.221,3.799 l -57.391,57.405 c -2.453,2.447 -3.803,5.715 -3.805,9.206 -0.002,3.5 1.349,6.78 3.805,9.235 z"
         id="path20"
         inkscape:connector-curvature="0" /><path
         d="m 138.309,259.053 c 1.656,1.662 3.864,2.574 6.221,2.574 2.359,0 4.572,-0.914 6.23,-2.572 l 24.322,-24.323 c 3.434,-3.425 3.43,-9.011 -0.004,-12.456 l -5.287,-5.285 -30.747,-30.733 c -0.002,-0.002 -0.003,-0.004 -0.005,-0.006 l -1.549,-1.548 c -1.656,-1.66 -3.866,-2.572 -6.227,-2.572 -2.361,0 -4.57,0.912 -6.221,2.567 l -24.339,24.325 c -3.409,3.429 -3.409,9.022 0.009,12.46 z"
         id="path22"
         inkscape:connector-curvature="0" /><path
         d="m 212.024,314.17 h 11.307 c 2.209,0 4,-1.791 4,-4 0,-2.209 -1.791,-4 -4,-4 h -30.615 c -2.209,0 -4,1.791 -4,4 0,2.209 1.791,4 4,4 h 11.309 v 43.922 H 163.73 v -25.289 h 11.309 c 2.209,0 4,-1.791 4,-4 0,-2.209 -1.791,-4 -4,-4 h -30.617 c -2.209,0 -4,1.791 -4,4 0,2.209 1.791,4 4,4 h 11.308 v 25.289 h -5.937 L 21.438,449.501 c -0.049,0.035 -0.102,0.059 -0.152,0.092 v 13.949 H 267.534 V 358.092 H 212.025 V 314.17 Z"
         id="path24"
         inkscape:connector-curvature="0" /></g></g></svg>