<?xml version="1.0" encoding="UTF-8" standalone="no"?>
<svg
   xmlns:dc="http://purl.org/dc/elements/1.1/"
   xmlns:cc="http://creativecommons.org/ns#"
   xmlns:rdf="http://www.w3.org/1999/02/22-rdf-syntax-ns#"
   xmlns:svg="http://www.w3.org/2000/svg"
   xmlns="http://www.w3.org/2000/svg"
   xmlns:sodipodi="http://sodipodi.sourceforge.net/DTD/sodipodi-0.dtd"
   xmlns:inkscape="http://www.inkscape.org/namespaces/inkscape"
   data-name="Layer 1"
   viewBox="0 0 128 128"
   x="0px"
   y="0px"
   version="1.1"
   id="svg16"
   sodipodi:docname="bureaucracy.svg"
   width="128"
   height="128"
   inkscape:version="0.92.5 (2060ec1f9f, 2020-04-08)">
  <metadata
     id="metadata22">
    <rdf:RDF>
      <cc:Work
         rdf:about="">
        <dc:format>image/svg+xml</dc:format>
        <dc:type
           rdf:resource="http://purl.org/dc/dcmitype/StillImage" />
        <dc:title>business elements solid </dc:title>
      </cc:Work>
    </rdf:RDF>
  </metadata>
  <defs
     id="defs20" />
  <sodipodi:namedview
     pagecolor="#ffffff"
     bordercolor="#666666"
     borderopacity="1"
     objecttolerance="10"
     gridtolerance="10"
     guidetolerance="10"
     inkscape:pageopacity="0"
     inkscape:pageshadow="2"
     inkscape:window-width="760"
     inkscape:window-height="480"
     id="namedview18"
     showgrid="false"
     inkscape:zoom="1.475"
     inkscape:cx="64"
     inkscape:cy="80"
     inkscape:window-x="0"
     inkscape:window-y="0"
     inkscape:window-maximized="0"
     inkscape:current-layer="svg16" />
  <title
     id="title2">business elements solid </title>
  <path
     d="M 96.36353,18.106 98.66181,14.80839 85.9837,7.7147199 c 0.0023,0.09576 0.01447,0.189 0.01447,0.28528 V 12.30634 Z"
     id="path4"
     inkscape:connector-curvature="0" />
  <path
     d="m 124.16705,29.07892 -2.70563,-1.51385 -2.29828,3.29761 3.0509,1.707 a 3.46979,3.46979 0 0 1 1.33423,4.73718 L 85.99817,103.828 v 8.137 l 41.03339,-72.69171 a 7.46979,7.46979 0 0 0 -2.8645,-10.19434 z"
     id="path6"
     inkscape:connector-curvature="0" />
  <path
     d="M 51.71228,104.90826 A 3.99934,3.99934 0 0 0 57.06,104.202 L 82.66626,73.7691 a 3.96442,3.96442 0 0 0 2.87885,-1.66516 L 122.71045,18.77771 A 3.99989,3.99989 0 0 0 121.716,13.209 l -8.20392,-5.7179001 a 3.999,3.999 0 0 0 -5.5686,0.99451 L 70.77814,61.81177 a 3.99986,3.99986 0 0 0 -0.65607,2.9903 c 0.01831,0.10254 0.058,0.19763 0.08411,0.29773 L 50.52393,99.64648 a 4.00019,4.00019 0 0 0 1.18835,5.26178 z m 51.39008,-82.48084 8.18335,5.70343 c 0.007,0.005 0.0156,0.0063 0.0228,0.01117 l -29.045,41.67474 -8.20386,-5.7179 z m -30.08594,45.82 5.71613,3.984 -24.73315,29.3952 z"
     id="path8"
     inkscape:connector-curvature="0" />
  <path
     d="M 82,120 V 80.7757 l -21.87775,26.0017 -4.9e-4,4.9e-4 A 8,8 0 0 1 47.04986,97.66638 L 54.2663,85 H 16.38 a 2,2 0 0 1 0,-4 h 40.16 l 3.38367,-5.93524 A 0.46637,0.46637 0 0 1 59.89291,75.00794 L 59.89136,75 H 16.38 a 2,2 0 0 1 0,-4 h 45.86 l -0.0257,0.0451 6.7e-4,4.9e-4 2.3742,-4.16459 0.18408,-0.32312 A 4.02321,4.02321 0 0 1 64.50256,64.97249 L 64.5,65 H 16.38 a 2,2 0 0 1 0,-4 H 66.47 L 66.45621,61.01984 82,38.71759 V 7.9999999 A 8.01062,8.01062 0 0 0 74,-1.3125936e-7 H 8 A 8.01062,8.01062 0 0 0 0,7.9999999 V 104.25 a 4.0039,4.0039 0 0 0 1.17,2.83 l 19.75,19.75 A 4.0041,4.0041 0 0 0 23.75,128 H 74 a 8.01066,8.01066 0 0 0 8,-8 z M 16.38,21 h 51 a 2,2 0 0 1 0,4 h -51 a 2,2 0 0 1 0,-4 z m 0,10 h 51 a 2,2 0 0 1 0,4 h -51 a 2,2 0 0 1 0,-4 z m 0,10 h 51 a 2,2 0 0 1 0,4 h -51 a 2,2 0 0 1 0,-4 z m 0,10 h 51 a 2,2 0 0 1 0,4 h -51 a 2,2 0 0 1 0,-4 z m 7.58,72.96 -19.92,-19.92 h 15.89 a 4.02455,4.02455 0 0 1 4.03,4.03 z"
     id="path10"
     inkscape:connector-curvature="0" />
</svg>
