<?xml version="1.0" encoding="UTF-8" standalone="no"?>
<svg
   xmlns:dc="http://purl.org/dc/elements/1.1/"
   xmlns:cc="http://creativecommons.org/ns#"
   xmlns:rdf="http://www.w3.org/1999/02/22-rdf-syntax-ns#"
   xmlns:svg="http://www.w3.org/2000/svg"
   xmlns="http://www.w3.org/2000/svg"
   xmlns:sodipodi="http://sodipodi.sourceforge.net/DTD/sodipodi-0.dtd"
   xmlns:inkscape="http://www.inkscape.org/namespaces/inkscape"
   version="1.1"
   x="0px"
   y="0px"
   viewBox="0 0 32 32"
   enable-background="new 0 0 48 48"
   xml:space="preserve"
   id="svg14"
   sodipodi:docname="car theft.svg"
   width="32"
   height="32"
   inkscape:version="0.92.5 (2060ec1f9f, 2020-04-08)"><metadata
     id="metadata20"><rdf:RDF><cc:Work
         rdf:about=""><dc:format>image/svg+xml</dc:format><dc:type
           rdf:resource="http://purl.org/dc/dcmitype/StillImage" /><dc:title></dc:title></cc:Work></rdf:RDF></metadata><defs
     id="defs18" /><sodipodi:namedview
     pagecolor="#ffffff"
     bordercolor="#666666"
     borderopacity="1"
     objecttolerance="10"
     gridtolerance="10"
     guidetolerance="10"
     inkscape:pageopacity="0"
     inkscape:pageshadow="2"
     inkscape:window-width="1920"
     inkscape:window-height="1043"
     id="namedview16"
     showgrid="false"
     inkscape:zoom="3.9333333"
     inkscape:cx="31.485478"
     inkscape:cy="5.886"
     inkscape:window-x="0"
     inkscape:window-y="0"
     inkscape:window-maximized="1"
     inkscape:current-layer="svg14" /><path
     d="m 29.521,16.728776 c 0,0 -0.887,-1.813 -2.623,-3.271 -0.842,-0.707 -2.094,-1.344 -3.553,-1.684 -4.105,-0.963 -9.287,-0.395 -11.557,0.404 -0.965,0.34 -5.176,4.563 -5.176,4.563 -3.396,0.543 -5.447,1.361 -5.447,3.316 v 3.314 c 0,0.85 0.688,1.537 1.537,1.537 h 0.545 c -0.014,-0.141 -0.02,-0.281 -0.02,-0.426 0,-2.492 2.018,-4.51 4.51,-4.51 2.492,0 4.51,2.018 4.51,4.51 0,0.145 -0.008,0.285 -0.021,0.426 h 8.311 c -0.012,-0.141 -0.021,-0.281 -0.021,-0.426 0,-2.492 2.021,-4.51 4.512,-4.51 2.491,0 4.51,2.018 4.51,4.51 0,0.145 -0.006,0.285 -0.02,0.426 h 0.707 c 0.98,0 1.775,-0.795 1.775,-1.775 v -4.055 c 0,-0.98 -1.035,-1.98 -2.479,-2.349 z m -20.523,0.226 3.326,-3.111 c 0.555,-0.48 2.553,-0.924 5.719,-0.924 v 4.035 z m 10.797,0 v -3.998 c 2.656,0.006 6.473,1.146 7.619,3.998 z"
     id="path2"
     inkscape:connector-curvature="0" /><path
     d="m 25.027,21.077776 c -1.881,0 -3.404,1.523 -3.404,3.404 0,1.881 1.523,3.404 3.404,3.404 1.881,0 3.404,-1.523 3.404,-3.404 0,-1.881 -1.523,-3.404 -3.404,-3.404 z m 0,5.277 c -1.035,0 -1.873,-0.838 -1.873,-1.873 0,-1.035 0.838,-1.873 1.873,-1.873 1.035,0 1.873,0.838 1.873,1.873 0,1.035 -0.837,1.873 -1.873,1.873 z"
     id="path4"
     inkscape:connector-curvature="0" /><path
     d="m 7.738,21.077776 c -1.881,0 -3.404,1.523 -3.404,3.404 0,1.881 1.523,3.404 3.404,3.404 1.881,0 3.404,-1.523 3.404,-3.404 0,-1.881 -1.523,-3.404 -3.404,-3.404 z m 0,5.277 c -1.033,0 -1.871,-0.838 -1.871,-1.873 0,-1.035 0.838,-1.873 1.871,-1.873 1.035,0 1.873,0.838 1.873,1.873 0,1.035 -0.838,1.873 -1.873,1.873 z"
     id="path6"
     inkscape:connector-curvature="0" /><path
     d="m 6.309,15.853776 c 0.293,-0.211 1.963,-1.795 3.109,-2.893 -0.111,-0.037 -0.227,-0.07 -0.352,-0.07 H 8.572 v -0.609 -0.605 c 0,-0.314 -0.244,-0.49 -0.543,-0.393 l -0.33,0.109 c 0.389,-0.822 0.555,-1.8359995 0.555,-2.8219995 0,-0.248 -0.02,-0.486 -0.057,-0.715 h 0.631 c 0.271,0 0.488,-0.219 0.488,-0.488 0,-0.268 -0.217,-0.486 -0.488,-0.486 h -0.82 c 0,0 -0.229,-0.951 -0.48,-1.7340002 -0.332,-1.037 -1.4,-1.523 -2.424,-0.355 -1.021,-1.168 -2.09,-0.682 -2.424,0.355 C 2.43,5.9307765 2.201,6.8817765 2.201,6.8817765 h -0.82 c -0.27,0 -0.488,0.219 -0.488,0.486 0,0.27 0.219,0.488 0.488,0.488 H 2.01 c -0.035,0.229 -0.055,0.467 -0.055,0.715 0,0.986 0.166,1.9999995 0.555,2.8219995 l -0.332,-0.109 c -0.297,-0.098 -0.543,0.078 -0.543,0.393 v 0.605 0.609 H 1.143 c -0.631,0 -1.143,0.509 -1.143,1.14 v 3.25 c 0,0.5 0.328,0.914 0.779,1.068 1.19,-1.628 5.145,-2.222 5.53,-2.495 z m 0.334,-4.114 -0.996,0.328 c -0.297,0.098 -0.785,0.098 -1.084,0 l -0.996,-0.328 c -0.324,-0.369 -0.531,-0.848 -0.664,-1.328 h 4.402 c -0.131,0.481 -0.34,0.959 -0.662,1.328 z M 3.105,9.4257765 c 0,-0.246 0.164,-0.449 0.371,-0.449 H 4.33 c 0.203,0 0.371,0.203 0.371,0.449 0,0.25 -0.168,0.451 -0.371,0.451 H 3.476 c -0.206,0 -0.371,-0.201 -0.371,-0.451 z m 2.403,0 c 0,-0.246 0.168,-0.449 0.371,-0.449 h 0.855 c 0.205,0 0.369,0.203 0.369,0.449 0,0.25 -0.164,0.451 -0.369,0.451 H 5.879 c -0.203,0 -0.371,-0.201 -0.371,-0.451 z m -2.764,-1.571 h 4.723 c 0.035,0.186 0.057,0.381 0.064,0.588 H 2.677 c 0.007,-0.207 0.03,-0.402 0.067,-0.588 z"
     id="path8"
     inkscape:connector-curvature="0" /></svg>