<?xml version="1.0" encoding="UTF-8" standalone="no"?>
<svg
   xmlns:dc="http://purl.org/dc/elements/1.1/"
   xmlns:cc="http://creativecommons.org/ns#"
   xmlns:rdf="http://www.w3.org/1999/02/22-rdf-syntax-ns#"
   xmlns:svg="http://www.w3.org/2000/svg"
   xmlns="http://www.w3.org/2000/svg"
   xmlns:sodipodi="http://sodipodi.sourceforge.net/DTD/sodipodi-0.dtd"
   xmlns:inkscape="http://www.inkscape.org/namespaces/inkscape"
   version="1.1"
   x="0px"
   y="0px"
   viewBox="0 0 1024 1024"
   xml:space="preserve"
   id="svg18"
   sodipodi:docname="chemistry.svg"
   width="1024"
   height="1024"
   inkscape:version="0.92.5 (2060ec1f9f, 2020-04-08)"><metadata
     id="metadata24"><rdf:RDF><cc:Work
         rdf:about=""><dc:format>image/svg+xml</dc:format><dc:type
           rdf:resource="http://purl.org/dc/dcmitype/StillImage" /><dc:title></dc:title></cc:Work></rdf:RDF></metadata><defs
     id="defs22" /><sodipodi:namedview
     pagecolor="#ffffff"
     bordercolor="#666666"
     borderopacity="1"
     objecttolerance="10"
     gridtolerance="10"
     guidetolerance="10"
     inkscape:pageopacity="0"
     inkscape:pageshadow="2"
     inkscape:window-width="760"
     inkscape:window-height="480"
     id="namedview20"
     showgrid="false"
     inkscape:zoom="0.184375"
     inkscape:cx="512"
     inkscape:cy="640"
     inkscape:window-x="0"
     inkscape:window-y="0"
     inkscape:window-maximized="0"
     inkscape:current-layer="svg18" /><g
     id="g12"
     transform="translate(0,0.05)"><polygon
       points="109.6,343.7 109.6,266.9 185.6,222.6 261.6,266.8 261.6,343.7 185.6,387.6 "
       id="polygon2" /><polygon
       points="281.6,343.7 281.6,266.8 357.6,222.6 433.7,266.9 433.7,343.7 357.6,387.6 "
       id="polygon4" /><polygon
       points="271.6,249.5 263.4,244.7 195.6,205.3 195.6,127.7 271.6,83.5 347.6,127.7 347.6,205.3 279.8,244.7 "
       id="polygon6" /><path
       d="m 939.4,607.8 c -0.1,-0.6 -0.3,-1.1 -0.4,-1.7 0,-0.1 0,-0.2 -0.1,-0.3 -10.6,-43.2 -32,-83.6 -61.8,-117 -27.3,-30.6 -61.4,-54.8 -99,-70.6 v -254 c 11.1,-0.3 21.5,-4.8 29.4,-12.7 8.2,-8.2 12.7,-19.1 12.7,-30.6 0,-23.9 -19.4,-43.3 -43.3,-43.3 H 567.7 c -11.6,0 -22.4,4.5 -30.6,12.7 -8.2,8.2 -12.7,19.1 -12.7,30.6 0,23.5 18.8,42.6 42.1,43.3 v 254.1 c -77.1,32.2 -136,98.4 -158.6,179.1 -0.1,0.2 -0.1,0.4 -0.2,0.6 -6.7,24.1 -10.1,49.2 -10,74.5 0.4,151.1 123.5,273.8 274.5,273.8 h 0.5 c 73.3,-0.1 142.1,-28.7 193.8,-80.6 51.8,-51.8 80.3,-120.8 80.3,-194 0,-21.6 -2.5,-43.1 -7.4,-63.9 z M 610.6,844.6 c -29.3,0 -53.2,-23.8 -53.2,-53.2 0,-29.3 23.8,-53.2 53.2,-53.2 29.3,0 53.2,23.8 53.2,53.2 0,29.4 -23.9,53.2 -53.2,53.2 z M 769.6,691 c -20.1,0 -36.5,-16.4 -36.5,-36.5 0,-20.1 16.4,-36.5 36.5,-36.5 20.1,0 36.5,16.4 36.5,36.5 0,20.1 -16.4,36.5 -36.5,36.5 z M 892,573.8 c -0.6,-0.3 -1.2,-0.6 -1.8,-0.9 -1.5,-0.7 -3.1,-1.5 -4.7,-2.2 -1.1,-0.5 -2.2,-1 -3.3,-1.5 -0.7,-0.3 -1.5,-0.6 -2.2,-1 -0.6,-0.3 -1.3,-0.6 -2,-0.9 -2.8,-1.2 -5.6,-2.4 -8.6,-3.6 -2.2,-0.9 -4.4,-1.8 -6.7,-2.7 -0.8,-0.3 -1.5,-0.6 -2.3,-0.9 -0.8,-0.3 -1.5,-0.6 -2.3,-0.8 -2.3,-0.9 -4.6,-1.7 -7,-2.5 -0.8,-0.3 -1.6,-0.5 -2.4,-0.8 -0.8,-0.3 -1.5,-0.5 -2.3,-0.8 -0.1,0 -0.2,-0.1 -0.4,-0.1 -1.4,-0.5 -2.8,-0.9 -4.2,-1.4 -5.1,-1.6 -10.3,-3.1 -15.6,-4.6 -55,-14.7 -110.5,-14.9 -164.7,-0.7 -29,7.6 -53.1,14.3 -74.3,20.2 -56,15.6 -87,24.2 -120.1,23.7 -0.7,0 -1.4,0 -2.1,-0.1 -0.3,0 -0.5,0 -0.8,0 -0.5,0 -1.1,0 -1.6,0 -0.9,0 -1.8,-0.1 -2.7,-0.1 -1.2,-0.1 -2.4,-0.1 -3.6,-0.2 -0.8,0 -1.6,-0.1 -2.4,-0.2 -0.8,-0.1 -1.6,-0.1 -2.4,-0.2 -2.1,-0.2 -4.3,-0.5 -6.6,-0.7 -1.2,-0.2 -2.4,-0.3 -3.5,-0.5 0,0 0,0 -0.1,0 23.7,-67 75.9,-121 142.6,-146.7 h 32.3 c 8.3,0 15,-6.7 15,-15 0,-8.3 -6.7,-15 -15,-15 h -20 v -39.8 h 8.5 c 8.3,0 15,-6.7 15,-15 0,-8.3 -6.7,-15 -15,-15 h -8.5 V 304 h 20 c 8.3,0 15,-6.7 15,-15 0,-8.3 -6.7,-15 -15,-15 h -20 v -40 h 8.5 c 8.3,0 15,-6.7 15,-15 0,-8.3 -6.7,-15 -15,-15 h -8.5 v -39.8 h 20 c 8.3,0 15,-6.7 15,-15 0,-8.3 -6.7,-15 -15,-15 h -48.8 c -7.3,0 -13.3,-6 -13.3,-13.3 0,-3.6 1.4,-6.9 3.9,-9.4 2.5,-2.5 5.8,-3.9 9.4,-3.9 h 209.1 c 7.3,0 13.3,6 13.3,13.3 0,3.6 -1.4,6.9 -3.9,9.4 -2.5,2.5 -5.9,3.9 -9.4,3.9 H 763 c -8.3,0 -15,6.7 -15,15 v 279.3 c 0,6.3 3.9,11.9 9.8,14 63.7,23.8 114,72.6 139.9,134.2 -1.9,-1 -3.8,-2 -5.7,-2.9 z"
       id="path8"
       inkscape:connector-curvature="0" /><path
       d="M 309.6,462.2 H 120.1 c -11.6,0 -22.4,4.5 -30.6,12.7 -8.2,8.2 -12.7,19.1 -12.7,30.6 0,23.5 18.8,42.6 42.1,43.3 v 301.5 c 0,52.9 43,96 96,96 52.9,0 96,-43 96,-96 V 548.8 C 334.2,548.1 353,529 353,505.5 352.9,481.6 333.4,462.2 309.6,462.2 Z M 169,828.7 h -20.2 v -30 H 169 c 8.3,0 15,6.7 15,15 0,8.2 -6.7,15 -15,15 z m -20.1,-69.9 v -30 h 8.7 c 8.3,0 15,6.7 15,15 0,8.3 -6.7,15 -15,15 z m 160.7,-240 h -13.8 c -8.3,0 -15,6.7 -15,15 v 105.9 c -0.2,-0.1 -0.4,-0.2 -0.7,-0.4 0,0 0,0 0,0 -0.6,-0.3 -1.2,-0.7 -1.8,-1 -0.1,0 -0.2,-0.1 -0.2,-0.1 -0.6,-0.3 -1.2,-0.6 -1.8,-0.9 -0.1,-0.1 -0.3,-0.2 -0.5,-0.2 -0.6,-0.3 -1.3,-0.6 -1.9,-0.9 -0.7,-0.3 -1.4,-0.6 -2.1,-0.9 v 0 c -0.7,-0.3 -1.4,-0.6 -2.1,-0.9 -0.7,-0.3 -1.4,-0.5 -2.1,-0.8 -1.4,-0.5 -2.8,-1 -4.2,-1.4 -0.7,-0.2 -1.4,-0.4 -2.1,-0.6 -1.4,-0.4 -2.8,-0.8 -4.3,-1.1 -2.1,-0.5 -4.3,-0.9 -6.4,-1.2 -0.1,0 -0.2,0 -0.4,0 -0.6,-0.1 -1.2,-0.1 -1.8,-0.2 -0.7,-0.1 -1.4,-0.2 -2.1,-0.2 0,0 0,0 0,0 -0.7,-0.1 -1.4,-0.1 -2.2,-0.2 -0.7,0 -1.5,-0.1 -2.2,-0.1 -1.4,0 -2.8,0 -4.2,0 -1.3,0 -2.6,0.1 -3.9,0.2 -0.8,0 -1.5,0.1 -2.3,0.2 -0.7,0.1 -1.3,0.1 -2,0.2 -0.6,0.1 -1.2,0.2 -1.9,0.3 -1.4,0.2 -2.8,0.5 -4.2,0.8 v 0 c -1.3,0.3 -2.7,0.6 -4,1 -0.7,0.2 -1.3,0.4 -2,0.6 -1.3,0.4 -2.7,0.8 -4,1.3 -2,0.7 -4,1.5 -6,2.3 -10.3,4.5 -18.7,8.4 -26.1,11.8 -1.2,0.5 -2.3,1 -3.3,1.5 -1.1,0.5 -2.1,1 -3.1,1.4 -9,4.1 -15.2,6.8 -20.3,8.1 -0.3,0.1 -0.5,0.1 -0.8,0.2 -0.6,0.2 -1.2,0.3 -1.8,0.4 -0.2,0 -0.5,0.1 -0.7,0.1 -0.2,0 -0.3,0.1 -0.5,0.1 -0.2,0 -0.4,0.1 -0.6,0.1 -0.2,0 -0.3,0 -0.5,0.1 -0.2,0 -0.5,0 -0.7,0.1 -0.1,0 -0.1,0 -0.2,0 v -40.1 h 8.7 c 8.3,0 15,-6.7 15,-15 0,-8.3 -6.7,-15 -15,-15 h -8.7 V 548.9 H 169 c 8.3,0 15,-6.7 15,-15 0,-8.3 -6.7,-15 -15,-15 h -34.8 c -0.1,0 -0.3,0 -0.4,0 H 120 c -7.3,0 -13.3,-6 -13.3,-13.3 0,-3.6 1.4,-6.9 3.9,-9.4 2.5,-2.5 5.9,-3.9 9.4,-3.9 h 189.5 c 7.3,0 13.3,6 13.3,13.3 0.1,7.2 -5.9,13.2 -13.2,13.2 z"
       id="path10"
       inkscape:connector-curvature="0" /></g></svg>