<?xml version="1.0" encoding="UTF-8" standalone="no"?>
<svg
   xmlns:dc="http://purl.org/dc/elements/1.1/"
   xmlns:cc="http://creativecommons.org/ns#"
   xmlns:rdf="http://www.w3.org/1999/02/22-rdf-syntax-ns#"
   xmlns:svg="http://www.w3.org/2000/svg"
   xmlns="http://www.w3.org/2000/svg"
   xmlns:sodipodi="http://sodipodi.sourceforge.net/DTD/sodipodi-0.dtd"
   xmlns:inkscape="http://www.inkscape.org/namespaces/inkscape"
   version="1.0"
   x="0px"
   y="0px"
   viewBox="0 0 160 160"
   xml:space="preserve"
   id="svg92"
   sodipodi:docname="comparative religion.svg"
   width="160"
   height="160"
   inkscape:version="0.92.5 (2060ec1f9f, 2020-04-08)"><metadata
     id="metadata98"><rdf:RDF><cc:Work
         rdf:about=""><dc:format>image/svg+xml</dc:format><dc:type
           rdf:resource="http://purl.org/dc/dcmitype/StillImage" /><dc:title></dc:title></cc:Work></rdf:RDF></metadata><defs
     id="defs96" /><sodipodi:namedview
     pagecolor="#ffffff"
     bordercolor="#666666"
     borderopacity="1"
     objecttolerance="10"
     gridtolerance="10"
     guidetolerance="10"
     inkscape:pageopacity="0"
     inkscape:pageshadow="2"
     inkscape:window-width="1920"
     inkscape:window-height="1043"
     id="namedview94"
     showgrid="false"
     inkscape:zoom="0.417193"
     inkscape:cx="152.5582"
     inkscape:cy="233.69873"
     inkscape:window-x="0"
     inkscape:window-y="0"
     inkscape:window-maximized="1"
     inkscape:current-layer="svg92" /><style
     type="text/css"
     id="style2">
	.st0{fill:none;stroke:#000000;stroke-width:4;stroke-linecap:round;stroke-linejoin:round;stroke-miterlimit:10;}
	.st1{fill:none;stroke:#000000;stroke-width:4;stroke-miterlimit:10;}
</style><path
     class="st0"
     d="m 692.9,-1456.6 18.9,-3 c 5.7,-0.9 8.8,-7.1 6.1,-12.2 l -4.5,-8.6 c -0.6,-1.1 -1.5,-1.8 -2.6,-2.1 -1.1,-0.3 -2.2,-0.2 -3.3,0.3 v 0 0 c -1.1,0.6 -1.8,1.5 -2.1,2.6 -0.3,1.1 -0.3,2.2 0.3,3.3 l 4.3,8.2"
     id="path4"
     inkscape:connector-curvature="0"
     style="fill:none;stroke:#000000;stroke-width:4;stroke-linecap:round;stroke-linejoin:round;stroke-miterlimit:10" /><path
     class="st0"
     d="m 685,-1422.7 -2.7,-17.5 -2.7,-17.5 c -0.2,-1.5 0.2,-3 1,-4.2 0.8,-1.2 2.1,-2 3.6,-2.2 l 25.8,-4.1"
     id="path6"
     inkscape:connector-curvature="0"
     style="fill:none;stroke:#000000;stroke-width:4;stroke-linecap:round;stroke-linejoin:round;stroke-miterlimit:10" /><polyline
     class="st0"
     points="698.4,-1417.4 700.9,-1401.5 703.3,-1385.6   "
     id="polyline8"
     style="fill:none;stroke:#000000;stroke-width:4;stroke-linecap:round;stroke-linejoin:round;stroke-miterlimit:10"
     transform="translate(0,-40)" /><path
     class="st0"
     d="m 697.1,-1483.2 c 0.5,2.9 -0.3,5.7 -1.9,7.9 -1.6,2.2 -4,3.8 -6.9,4.2 -2.9,0.5 -5.7,-0.3 -7.9,-1.9 -2.2,-1.6 -3.8,-4.1 -4.2,-7 -0.4,-2.9 0.3,-5.7 1.9,-7.9 1.6,-2.2 4,-3.8 6.9,-4.2 2.9,-0.5 5.7,0.3 7.9,1.9 2.2,1.6 3.8,4.1 4.2,7 z"
     id="path10"
     inkscape:connector-curvature="0"
     style="fill:none;stroke:#000000;stroke-width:4;stroke-linecap:round;stroke-linejoin:round;stroke-miterlimit:10" /><path
     class="st0"
     d="m 703.3,-1425.6 5,27.9 v 35.1 c 0,3.1 -2.5,5.6 -5.6,5.6 v 0 c -3.1,0 -5.6,-2.5 -5.6,-5.6 v -32.9 c 0,0 -3.1,-14.1 -3.8,-15.3 -0.7,-1.2 -1.6,-2.3 -2.6,-3.2 l -0.9,-0.7 -0.9,-0.7 c -1.1,-0.9 -1.9,-2 -2.6,-3.2 -0.7,-1.2 -1.1,-2.5 -1.4,-3.9 v 0 0"
     id="path12"
     inkscape:connector-curvature="0"
     style="fill:none;stroke:#000000;stroke-width:4;stroke-linecap:round;stroke-linejoin:round;stroke-miterlimit:10" /><path
     class="st0"
     d="m 687.6,-1417 2.1,20.5 v 33.2 c 0,3.5 2.8,6.3 6.3,6.3 h 6.8"
     id="path14"
     inkscape:connector-curvature="0"
     style="fill:none;stroke:#000000;stroke-width:4;stroke-linecap:round;stroke-linejoin:round;stroke-miterlimit:10" /><path
     class="st0"
     d="m 699.4,-1489.2 5,-2.7 c 4.4,-2.4 7.8,-6.3 9.5,-11 v 0 l 9.6,17.7 v 0 c -4.8,-1 -9.9,-0.2 -14.2,2.1 l -5.2,2.8"
     id="path16"
     inkscape:connector-curvature="0"
     style="fill:none;stroke:#000000;stroke-width:4;stroke-linecap:round;stroke-linejoin:round;stroke-miterlimit:10" /><path
     class="st0"
     d="m 699.4,-1489.2 v 0 c -2.4,1.3 -3.2,4.2 -2,6.6 l 0.2,0.3 c 1.3,2.4 4.2,3.2 6.6,2 v 0"
     id="path18"
     inkscape:connector-curvature="0"
     style="fill:none;stroke:#000000;stroke-width:4;stroke-linecap:round;stroke-linejoin:round;stroke-miterlimit:10" /><line
     class="st0"
     x1="662.29999"
     y1="-1377.7"
     x2="689.29999"
     y2="-1377.7"
     id="line20"
     style="fill:none;stroke:#000000;stroke-width:4;stroke-linecap:round;stroke-linejoin:round;stroke-miterlimit:10" /><line
     class="st0"
     x1="709"
     y1="-1377.7"
     x2="766.90002"
     y2="-1377.7"
     id="line22"
     style="fill:none;stroke:#000000;stroke-width:4;stroke-linecap:round;stroke-linejoin:round;stroke-miterlimit:10" /><ellipse
     class="st1"
     cx="730.40002"
     cy="-1411.2"
     rx="6.8000002"
     ry="7"
     id="ellipse24"
     style="fill:none;stroke:#000000;stroke-width:4;stroke-miterlimit:10" /><polyline
     class="st0"
     points="723.4,-1354 723.4,-1337.7 737,-1337.7   "
     id="polyline26"
     style="fill:none;stroke:#000000;stroke-width:4;stroke-linecap:round;stroke-linejoin:round;stroke-miterlimit:10"
     transform="translate(0,-40)" /><path
     class="st0"
     d="m 744.5,-1377.8 v -18.3 c 0,-4.5 -3.5,-8.1 -7.9,-8.1 h -12.5 c -4.4,0 -7.9,3.6 -7.9,8.1 v 18.5"
     id="path28"
     inkscape:connector-curvature="0"
     style="fill:none;stroke:#000000;stroke-width:4;stroke-linecap:round;stroke-linejoin:round;stroke-miterlimit:10" /><line
     class="st0"
     x1="737"
     y1="-1377.7"
     x2="737"
     y2="-1394"
     id="line30"
     style="fill:none;stroke:#000000;stroke-width:4;stroke-linecap:round;stroke-linejoin:round;stroke-miterlimit:10" /><ellipse
     class="st1"
     cx="766.40002"
     cy="-1411.2"
     rx="6.8000002"
     ry="7"
     id="ellipse32"
     style="fill:none;stroke:#000000;stroke-width:4;stroke-miterlimit:10" /><line
     class="st0"
     x1="759.40002"
     y1="-1394"
     x2="759.40002"
     y2="-1377.7"
     id="line34"
     style="fill:none;stroke:#000000;stroke-width:4;stroke-linecap:round;stroke-linejoin:round;stroke-miterlimit:10" /><path
     class="st0"
     d="m 780.5,-1377.7 v -18.5 c 0,-4.5 -3.5,-8.1 -7.9,-8.1 h -12.5 c -4.4,0 -7.9,3.6 -7.9,8.1 v 18.5"
     id="path36"
     inkscape:connector-curvature="0"
     style="fill:none;stroke:#000000;stroke-width:4;stroke-linecap:round;stroke-linejoin:round;stroke-miterlimit:10" /><line
     class="st0"
     x1="773.09998"
     y1="-1377.7"
     x2="773.09998"
     y2="-1394"
     id="line38"
     style="fill:none;stroke:#000000;stroke-width:4;stroke-linecap:round;stroke-linejoin:round;stroke-miterlimit:10" /><line
     class="st0"
     x1="759.40002"
     y1="-1377.7"
     x2="773.09998"
     y2="-1377.7"
     id="line40"
     style="fill:none;stroke:#000000;stroke-width:4;stroke-linecap:round;stroke-linejoin:round;stroke-miterlimit:10" /><ellipse
     class="st1"
     cx="667.70001"
     cy="-1411.2"
     rx="6.8000002"
     ry="7"
     id="ellipse42"
     style="fill:none;stroke:#000000;stroke-width:4;stroke-miterlimit:10" /><line
     class="st0"
     x1="660.70001"
     y1="-1394"
     x2="660.70001"
     y2="-1377.7"
     id="line44"
     style="fill:none;stroke:#000000;stroke-width:4;stroke-linecap:round;stroke-linejoin:round;stroke-miterlimit:10" /><path
     class="st0"
     d="m 653.6,-1377.7 v -18.5 c 0,-4.5 3.5,-8.1 7.9,-8.1 H 674 c 4.4,0 7.9,3.6 7.9,8.1 v 18.3"
     id="path46"
     inkscape:connector-curvature="0"
     style="fill:none;stroke:#000000;stroke-width:4;stroke-linecap:round;stroke-linejoin:round;stroke-miterlimit:10" /><line
     class="st0"
     x1="674.40002"
     y1="-1377.7"
     x2="674.40002"
     y2="-1394"
     id="line48"
     style="fill:none;stroke:#000000;stroke-width:4;stroke-linecap:round;stroke-linejoin:round;stroke-miterlimit:10" /><line
     class="st0"
     x1="674.40002"
     y1="-1377.7"
     x2="660.70001"
     y2="-1377.7"
     id="line50"
     style="fill:none;stroke:#000000;stroke-width:4;stroke-linecap:round;stroke-linejoin:round;stroke-miterlimit:10" /><g
     id="g82"><polygon
       points="48.1,28.2 50.8,23.5 45.4,23.5 "
       id="polygon52" /><polygon
       points="54.4,21.3 59.9,21.3 57.2,16.6 "
       id="polygon54" /><polygon
       points="45.4,37.1 50.8,37.1 48.1,32.4 "
       id="polygon56" /><polygon
       points="66.2,32.4 63.5,37.1 68.9,37.1 "
       id="polygon58" /><path
       d="m 106.8,42.5 c 0.9,0 1.7,-0.1 2.6,-0.3 -5.7,-1.7 -9.8,-6.4 -9.8,-12 0,-5.6 4.1,-10.3 9.8,-12 -0.8,-0.2 -1.7,-0.3 -2.6,-0.3 -6.8,0 -12.3,5.5 -12.3,12.3 0,6.8 5.6,12.3 12.3,12.3 z"
       id="path60"
       inkscape:connector-curvature="0" /><polygon
       points="53.2,23.5 49.3,30.3 53.2,37.1 61.1,37.1 65,30.3 61.1,23.5 "
       id="polygon62" /><polygon
       points="59.9,39.2 54.4,39.2 57.2,43.9 "
       id="polygon64" /><polygon
       points="63.5,23.5 66.2,28.2 68.9,23.5 "
       id="polygon66" /><path
       d="m 80,107.3 c 5.8,0 10.6,-4.7 10.6,-10.5 0,-5.8 -4.7,-10.5 -10.6,-10.5 -5.9,0 -10.6,4.7 -10.6,10.5 0,5.8 4.8,10.5 10.6,10.5 z"
       id="path68"
       inkscape:connector-curvature="0" /><path
       d="m 106.4,100.7 c 0,5.8 4.7,10.5 10.6,10.5 5.8,0 10.6,-4.7 10.6,-10.5 0,-5.8 -4.7,-10.5 -10.6,-10.5 -5.9,0 -10.6,4.7 -10.6,10.5 z"
       id="path70"
       inkscape:connector-curvature="0" /><path
       d="m 139.9,125.5 v 25.2 c 0,2.4 -1.9,4.3 -4.3,4.3 -2.4,0 -4.4,-1.9 -4.4,-4.3 v -21.6 c 0,-0.6 -0.5,-1.1 -1.1,-1.1 -0.6,0 -1.1,0.5 -1.1,1.1 V 150 h -25 v -20.9 c 0,-0.6 -0.5,-1.1 -1.1,-1.1 -0.6,0 -1.1,0.5 -1.1,1.1 V 151 c 0,2.2 -1.8,4 -4,4 -2.2,0 -4,-1.8 -4,-4 v -25.5 c 0,-6.8 5.5,-12.3 12.4,-12.3 h 21.2 c 7,0.1 12.5,5.6 12.5,12.3 z"
       id="path72"
       inkscape:connector-curvature="0" /><path
       d="m 99.3,113 c -3.3,1.9 -5.8,5 -6.9,8.7 -0.3,1.2 -0.5,2.5 -0.5,3.8 v 20.6 H 68.1 v -20.6 c 0,-1.3 -0.2,-2.6 -0.5,-3.8 -1,-3.7 -3.5,-6.9 -6.9,-8.7 0.4,-0.4 0.9,-0.8 1.4,-1.2 2.1,-1.5 4.6,-2.3 7.3,-2.3 h 21.2 c 2.6,0 5.1,0.8 7.2,2.3 0.6,0.3 1,0.8 1.5,1.2 z"
       id="path74"
       inkscape:connector-curvature="0" /><path
       d="m 66,125.5 v 25.2 c 0,2.4 -2,4.3 -4.4,4.3 -2.4,0 -4.4,-1.9 -4.4,-4.3 v -21.6 c 0,-0.6 -0.5,-1.1 -1.1,-1.1 -0.6,0 -1.1,0.5 -1.1,1.1 V 150 H 30 v -20.9 c 0,-0.6 -0.5,-1.1 -1.1,-1.1 -0.6,0 -1.1,0.5 -1.1,1.1 V 151 c 0,2.2 -1.8,4 -4,4 -2.2,0 -4,-1.8 -4,-4 v -25.5 c 0,-6.8 5.5,-12.3 12.4,-12.3 h 21.2 c 7.1,0.1 12.6,5.6 12.6,12.3 z"
       id="path76"
       inkscape:connector-curvature="0" /><path
       d="m 43.1,111.1 c 5.8,0 10.6,-4.7 10.6,-10.5 0,-5.8 -4.7,-10.5 -10.6,-10.5 -5.8,0 -10.6,4.7 -10.6,10.5 0,5.8 4.7,10.5 10.6,10.5 z"
       id="path78"
       inkscape:connector-curvature="0" /><path
       d="M 115.3,5 H 44.7 c -6.8,0 -13.2,2.6 -18,7.4 -4.8,4.8 -7.4,11.2 -7.4,18 0,13 9.9,23.9 22.7,25.3 v 24.6 c 0,0.5 0.3,0.9 0.8,1 0.5,0.1 1,-0.2 1.2,-0.6 L 55,55.8 H 72.8 L 79,80.6 c 0.1,0.5 0.5,0.8 1,0.8 0.5,0 0.9,-0.3 1,-0.8 L 87.1,55.9 H 105 l 11,24.9 c 0.2,0.4 0.6,0.6 1,0.6 0.1,0 0.1,0 0.2,0 0.5,-0.1 0.8,-0.5 0.8,-1 V 55.7 c 5.8,-0.6 11.1,-3.2 15.3,-7.3 4.8,-4.8 7.4,-11.2 7.4,-18 C 140.7,16.4 129.3,5 115.3,5 Z M 71.7,37.6 c 0.2,0.3 0.2,0.7 0,1.1 -0.2,0.3 -0.5,0.5 -0.9,0.5 h -8.5 l -4.2,7.3 C 57.9,46.8 57.6,47 57.2,47 56.8,47 56.5,46.8 56.3,46.5 L 52,39.2 h -8.5 c -0.4,0 -0.7,-0.2 -0.9,-0.5 -0.2,-0.3 -0.2,-0.7 0,-1.1 L 46.8,30.3 42.6,23 c -0.2,-0.3 -0.2,-0.7 0,-1.1 0.2,-0.3 0.5,-0.5 0.9,-0.5 H 52 l 4.2,-7.3 c 0.4,-0.7 1.4,-0.7 1.8,0 l 4.2,7.3 h 8.5 c 0.4,0 0.7,0.2 0.9,0.5 0.2,0.3 0.2,0.7 0,1.1 l -4.2,7.3 z m 42.2,5.2 c -2.2,1.2 -4.6,1.9 -7.1,1.9 -7.9,0 -14.4,-6.5 -14.4,-14.4 0,-7.9 6.5,-14.4 14.4,-14.4 2.5,0 4.9,0.6 7.1,1.9 0.4,0.2 0.6,0.7 0.5,1.2 -0.1,0.5 -0.5,0.8 -1,0.8 -6.6,0.2 -11.7,4.9 -11.7,10.5 0,5.7 5.2,10.3 11.7,10.5 0.5,0 0.9,0.3 1,0.8 0.2,0.5 0,0.9 -0.5,1.2 z m 0.8,-8.6 c -2.2,0 -3.9,-1.7 -3.9,-3.9 0,-2.2 1.7,-3.9 3.9,-3.9 2.2,0 3.9,1.7 3.9,3.9 0,2.1 -1.8,3.9 -3.9,3.9 z"
       id="path80"
       inkscape:connector-curvature="0" /></g></svg>