<?xml version="1.0" encoding="UTF-8" standalone="no"?>
<svg
   xmlns:dc="http://purl.org/dc/elements/1.1/"
   xmlns:cc="http://creativecommons.org/ns#"
   xmlns:rdf="http://www.w3.org/1999/02/22-rdf-syntax-ns#"
   xmlns:svg="http://www.w3.org/2000/svg"
   xmlns="http://www.w3.org/2000/svg"
   xmlns:sodipodi="http://sodipodi.sourceforge.net/DTD/sodipodi-0.dtd"
   xmlns:inkscape="http://www.inkscape.org/namespaces/inkscape"
   version="1.1"
   x="0px"
   y="0px"
   viewBox="0 0 100 100"
   enable-background="new 0 0 100 100"
   xml:space="preserve"
   id="svg20"
   sodipodi:docname="consolation.svg"
   width="100"
   height="100"
   inkscape:version="0.92.5 (2060ec1f9f, 2020-04-08)"><metadata
     id="metadata26"><rdf:RDF><cc:Work
         rdf:about=""><dc:format>image/svg+xml</dc:format><dc:type
           rdf:resource="http://purl.org/dc/dcmitype/StillImage" /><dc:title></dc:title></cc:Work></rdf:RDF></metadata><defs
     id="defs24" /><sodipodi:namedview
     pagecolor="#ffffff"
     bordercolor="#666666"
     borderopacity="1"
     objecttolerance="10"
     gridtolerance="10"
     guidetolerance="10"
     inkscape:pageopacity="0"
     inkscape:pageshadow="2"
     inkscape:window-width="1920"
     inkscape:window-height="1043"
     id="namedview22"
     showgrid="false"
     inkscape:zoom="1.888"
     inkscape:cx="50"
     inkscape:cy="62.5"
     inkscape:window-x="0"
     inkscape:window-y="0"
     inkscape:window-maximized="1"
     inkscape:current-layer="svg20" /><g
     id="g6"
     transform="translate(0,0.0625)"><path
       d="m 69.521,0.692 c 4.521,0 8.196,3.672 8.196,8.199 0,4.529 -3.675,8.188 -8.196,8.188 C 65,17.079 61.333,13.42 61.333,8.891 61.332,4.364 65,0.692 69.521,0.692 Z"
       id="path2"
       inkscape:connector-curvature="0" /><path
       d="M 83.27,18.96 H 64.342 c -0.317,0 -1.583,-0.003 -1.846,0.028 -0.994,0.142 -2.169,0.396 -2.556,0.511 l -30.193,9.349 c -2.094,0.623 -3.287,2.823 -2.666,4.916 0.511,1.718 2.083,2.831 3.789,2.831 0.373,0 0.752,-0.053 1.127,-0.165 l 30.34,-9.4 v 67.2 c 0,2.554 2.066,4.621 4.621,4.621 2.554,0 4.629,-2.067 4.629,-4.621 V 56.32 h 3.139 v 37.909 c 0,2.554 2.071,4.621 4.625,4.621 2.554,0 4.621,-2.067 4.621,-4.621 V 30.571 h 2.845 l 0.009,23.835 c 0,1.946 1.581,3.527 3.527,3.527 1.945,0 3.528,-1.581 3.528,-3.527 V 28.053 C 93.882,22.249 88.955,18.96 83.27,18.96 Z"
       id="path4"
       inkscape:connector-curvature="0" /></g><g
     id="g10"
     transform="translate(0,0.0625)"><path
       d="m 34.741,53.56 c 4.103,1.299 8.502,-0.983 9.801,-5.091 1.301,-4.119 -0.987,-8.515 -5.089,-9.812 -4.123,-1.304 -8.518,0.976 -9.821,5.099 -1.299,4.105 0.987,8.501 5.109,9.804 z"
       id="path8"
       inkscape:connector-curvature="0" /></g><g
     id="g14"
     transform="translate(0,0.0625)"><path
       d="M 36.761,66.644 H 24.552 C 26.566,61.682 29.411,53.452 28.433,48.461 25.025,31.084 3.446,53.004 5.824,70.64 h 0.009 c 0,0.002 0,0.004 0,0.006 0.228,2.348 2.687,5.034 6.094,5.034 h 20.315 v 18.984 c 0,2.495 2.023,4.519 4.518,4.519 2.495,0 4.519,-2.023 4.519,-4.519 V 71.162 c 0,-2.495 -2.023,-4.518 -4.518,-4.518 z"
       id="path12"
       inkscape:connector-curvature="0" /></g></svg>