<?xml version="1.0" encoding="UTF-8" standalone="no"?>
<svg
   xmlns:dc="http://purl.org/dc/elements/1.1/"
   xmlns:cc="http://creativecommons.org/ns#"
   xmlns:rdf="http://www.w3.org/1999/02/22-rdf-syntax-ns#"
   xmlns:svg="http://www.w3.org/2000/svg"
   xmlns="http://www.w3.org/2000/svg"
   xmlns:sodipodi="http://sodipodi.sourceforge.net/DTD/sodipodi-0.dtd"
   xmlns:inkscape="http://www.inkscape.org/namespaces/inkscape"
   version="1.1"
   x="0px"
   y="0px"
   viewBox="0 0 64 64"
   enable-background="new 0 0 64 64"
   xml:space="preserve"
   id="svg16"
   sodipodi:docname="cryptography.svg"
   width="64"
   height="64"
   inkscape:version="0.92.5 (2060ec1f9f, 2020-04-08)"><metadata
     id="metadata22"><rdf:RDF><cc:Work
         rdf:about=""><dc:format>image/svg+xml</dc:format><dc:type
           rdf:resource="http://purl.org/dc/dcmitype/StillImage" /><dc:title></dc:title></cc:Work></rdf:RDF></metadata><defs
     id="defs20" /><sodipodi:namedview
     pagecolor="#ffffff"
     bordercolor="#666666"
     borderopacity="1"
     objecttolerance="10"
     gridtolerance="10"
     guidetolerance="10"
     inkscape:pageopacity="0"
     inkscape:pageshadow="2"
     inkscape:window-width="760"
     inkscape:window-height="480"
     id="namedview18"
     showgrid="false"
     inkscape:zoom="2.95"
     inkscape:cx="32"
     inkscape:cy="40"
     inkscape:window-x="0"
     inkscape:window-y="0"
     inkscape:window-maximized="0"
     inkscape:current-layer="svg16" /><g
     id="g10"><g
       id="g8"><path
         d="M 57,19 H 7 V 45 H 57 Z M 15,41 c 0,0.553 -0.448,1 -1,1 -0.552,0 -1,-0.447 -1,-1 v -2 c 0,-0.553 0.448,-1 1,-1 0.552,0 1,0.447 1,1 z m 0,-7 c 0,0.553 -0.448,1 -1,1 -0.552,0 -1,-0.447 -1,-1 v -2 c 0,-0.552 0.448,-1 1,-1 0.552,0 1,0.448 1,1 z m 0,-8 c 0,0.552 -0.448,1 -1,1 -0.552,0 -1,-0.448 -1,-1 v -2 c 0,-0.552 0.448,-1 1,-1 0.552,0 1,0.448 1,1 z m 6,15 c 0,0.553 -0.448,1 -1,1 -0.552,0 -1,-0.447 -1,-1 v -2 c 0,-0.553 0.448,-1 1,-1 0.552,0 1,0.447 1,1 z m 0,-15 c 0,0.552 -0.448,1 -1,1 -0.552,0 -1,-0.448 -1,-1 v -2 c 0,-0.552 0.448,-1 1,-1 0.552,0 1,0.448 1,1 z m 6,15 c 0,0.553 -0.448,1 -1,1 -0.552,0 -1,-0.447 -1,-1 v -2 c 0,-0.553 0.448,-1 1,-1 0.552,0 1,0.447 1,1 z m 0,-7 c 0,0.553 -0.448,1 -1,1 -0.552,0 -1,-0.447 -1,-1 v -2 c 0,-0.552 0.448,-1 1,-1 0.552,0 1,0.448 1,1 z m 0,-8 c 0,0.552 -0.448,1 -1,1 -0.552,0 -1,-0.448 -1,-1 v -2 c 0,-0.552 0.448,-1 1,-1 0.552,0 1,0.448 1,1 z m 6,8 c 0,0.553 -0.448,1 -1,1 -0.552,0 -1,-0.447 -1,-1 v -2 c 0,-0.552 0.448,-1 1,-1 0.552,0 1,0.448 1,1 z m 0,-8 c 0,0.552 -0.448,1 -1,1 -0.552,0 -1,-0.448 -1,-1 v -2 c 0,-0.552 0.448,-1 1,-1 0.552,0 1,0.448 1,1 z m 6,0 c 0,0.552 -0.447,1 -1,1 -0.553,0 -1,-0.448 -1,-1 v -2 c 0,-0.552 0.447,-1 1,-1 0.553,0 1,0.448 1,1 z m 6,8 c 0,0.553 -0.447,1 -1,1 -0.553,0 -1,-0.447 -1,-1 v -2 c 0,-0.552 0.447,-1 1,-1 0.553,0 1,0.448 1,1 z m 0,-8 c 0,0.552 -0.447,1 -1,1 -0.553,0 -1,-0.448 -1,-1 v -2 c 0,-0.552 0.447,-1 1,-1 0.553,0 1,0.448 1,1 z m 6,15 c 0,0.553 -0.447,1 -1,1 -0.553,0 -1,-0.447 -1,-1 v -2 c 0,-0.553 0.447,-1 1,-1 0.553,0 1,0.447 1,1 z m -1,-6 c -0.553,0 -1,-0.447 -1,-1 v -2 c 0,-0.552 0.447,-1 1,-1 0.553,0 1,0.448 1,1 v 2 c 0,0.553 -0.447,1 -1,1 z"
         id="path2"
         inkscape:connector-curvature="0" /><path
         d="m 57,17 v -5 c 0,-0.552 -0.447,-1 -1,-1 H 8 c -0.552,0 -1,0.448 -1,1 v 5 z"
         id="path4"
         inkscape:connector-curvature="0" /><path
         d="m 7,47 v 5 c 0,0.553 0.448,1 1,1 h 48 c 0.553,0 1,-0.447 1,-1 v -5 z"
         id="path6"
         inkscape:connector-curvature="0" /></g></g></svg>