<?xml version="1.0" encoding="UTF-8" standalone="no"?>
<svg
   xmlns:dc="http://purl.org/dc/elements/1.1/"
   xmlns:cc="http://creativecommons.org/ns#"
   xmlns:rdf="http://www.w3.org/1999/02/22-rdf-syntax-ns#"
   xmlns:svg="http://www.w3.org/2000/svg"
   xmlns="http://www.w3.org/2000/svg"
   xmlns:sodipodi="http://sodipodi.sourceforge.net/DTD/sodipodi-0.dtd"
   xmlns:inkscape="http://www.inkscape.org/namespaces/inkscape"
   version="1.1"
   x="0px"
   y="0px"
   viewBox="0 0 66 66"
   enable-background="new 0 0 66 66"
   xml:space="preserve"
   id="svg34"
   sodipodi:docname="data analyst.svg"
   width="66"
   height="66"
   inkscape:version="0.92.5 (2060ec1f9f, 2020-04-08)"><metadata
     id="metadata40"><rdf:RDF><cc:Work
         rdf:about=""><dc:format>image/svg+xml</dc:format><dc:type
           rdf:resource="http://purl.org/dc/dcmitype/StillImage" /><dc:title></dc:title></cc:Work></rdf:RDF></metadata><defs
     id="defs38" /><sodipodi:namedview
     pagecolor="#ffffff"
     bordercolor="#666666"
     borderopacity="1"
     objecttolerance="10"
     gridtolerance="10"
     guidetolerance="10"
     inkscape:pageopacity="0"
     inkscape:pageshadow="2"
     inkscape:window-width="760"
     inkscape:window-height="480"
     id="namedview36"
     showgrid="false"
     inkscape:zoom="2.8606061"
     inkscape:cx="33"
     inkscape:cy="41.25"
     inkscape:window-x="0"
     inkscape:window-y="0"
     inkscape:window-maximized="0"
     inkscape:current-layer="svg34" /><g
     id="g28"
     transform="translate(0,-0.05)"><g
       id="g4"><path
         d="m 54.7,5.8 v 4.5 c 0,0.5 -0.4,0.9 -0.9,0.9 H 36.9 C 36.4,11.2 36,10.8 36,10.3 V 5.8 c 0,-0.5 0.4,-0.9 0.9,-0.9 h 2.6 V 3.2 c 0,-0.5 0.4,-0.9 0.9,-0.9 h 9.8 c 0.5,0 0.9,0.4 0.9,0.9 v 1.7 h 2.6 c 0.6,0 1,0.4 1,0.9 z"
         id="path2"
         inkscape:connector-curvature="0" /></g><g
       id="g14"><g
         id="g8"><path
           d="m 23.7,35.4 v 13.8 c 0,0.6 -0.4,1 -1,1 h -3.8 v 12.6 c 0,0.6 -0.5,1 -1,1 h -4.5 v -12 c 0,-0.5 -0.4,-1 -1,-1 -0.5,0 -1,0.5 -1,1 V 63.7 H 6.8 c -0.5,0 -1,-0.4 -1,-1 V 50.1 H 2 c -0.6,0 -1,-0.4 -1,-1 V 35.4 c 0,-4.3 2.4,-8.2 6,-9.9 0.3,-0.1 0.6,-0.1 0.9,0 0.3,0.2 0.5,0.4 0.5,0.8 0.3,2.2 1.9,3.8 3.9,3.8 2,0 3.6,-1.6 3.9,-3.8 0,-0.3 0.2,-0.6 0.5,-0.8 0.3,-0.2 0.6,-0.2 0.9,0 3.7,1.6 6.1,5.5 6.1,9.9 z"
           id="path6"
           inkscape:connector-curvature="0" /></g><g
         id="g12"><path
           d="m 6.1,19.3 c 0,-3.3 2.8,-6 6.3,-6 3.5,0 6.3,2.7 6.3,6 0,3.3 -2.8,6 -6.3,6 -3.5,0.1 -6.3,-2.6 -6.3,-6 z"
           id="path10"
           inkscape:connector-curvature="0" /></g></g><g
       id="g26"><rect
         x="36.700001"
         y="42.200001"
         width="3.2"
         height="14.3"
         id="rect16" /><rect
         x="45.599998"
         y="47.599998"
         width="3.2"
         height="8.8999996"
         id="rect18" /><path
         d="m 62.3,7.8 h -5.6 v 2.5 c 0,1.6 -1.3,2.9 -2.9,2.9 H 36.9 C 35.3,13.2 34,11.9 34,10.3 V 7.8 h -5.6 c -1.5,0 -2.7,1.4 -2.7,3.3 v 49.3 c 0,1.8 1.2,3.3 2.7,3.3 h 33.9 c 1.5,0 2.7,-1.4 2.7,-3.3 V 11.1 C 65,9.3 63.8,7.8 62.3,7.8 Z m -18.7,15 c 0,-0.6 0.4,-1 1,-1 h 12.7 c 0.5,0 1,0.4 1,1 v 12.5 c 0,0.6 -0.5,1 -1,1 H 44.6 c -0.6,0 -1,-0.4 -1,-1 z m 16.7,35.7 c -14,0 -7.9,0 -29.6,0 -0.5,0 -1,-0.5 -1,-1 V 33.2 c 0,-0.5 0.5,-1 1,-1 0.5,0 1,0.5 1,1 v 23.3 h 3 V 41.2 c 0,-0.5 0.5,-1 1,-1 h 5.2 c 0.6,0 1,0.5 1,1 v 15.3 h 1.8 v -9.9 c 0,-0.6 0.4,-1 1,-1 h 5.2 c 0.5,0 1,0.4 1,1 v 9.9 h 1.8 V 49 c 0,-0.6 0.4,-1 1,-1 h 5.2 c 0.5,0 1,0.4 1,1 v 7.5 h 0.6 c 0.5,0 1,0.5 1,1 0,0.5 -0.6,1 -1.2,1 z"
         id="path20"
         inkscape:connector-curvature="0" /><path
         d="M 45.6,23.8 V 34.3 H 56.3 V 23.8 Z m 9.2,3.7 -4.3,4.5 c -0.2,0.2 -0.5,0.3 -0.7,0.3 -0.3,0 -0.5,-0.1 -0.7,-0.3 l -1.9,-2 c -0.4,-0.4 -0.4,-1 0,-1.4 0.4,-0.4 1,-0.4 1.4,0 l 1.2,1.2 3.6,-3.8 c 0.4,-0.4 1,-0.4 1.4,0 0.4,0.4 0.4,1 0,1.5 z"
         id="path22"
         inkscape:connector-curvature="0" /><rect
         x="54.5"
         y="50"
         width="3.2"
         height="6.5"
         id="rect24" /></g></g></svg>