<?xml version="1.0" encoding="UTF-8" standalone="no"?>
<svg
   xmlns:dc="http://purl.org/dc/elements/1.1/"
   xmlns:cc="http://creativecommons.org/ns#"
   xmlns:rdf="http://www.w3.org/1999/02/22-rdf-syntax-ns#"
   xmlns:svg="http://www.w3.org/2000/svg"
   xmlns="http://www.w3.org/2000/svg"
   xmlns:sodipodi="http://sodipodi.sourceforge.net/DTD/sodipodi-0.dtd"
   xmlns:inkscape="http://www.inkscape.org/namespaces/inkscape"
   version="1.0"
   x="0px"
   y="0px"
   viewBox="0 0 79.861763 79.861763"
   enable-background="new 0 0 100 100"
   xml:space="preserve"
   id="svg44"
   sodipodi:docname="demolition.svg"
   width="79.861763"
   height="79.861763"
   inkscape:version="0.92.5 (2060ec1f9f, 2020-04-08)"><metadata
     id="metadata50"><rdf:RDF><cc:Work
         rdf:about=""><dc:format>image/svg+xml</dc:format><dc:type
           rdf:resource="http://purl.org/dc/dcmitype/StillImage" /><dc:title></dc:title></cc:Work></rdf:RDF></metadata><defs
     id="defs48" /><sodipodi:namedview
     pagecolor="#ffffff"
     bordercolor="#666666"
     borderopacity="1"
     objecttolerance="10"
     gridtolerance="10"
     guidetolerance="10"
     inkscape:pageopacity="0"
     inkscape:pageshadow="2"
     inkscape:window-width="760"
     inkscape:window-height="480"
     id="namedview46"
     showgrid="false"
     inkscape:zoom="1.888"
     inkscape:cx="39.278503"
     inkscape:cy="25.999756"
     inkscape:window-x="0"
     inkscape:window-y="0"
     inkscape:window-maximized="0"
     inkscape:current-layer="svg44" /><g
     id="g38"
     transform="translate(-10.721497,-11.409084)"><g
       id="g36"><path
         d="m 20,47.396179 c 0,9.052307 7.338318,16.390625 16.390503,16.390625 9.052307,0 16.390564,-7.338318 16.390564,-16.390625 0,-9.052185 -7.338257,-16.390503 -16.390564,-16.390503 -3.244019,0 -6.259461,0.954712 -8.804382,2.58075 C 22.949097,27.046997 19.143738,19.971375 16.375,14.180176 l -4.511719,2.157226 c 2.92334,6.113099 6.969788,13.613282 11.947754,20.557862 C 21.43396,39.739746 20,43.399353 20,47.396179 Z"
         id="path2"
         inkscape:connector-curvature="0" /><path
         d="M 45.083252,17.5 V 33.502197 L 55.333252,26 55.5,37 68.5,36.25 58,47.75 68.5,56 55,57.25 v 11.5 L 45.083252,61.289673 V 86.25 h 20.485901 v -14 h 14.766968 v 14 H 90.583252 V 17.5 Z m 35.252869,43.875 h -6 v -6 h 6 z m 0,-13.5 h -6 v -6 h 6 z m 0,-13.5 h -6 v -6 h 6 z"
         id="path4"
         inkscape:connector-curvature="0" /><circle
         cx="17.645813"
         cy="71.416504"
         r="2"
         id="circle6" /><circle
         cx="26.354187"
         cy="71.416504"
         r="2"
         id="circle8" /><circle
         cx="35.0625"
         cy="86.499756"
         r="2"
         id="circle10" /><circle
         cx="35.0625"
         cy="71.416504"
         r="2"
         id="circle12" /><circle
         cx="26.354187"
         cy="86.499756"
         r="2"
         id="circle14" /><circle
         cx="39.416687"
         cy="18.625061"
         r="2"
         id="circle16" /><circle
         cx="30.708313"
         cy="18.625061"
         r="2"
         id="circle18" /><circle
         cx="35.145813"
         cy="26.166687"
         r="2"
         id="circle20" /><circle
         cx="22"
         cy="63.874878"
         r="2"
         id="circle22" /><circle
         cx="12.721497"
         cy="63.874878"
         r="2"
         id="circle24" /><circle
         cx="12.721497"
         cy="42.762085"
         r="2"
         id="circle26" /><circle
         cx="22"
         cy="78.958191"
         r="2"
         id="circle28" /><circle
         cx="13.291687"
         cy="78.958191"
         r="2"
         id="circle30" /><circle
         cx="13.291687"
         cy="51.875"
         r="2"
         id="circle32" /><circle
         cx="30.708313"
         cy="78.958191"
         r="2"
         id="circle34" /></g></g></svg>