<?xml version="1.0" encoding="UTF-8" standalone="no"?>
<svg
   xmlns:dc="http://purl.org/dc/elements/1.1/"
   xmlns:cc="http://creativecommons.org/ns#"
   xmlns:rdf="http://www.w3.org/1999/02/22-rdf-syntax-ns#"
   xmlns:svg="http://www.w3.org/2000/svg"
   xmlns="http://www.w3.org/2000/svg"
   xmlns:sodipodi="http://sodipodi.sourceforge.net/DTD/sodipodi-0.dtd"
   xmlns:inkscape="http://www.inkscape.org/namespaces/inkscape"
   version="1.0"
   x="0px"
   y="0px"
   viewBox="0 0 100 100"
   xml:space="preserve"
   id="svg10"
   sodipodi:docname="document analyst.svg"
   width="100"
   height="100"
   inkscape:version="0.92.5 (2060ec1f9f, 2020-04-08)"><metadata
     id="metadata16"><rdf:RDF><cc:Work
         rdf:about=""><dc:format>image/svg+xml</dc:format><dc:type
           rdf:resource="http://purl.org/dc/dcmitype/StillImage" /><dc:title>search book</dc:title></cc:Work></rdf:RDF></metadata><defs
     id="defs14" /><sodipodi:namedview
     pagecolor="#ffffff"
     bordercolor="#666666"
     borderopacity="1"
     objecttolerance="10"
     gridtolerance="10"
     guidetolerance="10"
     inkscape:pageopacity="0"
     inkscape:pageshadow="2"
     inkscape:window-width="760"
     inkscape:window-height="480"
     id="namedview12"
     showgrid="false"
     inkscape:zoom="1.888"
     inkscape:cx="50"
     inkscape:cy="62.5"
     inkscape:window-x="0"
     inkscape:window-y="0"
     inkscape:window-maximized="0"
     inkscape:current-layer="svg10" /><title
     id="title2">search book</title><path
     d="m 20.46289,6.541016 -6.664062,40.433593 c 2.454325,0.148099 7.045749,0.571989 11.277344,1.693359 1.121372,-12.12351 11.256367,-21.413447 23.443359,-21.498047 V 24.46289 C 47.355842,22.96068 42.55157,16.909044 38.044922,13.671875 30.576157,8.318905 23.276902,6.900706 20.46289,6.541016 Z m 59.074219,0.04297 c -6.093496,1.03674 -11.87,3.46988 -16.863281,7.087891 -4.654754,3.42759 -9.818091,9.266665 -11.193359,10.853515 v 2.835938 c 5.268335,0.63474 10.176587,3.024895 13.90039,6.791015 4.146963,4.16812 6.623385,9.733315 6.898438,15.615235 5.077914,-2.05233 11.72112,-2.644869 13.90039,-2.792969 z M 9.7578124,21.013671 3.0937499,61.193359 H 27.296875 c -1.438742,-2.96211 -2.220382,-6.19936 -2.326172,-9.5 -4.59128,-1.33295 -9.880949,-1.671554 -12.039063,-1.777344 -0.655897,-0.02116 -1.270199,-0.337913 -1.693359,-0.845703 -0.423158,-0.50779 -0.592118,-1.164423 -0.486328,-1.820313 l 4.337891,-26.236328 z m 75.1523436,0 4.294922,26.236328 c 0.10579,0.63473 -0.06317,1.291039 -0.486328,1.798829 -0.402,0.50779 -1.035506,0.824503 -1.691406,0.845703 -3.30064,0.148111 -10.411316,0.972415 -14.791016,3.109375 -0.232738,2.83517 -0.993866,5.629657 -2.242188,8.210937 H 96.90625 L 90.242187,21.013671 Z M 48.58789,30.152343 c -5.289493,0.01322 -10.572921,2.043953 -14.603515,6.095703 -8.082345,8.14582 -8.082345,21.305352 0,29.451172 l 0.08398,0.08398 c 8.103503,8.04005 21.179047,8.019525 29.240235,-0.08398 8.082345,-8.14582 8.082345,-21.305352 0,-29.451172 l -0.08398,-0.08594 C 59.172858,32.142089 53.877384,30.139143 48.58789,30.152343 Z m 0.07031,2.908203 c 4.567477,0.01322 9.127748,1.770649 12.597656,5.261719 6.960973,7.02444 6.960973,18.363908 0,25.367188 -3.34296,3.385279 -7.891799,5.288778 -12.652343,5.267578 -4.760544,0 -9.309385,-1.882299 -12.652344,-5.267578 -6.960973,-7.02444 -6.960973,-18.342748 0,-25.367188 l 0.06445,-0.06445 c 3.501644,-3.48049 8.075101,-5.210466 12.642578,-5.197266 z m -0.101563,2.966797 c -3.808434,0.01322 -7.613076,1.479442 -10.511718,4.388672 -5.818443,5.86075 -5.818443,15.338459 0,21.199219 l 0.06445,0.06445 c 5.8396,5.79731 15.255449,5.753987 21.052734,-0.06445 5.818442,-5.860761 5.818442,-15.338469 0,-21.199219 l -0.06445,-0.06445 c -2.9198,-2.89864 -6.73258,-4.337419 -10.541016,-4.324219 z m 19.638675,28.402344 c -1.713796,2.496641 -3.870547,4.633532 -6.367187,6.326172 l 0.570312,0.572266 c 0.190422,0.148089 0.423513,0.210653 0.65625,0.189453 0.63474,-0.02115 1.227557,-0.253271 1.671875,-0.71875 l 3.808594,-3.808594 c 0.698213,-0.677059 0.63377,-1.58693 0.189453,-2.03125 z m 1.566407,5.542969 -2.306641,2.30664 15.255859,15.296875 2.304688,-2.304687 z m 19.443359,15.890625 c -0.48663,0.04232 -0.930677,0.275411 -1.248047,0.65625 l -3.808594,3.808594 c -0.804,0.825159 -0.972315,1.883153 -0.697265,2.158203 l 0.972656,0.972656 6.326172,-6.369141 -0.972656,-0.99414 c -0.14811,-0.14816 -0.360686,-0.232422 -0.572266,-0.232422 z"
     id="path4"
     inkscape:connector-curvature="0" /></svg>