<?xml version="1.0" encoding="UTF-8" standalone="no"?>
<svg
   xmlns:dc="http://purl.org/dc/elements/1.1/"
   xmlns:cc="http://creativecommons.org/ns#"
   xmlns:rdf="http://www.w3.org/1999/02/22-rdf-syntax-ns#"
   xmlns:svg="http://www.w3.org/2000/svg"
   xmlns="http://www.w3.org/2000/svg"
   xmlns:sodipodi="http://sodipodi.sourceforge.net/DTD/sodipodi-0.dtd"
   xmlns:inkscape="http://www.inkscape.org/namespaces/inkscape"
   version="1.1"
   x="0px"
   y="0px"
   viewBox="0 0 64 64"
   xml:space="preserve"
   id="svg36"
   sodipodi:docname="evidence collection.svg"
   width="64"
   height="64"
   inkscape:version="0.92.5 (2060ec1f9f, 2020-04-08)"><metadata
     id="metadata42"><rdf:RDF><cc:Work
         rdf:about=""><dc:format>image/svg+xml</dc:format><dc:type
           rdf:resource="http://purl.org/dc/dcmitype/StillImage" /><dc:title></dc:title></cc:Work></rdf:RDF></metadata><defs
     id="defs40" /><sodipodi:namedview
     pagecolor="#ffffff"
     bordercolor="#666666"
     borderopacity="1"
     objecttolerance="10"
     gridtolerance="10"
     guidetolerance="10"
     inkscape:pageopacity="0"
     inkscape:pageshadow="2"
     inkscape:window-width="760"
     inkscape:window-height="480"
     id="namedview38"
     showgrid="false"
     inkscape:zoom="2.95"
     inkscape:cx="32"
     inkscape:cy="40"
     inkscape:window-x="0"
     inkscape:window-y="0"
     inkscape:window-maximized="0"
     inkscape:current-layer="svg36" /><g
     id="g30"><polygon
       points="27.418,39.004 49.707,15 44.5,15 26.892,38.477 "
       id="polygon2" /><rect
       x="24.879"
       y="38.049999"
       transform="matrix(0.7071,-0.7071,0.7071,0.7071,-22.0833,30.6863)"
       width="2.243"
       height="7.9000001"
       id="rect4" /><path
       d="M 13,15 H 11 V 11 H 9 v 47 c 0,1.654 1.346,3 3,3 h 40 c 1.654,0 3,-1.346 3,-3 V 11 H 13 Z M 24,35.586 25.463,37.049 43.5,13 H 53 V 22 22.451 39 c 0,1.654 -1.346,3 -3,3 -1.654,0 -3,-1.346 -3,-3 v -3 c 0,-0.551 -0.448,-1 -1,-1 -0.552,0 -1,0.449 -1,1 v 8 c 0,1.654 -1.346,3 -3,3 -1.654,0 -3,-1.346 -3,-3 V 34.835 L 30.642,42.228 32.414,44 28,48.414 l -1.575,-1.575 -5.287,9.4 C 20.18,57.942 18.371,59 16.417,59 13.43,59 11,56.57 11,53.583 v -0.535 c 0,-1.596 0.699,-3.103 1.917,-4.135 L 21.358,41.772 19.586,40 Z"
       id="path6"
       inkscape:connector-curvature="0" /><path
       d="M 29.226,40.812 39.187,32 H 41 v 12 c 0,0.551 0.448,1 1,1 0.552,0 1,-0.449 1,-1 v -8 c 0,-1.654 1.346,-3 3,-3 1.654,0 3,1.346 3,3 v 3 c 0,0.551 0.448,1 1,1 0.552,0 1,-0.449 1,-1 V 24.22 L 43.621,30.747 42.297,29.249 51,21.549 V 16.546 L 28.833,40.419 Z"
       id="path8"
       inkscape:connector-curvature="0" /><rect
       x="15"
       y="7"
       width="4"
       height="2"
       id="rect10" /><rect
       x="9"
       y="7"
       width="4"
       height="2"
       id="rect12" /><path
       d="M 14.209,50.44 C 13.441,51.091 13,52.042 13,53.048 v 0.535 c 0,1.884 1.533,3.417 3.417,3.417 1.232,0 2.374,-0.667 2.979,-1.742 L 24.958,45.371 22.777,43.19 Z M 16,55 c -0.552,0 -1,-0.448 -1,-1 0,-0.552 0.448,-1 1,-1 0.552,0 1,0.448 1,1 0,0.552 -0.448,1 -1,1 z"
       id="path14"
       inkscape:connector-curvature="0" /><path
       d="M 54,3 H 10 C 9.448,3 9,3.449 9,4 V 5 H 55 V 4 C 55,3.449 54.552,3 54,3 Z"
       id="path16"
       inkscape:connector-curvature="0" /><rect
       x="21"
       y="7"
       width="4"
       height="2"
       id="rect18" /><rect
       x="51"
       y="7"
       width="4"
       height="2"
       id="rect20" /><rect
       x="39"
       y="7"
       width="4"
       height="2"
       id="rect22" /><rect
       x="45"
       y="7"
       width="4"
       height="2"
       id="rect24" /><rect
       x="27"
       y="7"
       width="4"
       height="2"
       id="rect26" /><rect
       x="33"
       y="7"
       width="4"
       height="2"
       id="rect28" /></g></svg>