<?xml version="1.0" encoding="UTF-8" standalone="no"?>
<svg
   xmlns:dc="http://purl.org/dc/elements/1.1/"
   xmlns:cc="http://creativecommons.org/ns#"
   xmlns:rdf="http://www.w3.org/1999/02/22-rdf-syntax-ns#"
   xmlns:svg="http://www.w3.org/2000/svg"
   xmlns="http://www.w3.org/2000/svg"
   xmlns:sodipodi="http://sodipodi.sourceforge.net/DTD/sodipodi-0.dtd"
   xmlns:inkscape="http://www.inkscape.org/namespaces/inkscape"
   xml:space="preserve"
   version="1.1"
   style="clip-rule:evenodd;fill-rule:evenodd;image-rendering:optimizeQuality;shape-rendering:geometricPrecision;text-rendering:geometricPrecision"
   viewBox="0 0 846.66 846.66001"
   x="0px"
   y="0px"
   id="svg14"
   sodipodi:docname="fingerprint.svg"
   width="846.65997"
   height="846.65997"
   inkscape:version="0.92.5 (2060ec1f9f, 2020-04-08)"><metadata
     id="metadata18"><rdf:RDF><cc:Work
         rdf:about=""><dc:format>image/svg+xml</dc:format><dc:type
           rdf:resource="http://purl.org/dc/dcmitype/StillImage" /><dc:title></dc:title></cc:Work></rdf:RDF></metadata><sodipodi:namedview
     pagecolor="#ffffff"
     bordercolor="#666666"
     borderopacity="1"
     objecttolerance="10"
     gridtolerance="10"
     guidetolerance="10"
     inkscape:pageopacity="0"
     inkscape:pageshadow="2"
     inkscape:window-width="760"
     inkscape:window-height="480"
     id="namedview16"
     showgrid="false"
     inkscape:zoom="0.22299389"
     inkscape:cx="423.32999"
     inkscape:cy="529.16248"
     inkscape:window-x="0"
     inkscape:window-y="0"
     inkscape:window-maximized="0"
     inkscape:current-layer="svg14" /><defs
     id="defs4"><style
       type="text/css"
       id="style2">
   
    .fil0 {fill:black}
   
  </style></defs><g
     id="g8"
     transform="translate(0,-1.3427734e-5)"><path
       class="fil0"
       d="M 423.33,39.56 C 635.28,39.56 807.1,211.37 807.1,423.33 807.1,635.28 635.28,807.1 423.33,807.1 211.38,807.1 39.56,635.28 39.56,423.33 39.56,211.37 211.38,39.56 423.33,39.56 Z m -48.86,422.23 c 6.31,-22.83 41.03,-13.24 34.72,9.6 -24.84,88.83 -167.65,195.36 -168.06,195.67 -18.93,14.2 -40.53,-14.59 -21.59,-28.79 0.38,-0.29 133.43,-99.61 154.93,-176.48 z M 325.78,151.5 c -23.31,4.54 -30.21,-30.89 -6.92,-35.44 224.14,-44.23 340.09,101.43 340.42,101.85 6.28,7.71 5.11,19.06 -2.6,25.34 -7.72,6.27 -19.07,5.1 -25.34,-2.61 -0.3,-0.37 -102.78,-129.17 -305.56,-89.14 z m -73.49,80.94 c -20.8,11.33 -38.01,-20.29 -17.22,-31.62 72.98,-39.8 165.28,-47.91 244.47,-23.89 104.48,31.7 173.1,112.06 209.4,211.91 3.39,9.36 -1.44,19.69 -10.8,23.08 -9.36,3.39 -19.69,-1.44 -23.08,-10.8 C 622.71,312.14 562.47,239.71 469.09,211.38 399.18,190.17 316.78,197.27 252.29,232.44 Z M 186.8,345.61 c -17.62,15.77 -41.62,-11.05 -24,-26.82 68.96,-61.67 156.5,-106.83 251.35,-98.62 128.98,11.16 232.37,124.89 222.83,255.52 -3.69,50.57 -22.11,100.78 -43.75,154.9 -8.81,21.99 -42.27,8.59 -33.45,-13.41 20.47,-51.2 37.88,-98.46 41.2,-144.02 8.13,-111.25 -80.36,-207.51 -189.93,-217 -84.6,-7.31 -162.89,34.57 -224.25,89.45 z m 7.5,110.96 c -8.42,5.3 -19.55,2.77 -24.84,-5.65 -5.31,-8.42 -2.78,-19.54 5.64,-24.84 65.4,-41.62 75.66,-114.15 153.35,-140.03 100.02,-33.3 207.05,13.21 241.26,115.92 C 622.57,560.66 452.91,712.61 452.43,713.05 434.9,729 410.62,702.33 428.14,686.38 428.58,685.98 580.91,549.46 535.55,413.27 507.68,329.59 420.86,293.21 339.75,320.22 274.88,341.83 260.66,414.46 194.3,456.57 Z m -1.06,86.85 c -19.74,13.08 -39.64,-16.99 -19.89,-30.06 60.5,-40 78.02,-66.75 103.75,-106.02 115.18,-175.78 311.49,-19.85 229.76,139.14 -86.34,167.95 -173.73,191.59 -173.98,191.66 -22.85,6.5 -32.71,-28.22 -9.88,-34.72 0.21,-0.06 72.69,-19.54 151.82,-173.46 C 535.58,411.77 397.78,288.99 307.3,427.1 279.18,470.04 260.03,499.28 193.24,543.42 Z m 21.69,65.16 c -21.45,10.21 -36.98,-22.4 -15.53,-32.61 42.96,-20.46 99.64,-89.53 119.22,-131.98 60.54,-131.45 203.37,-27.46 132.62,86.9 -36.01,58.18 -102.7,151.6 -169.27,175.29 -22.37,7.89 -34.37,-26.12 -12,-34.02 56.34,-20.05 120.07,-110.78 150.64,-160.18 43.09,-69.64 -29.53,-139.1 -69.24,-52.89 -23.17,50.23 -85.72,125.33 -136.44,149.49 z"
       id="path6"
       inkscape:connector-curvature="0"
       style="fill:#000000" /></g></svg>