<?xml version="1.0" encoding="UTF-8" standalone="no"?>
<svg
   xmlns:dc="http://purl.org/dc/elements/1.1/"
   xmlns:cc="http://creativecommons.org/ns#"
   xmlns:rdf="http://www.w3.org/1999/02/22-rdf-syntax-ns#"
   xmlns:svg="http://www.w3.org/2000/svg"
   xmlns="http://www.w3.org/2000/svg"
   xmlns:sodipodi="http://sodipodi.sourceforge.net/DTD/sodipodi-0.dtd"
   xmlns:inkscape="http://www.inkscape.org/namespaces/inkscape"
   version="1.1"
   x="0px"
   y="0px"
   viewBox="0 0 100 100"
   xml:space="preserve"
   id="svg20"
   sodipodi:docname="flirting.svg"
   width="100"
   height="100"
   inkscape:version="0.92.5 (2060ec1f9f, 2020-04-08)"><metadata
     id="metadata26"><rdf:RDF><cc:Work
         rdf:about=""><dc:format>image/svg+xml</dc:format><dc:type
           rdf:resource="http://purl.org/dc/dcmitype/StillImage" /><dc:title></dc:title></cc:Work></rdf:RDF></metadata><defs
     id="defs24" /><sodipodi:namedview
     pagecolor="#ffffff"
     bordercolor="#666666"
     borderopacity="1"
     objecttolerance="10"
     gridtolerance="10"
     guidetolerance="10"
     inkscape:pageopacity="0"
     inkscape:pageshadow="2"
     inkscape:window-width="760"
     inkscape:window-height="480"
     id="namedview22"
     showgrid="false"
     inkscape:zoom="1.888"
     inkscape:cx="50"
     inkscape:cy="62.5"
     inkscape:window-x="0"
     inkscape:window-y="0"
     inkscape:window-maximized="0"
     inkscape:current-layer="svg20" /><path
     d="M 67.4,6.6 H 56.6 V 4.3 C 56.6,2.9 55.5,1.7 54.1,1.7 H 25.9 c -1.3,0 -2.5,1.1 -2.5,2.6 v 16.2 c 0,1.4 1.1,2.6 2.5,2.6 h 2.8 l 1.2,6.9 6.7,-6.8 v 2.3 c 0,1.4 1.1,2.6 2.5,2.6 h 17.5 l 6.7,6.9 1.2,-6.9 h 2.8 c 1.3,0 2.5,-1.1 2.5,-2.6 V 9.2 C 69.8,7.7 68.7,6.6 67.4,6.6 Z M 31.3,25.5 30.5,20.8 H 26 c -0.2,0 -0.4,-0.2 -0.4,-0.3 V 4.3 C 25.6,4.2 25.8,4 26,4 h 28.2 c 0.2,0 0.4,0.2 0.4,0.3 v 16.2 c 0,0.1 -0.2,0.3 -0.4,0.3 H 36 Z m 36.5,0 c 0,0.1 -0.2,0.3 -0.4,0.3 H 62.9 L 62,30.5 57.4,25.8 H 39.2 c -0.2,0 -0.4,-0.2 -0.4,-0.3 v -2.3 h 15.4 c 1.3,0 2.5,-1.1 2.5,-2.6 V 8.9 h 10.8 c 0.2,0 0.4,0.2 0.4,0.3 v 16.3 z"
     id="path2"
     inkscape:connector-curvature="0" /><path
     d="M 23.5,32.4 C 16.6,32.4 11,38.1 11,45 11,51.9 16.6,57.5 23.5,57.5 30.4,57.5 36,51.9 36,45 36,38.1 30.4,32.4 23.5,32.4 Z"
     id="path4"
     inkscape:connector-curvature="0" /><path
     d="M 35.1,62 H 11.9 C 6,62 1,66.8 1,72.9 V 98.3 H 46 V 72.9 C 46,66.8 41.2,62 35.1,62 Z"
     id="path6"
     inkscape:connector-curvature="0" /><path
     d="m 69,36.9 c -6.4,0 -11.6,5.2 -11.6,11.6 0,6.4 5.1,11.7 11.6,11.7 6.5,0 11.6,-5.2 11.6,-11.6 0,-6.4 -5.2,-11.7 -11.6,-11.7 z"
     id="path8"
     inkscape:connector-curvature="0" /><path
     d="M 77.9,64.3 H 60.1 c -4.6,0 -8.4,4.5 -8.4,10.2 V 98.3 H 86.3 V 74.5 c 0,-5.7 -3.7,-10.2 -8.4,-10.2 z"
     id="path10"
     inkscape:connector-curvature="0" /><path
     d="m 77.7,37.8 c 0,0 9.8,-8 13.6,-1.1 0,0 2,3.6 2.2,10 0.2,6.4 1.9,9.9 1.9,9.9 0,0 1.2,2.6 3.7,2.2 l 0.1,1.2 c 0,0 -5.7,1.4 -8.8,-1.4 -3.2,-2.8 -4.3,-6.1 -4.3,-6.1 0,0 -1.5,-3.7 -2.4,-8.9 -0.9,-5.2 -3,-4.7 -3,-4.7 0,0 -1.4,0.1 -1.6,0.6 z"
     id="path12"
     inkscape:connector-curvature="0" /><path
     d="m 45.7,7.4 c 0,0 -3.2,-2.7 -5.6,1 -2.4,-3.7 -5.6,-1 -5.6,-1 -2.2,2 0,4.8 0,4.8 0.8,1.5 5.1,5.5 5.6,6 v 0 0 c 0.4,-0.4 4.8,-4.5 5.6,-6 0,0 2.2,-2.7 0,-4.8 z"
     id="path14"
     inkscape:connector-curvature="0" /></svg>