<?xml version="1.0" encoding="UTF-8" standalone="no"?>
<svg
   xmlns:dc="http://purl.org/dc/elements/1.1/"
   xmlns:cc="http://creativecommons.org/ns#"
   xmlns:rdf="http://www.w3.org/1999/02/22-rdf-syntax-ns#"
   xmlns:svg="http://www.w3.org/2000/svg"
   xmlns="http://www.w3.org/2000/svg"
   xmlns:sodipodi="http://sodipodi.sourceforge.net/DTD/sodipodi-0.dtd"
   xmlns:inkscape="http://www.inkscape.org/namespaces/inkscape"
   version="1.1"
   x="0px"
   y="0px"
   viewBox="0 0 400.278 400.27802"
   xml:space="preserve"
   id="svg32"
   sodipodi:docname="forensic antropology.svg"
   width="400.27802"
   height="400.27802"
   inkscape:version="0.92.5 (2060ec1f9f, 2020-04-08)"><metadata
     id="metadata38"><rdf:RDF><cc:Work
         rdf:about=""><dc:format>image/svg+xml</dc:format><dc:type
           rdf:resource="http://purl.org/dc/dcmitype/StillImage" /><dc:title></dc:title></cc:Work></rdf:RDF></metadata><defs
     id="defs36" /><sodipodi:namedview
     pagecolor="#ffffff"
     bordercolor="#666666"
     borderopacity="1"
     objecttolerance="10"
     gridtolerance="10"
     guidetolerance="10"
     inkscape:pageopacity="0"
     inkscape:pageshadow="2"
     inkscape:window-width="1920"
     inkscape:window-height="1043"
     id="namedview34"
     showgrid="false"
     inkscape:zoom="0.73122745"
     inkscape:cx="200.13901"
     inkscape:cy="161.3725"
     inkscape:window-x="0"
     inkscape:window-y="0"
     inkscape:window-maximized="1"
     inkscape:current-layer="svg32" /><g
     id="g26"
     transform="translate(0,71.045626)"><path
       d="m 84.658,220.012 c 1.367,-2.784 1.617,-5.931 0.81,-8.845 l 3.996,-0.167 35.469,-1.487 4.171,-0.175 c 0,0 -5.211,-22.088 -15.476,-35.672 -0.688,-0.91 -1.398,-1.784 -2.131,-2.609 l 26.47,4.66 c 0.469,0.083 0.936,0.122 1.396,0.122 3.81,0 7.186,-2.731 7.87,-6.614 0.766,-4.351 -2.141,-8.499 -6.492,-9.266 l -31.923,-5.62 -19.776,-32.678 c -2.288,-3.78 -7.207,-4.991 -10.986,-2.703 -3.78,2.288 -4.99,7.207 -2.702,10.986 l 17.494,28.907 c -1.148,-0.494 -2.287,-0.955 -3.412,-1.389 -2.545,-0.982 -5.001,-1.812 -7.25,-2.505 1.037,-1.472 2.08,-2.912 3.118,-4.322 L 73.471,131.082 c -1.411,-2.33 -1.829,-5.07 -1.178,-7.717 0.651,-2.646 2.293,-4.879 4.624,-6.29 1.594,-0.965 3.417,-1.475 5.273,-1.475 3.604,0 6.87,1.839 8.734,4.92 l 8.794,14.531 4.706,3.266 1.644,-7.292 3.936,-17.459 -16.884,-14.515 -0.431,-0.371 -2.45,10.298 c -0.312,-0.129 -0.631,-0.247 -0.965,-0.339 -1.676,-0.457 -41.427,-10.674 -75.457,36.882 -2.571,3.593 -1.743,8.59 1.851,11.161 1.41,1.01 3.037,1.495 4.648,1.495 2.494,-0.001 4.951,-1.163 6.513,-3.346 9.287,-12.978 18.863,-20.716 27.504,-25.269 -7.612,9.773 -12.608,19.657 -17.762,34.369 -2.283,8.552 -0.651,14.325 2.635,18.444 l 13.337,21.872 -34.487,3.832 c -6.861,0.763 -11.806,6.943 -11.043,13.805 0.71,6.393 6.123,11.12 12.408,11.12 0.461,0 0.927,-0.025 1.396,-0.077 l 54,-6 c 4.247,-0.471 7.958,-3.079 9.841,-6.915 z"
       id="path2"
       inkscape:connector-curvature="0" /><path
       d="m 97.646,223.979 c 2.011,6.604 8.992,10.326 15.599,8.316 6.604,-2.011 10.328,-8.995 8.317,-15.6 l -1.155,-3.792 -25.799,1.098 z"
       id="path4"
       inkscape:connector-curvature="0" /><path
       d="m 108.549,127.677 c 2.421,1.373 5.136,2.321 8.063,2.719 10.77,1.462 20.791,-4.953 24.254,-14.822 L 102.311,93.751 c -1.655,1.994 -2.979,4.287 -3.874,6.809 l 13.604,11.414 z"
       id="path6"
       inkscape:connector-curvature="0" /><path
       d="m 155.031,121.293 1.662,-2.937 -13.132,-7.433 5.916,-12.835 c 0,0 -3.464,-8.087 -14.876,-14.547 -11.41,-6.459 -20.129,-5.267 -20.129,-5.267 l -7.794,11.438 c -0.087,0.061 -0.173,0.125 -0.259,0.187 l -13.039,-7.38 -1.663,2.937 z"
       id="path8"
       inkscape:connector-curvature="0" /><polygon
       points="124.065,175.503 120.133,179.941 124.063,183.422 130.133,176.571 "
       id="polygon10" /><path
       d="m 145.239,159.522 1.937,-2.186 c 6.72,4.271 15.727,3.173 21.176,-2.977 6.043,-6.82 5.413,-17.249 -1.407,-23.292 -6.82,-6.043 -17.249,-5.413 -23.292,1.407 -5.449,6.15 -5.455,15.223 -0.406,21.38 l -3.305,3.729 1.18,0.208 c 1.536,0.271 2.923,0.883 4.117,1.731 z m 1.595,-24.23 c 4.487,-5.064 12.229,-5.531 17.293,-1.045 5.064,4.486 5.531,12.229 1.045,17.293 -4.487,5.064 -12.229,5.531 -17.293,1.045 -5.064,-4.487 -5.532,-12.229 -1.045,-17.293 z"
       id="path12"
       inkscape:connector-curvature="0" /><path
       d="m 400.213,215.43 c 0.695,-6.793 -4.244,-12.864 -11.039,-13.56 l -9.768,-1 -7.128,-0.73 c -38.145,-31.122 -68.012,-37.323 -81.38,-38.194 -0.438,-0.077 -0.887,-0.125 -1.347,-0.125 H 276.8 c 4.246,7.8 7.665,17.414 10.43,29.334 1.242,5.373 -2.117,10.754 -7.49,11.995 -0.744,0.173 -1.504,0.261 -2.262,0.261 -4.674,0 -8.676,-3.186 -9.732,-7.746 -2.436,-10.537 -5.479,-19.027 -9.043,-25.238 -2.623,-4.576 -5.101,-7.151 -7.027,-8.606 h -16.3 c 1.124,-0.932 2.389,-1.807 3.799,-2.537 4.289,-2.222 8.342,-2.275 12.044,-0.164 l 0.001,0.001 c 0.334,0.19 0.677,0.404 1.029,0.644 2.45,1.673 5.299,4.623 8.19,9.668 3.297,5.746 6.565,14.147 9.254,25.781 0.856,3.696 4.146,6.197 7.787,6.197 0.598,0 1.203,-0.067 1.812,-0.208 4.302,-0.997 6.985,-5.292 5.989,-9.597 -2.953,-12.731 -6.623,-22.546 -10.959,-30.129 -1.557,-2.716 -3.214,-5.144 -4.962,-7.307 -3.092,-3.826 -6.476,-6.795 -10.138,-8.901 -0.028,-0.016 -0.053,-0.036 -0.081,-0.052 -9.004,-5.129 -19.244,-4.887 -28.831,0.687 -8.853,5.145 -15.683,14.283 -16.699,21.995 -0.116,0.533 -0.181,1.084 -0.181,1.651 v 2.834 c 4.132,3.602 6.966,8.52 7.982,13.922 1.209,6.432 -0.16,12.951 -3.85,18.353 -0.399,0.584 -0.825,1.143 -1.267,1.685 v 0.003 c -11.419,5.639 -30.361,12.352 -55.925,12.341 -4.657,0 -9.54,-0.222 -14.641,-0.715 -4.398,-0.425 -8.307,2.798 -8.731,7.196 -0.425,4.397 2.798,8.308 7.196,8.731 5.613,0.541 11.008,0.788 16.176,0.788 23.188,-0.01 41.632,-4.959 54.826,-10.321 7.246,-2.945 12.907,-6.01 16.893,-8.456 h 51.435 l 71.093,7.278 7.088,0.726 c 1.245,1.071 2.5,2.167 3.769,3.301 2.387,2.139 5.368,3.191 8.339,3.191 3.429,0 6.844,-1.402 9.313,-4.156 0.038,-0.043 0.069,-0.089 0.107,-0.132 l 3.419,0.35 c 0.409,0.042 0.815,0.061 1.218,0.063 6.289,0.029 11.689,-4.72 12.343,-11.102 z M 228.861,198.775 v 0 0.002 z m -7.844,5.088 c -0.361,0.205 -0.735,0.413 -1.121,0.624 0.386,-0.211 0.76,-0.419 1.121,-0.624 z m 78.53,-11.169 -2.268,-0.232 v -0.297 -4.11 c 4.997,1.027 11.564,2.924 19.492,6.402 z"
       id="path14"
       inkscape:connector-curvature="0" /><path
       d="m 215,204.76 c 3.88,-4.926 5.696,-11.436 4.447,-18.083 -2.296,-12.211 -14.055,-20.251 -26.269,-17.955 -12.213,2.296 -20.252,14.058 -17.956,26.271 1.723,9.161 8.772,15.975 17.344,17.837 9.253,-2.306 16.769,-5.305 22.434,-8.07 z"
       id="path16"
       inkscape:connector-curvature="0" /><rect
       x="-0.49200001"
       y="15.556"
       transform="matrix(0.9967,-0.0815,0.0815,0.9967,-0.7766,15.579)"
       width="382"
       height="3.5"
       id="rect18" /><rect
       x="2.033"
       y="46.452999"
       transform="matrix(0.9967,-0.0815,0.0815,0.9967,-3.2855,15.8874)"
       width="382"
       height="3.5"
       id="rect20" /><rect
       x="238.089"
       y="236.186"
       transform="matrix(0.1176,-0.9931,0.9931,0.1176,-32.7924,458.8532)"
       width="7.4460001"
       height="23.388"
       id="rect22" /><path
       d="m 256.931,240.307 -1.532,12.995 41.474,4.894 c -15.967,-16.742 -39.942,-17.889 -39.942,-17.889 z"
       id="path24"
       inkscape:connector-curvature="0" /></g></svg>