<?xml version="1.0" encoding="UTF-8" standalone="no"?>
<svg
   xmlns:dc="http://purl.org/dc/elements/1.1/"
   xmlns:cc="http://creativecommons.org/ns#"
   xmlns:rdf="http://www.w3.org/1999/02/22-rdf-syntax-ns#"
   xmlns:svg="http://www.w3.org/2000/svg"
   xmlns="http://www.w3.org/2000/svg"
   xmlns:sodipodi="http://sodipodi.sourceforge.net/DTD/sodipodi-0.dtd"
   xmlns:inkscape="http://www.inkscape.org/namespaces/inkscape"
   viewBox="0 0 64 64"
   x="0px"
   y="0px"
   version="1.1"
   id="svg46"
   sodipodi:docname="forensic accounting.svg"
   width="64"
   height="64"
   inkscape:version="0.92.5 (2060ec1f9f, 2020-04-08)">
  <metadata
     id="metadata52">
    <rdf:RDF>
      <cc:Work
         rdf:about="">
        <dc:format>image/svg+xml</dc:format>
        <dc:type
           rdf:resource="http://purl.org/dc/dcmitype/StillImage" />
        <dc:title></dc:title>
      </cc:Work>
    </rdf:RDF>
  </metadata>
  <defs
     id="defs50" />
  <sodipodi:namedview
     pagecolor="#ffffff"
     bordercolor="#666666"
     borderopacity="1"
     objecttolerance="10"
     gridtolerance="10"
     guidetolerance="10"
     inkscape:pageopacity="0"
     inkscape:pageshadow="2"
     inkscape:window-width="760"
     inkscape:window-height="480"
     id="namedview48"
     showgrid="false"
     inkscape:zoom="2.95"
     inkscape:cx="32"
     inkscape:cy="40"
     inkscape:window-x="0"
     inkscape:window-y="0"
     inkscape:window-maximized="0"
     inkscape:current-layer="svg46" />
  <g
     id="g40"
     transform="translate(0,0.00208069)">
    <path
       d="M 14,14 H 8 V 56 H 34 V 27 a 3,3 0 0 1 3,-3 h 5 V 14 h -6 a 2,2 0 0 1 -2,2 H 16 a 2,2 0 0 1 -2,-2 z m 6,32.414 V 54 H 10 V 44 h 9.586 l 2.207,-2.207 1.414,1.414 z m 0,-12 V 42 H 10 V 32 h 9.586 l 2.207,-2.207 1.414,1.414 z M 24,22 h 8 v 2 h -8 z m 0,4 h 8 v 2 h -8 z m 0,8 h 8 v 2 h -8 z m 0,4 h 8 v 2 h -8 z m 0,8 h 8 v 2 h -8 z m 0,4 h 8 v 2 H 24 Z M 19.586,20 21.793,17.793 23.207,19.207 20,22.414 V 30 H 10 V 20 Z"
       id="path2"
       inkscape:connector-curvature="0" />
    <rect
       x="47"
       y="54"
       width="2"
       height="2"
       id="rect4" />
    <path
       d="M 46,24 V 11 a 1,1 0 0 0 -1,-1 h -9 v 2 h 8 v 12 z"
       id="path6"
       inkscape:connector-curvature="0" />
    <rect
       x="47"
       y="40"
       width="2"
       height="2"
       id="rect8" />
    <rect
       x="47"
       y="47"
       width="2"
       height="2"
       id="rect10" />
    <polygon
       points="13.707,23.293 15,24.586 17.586,22 12,22 12,28 18,28 18,24.414 15,27.414 12.293,24.707 "
       id="polygon12" />
    <path
       d="M 19.43,8 H 16 v 6 H 34 V 8 h -3.43 a 2.926,2.926 0 0 1 -2.744,-2.011 3,3 0 0 0 -5.652,0 A 2.926,2.926 0 0 1 19.43,8 Z M 25,5 a 3,3 0 1 1 -3,3 3,3 0 0 1 3,-3 z"
       id="path14"
       inkscape:connector-curvature="0" />
    <circle
       cx="25"
       cy="8"
       r="1"
       id="circle16" />
    <path
       d="M 5,60 H 34.184 A 2.966,2.966 0 0 1 34,59 V 58 H 6 V 12 h 8 V 10 H 5 a 1,1 0 0 0 -1,1 v 48 a 1,1 0 0 0 1,1 z"
       id="path18"
       inkscape:connector-curvature="0" />
    <polygon
       points="17.586,46 12,46 12,52 18,52 18,48.414 15,51.414 12.293,48.707 13.707,47.293 15,48.586 "
       id="polygon20" />
    <rect
       x="54"
       y="54"
       width="2"
       height="2"
       id="rect22" />
    <polygon
       points="17.586,34 12,34 12,40 18,40 18,36.414 15,39.414 12.293,36.707 13.707,35.293 15,36.586 "
       id="polygon24" />
    <rect
       x="40"
       y="40"
       width="2"
       height="2"
       id="rect26" />
    <rect
       x="40"
       y="47"
       width="2"
       height="2"
       id="rect28" />
    <rect
       x="40"
       y="54"
       width="2"
       height="2"
       id="rect30" />
    <rect
       x="54"
       y="40"
       width="2"
       height="2"
       id="rect32" />
    <rect
       x="40"
       y="30"
       width="16"
       height="4"
       id="rect34" />
    <rect
       x="54"
       y="47"
       width="2"
       height="2"
       id="rect36" />
    <path
       d="m 59,60 a 1,1 0 0 0 1,-1 V 27 A 1,1 0 0 0 59,26 H 37 a 1,1 0 0 0 -1,1 v 32 a 1,1 0 0 0 1,1 z m -8,-2 h -6 v -6 h 6 z m 0,-7 h -6 v -6 h 6 z m 0,-7 h -6 v -6 h 6 z m 7,14 h -6 v -6 h 6 z m 0,-7 h -6 v -6 h 6 z m 0,-7 h -6 v -6 h 6 z M 38,28 h 20 v 8 H 38 Z m 0,10 h 6 v 6 h -6 z m 0,7 h 6 v 6 h -6 z m 0,7 h 6 v 6 h -6 z"
       id="path38"
       inkscape:connector-curvature="0" />
  </g>
</svg>
