<?xml version="1.0" encoding="UTF-8" standalone="no"?>
<svg
   xmlns:dc="http://purl.org/dc/elements/1.1/"
   xmlns:cc="http://creativecommons.org/ns#"
   xmlns:rdf="http://www.w3.org/1999/02/22-rdf-syntax-ns#"
   xmlns:svg="http://www.w3.org/2000/svg"
   xmlns="http://www.w3.org/2000/svg"
   xmlns:sodipodi="http://sodipodi.sourceforge.net/DTD/sodipodi-0.dtd"
   xmlns:inkscape="http://www.inkscape.org/namespaces/inkscape"
   version="1.1"
   x="0px"
   y="0px"
   viewBox="0 0 66 66"
   enable-background="new 0 0 66 66"
   xml:space="preserve"
   id="svg28"
   sodipodi:docname="forensic psychology.svg"
   width="66"
   height="66"
   inkscape:version="0.92.5 (2060ec1f9f, 2020-04-08)"><metadata
     id="metadata34"><rdf:RDF><cc:Work
         rdf:about=""><dc:format>image/svg+xml</dc:format><dc:type
           rdf:resource="http://purl.org/dc/dcmitype/StillImage" /><dc:title></dc:title></cc:Work></rdf:RDF></metadata><defs
     id="defs32" /><sodipodi:namedview
     pagecolor="#ffffff"
     bordercolor="#666666"
     borderopacity="1"
     objecttolerance="10"
     gridtolerance="10"
     guidetolerance="10"
     inkscape:pageopacity="0"
     inkscape:pageshadow="2"
     inkscape:window-width="760"
     inkscape:window-height="480"
     id="namedview30"
     showgrid="false"
     inkscape:zoom="2.8606061"
     inkscape:cx="33"
     inkscape:cy="33.099863"
     inkscape:window-x="0"
     inkscape:window-y="0"
     inkscape:window-maximized="0"
     inkscape:current-layer="svg28" /><g
     id="g22"
     transform="translate(0,-0.02267645)"><g
       id="g4"><path
         d="m 27.5,27.8 c 0.7,-0.4 1.1,-1.1 1.1,-1.8 0,-1.2 -1,-2.2 -2.3,-2.2 0,0 0,0 0,0 -0.6,0 -1.2,0.2 -1.6,0.6 -0.4,0.5 -0.7,1 -0.7,1.6 0,0.7 0.4,1.4 1.1,1.8 0.3,0.2 0.4,0.5 0.3,0.8 l -0.8,3.7 h 3.3 l -0.8,-3.7 c 0,-0.3 0.1,-0.6 0.4,-0.8 z"
         id="path2"
         inkscape:connector-curvature="0" /></g><g
       id="g8"><path
         d="M 26.3,9.5 H 26 c -3.3,0 -5.9,2.7 -5.9,5.9 v 1.8 h 12.2 v -1.8 c 0,-3.2 -2.7,-5.9 -6,-5.9 z"
         id="path6"
         inkscape:connector-curvature="0" /></g><g
       id="g12"><path
         d="M 44.6,58.1 C 44,57 43.8,56.3 43.8,56.3 42.2,51 41.7,46 42.3,41.6 42.6,39.3 43.5,37 44.8,34.8 h -4.1 c -0.4,0 -0.9,-0.1 -1.2,-0.4 -0.4,0.2 -0.8,0.4 -1.2,0.4 H 38 c -0.3,0 -0.5,-0.1 -0.8,-0.2 v 1 c 0,1.9 -1.5,3.4 -3.4,3.4 H 18.4 C 16.5,39 15,37.5 15,35.6 V 20.7 c 0,-1.9 1.5,-3.4 3.4,-3.4 h 0.1 v -1.8 c 0,-4.1 3.3,-7.4 7.5,-7.4 h 0.4 c 4.1,0 7.4,3.3 7.4,7.4 v 1.8 0 c 1.9,0 3.4,1.5 3.4,3.4 v 3.1 H 48 C 47.9,18.1 45.3,12.6 40.7,8.6 30.4,-0.3 20.8,2.6 14.5,6.5 8.4,10.4 4.7,17 4.8,23.8 c 0,0.3 0,0.7 0,1 0,0.1 0.1,0.3 0.1,0.4 0.1,0.1 0.8,1.3 -1.1,2.9 -0.4,0.5 -4.2,4.6 -3.9,7.2 0.1,0.7 0.4,1.2 0.9,1.6 0.2,0 0.4,0 0.5,0.1 0.6,0 1.8,0.3 2.1,0.7 0.1,0 0.1,0.1 0.1,0.2 -0.1,0.4 -0.5,1.6 0,2.7 0.2,0.4 0.4,0.7 0.7,0.9 C 4,41.8 3.9,42.2 4,42.6 4,42.9 4.2,43.4 4.8,43.7 5.2,44.5 5.8,46.2 5,47 4.9,47.1 4.9,47.1 4.9,47.2 4.8,47.3 4,49 5,50.7 c 1.3,2 4.6,2.9 9.9,2.8 h 0.1 0.7 c 0,0 0,0 0.1,0 0.4,0.1 2.6,0.9 2.1,7.9 0,0 0,0.5 -0.1,1.1 0,0.2 0.1,0.4 0.2,0.6 0.1,0.1 0.3,0.2 0.5,0.2 H 47 c 0.3,0 0.6,-0.2 0.7,-0.4 0.1,-0.3 0.1,-0.6 -0.1,-0.8 -1.4,-1.5 -2.4,-2.9 -3,-4 z"
         id="path10"
         inkscape:connector-curvature="0" /></g><g
       id="g16"><path
         d="m 30,26 1.7,-1.6 c 0.4,-0.4 1,-0.6 1.6,-0.6 h 2.5 v -3.1 c 0,-1.1 -0.9,-1.9 -1.9,-1.9 H 18.5 c -1.1,0 -1.9,0.9 -1.9,1.9 v 14.9 c 0,1.1 0.9,1.9 1.9,1.9 h 15.4 c 1.1,0 1.9,-0.9 1.9,-1.9 v -0.8 c -0.5,0 -0.9,-0.2 -1.2,-0.4 -0.3,0.2 -0.7,0.4 -1.1,0.4 0,0 -0.1,0 -0.2,0 -0.6,0 -1.2,-0.2 -1.6,-0.6 l -2.3,-2.2 0.2,0.9 c 0,0.2 0,0.5 -0.1,0.6 -0.1,0.2 -0.4,0.3 -0.6,0.3 h -5.2 c -0.2,0 -0.4,-0.1 -0.6,-0.3 C 23,33.3 22.9,33.1 23,32.9 l 0.9,-4.1 C 23,28.1 22.6,27.1 22.6,26 c 0,-1 0.4,-1.9 1.1,-2.6 0.7,-0.7 1.6,-1.1 2.6,-1.1 1,0 2,0.4 2.6,1.1 0.7,0.7 1.1,1.6 1.1,2.6 z"
         id="path14"
         inkscape:connector-curvature="0" /></g><g
       id="g20"><path
         d="m 57.2,20.3 v 0 c -3.4,0 -6.5,1.9 -8,5 H 33.3 c -0.2,0 -0.4,0.1 -0.5,0.2 l -3.4,3.2 c -0.2,0.1 -0.2,0.3 -0.2,0.5 0,0.2 0.1,0.4 0.2,0.6 l 3.4,3.2 c 0.2,0.2 0.4,0.2 0.6,0.2 0.2,0 0.4,-0.1 0.5,-0.3 l 0.6,-1 0.7,1 c 0.1,0.2 0.3,0.3 0.6,0.3 0.2,0 0.5,-0.1 0.6,-0.3 l 0.7,-0.8 0.5,0.7 c 0.1,0.2 0.3,0.3 0.6,0.3 0.2,0 0.5,-0.1 0.6,-0.3 L 39.5,32 40,33 c 0.1,0.2 0.3,0.3 0.6,0.3 h 8.5 c 1.5,3 4.6,5 7.9,5 v 0 c 2.4,0 4.6,-0.9 6.3,-2.6 C 65,34 65.9,31.8 65.9,29.4 66,24.3 62.1,20.3 57.2,20.3 Z M 61,30.8 c -0.4,0.4 -0.9,0.6 -1.5,0.6 -1.2,0 -2.1,-1 -2.1,-2.2 0,-0.6 0.2,-1.1 0.6,-1.5 0.4,-0.4 0.9,-0.6 1.5,-0.6 1.2,0 2.2,1 2.1,2.2 0,0.5 -0.2,1.1 -0.6,1.5 z"
         id="path18"
         inkscape:connector-curvature="0" /></g></g></svg>