<?xml version="1.0" encoding="UTF-8" standalone="no"?>
<svg
   xmlns:dc="http://purl.org/dc/elements/1.1/"
   xmlns:cc="http://creativecommons.org/ns#"
   xmlns:rdf="http://www.w3.org/1999/02/22-rdf-syntax-ns#"
   xmlns:svg="http://www.w3.org/2000/svg"
   xmlns="http://www.w3.org/2000/svg"
   xmlns:sodipodi="http://sodipodi.sourceforge.net/DTD/sodipodi-0.dtd"
   xmlns:inkscape="http://www.inkscape.org/namespaces/inkscape"
   viewBox="0 0 56 56"
   x="0px"
   y="0px"
   version="1.1"
   id="svg16"
   sodipodi:docname="forensic entomology.svg"
   width="56"
   height="56"
   inkscape:version="0.92.5 (2060ec1f9f, 2020-04-08)">
  <metadata
     id="metadata22">
    <rdf:RDF>
      <cc:Work
         rdf:about="">
        <dc:format>image/svg+xml</dc:format>
        <dc:type
           rdf:resource="http://purl.org/dc/dcmitype/StillImage" />
        <dc:title></dc:title>
      </cc:Work>
    </rdf:RDF>
  </metadata>
  <defs
     id="defs20" />
  <sodipodi:namedview
     pagecolor="#ffffff"
     bordercolor="#666666"
     borderopacity="1"
     objecttolerance="10"
     gridtolerance="10"
     guidetolerance="10"
     inkscape:pageopacity="0"
     inkscape:pageshadow="2"
     inkscape:window-width="760"
     inkscape:window-height="480"
     id="namedview18"
     showgrid="false"
     inkscape:zoom="2.95"
     inkscape:cx="25.2"
     inkscape:cy="20"
     inkscape:window-x="0"
     inkscape:window-y="0"
     inkscape:window-maximized="0"
     inkscape:current-layer="svg16" />
  <g
     id="g10"
     transform="translate(-4.0025,-4)">
    <path
       d="m 29,13 a 1,1 0 0 0 -1,1 v 1 a 3.563,3.563 0 0 1 -1.293,2.7 C 26.217,18.2 26,18.436 26,19 c 0,0.564 0.217,0.8 0.708,1.294 a 3.484,3.484 0 0 1 0,5.416 C 26.217,26.2 26,26.438 26,27 a 1,1 0 0 0 2,0 3.568,3.568 0 0 1 1.292,-2.708 C 29.783,23.8 30,23.561 30,23 30,22.439 29.783,22.2 29.292,21.706 a 3.48,3.48 0 0 1 0,-5.413 c 0.49,-0.49 0.707,-0.73 0.707,-1.291 V 14 A 1,1 0 0 0 29,13 Z"
       id="path2"
       inkscape:connector-curvature="0" />
    <path
       d="m 28,39 a 1,1 0 0 0 -1,1 v 1 a 3.563,3.563 0 0 1 -1.293,2.7 C 25.217,44.2 25,44.436 25,45 c 0,0.564 0.217,0.8 0.708,1.294 a 3.484,3.484 0 0 1 0,5.416 C 25.217,52.2 25,52.438 25,53 a 1,1 0 0 0 2,0 3.568,3.568 0 0 1 1.292,-2.708 C 28.783,49.8 29,49.561 29,49 29,48.439 28.783,48.2 28.292,47.706 a 3.48,3.48 0 0 1 0,-5.413 c 0.49,-0.49 0.707,-0.73 0.707,-1.291 V 40 A 1,1 0 0 0 28,39 Z"
       id="path4"
       inkscape:connector-curvature="0" />
    <path
       d="M 51.072,4 47.815,8.579 A 1,1 0 0 1 47,9 H 39 A 1,1 0 0 1 38,8 V 4 H 25 V 8 A 1,1 0 0 1 24,9 H 17 A 1,1 0 0 1 16.185,8.579 L 12.928,4 H 6.8 l 12.05,19.474 a 0.992,0.992 0 0 1 0.148,0.462 l 2,31 a 1,1 0 0 1 -0.049,0.38 L 19.387,60 H 31 v -2 h 2 v 2 h 11.613 l -1.562,-4.684 a 1,1 0 0 1 -0.049,-0.38 l 2,-31 A 0.992,0.992 0 0 1 45.15,23.474 L 57.205,4 Z M 21,13 h 2 v 2 h -2 z m 4,22 v 2 h -2 v -2 z m 6,6 a 3.563,3.563 0 0 1 -1.293,2.7 C 29.217,44.2 29,44.436 29,45 c 0,0.564 0.217,0.8 0.708,1.294 a 3.484,3.484 0 0 1 0,5.416 C 29.217,52.2 29,52.438 29,53 a 3,3 0 0 1 -6,0 3.568,3.568 0 0 1 1.292,-2.708 C 24.783,49.8 25,49.561 25,49 25,48.439 24.783,48.2 24.292,47.706 a 3.48,3.48 0 0 1 0,-5.413 c 0.49,-0.49 0.707,-0.73 0.707,-1.291 V 40 a 3,3 0 0 1 6,0 z m 0,-7 h -2 v -2 h 2 z m 1,-19 a 3.563,3.563 0 0 1 -1.293,2.7 C 30.217,18.2 30,18.436 30,19 c 0,0.564 0.217,0.8 0.708,1.294 a 3.484,3.484 0 0 1 0,5.416 C 30.217,26.2 30,26.438 30,27 a 3,3 0 0 1 -6,0 3.568,3.568 0 0 1 1.292,-2.708 C 25.783,23.8 26,23.561 26,23 26,22.439 25.783,22.2 25.292,21.706 a 3.48,3.48 0 0 1 0,-5.413 c 0.49,-0.49 0.707,-0.73 0.707,-1.291 V 14 a 3,3 0 0 1 6,0 z m 7,5 h 2 v 2 h -2 z m -4,-4 h 2 v 2 h -2 z m 0,7 h 2 v 2 h -2 z m 0,25 h -2 v -2 h 2 z m 3,4 h -2 v -2 h 2 z M 40.708,40.292 A 3.568,3.568 0 0 1 42,43 3,3 0 0 1 36,43 c 0,-0.562 -0.217,-0.8 -0.708,-1.294 a 3.484,3.484 0 0 1 0,-5.416 C 35.783,35.8 36,35.559 36,35 36,34.441 35.783,34.2 35.293,33.709 A 3.563,3.563 0 0 1 34,31 v -1 a 3,3 0 0 1 6,0 v 1 c 0,0.561 0.217,0.8 0.707,1.291 a 3.48,3.48 0 0 1 0,5.413 c -0.491,0.49 -0.708,0.732 -0.708,1.294 0,0.562 0.218,0.802 0.709,1.294 z"
       id="path6"
       inkscape:connector-curvature="0" />
    <path
       d="m 38,31 v -1 a 1,1 0 0 0 -2,0 v 1 c 0,0.561 0.217,0.8 0.707,1.291 a 3.48,3.48 0 0 1 0,5.413 c -0.491,0.49 -0.708,0.732 -0.708,1.294 0,0.562 0.217,0.8 0.708,1.294 A 3.568,3.568 0 0 1 38,43 a 1,1 0 0 0 2,0 c 0,-0.562 -0.217,-0.8 -0.708,-1.294 a 3.484,3.484 0 0 1 0,-5.416 C 39.783,35.8 40,35.559 40,35 40,34.441 39.783,34.2 39.293,33.709 A 3.563,3.563 0 0 1 38,31 Z"
       id="path8"
       inkscape:connector-curvature="0" />
  </g>
</svg>
