<?xml version="1.0" encoding="UTF-8" standalone="no"?>
<svg
   xmlns:dc="http://purl.org/dc/elements/1.1/"
   xmlns:cc="http://creativecommons.org/ns#"
   xmlns:rdf="http://www.w3.org/1999/02/22-rdf-syntax-ns#"
   xmlns:svg="http://www.w3.org/2000/svg"
   xmlns="http://www.w3.org/2000/svg"
   xmlns:sodipodi="http://sodipodi.sourceforge.net/DTD/sodipodi-0.dtd"
   xmlns:inkscape="http://www.inkscape.org/namespaces/inkscape"
   viewBox="0 0 90.150002 90.150002"
   version="1.1"
   x="0px"
   y="0px"
   id="svg14"
   sodipodi:docname="high society.svg"
   width="90.150002"
   height="90.150002"
   inkscape:version="0.92.5 (2060ec1f9f, 2020-04-08)">
  <metadata
     id="metadata20">
    <rdf:RDF>
      <cc:Work
         rdf:about="">
        <dc:format>image/svg+xml</dc:format>
        <dc:type
           rdf:resource="http://purl.org/dc/dcmitype/StillImage" />
        <dc:title>i19 copy 2</dc:title>
      </cc:Work>
    </rdf:RDF>
  </metadata>
  <defs
     id="defs18" />
  <sodipodi:namedview
     pagecolor="#ffffff"
     bordercolor="#666666"
     borderopacity="1"
     objecttolerance="10"
     gridtolerance="10"
     guidetolerance="10"
     inkscape:pageopacity="0"
     inkscape:pageshadow="2"
     inkscape:window-width="1920"
     inkscape:window-height="1043"
     id="namedview16"
     showgrid="false"
     inkscape:zoom="1.888"
     inkscape:cx="-23.057203"
     inkscape:cy="32.65"
     inkscape:window-x="0"
     inkscape:window-y="0"
     inkscape:window-maximized="1"
     inkscape:current-layer="svg14" />
  <title
     id="title2">i19 copy 2</title>
  <desc
     id="desc4">Created with Sketch.</desc>
  <g
     id="g8"
     style="fill:none;fill-rule:evenodd;stroke:none;stroke-width:1"
     transform="translate(-4.6778543,-5.000003)">
    <path
       d="m 16.80071,89.223 c -0.135,-0.535 -0.68,-0.858 -1.214,-0.726 -0.535,0.135 -0.86,0.678 -0.725,1.214 l 0.135,0.522 c 0.121,0.446 0.525,0.739 0.965,0.739 0.087,0 0.175,-0.011 0.262,-0.034 0.533,-0.145 0.848,-0.694 0.705,-1.227 z m 0.051,-15.185 c -0.226,0.287 -0.445,0.589 -0.653,0.908 -0.302,0.462 -0.172,1.082 0.29,1.383 0.169,0.111 0.359,0.164 0.546,0.164 0.327,0 0.647,-0.16 0.838,-0.454 0.175,-0.267 0.359,-0.521 0.549,-0.762 0.342,-0.434 0.268,-1.063 -0.166,-1.405 -0.434,-0.34 -1.062,-0.266 -1.404,0.166 z m -1.669,12.35 c 0.55,-0.056 0.95,-0.546 0.895,-1.095 -0.034,-0.336 -0.061,-0.664 -0.08,-0.984 -0.032,-0.551 -0.482,-0.972 -1.056,-0.94 -0.551,0.033 -0.972,0.505 -0.94,1.057 0.021,0.348 0.05,0.703 0.086,1.067 0.052,0.515 0.486,0.9 0.994,0.9 0.033,0 0.068,-0.002 0.101,-0.005 z m 5.933,-15.86 c -0.314,0.167 -0.633,0.351 -0.954,0.553 -0.467,0.295 -0.607,0.913 -0.312,1.379 0.19,0.302 0.514,0.467 0.847,0.467 0.182,0 0.367,-0.05 0.532,-0.154 0.277,-0.175 0.553,-0.334 0.827,-0.48 0.487,-0.258 0.673,-0.864 0.413,-1.352 -0.26,-0.488 -0.865,-0.676 -1.353,-0.413 z m -6.081,10.721 c 0.057,0.01 0.115,0.015 0.17,0.015 0.479,0 0.902,-0.344 0.985,-0.831 0.055,-0.321 0.121,-0.633 0.196,-0.934 0.135,-0.535 -0.191,-1.078 -0.728,-1.212 -0.536,-0.135 -1.078,0.192 -1.211,0.728 -0.087,0.348 -0.165,0.708 -0.228,1.08 -0.094,0.544 0.271,1.061 0.816,1.154 z m 14.923,-12.605 c 0,2.865 2.331,5.196 5.196,5.196 2.865,0 5.196,-2.331 5.196,-5.196 0,-2.865 -2.331,-5.196 -5.196,-5.196 -2.865,0 -5.196,2.331 -5.196,5.196 z m -4.119,0.291 c 0.047,-0.005 0.089,0.011 0.134,0.012 -0.003,-0.101 -0.015,-0.2 -0.015,-0.303 0,-5.079 4.117,-9.196 9.196,-9.196 5.079,0 9.196,4.117 9.196,9.196 0,5.079 -4.117,9.196 -9.196,9.196 -4.311,0 -7.918,-2.97 -8.914,-6.973 -0.054,0.017 -0.102,0.046 -0.16,0.053 -0.019,0.003 -0.175,0.024 -0.434,0.076 -0.068,0.014 -0.134,0.02 -0.199,0.02 -0.467,0 -0.884,-0.327 -0.98,-0.802 -0.109,-0.542 0.241,-1.069 0.782,-1.178 0.374,-0.076 0.59,-0.101 0.59,-0.101 z m 53.005,13.772 c -9.991,0 -20.089,-4.863 -26.478,-0.038 -4.966,-5.557 -15.877,0.038 -26.536,0.038 -1.314,0 -2.244,1.31 -1.733,2.496 2.514,5.842 8.402,9.947 15.281,9.947 5.253,0 9.923,-2.398 12.959,-6.131 3.036,3.733 7.705,6.131 12.959,6.131 6.879,0 12.767,-4.105 15.281,-9.947 0.51,-1.186 -0.419,-2.496 -1.733,-2.496 z m -39.278,-69.694 c 0,-0.846 -0.686,-1.533 -1.532,-1.533 -0.847,0 -1.533,0.687 -1.533,1.533 V 41.55 c 0,0.846 0.686,1.532 1.533,1.532 0.846,0 1.532,-0.686 1.532,-1.532 z m 45.94,36.911 c 0,3.127 -2.534,5.662 -5.661,5.662 h -55.017 c -3.126,0 -5.661,-2.535 -5.661,-5.662 0,-3.126 2.535,-5.661 5.661,-5.661 h 5.129 V 10.758 c 0,-3.18 2.578,-5.758 5.758,-5.758 h 33.244 c 3.18,0 5.758,2.578 5.758,5.758 v 33.505 h 5.128 c 3.127,0 5.661,2.535 5.661,5.661 z m -25.415,18.849 c 0,-3.946 3.199,-7.144 7.145,-7.144 3.946,0 7.145,3.198 7.145,7.144 0,3.946 -3.199,7.145 -7.145,7.145 -3.946,0 -7.145,-3.199 -7.145,-7.145 z"
       id="path6"
       inkscape:connector-curvature="0"
       style="fill:#000000" />
  </g>
</svg>
