<?xml version="1.0" encoding="UTF-8" standalone="no"?>
<svg
   xmlns:dc="http://purl.org/dc/elements/1.1/"
   xmlns:cc="http://creativecommons.org/ns#"
   xmlns:rdf="http://www.w3.org/1999/02/22-rdf-syntax-ns#"
   xmlns:svg="http://www.w3.org/2000/svg"
   xmlns="http://www.w3.org/2000/svg"
   xmlns:sodipodi="http://sodipodi.sourceforge.net/DTD/sodipodi-0.dtd"
   xmlns:inkscape="http://www.inkscape.org/namespaces/inkscape"
   version="1.1"
   x="0px"
   y="0px"
   viewBox="0 0 82 82"
   xml:space="preserve"
   id="svg8"
   sodipodi:docname="history.svg"
   width="82"
   height="82"
   inkscape:version="0.92.5 (2060ec1f9f, 2020-04-08)"><metadata
     id="metadata14"><rdf:RDF><cc:Work
         rdf:about=""><dc:format>image/svg+xml</dc:format><dc:type
           rdf:resource="http://purl.org/dc/dcmitype/StillImage" /><dc:title></dc:title></cc:Work></rdf:RDF></metadata><defs
     id="defs12" /><sodipodi:namedview
     pagecolor="#ffffff"
     bordercolor="#666666"
     borderopacity="1"
     objecttolerance="10"
     gridtolerance="10"
     guidetolerance="10"
     inkscape:pageopacity="0"
     inkscape:pageshadow="2"
     inkscape:window-width="760"
     inkscape:window-height="480"
     id="namedview10"
     showgrid="false"
     inkscape:zoom="1.888"
     inkscape:cx="41"
     inkscape:cy="28.4"
     inkscape:window-x="0"
     inkscape:window-y="0"
     inkscape:window-maximized="0"
     inkscape:current-layer="svg8" /><path
     d="m 82,77.999997 c 0,2.2 -1.8,4 -4,4 H 4 c -2.2,0 -4,-1.8 -4,-4 0,-2.2 1.8,-4 4,-4 h 74 c 2.2,0 4,1.7 4,4 z m -4,-58 H 4 c -2.2,0 -4,1.8 -4,4 v 4 h 82 v -4 c 0,-2.3 -1.8,-4 -4,-4 z M 41,0.19999695 12.7,15.999997 H 69.3 Z M 50,35.999997 v -4 H 32 v 4 c 0,2.2 1.8,4 4,4 h 10 c 2.2,0 4,-1.8 4,-4 z m -46,4 h 12 v -8 H 0 v 4 c 0,2.2 1.8,4 4,4 z m 62,0 h 12 c 2.2,0 4,-1.8 4,-4 v -4 H 66 Z m -21,30 v -26 h -8 v 26 z m 21,-26 v 26 h 8 v -26 z m -50,26 v -26 H 8 v 26 z"
     id="path2"
     inkscape:connector-curvature="0" /></svg>