<?xml version="1.0" encoding="UTF-8" standalone="no"?>
<svg
   xmlns:dc="http://purl.org/dc/elements/1.1/"
   xmlns:cc="http://creativecommons.org/ns#"
   xmlns:rdf="http://www.w3.org/1999/02/22-rdf-syntax-ns#"
   xmlns:svg="http://www.w3.org/2000/svg"
   xmlns="http://www.w3.org/2000/svg"
   xmlns:sodipodi="http://sodipodi.sourceforge.net/DTD/sodipodi-0.dtd"
   xmlns:inkscape="http://www.inkscape.org/namespaces/inkscape"
   version="1.1"
   x="0px"
   y="0px"
   viewBox="0 0 275.231 275.23099"
   xml:space="preserve"
   id="svg62"
   sodipodi:docname="hypnosis.svg"
   width="275.23099"
   height="275.23099"
   inkscape:version="0.92.5 (2060ec1f9f, 2020-04-08)"><metadata
     id="metadata68"><rdf:RDF><cc:Work
         rdf:about=""><dc:format>image/svg+xml</dc:format><dc:type
           rdf:resource="http://purl.org/dc/dcmitype/StillImage" /><dc:title></dc:title></cc:Work></rdf:RDF></metadata><defs
     id="defs66" /><sodipodi:namedview
     pagecolor="#ffffff"
     bordercolor="#666666"
     borderopacity="1"
     objecttolerance="10"
     gridtolerance="10"
     guidetolerance="10"
     inkscape:pageopacity="0"
     inkscape:pageshadow="2"
     inkscape:window-width="760"
     inkscape:window-height="480"
     id="namedview64"
     showgrid="false"
     inkscape:zoom="0.8016917"
     inkscape:cx="137.61549"
     inkscape:cy="147.18875"
     inkscape:window-x="0"
     inkscape:window-y="0"
     inkscape:window-maximized="0"
     inkscape:current-layer="svg62" /><g
     id="g56"
     transform="translate(0,19.862222)"><path
       d="m 165.672,63.154 c -0.157,0.53 0.145,1.085 0.675,1.243 0.094,0.027 0.189,0.041 0.282,0.041 0.432,0 0.831,-0.282 0.959,-0.718 l 0.298,-1.005 c -0.588,-0.368 -1.176,-0.736 -1.754,-1.119 z"
       id="path2"
       inkscape:connector-curvature="0" /><path
       d="m 159.543,87.412 c 0.094,0.027 0.188,0.04 0.282,0.04 0.432,0 0.831,-0.282 0.959,-0.718 l 0.566,-1.918 c 0.157,-0.528 -0.146,-1.085 -0.675,-1.241 -0.528,-0.157 -1.086,0.145 -1.241,0.675 l -0.566,1.918 c -0.157,0.531 0.144,1.086 0.675,1.244 z"
       id="path4"
       inkscape:connector-curvature="0" /><path
       d="m 164.079,72.068 c 0.095,0.028 0.19,0.041 0.285,0.041 0.431,0 0.828,-0.281 0.958,-0.716 l 0.565,-1.918 c 0.158,-0.53 -0.145,-1.085 -0.675,-1.243 -0.529,-0.156 -1.085,0.146 -1.242,0.674 l -0.566,1.92 c -0.157,0.529 0.144,1.087 0.675,1.242 z"
       id="path6"
       inkscape:connector-curvature="0" /><path
       d="m 161.809,79.739 c 0.096,0.028 0.191,0.041 0.285,0.041 0.432,0 0.829,-0.281 0.958,-0.716 l 0.566,-1.917 c 0.157,-0.53 -0.145,-1.086 -0.675,-1.243 -0.528,-0.155 -1.086,0.147 -1.241,0.677 l -0.568,1.918 c -0.157,0.527 0.146,1.085 0.675,1.24 z"
       id="path8"
       inkscape:connector-curvature="0" /><path
       d="m 150.856,97.578 c -1.32,4.408 0.113,8.732 3.199,9.656 3.086,0.924 6.658,-1.902 7.977,-6.311 1.322,-4.408 -0.109,-8.732 -3.197,-9.656 -3.088,-0.923 -6.659,1.903 -7.979,6.311 z m 6.775,-4.484 c 0.213,0 0.426,0.029 0.629,0.091 0.803,0.24 1.307,0.909 1.586,1.43 0.801,1.484 0.9,3.629 0.27,5.734 -0.982,3.287 -3.236,5.061 -4.861,5.061 -0.213,0 -0.426,-0.031 -0.629,-0.092 -1.143,-0.342 -1.697,-1.547 -1.924,-2.234 -0.471,-1.418 -0.445,-3.215 0.072,-4.934 0.984,-3.285 3.236,-5.056 4.857,-5.056 z"
       id="path10"
       inkscape:connector-curvature="0" /><path
       d="m 182.38,92.11 c -2.108,1.677 -2.829,5.379 -1.563,9.074 1.492,4.354 5.174,7.037 8.221,5.992 3.049,-1.045 4.309,-5.422 2.816,-9.775 -1.4,-4.085 -4.729,-6.698 -7.652,-6.142 L 175.834,67.12 c -0.867,-0.419 -1.72,-0.859 -2.568,-1.306 z"
       id="path12"
       inkscape:connector-curvature="0" /><ellipse
       transform="matrix(0.9739,-0.2268,0.2268,0.9739,0.7963,51.9272)"
       cx="226.368"
       cy="22.497999"
       rx="22.495001"
       ry="22.493"
       id="ellipse14" /><path
       d="m 248.005,53.29 c 4.473,0 8.433,3.013 9.631,7.326 1.475,5.314 -1.646,10.834 -6.958,12.311 -1.604,0.427 -7.773,1.972 -16.66,2.898 2.744,13.499 6.29,30.912 4.263,46.085 -3.178,8.62 -9.064,27.893 -9.094,52.948 -0.002,15.704 2.361,33.7 9.322,52.483 1.867,5.041 6.643,8.16 11.723,8.16 1.442,0 2.908,-0.251 4.34,-0.781 6.475,-2.398 9.778,-9.589 7.381,-16.063 -5.79,-15.626 -7.764,-30.579 -7.766,-43.799 -0.005,-14.126 2.279,-26.242 4.544,-34.709 0.39,-1.464 0.778,-2.811 1.154,-4.047 6.314,-1.599 12.033,-5.879 14.146,-16.753 2.586,-22.215 1.123,-35.346 -5.682,-55.52 -5.035,-14.643 -17.41,-19.279 -25.947,-17.15 -4.278,1.067 -7.355,4.592 -8.999,9.097 7.192,-0.846 11.809,-2.088 11.879,-2.107 0.92,-0.254 1.822,-0.379 2.723,-0.379 z"
       id="path16"
       inkscape:connector-curvature="0" /><path
       d="m 162.999,47.133 c -2.574,3.591 -1.748,8.59 1.845,11.163 18.349,13.109 39.235,16.235 55.519,16.249 17.008,-0.011 29.323,-3.427 29.781,-3.545 4.258,-1.183 6.749,-5.591 5.566,-9.848 -1.183,-4.257 -5.592,-6.75 -9.848,-5.567 l -0.002,-0.002 c 0,0 0,0 -0.049,0.015 -0.897,0.245 -11.536,2.957 -25.449,2.948 -14.292,0.013 -31.742,-2.858 -46.2,-13.258 -3.593,-2.572 -8.59,-1.746 -11.163,1.845 z"
       id="path18"
       inkscape:connector-curvature="0" /><ellipse
       transform="matrix(0.9178,-0.397,0.397,0.9178,-26.9502,38.795)"
       cx="80.228996"
       cy="84.491997"
       rx="22.495001"
       ry="22.493999"
       id="ellipse20" /><path
       d="m 105.257,141.965 c -7.608,-4.988 -11.563,-9.756 -12.322,-10.722 -1.648,-2.115 -2.369,-4.733 -2.04,-7.386 0.33,-2.65 1.671,-5.015 3.78,-6.654 1.771,-1.381 3.892,-2.11 6.136,-2.11 3.108,0 5.984,1.405 7.896,3.854 l 0.243,0.275 c 0.456,0.497 0.98,1.027 1.55,1.563 1.398,1.312 3.765,3.301 7.087,5.324 3.065,1.857 6.332,3.391 9.778,4.612 -4.377,-4.749 -8.351,-9.41 -11.839,-13.341 -6.17,-8.318 -17.92,-12.561 -24.789,-7.063 -6.046,4.836 -9.727,15.217 -4.667,26.421 l 3.46,5.226 h 15.727 z"
       id="path22"
       inkscape:connector-curvature="0" /><path
       d="m 189.317,213.264 c 0,3.554 -0.99,6.909 -2.721,9.788 2.214,3.972 6.419,6.41 10.904,6.41 1.257,0 2.534,-0.19 3.796,-0.592 6.576,-2.097 10.213,-9.127 8.116,-15.705 l -17.039,-53.488 c -0.852,-2.674 -2.545,-4.896 -4.723,-6.428 1.063,2.37 1.666,4.988 1.666,7.749 v 52.266 z"
       id="path24"
       inkscape:connector-curvature="0" /><path
       d="m 50.02,172.822 v 40.439 c 0,7.85 5.645,14.371 13.096,15.752 v 6.281 h 25.656 v -6 h 58.795 v 6 h 25.656 v -6.281 c 7.449,-1.383 13.094,-7.904 13.094,-15.752 v -52.264 c 0,-6.382 -3.737,-11.877 -9.136,-14.458 -1.319,2.691 -3.819,4.771 -6.977,5.414 -7.355,1.495 -14.582,2.252 -21.479,2.252 h -0.077 c -17.126,0 -29.945,-4.684 -38.372,-9.243 H 87.916 L 42.18,75.88 C 37.291,68.493 28.17,65.924 21.807,70.135 L 5.678,80.815 c -6.363,4.212 -7.559,13.613 -2.67,20.998 z"
       id="path26"
       inkscape:connector-curvature="0" /><path
       d="m 148.649,152.207 c 0.025,0 0.051,0 0.076,0 6.463,0 13.491,-0.671 21.081,-2.213 4.328,-0.882 7.125,-5.104 6.245,-9.433 -0.88,-4.33 -5.102,-7.127 -9.432,-6.247 -6.591,1.338 -12.54,1.892 -17.895,1.892 -14.953,-0.016 -25.373,-4.267 -32.179,-8.389 -3.392,-2.066 -5.854,-4.108 -7.415,-5.574 -0.782,-0.732 -1.336,-1.318 -1.67,-1.686 -0.166,-0.186 -0.274,-0.315 -0.332,-0.382 l -0.002,0.002 c -2.715,-3.484 -7.74,-4.11 -11.224,-1.395 -3.487,2.713 -4.111,7.74 -1.397,11.225 0.438,0.559 4.803,6.041 13.72,11.475 8.884,5.428 22.391,10.725 40.424,10.725 z"
       id="path28"
       inkscape:connector-curvature="0" /><path
       d="m 165.351,89.631 c 0.149,0.08 0.311,0.118 0.469,0.118 0.357,0 0.704,-0.193 0.884,-0.531 0.26,-0.488 0.074,-1.095 -0.413,-1.353 -0.48,-0.255 -0.851,-0.507 -1.096,-0.69 -0.247,-0.183 -0.338,-0.279 -0.341,-0.277 -0.402,-0.379 -1.035,-0.36 -1.414,0.041 -0.379,0.403 -0.36,1.036 0.043,1.415 h -0.003 c 0.05,0.044 0.703,0.655 1.871,1.277 z"
       id="path30"
       inkscape:connector-curvature="0" /><path
       d="m 176.595,86.83 c -0.554,0.373 -1.093,0.686 -1.613,0.944 -0.494,0.247 -0.694,0.848 -0.449,1.342 0.176,0.352 0.53,0.554 0.897,0.554 0.15,0 0.302,-0.034 0.445,-0.104 0.601,-0.3 1.214,-0.656 1.836,-1.076 0.458,-0.309 0.579,-0.929 0.27,-1.387 -0.306,-0.458 -0.928,-0.58 -1.386,-0.273 z"
       id="path32"
       inkscape:connector-curvature="0" /><path
       d="m 170.454,90.914 c 0.415,0 0.846,-0.023 1.291,-0.077 0.547,-0.066 0.939,-0.565 0.875,-1.112 -0.065,-0.55 -0.564,-0.939 -1.112,-0.875 -0.364,0.044 -0.716,0.064 -1.054,0.064 -0.254,0 -0.499,-0.011 -0.739,-0.03 -0.55,-0.047 -1.034,0.36 -1.081,0.912 -0.047,0.55 0.362,1.033 0.914,1.08 h -0.002 c 0.293,0.025 0.596,0.038 0.908,0.038 z"
       id="path34"
       inkscape:connector-curvature="0" /><path
       d="m 194.642,104.308 c -0.434,0.344 -0.505,0.974 -0.158,1.405 0.197,0.247 0.488,0.376 0.782,0.376 0.219,0 0.438,-0.071 0.623,-0.218 2.268,-1.79 3.094,-3.874 3.079,-5.655 -0.025,-2.762 -1.708,-4.628 -1.764,-4.714 -0.363,-0.416 -0.995,-0.459 -1.41,-0.096 -0.418,0.361 -0.461,0.993 -0.098,1.411 v -0.002 c 0,0 0.058,0.064 0.177,0.233 0.368,0.506 1.105,1.766 1.094,3.167 -0.014,1.201 -0.448,2.572 -2.325,4.093 z"
       id="path36"
       inkscape:connector-curvature="0" /><path
       d="m 198.41,109.249 c 0.207,0 0.415,-0.063 0.595,-0.194 3.731,-2.729 4.968,-5.926 4.951,-8.616 -0.02,-3.737 -2.137,-6.393 -2.19,-6.48 -0.34,-0.436 -0.968,-0.511 -1.403,-0.171 -0.435,0.34 -0.511,0.968 -0.172,1.404 V 95.19 c 0,0 0.09,0.113 0.255,0.372 0.504,0.775 1.517,2.677 1.509,4.878 -0.018,2.107 -0.829,4.543 -4.138,7.005 -0.444,0.327 -0.54,0.955 -0.211,1.399 0.194,0.264 0.497,0.405 0.804,0.405 z"
       id="path38"
       inkscape:connector-curvature="0" /><path
       d="m 144.949,101.681 c -0.541,-0.11 -1.069,0.237 -1.178,0.779 -0.145,0.703 -0.208,1.361 -0.208,1.973 -0.019,2.873 1.514,4.71 2.968,5.636 1.459,0.949 2.835,1.157 2.916,1.172 0.052,0.009 0.104,0.013 0.154,0.013 0.483,0 0.909,-0.353 0.986,-0.847 0.085,-0.546 -0.289,-1.056 -0.835,-1.141 0,0 -0.225,-0.034 -0.635,-0.166 -1.274,-0.452 -3.549,-1.488 -3.557,-4.667 0.002,-0.472 0.051,-0.994 0.167,-1.573 0.112,-0.543 -0.238,-1.071 -0.778,-1.179 z"
       id="path40"
       inkscape:connector-curvature="0" /><path
       d="m 140.543,101.3 c -0.537,-0.13 -1.076,0.199 -1.206,0.736 -0.302,1.246 -0.438,2.396 -0.438,3.449 -0.015,4.034 2.051,6.615 4.046,8.025 2,1.428 3.932,1.829 4.009,1.851 0.068,0.015 0.138,0.021 0.205,0.021 0.464,0 0.881,-0.323 0.979,-0.794 0.114,-0.542 -0.231,-1.072 -0.771,-1.185 l -0.002,-0.002 c 0,0 -0.365,-0.074 -0.984,-0.309 -1.902,-0.755 -5.479,-2.662 -5.481,-7.608 0,-0.883 0.112,-1.872 0.382,-2.98 0.127,-0.536 -0.202,-1.075 -0.739,-1.204 z"
       id="path42"
       inkscape:connector-curvature="0" /><path
       d="m 159.072,43.068 c 0.505,0 0.937,-0.381 0.992,-0.893 v -0.002 c 0,0 0.024,-0.238 0.143,-0.67 0.424,-1.345 1.377,-3.734 4.807,-3.747 0.383,0 0.803,0.03 1.262,0.1 0.545,0.083 1.056,-0.292 1.141,-0.836 0.085,-0.547 -0.291,-1.058 -0.836,-1.141 -0.556,-0.085 -1.074,-0.125 -1.566,-0.124 -3.036,-0.023 -4.928,1.592 -5.84,3.132 -0.936,1.54 -1.083,2.991 -1.099,3.072 -0.06,0.549 0.339,1.043 0.888,1.102 0.035,0.005 0.072,0.007 0.108,0.007 z"
       id="path44"
       inkscape:connector-curvature="0" /><path
       d="m 166.796,31.43 c -1.032,-0.198 -1.99,-0.29 -2.877,-0.288 -4.271,-0.019 -6.922,2.167 -8.319,4.283 -1.417,2.117 -1.741,4.158 -1.758,4.239 -0.089,0.547 0.283,1.06 0.828,1.147 0.055,0.009 0.108,0.013 0.162,0.013 0.48,0 0.904,-0.349 0.984,-0.841 0,0 0.062,-0.389 0.278,-1.044 0.711,-2.013 2.521,-5.788 7.824,-5.796 0.753,0 1.583,0.074 2.498,0.251 0.542,0.104 1.068,-0.251 1.172,-0.792 0.106,-0.542 -0.25,-1.068 -0.792,-1.172 z"
       id="path46"
       inkscape:connector-curvature="0" /><path
       d="m 70.336,37.125 c -4.328,0.002 -7.834,3.507 -7.834,7.833 0,4.327 3.506,7.834 7.834,7.834 4.326,0 7.832,-3.507 7.832,-7.834 0,-4.326 -3.506,-7.831 -7.832,-7.833 z m 0,13.667 c -3.224,-0.006 -5.829,-2.613 -5.834,-5.834 0.005,-3.221 2.61,-5.827 5.834,-5.833 3.221,0.006 5.827,2.613 5.832,5.833 -0.005,3.221 -2.612,5.828 -5.832,5.834 z"
       id="path48"
       inkscape:connector-curvature="0" /><path
       d="m 50.668,42.127 c 3.223,-0.002 5.833,-2.612 5.835,-5.834 -0.002,-3.223 -2.612,-5.833 -5.835,-5.835 -3.222,0.002 -5.834,2.612 -5.834,5.835 0,3.221 2.612,5.832 5.834,5.834 z m 0,-9.668 c 2.118,0.004 3.83,1.716 3.834,3.834 -0.004,2.117 -1.716,3.828 -3.834,3.832 -2.117,-0.004 -3.83,-1.715 -3.832,-3.832 0.002,-2.119 1.714,-3.83 3.832,-3.834 z"
       id="path50"
       inkscape:connector-curvature="0" /><path
       d="m 103.002,43.042 c 0,-5.384 -4.365,-9.749 -9.749,-9.749 -5.385,0 -9.751,4.364 -9.751,9.749 0,5.387 4.366,9.749 9.751,9.751 5.383,-0.002 9.749,-4.365 9.749,-9.751 z m -17.498,0 c 0.006,-4.28 3.469,-7.743 7.749,-7.749 4.279,0.006 7.742,3.469 7.749,7.749 -0.007,4.28 -3.47,7.743 -7.749,7.751 -4.281,-0.008 -7.744,-3.471 -7.749,-7.751 z"
       id="path52"
       inkscape:connector-curvature="0" /><path
       d="m 69.253,12.793 c -5.384,0 -9.751,4.363 -9.751,9.749 0,5.386 4.367,9.75 9.751,9.75 5.383,0 9.748,-4.365 9.75,-9.75 -0.002,-5.386 -4.368,-9.749 -9.75,-9.749 z m 0,17.499 c -4.281,-0.006 -7.744,-3.47 -7.751,-7.75 0.007,-4.278 3.47,-7.742 7.751,-7.751 4.278,0.008 7.741,3.472 7.748,7.751 -0.007,4.28 -3.47,7.743 -7.748,7.75 z"
       id="path54"
       inkscape:connector-curvature="0" /></g></svg>