<?xml version="1.0" encoding="UTF-8" standalone="no"?>
<svg
   xmlns:dc="http://purl.org/dc/elements/1.1/"
   xmlns:cc="http://creativecommons.org/ns#"
   xmlns:rdf="http://www.w3.org/1999/02/22-rdf-syntax-ns#"
   xmlns:svg="http://www.w3.org/2000/svg"
   xmlns="http://www.w3.org/2000/svg"
   xmlns:sodipodi="http://sodipodi.sourceforge.net/DTD/sodipodi-0.dtd"
   xmlns:inkscape="http://www.inkscape.org/namespaces/inkscape"
   version="1.1"
   x="0px"
   y="0px"
   viewBox="0 0 48 48"
   enable-background="new 0 0 48 48"
   xml:space="preserve"
   id="svg16"
   sodipodi:docname="interrogate.svg"
   width="48"
   height="48"
   inkscape:version="0.92.5 (2060ec1f9f, 2020-04-08)"><metadata
     id="metadata22"><rdf:RDF><cc:Work
         rdf:about=""><dc:format>image/svg+xml</dc:format><dc:type
           rdf:resource="http://purl.org/dc/dcmitype/StillImage" /><dc:title></dc:title></cc:Work></rdf:RDF></metadata><defs
     id="defs20" /><sodipodi:namedview
     pagecolor="#ffffff"
     bordercolor="#666666"
     borderopacity="1"
     objecttolerance="10"
     gridtolerance="10"
     guidetolerance="10"
     inkscape:pageopacity="0"
     inkscape:pageshadow="2"
     inkscape:window-width="760"
     inkscape:window-height="480"
     id="namedview18"
     showgrid="false"
     inkscape:zoom="3.9333333"
     inkscape:cx="24"
     inkscape:cy="30"
     inkscape:window-x="0"
     inkscape:window-y="0"
     inkscape:window-maximized="0"
     inkscape:current-layer="svg16" /><g
     id="g10"
     transform="translate(0,5e-4)"><path
       d="m 18.115,26.539 c -6.78,0.418 -12.09,6.058 -12.09,12.841 v 7.48 H 26.907 L 18.293,26.528 Z"
       id="path2"
       inkscape:connector-curvature="0" /><path
       d="M 35.908,26.539 35.73,26.528 27.113,46.86 H 48 V 39.38 C 48,32.597 42.688,26.957 35.908,26.539 Z"
       id="path4"
       inkscape:connector-curvature="0" /><path
       d="m 14,19.652 c 0.035,-0.058 0.046,-0.127 0.03,-0.191 L 12.804,14.38 C 12.788,14.315 12.747,14.258 12.69,14.224 12.633,14.189 12.565,14.176 12.499,14.193 L 2.196,16.679 c -0.744,0.179 -1.374,0.637 -1.773,1.289 -0.4,0.653 -0.521,1.423 -0.342,2.168 0.313,1.293 1.457,2.195 2.784,2.195 0.227,0 0.454,-0.027 0.676,-0.081 L 13.844,19.766 C 13.908,19.75 13.964,19.708 14,19.652 Z"
       id="path6"
       inkscape:connector-curvature="0" /><path
       d="m 27.254,26.022 v 0 c 0.98,0 1.964,-0.117 2.926,-0.349 6.666,-1.608 10.781,-8.341 9.174,-15.009 -1.352,-5.609 -6.32,-9.525 -12.08,-9.525 -0.98,0 -1.967,0.117 -2.927,0.349 -6.667,1.606 -10.784,8.34 -9.177,15.009 1.352,5.608 6.322,9.525 12.084,9.525 z M 27.07,6.334 c 4.069,0 7.38,3.311 7.38,7.38 0,4.07 -3.311,7.381 -7.38,7.381 -4.07,0 -7.38,-3.311 -7.38,-7.381 0,-4.069 3.31,-7.38 7.38,-7.38 z"
       id="path8"
       inkscape:connector-curvature="0" /></g></svg>