<?xml version="1.0" encoding="UTF-8" standalone="no"?>
<svg
   xmlns:dc="http://purl.org/dc/elements/1.1/"
   xmlns:cc="http://creativecommons.org/ns#"
   xmlns:rdf="http://www.w3.org/1999/02/22-rdf-syntax-ns#"
   xmlns:svg="http://www.w3.org/2000/svg"
   xmlns="http://www.w3.org/2000/svg"
   xmlns:sodipodi="http://sodipodi.sourceforge.net/DTD/sodipodi-0.dtd"
   xmlns:inkscape="http://www.inkscape.org/namespaces/inkscape"
   version="1.1"
   x="0px"
   y="0px"
   viewBox="0 0 100 100"
   xml:space="preserve"
   id="svg28"
   sodipodi:docname="investigate.svg"
   width="100"
   height="100"
   inkscape:version="0.92.5 (2060ec1f9f, 2020-04-08)"><metadata
     id="metadata34"><rdf:RDF><cc:Work
         rdf:about=""><dc:format>image/svg+xml</dc:format><dc:type
           rdf:resource="http://purl.org/dc/dcmitype/StillImage" /><dc:title></dc:title></cc:Work></rdf:RDF></metadata><defs
     id="defs32" /><sodipodi:namedview
     pagecolor="#ffffff"
     bordercolor="#666666"
     borderopacity="1"
     objecttolerance="10"
     gridtolerance="10"
     guidetolerance="10"
     inkscape:pageopacity="0"
     inkscape:pageshadow="2"
     inkscape:window-width="760"
     inkscape:window-height="480"
     id="namedview30"
     showgrid="false"
     inkscape:zoom="0.472"
     inkscape:cx="-23.08658"
     inkscape:cy="102.62564"
     inkscape:window-x="0"
     inkscape:window-y="0"
     inkscape:window-maximized="0"
     inkscape:current-layer="svg28" /><g
     id="g10"
     transform="translate(0,-1)"><path
       d="m 5273.1,2400.1 v -2 c 0,-2.8 -5,-4 -9.7,-4 -4.7,0 -9.7,1.3 -9.7,4 v 2 c 0,1.8 0.7,3.6 2,4.9 l 5,4.9 c 0.3,0.3 0.4,0.6 0.4,1 v 6.4 c 0,0.4 0.2,0.7 0.6,0.8 l 2.9,0.9 c 0.5,0.1 1,-0.2 1,-0.8 v -7.2 c 0,-0.4 0.2,-0.7 0.4,-1 l 5.1,-5 c 1.3,-1.3 2,-3.1 2,-4.9 z m -9.7,-0.1 c -4.8,0 -7.4,-1.3 -7.5,-1.8 v 0 c 0.1,-0.5 2.7,-1.8 7.5,-1.8 4.8,0 7.3,1.3 7.5,1.8 -0.2,0.5 -2.7,1.8 -7.5,1.8 z"
       id="path2"
       inkscape:connector-curvature="0" /><path
       d="m 5268.4,2410.3 c -0.6,0 -1,0.4 -1,1 0,0.6 0.4,1 1,1 h 4.3 c 0.6,0 1,-0.4 1,-1 0,-0.6 -0.4,-1 -1,-1 z"
       id="path4"
       inkscape:connector-curvature="0" /><path
       d="m 5272.7,2413.7 h -4.3 c -0.6,0 -1,0.4 -1,1 0,0.6 0.4,1 1,1 h 4.3 c 0.6,0 1,-0.4 1,-1 0,-0.6 -0.4,-1 -1,-1 z"
       id="path6"
       inkscape:connector-curvature="0" /><path
       d="m 5272.7,2417 h -4.3 c -0.6,0 -1,0.4 -1,1 0,0.6 0.4,1 1,1 h 4.3 c 0.6,0 1,-0.4 1,-1 0,-0.5 -0.4,-1 -1,-1 z"
       id="path8"
       inkscape:connector-curvature="0" /></g><g
     id="g18"
     transform="translate(0,-0.06090832)"><path
       d="m 61.4,27.8 c 1.9,-1.4 3.2,-3.3 3.9,-5.4 L 46.1,12.2 c -2.9,3.7 -3,9.1 -0.1,13.1 3.6,5 10.5,6 15.4,2.5 z"
       id="path12"
       inkscape:connector-curvature="0" /><path
       d="m 81.4,26.3 c -6.6,0 -11.9,5.3 -11.9,11.9 0,3.2 1.3,6.1 3.4,8.3 L 68.6,53 C 64.2,51.1 60,48.5 59.3,47.2 59.1,46.7 58.8,46 58.4,45.3 56.3,40.5 53.9,35.7 50.5,32.6 48.7,30.8 45.1,28.4 40.3,29 c -4.1,0.5 -10,8.4 -13.9,17.5 -2.9,6.9 -3.1,13.3 -2.9,16.5 0.2,3.5 1.7,9.7 3.8,15 l -17,7.8 c -3.1,1.4 -4.5,5.1 -3,8.2 1,2.3 3.3,3.6 5.6,3.6 0.9,0 1.7,-0.2 2.6,-0.6 L 37.9,86.7 c 3.1,-1.4 4.4,-5 3.1,-8.1 -1.1,-2.6 -2.2,-5.4 -3.1,-7.8 0.4,0.2 0.9,0.3 1.4,0.5 2.3,0.8 6.6,2.4 8.8,3.4 0.5,3.4 1.3,10.9 1.8,17.2 0.3,3.4 3.3,5.9 6.7,5.6 3.4,-0.3 5.9,-3.3 5.6,-6.7 C 60.5,70.6 59.6,69 58.9,67.7 57.2,64.8 54.1,63.4 43.6,59.6 l 5.1,-10.9 c 0.1,0.2 0.2,0.4 0.3,0.6 0.4,1 0.8,1.8 1.1,2.4 3.2,6.4 14.4,10.8 17.7,12 0.6,0.2 1.2,0.3 1.7,0.3 2.1,0 4.1,-1.3 4.8,-3.4 0.7,-2 0.1,-4.1 -1.3,-5.5 l 4,-5.9 c 1.4,0.5 2.8,0.9 4.4,0.9 6.6,0 11.9,-5.3 11.9,-11.9 0,-6.6 -5.3,-11.9 -11.9,-11.9 z m 0,18.8 c -3.8,0 -6.9,-3.1 -6.9,-6.9 0,-3.8 3.1,-6.9 6.9,-6.9 3.8,0 6.9,3.1 6.9,6.9 0,3.8 -3.1,6.9 -6.9,6.9 z"
       id="path14"
       inkscape:connector-curvature="0" /><path
       d="m 45.1,9.1 23.5,12.5 c 0.8,0.4 1.7,0.1 2.1,-0.7 0.4,-0.8 0.1,-1.7 -0.7,-2.1 l -2.5,-1.3 0.9,-6.4 C 68.6,9.7 67.9,8.4 66.7,7.8 L 57.5,2.9 C 56.3,2.3 54.8,2.4 53.8,3.3 L 49,7.6 46.5,6.3 C 45.7,5.9 44.8,6.2 44.4,7 44,7.7 44.3,8.7 45.1,9.1 Z"
       id="path16"
       inkscape:connector-curvature="0" /></g></svg>