<?xml version="1.0" encoding="UTF-8" standalone="no"?>
<svg
   xmlns:dc="http://purl.org/dc/elements/1.1/"
   xmlns:cc="http://creativecommons.org/ns#"
   xmlns:rdf="http://www.w3.org/1999/02/22-rdf-syntax-ns#"
   xmlns:svg="http://www.w3.org/2000/svg"
   xmlns="http://www.w3.org/2000/svg"
   xmlns:sodipodi="http://sodipodi.sourceforge.net/DTD/sodipodi-0.dtd"
   xmlns:inkscape="http://www.inkscape.org/namespaces/inkscape"
   version="1.1"
   x="0px"
   y="0px"
   viewBox="0 0 100 100"
   xml:space="preserve"
   id="svg12"
   sodipodi:docname="language.svg"
   width="100"
   height="100"
   inkscape:version="0.92.5 (2060ec1f9f, 2020-04-08)"><metadata
     id="metadata18"><rdf:RDF><cc:Work
         rdf:about=""><dc:format>image/svg+xml</dc:format><dc:type
           rdf:resource="http://purl.org/dc/dcmitype/StillImage" /><dc:title></dc:title></cc:Work></rdf:RDF></metadata><defs
     id="defs16" /><sodipodi:namedview
     pagecolor="#ffffff"
     bordercolor="#666666"
     borderopacity="1"
     objecttolerance="10"
     gridtolerance="10"
     guidetolerance="10"
     inkscape:pageopacity="0"
     inkscape:pageshadow="2"
     inkscape:window-width="760"
     inkscape:window-height="480"
     id="namedview14"
     showgrid="false"
     inkscape:zoom="1.888"
     inkscape:cx="63.996826"
     inkscape:cy="62.5"
     inkscape:window-x="0"
     inkscape:window-y="0"
     inkscape:window-maximized="0"
     inkscape:current-layer="svg12" /><path
     d="m 87.3,88.549519 c 5.4,-5.9 8.7,-13.7 8.6,-22.3 0,-9 -3.6,-17.1 -9.5,-23 -2.4,21.1 -20.5,37.3 -42.4,37.2 H 33.5 c 5.3,11.1 16.6,18.8 29.7,18.7 l 35.8,-0.1 z"
     id="path2"
     inkscape:connector-curvature="0" /><path
     d="M 71.5,11.849519 C 64.5,4.8495186 55.2,0.94951865 45.3,0.84951865 c -20.5,0 -37.2,16.60000035 -37.2,37.00000035 0,8.4 2.8,16.5 7.9,22.9 l 0.3,0.4 -15.3,13.9 44.3,0.1 c 20.4,0 37,-16.6 37,-37 0,-10 -3.8,-19.3 -10.8,-26.3 z m -26.2,58.6 -31.7,-0.1 9.6,-8.6 -1.7,-1.8 c -5.5,-6 -8.5,-13.8 -8.5,-22 0,-17.7 14.5,-32.1000004 32.3,-32.1000004 8.7,0 16.9,3.4 22.9,9.5000004 6,6.2 9.4,14.3 9.4,22.9 -0.1,17.7 -14.6,32.2 -32.3,32.2 z"
     id="path4"
     inkscape:connector-curvature="0" /><path
     d="m 45.3,15.749519 c -12.3,0.1 -22.3,10 -22.3,22.3 0,12.3 10,22.3 22.3,22.2 6.7,0 12.7,-3 16.8,-7.7 h 0.1 v -0.1 c 3.3,-3.9 5.4,-9 5.4,-14.5 -0.1,-12.2 -10.1,-22.2 -22.3,-22.2 z m 7.2,34.1 h -5.9 v -10.5 h 8.5 c -0.2,3.7 -1,7.2 -2.6,10.5 z m -16.4,-10.4 h 7.8 v 10.5 h -5.2 c -1.5,-3.4 -2.4,-6.9 -2.6,-10.5 z m 7.8,-12.4 v 9.6 h -7.8 c 0.2,-3.3 0.9,-6.6 2.2,-9.6 z m 2.7,9.6 v -9.6 h 6.3 c 1.3,3.1 2,6.3 2.2,9.6 z m 0,-18.1 c 0.3,0 0.5,0 0.8,0.1 1.7,1.8 3.1,3.7 4.2,5.7 h -5 z m -2.7,5.8 h -4.3 c 1.1,-2.1 2.6,-4 4.3,-5.8 z m -14.8,2.7 h 6.2 c -1.2,3.1 -1.8,6.4 -2,9.6 h -7.6 c 0.3,-3.5 1.5,-6.8 3.4,-9.6 z m -3.3,12.4 h 7.6 c 0.2,3.6 0.9,7.1 2.3,10.5 h -6 c -2.2,-3 -3.6,-6.6 -3.9,-10.5 z m 18.1,18 c -1.4,-1.5 -2.7,-3.1 -3.7,-4.8 h 3.7 z m 2.7,0.1 v -4.9 H 51 c -1.1,1.7 -2.3,3.4 -3.8,4.9 -0.1,0 -0.4,0 -0.6,0 z m 14.2,-7.7 h -5.3 c 1.4,-3.4 2.2,-6.9 2.3,-10.5 h 6.9 c -0.2,4 -1.7,7.6 -3.9,10.5 z m 3.9,-13.2 h -6.9 c -0.1,-3.3 -0.8,-6.5 -2,-9.6 h 5.5 c 2,2.8 3.2,6.1 3.4,9.6 z"
     id="path6"
     inkscape:connector-curvature="0" /></svg>