<?xml version="1.0" encoding="UTF-8" standalone="no"?>
<svg
   xmlns:dc="http://purl.org/dc/elements/1.1/"
   xmlns:cc="http://creativecommons.org/ns#"
   xmlns:rdf="http://www.w3.org/1999/02/22-rdf-syntax-ns#"
   xmlns:svg="http://www.w3.org/2000/svg"
   xmlns="http://www.w3.org/2000/svg"
   xmlns:sodipodi="http://sodipodi.sourceforge.net/DTD/sodipodi-0.dtd"
   xmlns:inkscape="http://www.inkscape.org/namespaces/inkscape"
   data-name="Layer 101"
   viewBox="0 0 80.140503 80.140503"
   x="0px"
   y="0px"
   version="1.1"
   id="svg20"
   sodipodi:docname="law.svg"
   width="80.140503"
   height="80.140503"
   inkscape:version="0.92.5 (2060ec1f9f, 2020-04-08)">
  <metadata
     id="metadata26">
    <rdf:RDF>
      <cc:Work
         rdf:about="">
        <dc:format>image/svg+xml</dc:format>
        <dc:type
           rdf:resource="http://purl.org/dc/dcmitype/StillImage" />
        <dc:title>80. Law</dc:title>
      </cc:Work>
    </rdf:RDF>
  </metadata>
  <defs
     id="defs24" />
  <sodipodi:namedview
     pagecolor="#ffffff"
     bordercolor="#666666"
     borderopacity="1"
     objecttolerance="10"
     gridtolerance="10"
     guidetolerance="10"
     inkscape:pageopacity="0"
     inkscape:pageshadow="2"
     inkscape:window-width="760"
     inkscape:window-height="480"
     id="namedview22"
     showgrid="false"
     inkscape:zoom="1.888"
     inkscape:cx="40"
     inkscape:cy="27.5"
     inkscape:window-x="0"
     inkscape:window-y="0"
     inkscape:window-maximized="0"
     inkscape:current-layer="svg20" />
  <title
     id="title2">80. Law</title>
  <path
     d="m 52.266359,65.140498 h -33.22 a 6.72,6.72 0 0 0 -6.62,5.61 h 46.46 a 6.72,6.72 0 0 0 -6.62,-5.61 z"
     id="path4"
     inkscape:connector-curvature="0" />
  <path
     d="m 78.196359,56.140498 -28.25,-28.26 -8,8 28.22,28.26 a 5.68,5.68 0 0 0 8,-8 z"
     id="path6"
     inkscape:connector-curvature="0" />
  <path
     d="m 53.716359,21.140498 -14.29,-14.2799996 a 3.32,3.32 0 0 1 -0.38,-0.46 l -18.61,18.6099996 a 3.32,3.32 0 0 1 0.46,0.38 l 14.3,14.29 a 4.14,4.14 0 0 1 0.37,0.46 l 18.61,-18.6 a 4.22,4.22 0 0 1 -0.46,-0.4 z"
     id="path8"
     inkscape:connector-curvature="0" />
  <path
     d="m 54.776359,20.140498 a 2.6,2.6 0 0 0 3.65,0 l 1.39,-1.4 a 2.58,2.58 0 0 0 0,-3.65 l -14.29,-14.32999965 a 2.57,2.57 0 0 0 -3.65,0 l -1.39,1.38000005 a 2.58,2.58 0 0 0 0,3.65 z"
     id="path10"
     inkscape:connector-curvature="0" />
  <path
     d="m 19.836359,26.450498 a 2.54,2.54 0 0 0 -1.82,-0.76 2.57,2.57 0 0 0 -1.83,0.76 l -1.39,1.39 a 2.58,2.58 0 0 0 0,3.65 l 14.29,14.3 a 2.6,2.6 0 0 0 3.65,0 l 1.39,-1.4 a 2.58,2.58 0 0 0 0,-3.65 z"
     id="path12"
     inkscape:connector-curvature="0" />
  <path
     d="M 62.766359,72.250498 H 8.5463592 a 7.89,7.89 0 0 0 -7.89000003,7.89 H 70.656359 a 7.89,7.89 0 0 0 -7.89,-7.89 z"
     id="path14"
     inkscape:connector-curvature="0" />
</svg>
