<?xml version="1.0" encoding="UTF-8" standalone="no"?>
<svg
   xmlns:dc="http://purl.org/dc/elements/1.1/"
   xmlns:cc="http://creativecommons.org/ns#"
   xmlns:rdf="http://www.w3.org/1999/02/22-rdf-syntax-ns#"
   xmlns:svg="http://www.w3.org/2000/svg"
   xmlns="http://www.w3.org/2000/svg"
   xmlns:sodipodi="http://sodipodi.sourceforge.net/DTD/sodipodi-0.dtd"
   xmlns:inkscape="http://www.inkscape.org/namespaces/inkscape"
   version="1.1"
   x="0px"
   y="0px"
   viewBox="0 0 64 64"
   xml:space="preserve"
   id="svg40"
   sodipodi:docname="linguistic.svg"
   width="64"
   height="64"
   inkscape:version="0.92.5 (2060ec1f9f, 2020-04-08)"><metadata
     id="metadata46"><rdf:RDF><cc:Work
         rdf:about=""><dc:format>image/svg+xml</dc:format><dc:type
           rdf:resource="http://purl.org/dc/dcmitype/StillImage" /><dc:title></dc:title></cc:Work></rdf:RDF></metadata><defs
     id="defs44" /><sodipodi:namedview
     pagecolor="#ffffff"
     bordercolor="#666666"
     borderopacity="1"
     objecttolerance="10"
     gridtolerance="10"
     guidetolerance="10"
     inkscape:pageopacity="0"
     inkscape:pageshadow="2"
     inkscape:window-width="760"
     inkscape:window-height="480"
     id="namedview42"
     showgrid="false"
     inkscape:zoom="2.95"
     inkscape:cx="32"
     inkscape:cy="40"
     inkscape:window-x="0"
     inkscape:window-y="0"
     inkscape:window-maximized="0"
     inkscape:current-layer="svg40" /><g
     id="g34"
     transform="translate(0,-0.116)"><path
       d="M 35,12 V 8 C 35,7.688 35.037,7.386 35.092,7.09 32.411,5.051 29.251,3.726 25.931,3.232 27.701,5.001 30.095,7.916 31.818,12 Z"
       id="path2"
       inkscape:connector-curvature="0" /><path
       d="M 29.581,12 C 27.365,7.25 24.261,4.327 23,3.275 21.739,4.327 18.635,7.25 16.419,12 Z"
       id="path4"
       inkscape:connector-curvature="0" /><path
       d="M 20.06,3.241 C 14.329,4.091 9.382,7.363 6.314,12 h 7.868 C 15.901,7.923 18.291,5.011 20.06,3.241 Z"
       id="path6"
       inkscape:connector-curvature="0" /><path
       d="m 35,14 h -2.43 c 0.778,2.342 1.31,5.006 1.409,8 h 1.445 C 35.154,21.386 35,20.712 35,20 Z"
       id="path8"
       inkscape:connector-curvature="0" /><polygon
       points="23.396,43 22.602,43 22.021,51.728 23,53.197 23.979,51.728 "
       id="polygon10" /><path
       d="M 30.417,14 H 15.583 c -0.848,2.311 -1.428,4.985 -1.539,8 H 31.956 C 31.845,18.985 31.265,16.311 30.417,14 Z M 20,20 h -2 v -2 h 2 z m 4,0 h -2 v -2 h 2 z m 4,0 h -2 v -2 h 2 z"
       id="path12"
       inkscape:connector-curvature="0" /><path
       d="m 36.586,34 h -5.655 c 0.041,0.328 0.069,0.661 0.069,1 0,1.801 -0.605,3.458 -1.613,4.797 1.564,-0.652 3.004,-1.602 4.206,-2.804 z"
       id="path14"
       inkscape:connector-curvature="0" /><path
       d="M 42.284,28.302 C 42.58,27.223 42.787,26.118 42.898,25 H 40 c -1.116,0 -2.136,-0.38 -2.969,-1 h -3.053 c -0.093,2.766 -0.567,5.447 -1.42,8 h 6.029 z"
       id="path16"
       inkscape:connector-curvature="0" /><path
       d="M 47,30.829 C 47,29.82 46.18,29 45.171,29 c -0.488,0 -0.947,0.19 -1.293,0.536 l -8.872,8.872 c -2.28,2.28 -5.293,3.787 -8.485,4.243 l -1.135,0.158 0.633,9.465 L 23,56.803 19.979,52.273 20.598,43 H 20 c -4.962,0 -9,4.038 -9,9 v 9 h 3 V 49 h 2 V 61 H 30 V 50.171 c 0,-1.022 0.398,-1.984 1.122,-2.707 L 46.465,32.121 C 46.81,31.776 47,31.317 47,30.829 Z"
       id="path18"
       inkscape:connector-curvature="0" /><path
       d="m 30.418,32 c 0.925,-2.538 1.437,-5.221 1.537,-8 H 14.023 c 0.1,2.779 0.619,5.462 1.543,8 h 0.023 c 1.19,-2.928 4.061,-5 7.411,-5 3.35,0 6.221,2.072 7.411,5 z"
       id="path20"
       inkscape:connector-curvature="0" /><path
       d="M 13.43,14 H 5.164 c -1.23,2.427 -1.971,5.133 -2.113,8 h 8.971 c 0.098,-2.994 0.63,-5.658 1.408,-8 z"
       id="path22"
       inkscape:connector-curvature="0" /><path
       d="M 58,5 H 40 c -1.654,0 -3,1.346 -3,3 v 12 c 0,1.654 1.346,3 3,3 h 12 v 3.131 L 56.697,23 H 58 c 1.654,0 3,-1.346 3,-3 V 8 C 61,6.346 59.654,5 58,5 Z m -2,4 h -6 v 4 h 4 v 2 h -4 v 4 h 6 v 2 H 42 v -2 h 6 v -4 h -4 v -2 h 4 V 9 H 42 V 7 h 14 z m -1.293,8.293 -1.414,1.414 -2,-2 1.414,-1.414 z"
       id="path24"
       inkscape:connector-curvature="0" /><circle
       cx="23"
       cy="35"
       r="6"
       id="circle26" /><path
       d="M 12.023,24 H 3.039 c 0.142,2.835 0.871,5.553 2.105,8 h 8.299 c -0.852,-2.554 -1.328,-5.235 -1.42,-8 z"
       id="path28"
       inkscape:connector-curvature="0" /><path
       d="M 17.951,41.199 C 16.152,39.73 15,37.498 15,35 c 0,-0.339 0.028,-0.672 0.069,-1 H 6.318 c 2.293,3.479 5.656,6.236 9.728,7.747 0.612,-0.237 1.247,-0.424 1.905,-0.548 z"
       id="path30"
       inkscape:connector-curvature="0" /><path
       d="M 58,47 H 56.697 L 52,43.869 V 47 H 42 c -1.654,0 -3,1.346 -3,3 v 8 c 0,1.654 1.346,3 3,3 h 16 c 1.654,0 3,-1.346 3,-3 v -8 c 0,-1.654 -1.346,-3 -3,-3 z m -3.515,11.857 -1.116,-0.669 c -0.922,-0.553 -1.713,-1.272 -2.37,-2.092 V 59 h -2 v -2.904 c -0.657,0.82 -1.448,1.539 -2.37,2.092 L 45.513,58.857 44.484,57.142 45.6,56.473 C 46.945,55.666 47.957,54.428 48.514,53 H 45 v -2 h 3.965 C 48.979,50.824 49,50.649 49,50.471 V 49 h 2 v 1.471 c 0,0.178 0.021,0.353 0.035,0.529 H 55 v 2 h -3.515 c 0.557,1.428 1.569,2.666 2.914,3.473 l 1.116,0.669 z"
       id="path32"
       inkscape:connector-curvature="0" /></g></svg>