<?xml version="1.0" encoding="UTF-8" standalone="no"?>
<svg
   xmlns:dc="http://purl.org/dc/elements/1.1/"
   xmlns:cc="http://creativecommons.org/ns#"
   xmlns:rdf="http://www.w3.org/1999/02/22-rdf-syntax-ns#"
   xmlns:svg="http://www.w3.org/2000/svg"
   xmlns="http://www.w3.org/2000/svg"
   xmlns:sodipodi="http://sodipodi.sourceforge.net/DTD/sodipodi-0.dtd"
   xmlns:inkscape="http://www.inkscape.org/namespaces/inkscape"
   viewBox="0 0 24 24"
   version="1.1"
   x="0px"
   y="0px"
   id="svg18"
   sodipodi:docname="lockpicking.svg"
   width="24"
   height="24"
   inkscape:version="0.92.5 (2060ec1f9f, 2020-04-08)">
  <metadata
     id="metadata24">
    <rdf:RDF>
      <cc:Work
         rdf:about="">
        <dc:format>image/svg+xml</dc:format>
        <dc:type
           rdf:resource="http://purl.org/dc/dcmitype/StillImage" />
        <dc:title>9 - Lockpick (Solid)</dc:title>
      </cc:Work>
    </rdf:RDF>
  </metadata>
  <defs
     id="defs22" />
  <sodipodi:namedview
     pagecolor="#ffffff"
     bordercolor="#666666"
     borderopacity="1"
     objecttolerance="10"
     gridtolerance="10"
     guidetolerance="10"
     inkscape:pageopacity="0"
     inkscape:pageshadow="2"
     inkscape:window-width="1920"
     inkscape:window-height="1043"
     id="namedview20"
     showgrid="false"
     inkscape:zoom="7.8666667"
     inkscape:cx="12"
     inkscape:cy="15"
     inkscape:window-x="0"
     inkscape:window-y="0"
     inkscape:window-maximized="1"
     inkscape:current-layer="svg18" />
  <title
     id="title2">9 - Lockpick (Solid)</title>
  <desc
     id="desc4">Created with Sketch.</desc>
  <g
     id="g12"
     style="fill:none;fill-rule:evenodd;stroke:none;stroke-width:1"
     transform="translate(0,4e-4)">
    <g
       id="g10"
       style="fill:#000000">
      <path
         d="m 13.0059,10.9998 c 0,0.552 -0.448,1 -1,1 -0.552,0 -1,-0.448 -1,-1 v -3 c 0,-0.552 0.448,-1 1,-1 0.552,0 1,0.448 1,1 z"
         id="path6"
         inkscape:connector-curvature="0" />
      <path
         d="m 15.9644,11.0276 -0.965,8.091 c -0.06,0.503 -0.487,0.881 -0.993,0.881 h -4 c -0.507,0 -0.934,-0.378 -0.994,-0.881 l -0.965,-8.091 c -0.674,-0.876 -1.041,-1.94 -1.041,-3.028 0,-2.757 2.243,-5 5,-5 2.756,0 5,2.243 5,5 0,1.088 -0.368,2.152 -1.042,3.028 M 12.0064,-4e-4 c -6.617,0 -12,5.383 -12,12 0,6.617 5.383,12 12,12 6.616,0 12,-5.383 12,-12 0,-6.617 -5.384,-12 -12,-12"
         id="path8"
         inkscape:connector-curvature="0" />
    </g>
  </g>
</svg>
