<svg height='100px' width='100px'  fill="#000000" xmlns="http://www.w3.org/2000/svg" xmlns:xlink="http://www.w3.org/1999/xlink" version="1.1" x="0px" y="0px" viewBox="0 0 100 100" enable-background="new 0 0 100 100" xml:space="preserve"><path d="M93.3,69.3c-1-8.6-8.1-9.2-8.1-9.2s-12.3-2.5-13.6-3.1c-0.5-0.2-1-0.8-1.5-1.6L60.3,61l-9.4-5.7c-0.5,0.9-1.2,1.7-1.7,1.9  c-0.6,0.3-3.6-0.2-6.6,1.8h0c-3.5,0-14.5,3.5-14.5,3.5c-0.5,0.1-0.9-0.6-0.5-0.9l6.6-7c0,0,5.1-1.4,6.1-3.9c1-2.5,5.6-4.5,4.5-6.8  c0,0,4.6-2.4,5.1-4.4l0.1,1.5c0,0-2.2-0.3-1.7,3c0.5,3.3,0.8,3.8,2,3.9c1.2,0.1,1.7,2.2,1.9,3.3c0.1,0.5-0.3,1.6-0.8,2.8l8.7,5.3  l9-5.2c-0.6-1.2-1-2.4-0.9-2.9c0.2-1.1,0.7-3.2,1.9-3.3s1.5-0.6,2-3.9c0.5-3.3-1.7-3-1.7-3l0.2-3.3c-3,1.3-6.8,2.5-10.5,2.5  c-3.8,0-7.5-1.2-10.3-2.5l0,0.8c-0.4-0.9-1.7,0.6-1.7,0.6l-7,3.8c0,0-3.1-0.8-4.8,1.7c-1.7,2.5-5.4,5.1-6.1,5.4  c-0.4,0.1-5,2.9-9.5,5.7c-4.2,2.6-10,7.7-11.6,9.4c-2.1,2.3-4.5,5-4.2,7c0.3,2.2,4.9,6,10.5,6h10.3H95L93.3,69.3z M79.9,74.3  l-3.3-2.4l-3.3,2.3l1.2-3.3L71.3,69h4l1.2-3.8l1.2,3.8h4l-3.3,1.9L79.9,74.3z M75.8,29.2c0,4.7-6.9,9.5-15.5,9.5s-15.5-4.8-15.5-9.5  s6.9-7.5,15.5-7.5S75.8,24.5,75.8,29.2z"></path></svg>