<?xml version="1.0" encoding="UTF-8" standalone="no"?>
<svg
   xmlns:dc="http://purl.org/dc/elements/1.1/"
   xmlns:cc="http://creativecommons.org/ns#"
   xmlns:rdf="http://www.w3.org/1999/02/22-rdf-syntax-ns#"
   xmlns:svg="http://www.w3.org/2000/svg"
   xmlns="http://www.w3.org/2000/svg"
   xmlns:sodipodi="http://sodipodi.sourceforge.net/DTD/sodipodi-0.dtd"
   xmlns:inkscape="http://www.inkscape.org/namespaces/inkscape"
   version="1.1"
   x="0px"
   y="0px"
   viewBox="-346 256 100 100"
   enable-background="new -346 256 100 100"
   xml:space="preserve"
   id="svg16"
   sodipodi:docname="mimic.svg"
   width="100"
   height="100"
   inkscape:version="0.92.5 (2060ec1f9f, 2020-04-08)"><metadata
     id="metadata22"><rdf:RDF><cc:Work
         rdf:about=""><dc:format>image/svg+xml</dc:format><dc:type
           rdf:resource="http://purl.org/dc/dcmitype/StillImage" /><dc:title></dc:title></cc:Work></rdf:RDF></metadata><defs
     id="defs20" /><sodipodi:namedview
     pagecolor="#ffffff"
     bordercolor="#666666"
     borderopacity="1"
     objecttolerance="10"
     gridtolerance="10"
     guidetolerance="10"
     inkscape:pageopacity="0"
     inkscape:pageshadow="2"
     inkscape:window-width="760"
     inkscape:window-height="480"
     id="namedview18"
     showgrid="false"
     inkscape:zoom="1.888"
     inkscape:cx="50"
     inkscape:cy="62.5"
     inkscape:window-x="0"
     inkscape:window-y="0"
     inkscape:window-maximized="0"
     inkscape:current-layer="svg16" /><g
     id="g10"
     transform="translate(0,-1.2345)"><circle
       cx="-323.79901"
       cy="292.694"
       r="2.688"
       id="circle2" /><path
       d="m -338.192,305.345 c -1.288,0 -2.576,-0.404 -3.746,-1.195 -1.602,-1.08 -2.795,-2.761 -3.361,-4.739 -0.729,-2.541 -0.603,-4.79 0.364,-6.503 0.833,-1.475 2.218,-2.482 4.114,-2.994 2.958,-0.798 6.01,1.147 6.95,4.426 0.245,0.856 -0.25,1.749 -1.105,1.995 -0.859,0.245 -1.749,-0.25 -1.994,-1.105 -0.442,-1.542 -1.793,-2.527 -3.01,-2.201 -1.046,0.282 -1.748,0.762 -2.146,1.466 -0.525,0.93 -0.551,2.361 -0.072,4.03 0.357,1.249 1.09,2.296 2.061,2.95 0.885,0.597 1.864,0.784 2.756,0.53 0.856,-0.246 1.749,0.249 1.994,1.106 0.245,0.855 -0.25,1.751 -1.106,1.997 -0.56,0.158 -1.13,0.237 -1.699,0.237 z"
       id="path4"
       inkscape:connector-curvature="0" /><path
       d="m -252.938,261.874 c -0.318,-0.028 -0.643,-0.035 -0.966,-0.049 -0.247,-0.007 -0.487,-0.037 -0.735,-0.037 -0.028,0 -0.058,0.002 -0.087,0.002 -0.002,0 -0.004,0 -0.008,0 -0.008,0 -0.019,10e-4 -0.026,10e-4 -0.518,0.004 -1.032,0.03 -1.544,0.071 -10.413,0.737 -19.736,8.65 -21.749,17.338 -0.47,2.028 -1,7.327 -1,7.327 l -6.201,12.791 c -0.101,0.228 -0.149,0.491 -0.149,0.761 0,1.081 0.872,1.959 1.956,1.959 h 4.395 v 6.802 c 0,5.3 4.285,9.592 9.583,9.592 h 3.809 v 6.694 c -4.505,2.309 -9.952,5.719 -14.716,10.46 -9.254,9.213 -12.58,17.851 -12.58,17.851 h 46.888 v -90.066 c -2.161,-0.812 -4.466,-1.33 -6.87,-1.497 z m -19.229,29.66 c -1.499,0 -2.716,-1.215 -2.716,-2.716 0,-1.5 1.217,-2.715 2.716,-2.715 1.501,0 2.717,1.215 2.717,2.715 0,1.501 -1.216,2.716 -2.717,2.716 z"
       id="path6"
       inkscape:connector-curvature="0" /><path
       d="m -296.387,260.984 h -47.299 v 7.922 c 0.967,-0.127 1.945,-0.219 2.947,-0.219 10.372,0 19.934,6.391 21.921,14.967 0.441,1.906 0.94,6.887 0.94,6.887 l 5.854,12.024 c 0.095,0.212 0.141,0.463 0.141,0.715 0,1.017 -0.82,1.843 -1.839,1.843 h -4.155 v 6.393 c 0,4.982 -4.029,9.017 -9.007,9.017 h -3.581 v 6.292 c 4.233,2.168 9.355,5.376 13.833,9.834 3.656,3.638 6.316,7.174 8.186,10.06 h -35.302 v 6.766 l 47.362,-0.047 v -92.454 z"
       id="path8"
       inkscape:connector-curvature="0" /></g></svg>