<?xml version="1.0" encoding="UTF-8" standalone="no"?>
<svg
   xmlns:dc="http://purl.org/dc/elements/1.1/"
   xmlns:cc="http://creativecommons.org/ns#"
   xmlns:rdf="http://www.w3.org/1999/02/22-rdf-syntax-ns#"
   xmlns:svg="http://www.w3.org/2000/svg"
   xmlns="http://www.w3.org/2000/svg"
   xmlns:sodipodi="http://sodipodi.sourceforge.net/DTD/sodipodi-0.dtd"
   xmlns:inkscape="http://www.inkscape.org/namespaces/inkscape"
   data-name="Layer 1"
   viewBox="0 0 1024 1024"
   x="0px"
   y="0px"
   version="1.1"
   id="svg12"
   sodipodi:docname="natural dealer.svg"
   width="1024"
   height="1024"
   inkscape:version="0.92.5 (2060ec1f9f, 2020-04-08)">
  <metadata
     id="metadata18">
    <rdf:RDF>
      <cc:Work
         rdf:about="">
        <dc:format>image/svg+xml</dc:format>
        <dc:type
           rdf:resource="http://purl.org/dc/dcmitype/StillImage" />
        <dc:title>icon</dc:title>
      </cc:Work>
    </rdf:RDF>
  </metadata>
  <defs
     id="defs16" />
  <sodipodi:namedview
     pagecolor="#ffffff"
     bordercolor="#666666"
     borderopacity="1"
     objecttolerance="10"
     gridtolerance="10"
     guidetolerance="10"
     inkscape:pageopacity="0"
     inkscape:pageshadow="2"
     inkscape:window-width="760"
     inkscape:window-height="480"
     id="namedview14"
     showgrid="false"
     inkscape:zoom="0.184375"
     inkscape:cx="512"
     inkscape:cy="640"
     inkscape:window-x="0"
     inkscape:window-y="0"
     inkscape:window-maximized="0"
     inkscape:current-layer="svg12" />
  <title
     id="title2">icon</title>
  <path
     d="m 547.57721,709.90994 c -7.53205,-56.17308 -26.67946,-74.35484 -85.52877,-82.49387 -14.48471,-64.3397 -31.25938,-79.62451 -90.8812,-82.16279 -1.71058,-8.60805 -2.89695,-17.5196 -5.29727,-26.10006 -15.47795,-55.67647 -81.69376,-72.42355 -124.73404,-32.00432 -19.89234,18.70597 -40.2537,37.02568 -61.55312,56.33863 C 119.24365,493.1911 64.477651,433.59686 52.420854,346.85414 38.625892,248.88233 81.666173,174.38953 156.49004,117.41634 c 75.26531,-57.359455 158.58688,-57.083555 241.08075,-17.2437 33.49417,16.1677 62.38082,41.82632 95.90258,64.91909 L 269.11211,397.0954 c 99.04783,116.65019 210.73183,122.58202 308.5657,35.42546 27.01054,-24.08601 52.42086,-49.82741 80.01078,-76.1206 43.86798,47.096 86.522,92.95045 129.28638,138.69454 q 45.77168,48.88935 91.79167,97.50279 c 15.80903,16.77467 18.09899,37.90855 5.95943,54.54528 -8.80119,12.08438 -26.67946,20.60967 -41.93669,23.72733 C 833.68471,672.74632 820.0277,663.06226 811.53,655.19913 767.82756,614.86266 725.14595,573.42259 680.06402,530.4099 l -22.54097,25.07924 c 43.17823,42.7368 85.25286,84.86661 127.93447,126.36185 14.18123,13.79496 22.7341,28.69352 16.02975,48.53068 -6.8423,20.30618 -20.88557,35.8669 -42.40571,36.44629 A 59.263155,59.263155 0 0 1 720.45567,752.28807 C 675.51168,709.68923 632.41622,665.10391 585.78925,618.3114 l -21.57532,28.7487 96.78545,101.50333 29.05219,30.54204 c 23.31348,24.61021 22.62374,52.42086 -1.82093,73.16848 -24.44468,20.74762 -48.64104,16.416 -70.82334,-12.49824 36.61183,-73.52714 13.87773,-116.48465 -69.83009,-129.86577 z"
     id="path4"
     inkscape:connector-curvature="0"
     style="fill:#000000" />
  <path
     d="m 314.66307,397.84032 c 31.7836,-33.10791 63.23611,-66.74002 95.65427,-99.32372 59.34592,-59.81495 117.80897,-120.59555 179.3345,-178.17572 a 209.87655,209.87655 0 0 1 287.70772,0.41384 c 49.99294,47.50985 87.79113,103.29668 95.32318,174.4235 6.62158,62.46358 -6.8423,120.01616 -47.17877,169.37454 -18.67837,22.87204 -39.12251,44.28182 -60.06326,67.78844 L 654.87442,309.60775 566.89015,391.85331 c -5.51798,5.07655 -10.81525,10.20827 -16.30564,15.20205 -75.87229,69.49901 -162.14598,66.7952 -235.92144,-9.21504 z m 26.10007,136.87361 c -9.32539,16.55396 -14.01568,30.34892 -23.12035,39.89503 -32.25262,34.12874 -65.96751,66.90557 -99.32373,100.01347 -16.55395,16.55396 -34.79089,17.07816 -53.33132,3.44874 -17.32647,-12.74654 -21.05111,-32.44575 -8.82878,-52.5588 a 149.50979,149.50979 0 0 1 22.07194,-26.2932 c 28.91424,-29.38327 57.00079,-59.75977 88.03945,-86.68754 9.68406,-8.27697 29.27291,-12.36028 41.38488,-8.77359 12.11198,3.58669 21.29942,19.14741 33.10791,30.95589 z m -63.18092,236.52841 c -10.48417,-7.55964 -26.2932,-13.57424 -32.19744,-24.83093 -5.32486,-10.1255 -5.13173,-30.79035 1.82093,-38.62589 q 55.51093,-61.58071 116.26394,-118.33318 c 16.55395,-15.45036 36.55665,-7.25615 50.98618,7.53205 14.84338,15.20205 15.09168,34.51499 1.15877,49.24801 -36.88772,39.03974 -75.40326,76.53445 -113.83602,114.05674 -4.88342,4.88342 -13.1328,6.15256 -24.19636,10.9532 z m 238.07344,-69.05757 c -7.55963,12.93967 -11.28427,23.34107 -18.29211,30.54204 q -50.82064,52.5588 -103.21391,103.54498 c -17.7955,17.43683 -36.77737,17.2437 -55.0143,1.1036 -16.19529,-14.31917 -19.31295,-35.56341 -3.11767,-52.86229 36.08762,-38.6259 73.1133,-76.47927 112.20822,-111.93232 8.27698,-7.3941 29.05219,-7.80795 40.30888,-2.75899 11.25669,5.04895 17.85068,20.58208 27.12089,32.36298 z m 87.26693,82.9629 c -8.11144,13.79496 -12.22233,24.83093 -19.80956,32.77682 -33.10791,34.48741 -67.18147,68.25747 -101.39297,101.75164 -18.37489,18.01622 -38.62589,17.65755 -57.08355,0.52421 -14.98133,-13.79496 -16.55396,-36.33593 -0.49662,-53.16578 35.8669,-37.63266 72.17524,-75.04459 110.69077,-109.89067 8.27698,-7.47687 28.69352,-8.4701 39.92262,-3.80741 11.2291,4.6627 18.43007,20.16824 28.16931,31.81119 z m -21.43737,84.17685 c 31.39734,25.32755 36.11521,52.17254 15.0641,74.7411 -22.51338,24.11359 -49.44114,21.93399 -77.5001,-8.05626 z"
     id="path6"
     inkscape:connector-curvature="0"
     style="fill:#000000" />
</svg>
