<?xml version="1.0" encoding="UTF-8" standalone="no"?>
<svg
   xmlns:dc="http://purl.org/dc/elements/1.1/"
   xmlns:cc="http://creativecommons.org/ns#"
   xmlns:rdf="http://www.w3.org/1999/02/22-rdf-syntax-ns#"
   xmlns:svg="http://www.w3.org/2000/svg"
   xmlns="http://www.w3.org/2000/svg"
   xmlns:sodipodi="http://sodipodi.sourceforge.net/DTD/sodipodi-0.dtd"
   xmlns:inkscape="http://www.inkscape.org/namespaces/inkscape"
   version="1.1"
   x="0px"
   y="0px"
   viewBox="0 285.5 282.5 282.5"
   enable-background="new 0 285.5 282.5 270.5"
   xml:space="preserve"
   id="svg12"
   sodipodi:docname="natural leader.svg"
   width="282.5"
   height="282.5"
   inkscape:version="0.92.5 (2060ec1f9f, 2020-04-08)"><metadata
     id="metadata18"><rdf:RDF><cc:Work
         rdf:about=""><dc:format>image/svg+xml</dc:format><dc:type
           rdf:resource="http://purl.org/dc/dcmitype/StillImage" /><dc:title></dc:title></cc:Work></rdf:RDF></metadata><defs
     id="defs16" /><sodipodi:namedview
     pagecolor="#ffffff"
     bordercolor="#666666"
     borderopacity="1"
     objecttolerance="10"
     gridtolerance="10"
     guidetolerance="10"
     inkscape:pageopacity="0"
     inkscape:pageshadow="2"
     inkscape:window-width="760"
     inkscape:window-height="480"
     id="namedview14"
     showgrid="false"
     inkscape:zoom="0.69796673"
     inkscape:cx="141.25"
     inkscape:cy="169.0625"
     inkscape:window-x="0"
     inkscape:window-y="0"
     inkscape:window-maximized="0"
     inkscape:current-layer="svg12" /><circle
     cx="61.973"
     cy="351.987"
     r="41.719002"
     id="circle2" /><path
     d="m 219.972,452.723 c -4.961,-7.645 -15.18,-9.82 -22.823,-4.857 -20.24,13.136 -35.449,18.684 -45.217,16.49 -7.621,-1.713 -13.758,-8.331 -23.139,-18.988 -10.58,-12.018 -23.748,-26.975 -45.117,-35.065 -1.551,-0.587 -3.134,-0.919 -4.707,-1.028 -17.362,-5.18 -38.622,-6.564 -52.23,7.045 -3.71,3.71 -13.238,10.998 -13.238,39.833 v 87.079 h 94.975 l -3.282,-74.73 c 10.565,11.98 21.699,24.052 39.504,28.053 3.763,0.846 7.642,1.271 11.664,1.271 16.592,0 35.605,-7.256 58.752,-22.277 7.644,-4.962 9.819,-15.181 4.858,-22.826 z"
     id="path4"
     inkscape:connector-curvature="0" /><path
     d="M 260.744,341.466 V 319.09 c 0,-4.617 -3.757,-8.374 -8.374,-8.374 h -1.059 l -61.321,24.533 h -39.378 c -4.731,0 -8.567,3.836 -8.567,8.567 v 17.134 c 0,4.731 3.835,8.567 8.567,8.567 h 12.324 c -0.425,3.938 -0.771,10.408 0.253,17.679 1.677,11.909 6.455,19.872 6.455,19.872 1.02,2.539 2.874,3.68 4.906,3.68 h 12.879 c 2.032,0 5.11,-0.511 3.68,-3.68 0,0 -5.208,-11.026 -6.511,-20.272 -0.833,-5.914 -0.446,-12.965 -0.059,-17.279 h 7.305 l 59.467,23.792 h 1.06 c 4.617,0 8.373,-3.757 8.373,-8.374 v -24.874 c 5.097,-0.045 9.216,-4.189 9.216,-9.297 -10e-4,-5.108 -4.119,-9.252 -9.216,-9.298 z m -11,39.369 -49.7,-19.884 v -17.876 l 49.7,-19.884 z"
     id="path6"
     inkscape:connector-curvature="0" /></svg>