<?xml version="1.0" encoding="UTF-8" standalone="no"?>
<svg
   xmlns:dc="http://purl.org/dc/elements/1.1/"
   xmlns:cc="http://creativecommons.org/ns#"
   xmlns:rdf="http://www.w3.org/1999/02/22-rdf-syntax-ns#"
   xmlns:svg="http://www.w3.org/2000/svg"
   xmlns="http://www.w3.org/2000/svg"
   xmlns:sodipodi="http://sodipodi.sourceforge.net/DTD/sodipodi-0.dtd"
   xmlns:inkscape="http://www.inkscape.org/namespaces/inkscape"
   viewBox="0 0 100 100"
   x="0px"
   y="0px"
   version="1.1"
   id="svg8"
   sodipodi:docname="occultism.svg"
   width="100"
   height="100"
   inkscape:version="0.92.5 (2060ec1f9f, 2020-04-08)">
  <metadata
     id="metadata14">
    <rdf:RDF>
      <cc:Work
         rdf:about="">
        <dc:format>image/svg+xml</dc:format>
        <dc:type
           rdf:resource="http://purl.org/dc/dcmitype/StillImage" />
        <dc:title></dc:title>
      </cc:Work>
    </rdf:RDF>
  </metadata>
  <defs
     id="defs12" />
  <sodipodi:namedview
     pagecolor="#ffffff"
     bordercolor="#666666"
     borderopacity="1"
     objecttolerance="10"
     gridtolerance="10"
     guidetolerance="10"
     inkscape:pageopacity="0"
     inkscape:pageshadow="2"
     inkscape:window-width="760"
     inkscape:window-height="480"
     id="namedview10"
     showgrid="false"
     inkscape:zoom="1.888"
     inkscape:cx="50"
     inkscape:cy="62.5"
     inkscape:window-x="0"
     inkscape:window-y="0"
     inkscape:window-maximized="0"
     inkscape:current-layer="svg8" />
  <path
     d="m 70.104583,43.898638 h -5.492777 l -1.624723,-5 h 3.396945 c 1.4675,1.492778 2.715278,3.173612 3.720555,5 z M 48.239472,24.576416 c -1.871389,0.107778 -3.720833,0.383334 -5.526389,0.827222 l 7.287778,-22.428888 16.855556,51.876666 -4.253611,3.09 -12.601945,-38.786111 z m 27.628722,14.322222 h 23.577778 l -44.128611,32.061389 -4.253333,-3.09 32.993611,-23.971389 h -5.691667 c -0.681666,-1.749444 -1.517222,-3.421388 -2.497778,-5 z m -6.575111,23.452695 1.052223,3.237778 C 69.380028,67.438 68.166139,69.140222 66.735583,70.661333 L 65.03975,65.441611 Z M 45.68725,32.4315 43.991972,37.648722 H 38.73475 l 1.049167,-3.229167 c 1.868611,-0.930278 3.854166,-1.597778 5.903333,-1.988055 z m -5.448667,43.303638 4.445556,-3.229722 4.253055,3.090278 -2.7475,1.996111 c -2.065833,-0.343611 -4.063333,-0.966111 -5.951111,-1.856667 z m 29.048806,2.779528 c 1.454444,-1.190278 2.787222,-2.5 3.985,-3.916389 L 80.559056,97.025222 36.431,64.963833 l 1.624444,-5 32.993056,23.971111 z m -37.6115,-23.185889 -1.624722,5 -2.744723,-1.994166 c -0.163333,-1.111389 -0.248611,-2.2375 -0.248611,-3.37 0,-0.961945 0.06,-1.917223 0.1775,-2.862223 z m 1.886528,25.257028 c 1.58,1.0175 3.235833,1.880556 4.953611,2.581389 L 19.442139,97.02525 36.297694,45.148583 h 5.2575 l -12.6025,38.786389 z M 20.551222,47.246083 c -0.472222,1.805 -0.776666,3.649722 -0.910555,5.518889 L 0.55566667,38.898583 H 55.1015 l 1.624444,5 H 15.944 Z M 61.249861,33.551416 59.205694,27.25975 c 9.030834,3.008333 16.113334,10.316666 18.808056,19.485 l -4.353333,3.162777 C 72.144306,42.805861 67.502917,36.84975 61.249861,33.551416 Z m -28.125944,4.097222 h -6.610834 c 5.321667,-7.199166 13.868334,-11.876944 23.487778,-11.876944 0.280833,0 0.560556,0.005 0.839722,0.01278 l 1.662223,5.115833 c -0.822778,-0.085 -1.657223,-0.128611 -2.501945,-0.128611 -6.558611,0 -12.514722,2.624444 -16.876944,6.876944 z m -4.810528,28.028723 -2.039167,6.275555 c -3.438889,-4.788611 -5.466389,-10.656111 -5.466389,-16.988333 0,-3.442222 0.600556,-6.746667 1.699723,-9.815833 h 5.383333 c -1.337778,3.001388 -2.083056,6.323055 -2.083056,9.815833 0,3.844444 0.902778,7.481667 2.505556,10.712778 z m 45.535083,-6.63575 5.342778,-3.881945 c -0.06528,9.913889 -5.096667,18.669167 -12.726944,23.899445 l -4.348889,-3.16 c 6.093055,-3.539445 10.506666,-9.661945 11.733055,-16.8575 z m -20.356583,19.863 5.346111,3.884166 c -2.788889,0.888056 -5.757778,1.368611 -8.837222,1.368611 -6.706945,0 -12.891945,-2.275 -17.826945,-6.091944 L 33.836611,72.9485 c 4.2875,3.857777 9.956111,6.208888 16.164167,6.208888 1.185555,0 2.350833,-0.08722 3.491111,-0.252777 z"
     id="path2"
     inkscape:connector-curvature="0" />
</svg>
