<?xml version="1.0" encoding="UTF-8" standalone="no"?>
<svg
   xmlns:dc="http://purl.org/dc/elements/1.1/"
   xmlns:cc="http://creativecommons.org/ns#"
   xmlns:rdf="http://www.w3.org/1999/02/22-rdf-syntax-ns#"
   xmlns:svg="http://www.w3.org/2000/svg"
   xmlns="http://www.w3.org/2000/svg"
   xmlns:sodipodi="http://sodipodi.sourceforge.net/DTD/sodipodi-0.dtd"
   xmlns:inkscape="http://www.inkscape.org/namespaces/inkscape"
   viewBox="0 0 64 64"
   x="0px"
   y="0px"
   version="1.1"
   id="svg14"
   sodipodi:docname="oral history.svg"
   width="64"
   height="64"
   inkscape:version="0.92.5 (2060ec1f9f, 2020-04-08)">
  <metadata
     id="metadata20">
    <rdf:RDF>
      <cc:Work
         rdf:about="">
        <dc:format>image/svg+xml</dc:format>
        <dc:type
           rdf:resource="http://purl.org/dc/dcmitype/StillImage" />
        <dc:title></dc:title>
      </cc:Work>
    </rdf:RDF>
  </metadata>
  <defs
     id="defs18" />
  <sodipodi:namedview
     pagecolor="#ffffff"
     bordercolor="#666666"
     borderopacity="1"
     objecttolerance="10"
     gridtolerance="10"
     guidetolerance="10"
     inkscape:pageopacity="0"
     inkscape:pageshadow="2"
     inkscape:window-width="760"
     inkscape:window-height="480"
     id="namedview16"
     showgrid="false"
     inkscape:zoom="2.95"
     inkscape:cx="32"
     inkscape:cy="40"
     inkscape:window-x="0"
     inkscape:window-y="0"
     inkscape:window-maximized="0"
     inkscape:current-layer="svg14" />
  <g
     id="g8"
     transform="translate(0,-0.49989487)">
    <path
       d="m 43,19 v 1.069 a 8.011,8.011 0 0 0 -6.165,4.394 5.977,5.977 0 0 0 -9.67,0 A 8.011,8.011 0 0 0 21,20.069 V 19 Z m 1,15 a 6.006,6.006 0 0 1 -6,-6 h 2 a 4,4 0 0 0 8,0 h 2 a 6.006,6.006 0 0 1 -6,6 z m -7,9 a 2,2 0 1 1 -2,2 2,2 0 0 1 2,-2 z M 32,32 A 6.054,6.054 0 0 0 31.143,32.068 5.6,5.6 0 0 0 28,33.365 V 33 a 3.993,3.993 0 0 1 0.071,-0.7 c 0.011,-0.062 0.026,-0.129 0.04,-0.2 a 3.992,3.992 0 0 1 7.789,0.034 c 0.01,0.05 0.019,0.1 0.027,0.144 A 4,4 0 0 1 36,33 v 0.365 A 5.6,5.6 0 0 0 32.857,32.065 6.054,6.054 0 0 0 32,32 Z m -5,11 a 2,2 0 1 1 -2,2 2,2 0 0 1 2,-2 z m 9,-14.635 a 5.6,5.6 0 0 0 -3.143,-1.3 5.434,5.434 0 0 0 -1.714,0 5.6,5.6 0 0 0 -3.143,1.3 V 28 a 4,4 0 0 1 8,0 z M 42,28 h 4 a 2,2 0 0 1 -4,0 z m -3.65,-2 a 5.99,5.99 0 0 1 11.3,0 z M 20,22 a 6,6 0 0 1 5.65,4 H 14.35 A 6,6 0 0 1 20,22 Z m 2,6 a 2,2 0 0 1 -4,0 z m -6,0 a 4,4 0 0 0 8,0 h 2 a 6,6 0 0 1 -12,0 z m 5,7.931 a 7.99,7.99 0 0 0 5,-2.657 v 7.868 a 4,4 0 1 0 2,0 V 38 a 3.993,3.993 0 0 1 0.071,-0.7 c 0.011,-0.062 0.026,-0.129 0.04,-0.2 a 3.992,3.992 0 0 1 7.789,0.034 c 0.01,0.05 0.019,0.1 0.027,0.144 A 4,4 0 0 1 36,38 v 3.142 a 4,4 0 1 0 2,0 v -7.868 a 7.99,7.99 0 0 0 5,2.657 V 44 a 10.949,10.949 0 0 1 -2.521,7 H 23.521 A 10.949,10.949 0 0 1 21,44 Z M 38.305,53 A 10.938,10.938 0 0 1 25.7,53 Z M 58.593,24.137 a 46.4,46.4 0 0 0 -7.466,11.376 0.986,0.986 0 0 0 1.466,1.267 l 0.011,0.014 c 0.039,-0.025 0.793,-0.481 3.9,-0.69 C 53.38,38.322 49,41.973 49,45 c 0,0.312 0.133,1.551 2.046,3 h -6.682 a 12.89,12.89 0 0 0 0.585,-3 H 47 v -2 h -2 v -3 h 5 V 38 H 45 V 35.931 A 8.008,8.008 0 0 0 52,28 c 0,-0.259 -0.015,-0.515 -0.039,-0.768 0.493,-0.673 2.239,-2.568 6.632,-3.095 z M 50.257,23.029 A 8,8 0 0 0 45,20.069 v -1.515 a 26.441,26.441 0 0 1 8.524,-3.331 18.167,18.167 0 0 0 -3.267,7.806 z M 39,11.194 41.4,5.262 a 1.845,1.845 0 0 1 3.248,-0.495 1.807,1.807 0 0 1 0.286,1.58 L 43.083,10.6 A 0.994,0.994 0 0 0 43,11 v 6 H 39 Z M 31,16 a 1,1 0 1 1 1,1 1,1 0 0 1 -1,-1 z M 19.351,4.767 A 1.825,1.825 0 0 1 20.849,4 1.867,1.867 0 0 1 22.621,5.321 L 25,11.2 V 17 H 21 V 11 A 0.994,0.994 0 0 0 20.917,10.6 L 19.1,6.43 A 1.826,1.826 0 0 1 19.351,4.767 Z M 10.477,15.224 A 26.609,26.609 0 0 1 19,18.554 v 1.515 a 8,8 0 0 0 -5.257,2.96 18.151,18.151 0 0 0 -3.266,-7.805 z M 12.954,48 C 14.867,46.551 15,45.312 15,45 c 0,-3.027 -4.38,-6.678 -7.5,-8.9 3.107,0.208 3.857,0.661 3.878,0.673 l 0.009,-0.011 a 0.988,0.988 0 0 0 1,0.143 1,1 0 0 0 0.525,-1.312 46.271,46.271 0 0 0 -7.5,-11.46 c 4.4,0.528 6.147,2.431 6.632,3.094 -0.024,0.253 -0.039,0.509 -0.039,0.769 a 8.008,8.008 0 0 0 7,7.931 V 38 H 14 v 2 h 5 v 3 h -2 v 2 h 2.051 a 12.89,12.89 0 0 0 0.585,3 z"
       id="path2"
       inkscape:connector-curvature="0" />
    <path
       d="M 11,61 C 9.271,61 6,60.164 6,57 A 1.876,1.876 0 0 0 5.4,55.451 4.551,4.551 0 0 0 2.191,54.981 L 1.8,53.02 c 0.311,-0.063 3.093,-0.569 4.863,0.882 A 3.808,3.808 0 0 1 8,57 c 0,1.959 2.881,2 3,2 4.531,0 6,-0.232 6,-3 0,-2.364 2.238,-3.923 6.651,-4.633 l 0.319,1.975 C 22.476,53.582 19,54.322 19,56 c 0,5 -4.067,5 -8,5 z"
       id="path4"
       inkscape:connector-curvature="0" />
    <path
       d="m 53,61 c -3.933,0 -8,0 -8,-5 0,-1.462 -2.629,-2.206 -4.2,-2.52 l 0.392,-1.96 C 45.047,52.29 47,53.8 47,56 c 0,2.768 1.466,3 6,3 0.119,0 3,-0.041 3,-2 a 3.808,3.808 0 0 1 1.333,-3.1 c 1.77,-1.451 4.553,-0.946 4.863,-0.882 l -0.389,1.961 A 4.546,4.546 0 0 0 58.598,55.449 1.876,1.876 0 0 0 58,57 c 0,3.164 -3.271,4 -5,4 z"
       id="path6"
       inkscape:connector-curvature="0" />
  </g>
</svg>
