<?xml version="1.0" encoding="UTF-8" standalone="no"?>
<svg
   xmlns:dc="http://purl.org/dc/elements/1.1/"
   xmlns:cc="http://creativecommons.org/ns#"
   xmlns:rdf="http://www.w3.org/1999/02/22-rdf-syntax-ns#"
   xmlns:svg="http://www.w3.org/2000/svg"
   xmlns="http://www.w3.org/2000/svg"
   xmlns:sodipodi="http://sodipodi.sourceforge.net/DTD/sodipodi-0.dtd"
   xmlns:inkscape="http://www.inkscape.org/namespaces/inkscape"
   version="1.1"
   x="0px"
   y="0px"
   viewBox="0 0 69 69"
   xml:space="preserve"
   id="svg24"
   sodipodi:docname="photography.svg"
   width="69"
   height="69"
   inkscape:version="0.92.5 (2060ec1f9f, 2020-04-08)"><metadata
     id="metadata30"><rdf:RDF><cc:Work
         rdf:about=""><dc:format>image/svg+xml</dc:format><dc:type
           rdf:resource="http://purl.org/dc/dcmitype/StillImage" /><dc:title></dc:title></cc:Work></rdf:RDF></metadata><defs
     id="defs28" /><sodipodi:namedview
     pagecolor="#ffffff"
     bordercolor="#666666"
     borderopacity="1"
     objecttolerance="10"
     gridtolerance="10"
     guidetolerance="10"
     inkscape:pageopacity="0"
     inkscape:pageshadow="2"
     inkscape:window-width="760"
     inkscape:window-height="480"
     id="namedview26"
     showgrid="false"
     inkscape:zoom="2.7362319"
     inkscape:cx="34.5"
     inkscape:cy="43.125"
     inkscape:window-x="0"
     inkscape:window-y="0"
     inkscape:window-maximized="0"
     inkscape:current-layer="svg24" /><g
     id="g18"><path
       d="M 66.71924,64.98013 H 63.5614 c 0.52264,-0.56055 0.84863,-1.30878 0.84863,-2.14026 V 52.10959 H 47.76526 c -1.9682,5.55762 -7.3111,9.37988 -13.26532,9.37988 -6.00104,0 -11.22302,-3.74298 -13.21545,-9.26953 H 4.59003 v 10.61993 c 0,0.83148 0.32825,1.57971 0.85327,2.14026 H 2.28076 c -0.55273,0 -1,0.44727 -1,1 0,0.55273 0.44727,1 1,1 h 64.43848 c 0.55273,0 1,-0.44727 1,-1 0,-0.55273 -0.44727,-1 -1,-1 z"
       id="path2"
       inkscape:connector-curvature="0" /><path
       d="m 24.66003,15.43991 h 8.62 v 1.97998 h -4.46997 c -0.41998,0 -0.79999,0.27002 -0.94,0.65997 l -3.04999,8.42999 c -0.04004,0.11005 -0.06,0.22003 -0.06,0.34003 h 19.48999 c 0,-0.12 -0.02002,-0.22998 -0.06,-0.34003 l -3.04999,-8.42999 c -0.15002,-0.38995 -0.52002,-0.65997 -0.94,-0.65997 h -4.92004 v -1.97998 h 8.63 c 0.55231,0 1,-0.44769 1,-1 V 3.01987 c 0,-0.55231 -0.44769,-1 -1,-1 h -19.25 c -0.55225,0 -1,0.44769 -1,1 v 11.42004 c 0,0.55231 0.44776,1 1,1 z m 12.59003,6.19995 c 0.56,0 1,0.45001 1,1 0,0.55005 -0.44,1 -1,1 h -5.5 c -0.54999,0 -1,-0.44995 -1,-1 0,-0.54999 0.45001,-1 1,-1 z M 27.66003,6.01987 h 13.25 v 5.42004 h -13.25 z"
       id="path4"
       inkscape:connector-curvature="0" /><path
       d="m 19.20007,25.68991 c 0,-1.01001 -0.83002,-1.84003 -1.84003,-1.84003 h -3.45001 c -1.01996,0 -1.83997,0.83002 -1.83997,1.84003 v 1.15997 h 7.13 v -1.15997 z"
       id="path6"
       inkscape:connector-curvature="0" /><path
       d="m 64.41003,50.10959 v -5.5 H 48.29681 c 0.16315,0.80066 0.2832,1.93225 0.2832,2.81055 0,0.82904 -0.10724,1.90283 -0.26074,2.68945 z"
       id="path8"
       inkscape:connector-curvature="0" /><path
       d="m 34.49994,33.34006 c 5.9071,0 11.22223,3.77356 13.22345,9.26953 H 64.41004 V 31.9899 c 0,-1.73004 -1.39996,-3.14001 -3.13,-3.14001 h -53.55 c -1.72998,0 -3.14001,1.40997 -3.14001,3.14001 V 42.71994 H 21.245 c 1.96038,-5.58533 7.21356,-9.37988 13.25494,-9.37988 z"
       id="path10"
       inkscape:connector-curvature="0" /><path
       d="m 34.50385,40.34396 c -3.89941,0 -7.07227,3.17285 -7.07227,7.07227 0,3.90039 3.17285,7.07324 7.07227,7.07324 3.90039,0 7.07324,-3.17285 7.07324,-7.07324 0,-3.89941 -3.17285,-7.07227 -7.07324,-7.07227 z"
       id="path12"
       inkscape:connector-curvature="0" /><path
       d="m 20.42963,47.42014 c 0,-0.89355 0.12079,-1.99701 0.26074,-2.7002 H 4.59003 v 5.5 H 20.7099 c -0.15753,-0.76422 -0.28027,-1.8656 -0.28027,-2.7998 z"
       id="path14"
       inkscape:connector-curvature="0" /><path
       d="m 34.49994,35.34006 c -6.71179,0 -12.07031,5.41418 -12.07031,12.08008 0,6.59332 5.29907,12.06934 12.07031,12.06934 6.5249,0 12.08008,-5.30054 12.08008,-12.06934 0,-6.80372 -5.59296,-12.08008 -12.08008,-12.08008 z m 0.0039,21.14941 c -5.00293,0 -9.07227,-4.07031 -9.07227,-9.07324 0,-5.00293 4.06934,-9.07227 9.07227,-9.07227 5.00293,0 9.07324,4.06934 9.07324,9.07227 0,5.00293 -4.07032,9.07324 -9.07324,9.07324 z"
       id="path16"
       inkscape:connector-curvature="0" /></g></svg>