<?xml version="1.0" encoding="UTF-8" standalone="no"?>
<svg
   xmlns:dc="http://purl.org/dc/elements/1.1/"
   xmlns:cc="http://creativecommons.org/ns#"
   xmlns:rdf="http://www.w3.org/1999/02/22-rdf-syntax-ns#"
   xmlns:svg="http://www.w3.org/2000/svg"
   xmlns="http://www.w3.org/2000/svg"
   xmlns:sodipodi="http://sodipodi.sourceforge.net/DTD/sodipodi-0.dtd"
   xmlns:inkscape="http://www.inkscape.org/namespaces/inkscape"
   version="1.1"
   x="0px"
   y="0px"
   viewBox="0 0 90 90"
   enable-background="new 0 0 90 90"
   xml:space="preserve"
   id="svg8"
   sodipodi:docname="police jargon.svg"
   width="90"
   height="90"
   inkscape:version="0.92.5 (2060ec1f9f, 2020-04-08)"><metadata
     id="metadata14"><rdf:RDF><cc:Work
         rdf:about=""><dc:format>image/svg+xml</dc:format><dc:type
           rdf:resource="http://purl.org/dc/dcmitype/StillImage" /><dc:title></dc:title></cc:Work></rdf:RDF></metadata><defs
     id="defs12" /><sodipodi:namedview
     pagecolor="#ffffff"
     bordercolor="#666666"
     borderopacity="1"
     objecttolerance="10"
     gridtolerance="10"
     guidetolerance="10"
     inkscape:pageopacity="0"
     inkscape:pageshadow="2"
     inkscape:window-width="760"
     inkscape:window-height="480"
     id="namedview10"
     showgrid="false"
     inkscape:zoom="2.0977778"
     inkscape:cx="45"
     inkscape:cy="56.25"
     inkscape:window-x="0"
     inkscape:window-y="0"
     inkscape:window-maximized="0"
     inkscape:current-layer="svg8" /><path
     d="m 60.158,65.1855 c 0.532,0.921 2.152,1.312 3.75,1.312 v 3.667 c 0,2.297 -1.938,3.412 -3.75,3.412 -1.812,0 -3.75,-1.115 -3.75,-3.412 v -3.667 c 1.599,0 3.219,-0.391 3.75,-1.312 z m -21.714,-4.511 c 4.162,0.937 8.521,0.983 13.095,0 l -3.292,5.483 h -2.604 l 2.604,2.146 1.068,13.276 h -8.661 l 1.036,-15.505 z m 24.328,-26.792 v 3.131 c 0,6.683 -3.558,12.844 -9.343,16.188 -5.787,3.339 -12.912,3.339 -18.699,0 -5.787,-3.344 -9.354,-9.505 -9.354,-16.188 v -3.109 c 1.812,2.349 4.708,4.303 8.302,5.609 6.438,2.339 14.365,2.339 20.797,0 3.6,-1.313 6.491,-3.271 8.297,-5.631 z m -37.457,-8.364 h 37.558 c -0.032,0.525 -0.063,1.041 -0.068,1.645 -0.01,0.068 -0.021,0.131 -0.021,0.199 -0.006,0.042 -0.011,0.078 -0.011,0.121 v 0.713 H 25.377 v -0.713 c 0,-0.725 -0.021,-1.367 -0.062,-1.965 z m 18.781,-13.453 c 0.536,0.921 2.156,1.312 3.75,1.312 v 3.667 c 0,2.297 -1.932,3.412 -3.75,3.412 -1.813,0 -3.745,-1.115 -3.745,-3.412 v -3.667 c 1.599,0 3.213,-0.391 3.745,-1.312 z m -0.021,-6.583 c -1.609,0 -2.907,0.75 -4.636,1.656 -1.728,0.901 -3.76,2.057 -6.066,3.203 -4.609,2.292 -10.282,4.511 -16.5,4.511 -1.475,-0.011 -2.219,1.776 -1.172,2.817 2.604,2.604 4.432,3.672 5.234,4.563 0.4,0.443 0.63,0.817 0.828,1.578 0.197,0.766 0.317,1.927 0.317,3.673 v 0.104 c -0.475,-0.037 -0.943,0.077 -1.354,0.291 -1.244,0.657 -1.506,3.922 -0.583,7.297 0.511,1.875 1.282,3.365 2.077,4.229 0.636,5.839 3.595,11.172 8.173,14.812 h -4.225 c -0.994,0 -2,0.131 -3,0.376 -0.505,0.124 -1.005,0.275 -1.505,0.457 -0.495,0.177 -0.995,0.385 -1.484,0.62 -0.489,0.23 -0.973,0.49 -1.453,0.771 -1.432,0.844 -2.791,1.907 -4.031,3.136 -3.297,3.281 -5.713,7.854 -5.713,12.995 v 10.477 c 0,0.101 0.009,0.193 0.031,0.287 0,0.006 0,0.006 0,0.006 0,0.01 0,0.016 0.005,0.021 0.016,0.088 0.047,0.178 0.079,0.26 0.036,0.084 0.078,0.161 0.124,0.234 0.006,0.005 0.011,0.016 0.017,0.02 0.047,0.068 0.098,0.131 0.15,0.188 0.016,0.01 0.026,0.026 0.038,0.036 0,0 0.005,0 0.005,0.005 0.057,0.052 0.118,0.104 0.187,0.152 0.011,0.004 0.016,0.009 0.021,0.014 0.068,0.047 0.14,0.084 0.219,0.12 0.016,0.006 0.025,0.011 0.037,0.017 0.073,0.03 0.146,0.052 0.224,0.073 0.021,0.004 0.041,0.004 0.063,0.009 0.089,0.021 0.183,0.027 0.271,0.027 h 69.084 c 0.046,0 0.098,0 0.145,-0.005 0.047,-0.005 0.089,-0.011 0.136,-0.021 0.009,0 0.02,-0.005 0.03,-0.005 0.079,-0.02 0.156,-0.042 0.234,-0.072 0.005,-0.005 0.017,-0.005 0.021,-0.01 0,0 0,0 0.004,0 0.005,0 0.005,-0.005 0.011,-0.005 0.078,-0.036 0.152,-0.079 0.224,-0.125 0.005,0 0.01,-0.005 0.016,-0.01 0.005,0 0.005,0 0.005,0 0.068,-0.047 0.135,-0.104 0.198,-0.167 0.005,0 0.005,0 0.01,-0.004 0,0 0,-0.006 0.005,-0.006 0.063,-0.063 0.12,-0.136 0.172,-0.213 0.047,-0.073 0.088,-0.147 0.125,-0.22 0.005,-0.015 0.009,-0.031 0.021,-0.047 0.032,-0.083 0.057,-0.162 0.073,-0.244 0,-0.011 0.005,-0.016 0.005,-0.021 0.02,-0.099 0.03,-0.192 0.03,-0.292 v -10.48 c 0,-0.328 -0.01,-0.651 -0.036,-0.975 -0.328,-4.817 -3.084,-9.025 -6.563,-12.077 -3.714,-3.256 -8.261,-5.303 -12.24,-5.303 h -4.405 c 4.572,-3.635 7.525,-8.957 8.172,-14.791 0.807,-0.86 1.583,-2.36 2.104,-4.25 0.921,-3.375 0.661,-6.641 -0.584,-7.297 -0.416,-0.219 -0.896,-0.333 -1.375,-0.285 0,-0.038 0,-0.074 0,-0.109 0,-1.746 0.125,-2.907 0.323,-3.673 0.199,-0.761 0.426,-1.135 0.828,-1.578 0.802,-0.891 2.62,-1.959 5.224,-4.563 1.046,-1.036 0.308,-2.817 -1.167,-2.817 -6.213,0 -11.891,-2.219 -16.506,-4.511 -2.301,-1.146 -4.327,-2.302 -6.057,-3.203 -1.729,-0.906 -3.031,-1.656 -4.645,-1.656 z"
     id="path2"
     inkscape:connector-curvature="0" /></svg>