<?xml version="1.0" encoding="UTF-8" standalone="no"?>
<svg
   xmlns:dc="http://purl.org/dc/elements/1.1/"
   xmlns:cc="http://creativecommons.org/ns#"
   xmlns:rdf="http://www.w3.org/1999/02/22-rdf-syntax-ns#"
   xmlns:svg="http://www.w3.org/2000/svg"
   xmlns="http://www.w3.org/2000/svg"
   xmlns:sodipodi="http://sodipodi.sourceforge.net/DTD/sodipodi-0.dtd"
   xmlns:inkscape="http://www.inkscape.org/namespaces/inkscape"
   version="1.1"
   x="0px"
   y="0px"
   viewBox="0 0 24 24"
   xml:space="preserve"
   id="svg12"
   sodipodi:docname="praise.svg"
   width="24"
   height="24"
   inkscape:version="0.92.5 (2060ec1f9f, 2020-04-08)"><metadata
     id="metadata18"><rdf:RDF><cc:Work
         rdf:about=""><dc:format>image/svg+xml</dc:format><dc:type
           rdf:resource="http://purl.org/dc/dcmitype/StillImage" /><dc:title>40 -Praise Flower- (Solid)</dc:title></cc:Work></rdf:RDF></metadata><defs
     id="defs16" /><sodipodi:namedview
     pagecolor="#ffffff"
     bordercolor="#666666"
     borderopacity="1"
     objecttolerance="10"
     gridtolerance="10"
     guidetolerance="10"
     inkscape:pageopacity="0"
     inkscape:pageshadow="2"
     inkscape:window-width="760"
     inkscape:window-height="480"
     id="namedview14"
     showgrid="false"
     inkscape:zoom="8.2086957"
     inkscape:cx="12"
     inkscape:cy="14.375"
     inkscape:window-x="0"
     inkscape:window-y="0"
     inkscape:window-maximized="0"
     inkscape:current-layer="svg12" /><title
     id="title2">40 -Praise Flower- (Solid)</title><desc
     id="desc4">Created with Sketch.</desc><path
     d="M 23.7,14 C 22.6,12.5 21.3,13 19.8,13.8 L 16,16.2 c -0.3,0.1 -0.8,0.2 -1.5,0.3 0,-0.3 -0.2,-0.6 -0.4,-1 C 13.4,14.5 12.6,14 11.5,13.9 12.2,12.7 13,10.7 13,8.3 L 14.1,8.2 C 16.6,7.9 18.6,6 18.9,3.5 L 19,1.5 C 19,1.2 18.9,0.9 18.7,0.7 18.4,0.5 18.1,0.5 17.8,0.5 L 16,0.8 C 14.2,1 12.8,2 11.9,3.4 11.1,2 9.6,1 7.9,0.8 L 6.1,0.5 C 5.8,0.5 5.5,0.5 5.3,0.7 5.1,0.9 4.9,1.2 4.9,1.6 L 5,3.6 C 5.3,6.1 7.3,8 9.8,8.2 L 11,8.4 c 0,3 -1.8,5.4 -1.8,5.5 C 8.8,13.8 8.4,13.6 8,13.4 7.1,12.8 6.1,12.6 5,12.8 v -0.3 c 0,-0.6 -0.4,-1 -1,-1 H 1 c -0.6,0 -1,0.4 -1,1 v 10 c 0,0.6 0.4,1 1,1 h 3 c 0.6,0 1,-0.4 1,-1 v 0 h 3 0.2 c 0.8,0 1.6,-0.1 2.4,-0.2 l 4.9,-0.6 c 0.2,0 0.4,0 0.6,-0.1 0.6,-0.1 1.1,-0.3 1.5,-0.8 l 5.8,-4.5 c 0.7,-0.5 0.8,-1.5 0.3,-2.3 z M 3,21.5 H 2 v -8 h 1 z"
     id="path6"
     inkscape:connector-curvature="0" />
</svg>
