<?xml version="1.0" encoding="UTF-8" standalone="no"?>
<svg
   xmlns:dc="http://purl.org/dc/elements/1.1/"
   xmlns:cc="http://creativecommons.org/ns#"
   xmlns:rdf="http://www.w3.org/1999/02/22-rdf-syntax-ns#"
   xmlns:svg="http://www.w3.org/2000/svg"
   xmlns="http://www.w3.org/2000/svg"
   xmlns:sodipodi="http://sodipodi.sourceforge.net/DTD/sodipodi-0.dtd"
   xmlns:inkscape="http://www.inkscape.org/namespaces/inkscape"
   viewBox="0 0 55.28833 55.28833"
   x="0px"
   y="0px"
   version="1.1"
   id="svg18"
   sodipodi:docname="games.svg"
   width="55.28833"
   height="55.28833"
   inkscape:version="0.92.5 (2060ec1f9f, 2020-04-08)">
  <metadata
     id="metadata24">
    <rdf:RDF>
      <cc:Work
         rdf:about="">
        <dc:format>image/svg+xml</dc:format>
        <dc:type
           rdf:resource="http://purl.org/dc/dcmitype/StillImage" />
        <dc:title></dc:title>
      </cc:Work>
    </rdf:RDF>
  </metadata>
  <defs
     id="defs22" />
  <sodipodi:namedview
     pagecolor="#ffffff"
     bordercolor="#666666"
     borderopacity="1"
     objecttolerance="10"
     gridtolerance="10"
     guidetolerance="10"
     inkscape:pageopacity="0"
     inkscape:pageshadow="2"
     inkscape:window-width="760"
     inkscape:window-height="480"
     id="namedview20"
     showgrid="false"
     inkscape:zoom="2.95"
     inkscape:cx="28.002697"
     inkscape:cy="19.092435"
     inkscape:window-x="0"
     inkscape:window-y="0"
     inkscape:window-maximized="0"
     inkscape:current-layer="svg18" />
  <g
     id="g12"
     transform="translate(-3.9973018,-4.4020524)">
    <path
       d="M 40.174,17.416 A 1.869,1.869 0 0 0 37.885,17.372 L 36.2,18.638 a 1.985,1.985 0 0 1 -2.4,0 l -1.687,-1.265 a 1.858,1.858 0 0 0 -2.6,2.6 9.918,9.918 0 0 0 2.839,2.559 L 35,24.12 37.589,22.566 a 10.269,10.269 0 0 0 2.94,-2.649 1.785,1.785 0 0 0 -0.355,-2.5 z"
       id="path2"
       inkscape:connector-curvature="0" />
    <path
       d="M 24.352,44 A 3.014,3.014 0 0 1 21.606,42.213 L 11.5,19.42 4.275,27.028 a 1,1 0 0 0 0.034,1.417 l 20.309,19.28 a 1,1 0 0 0 1.417,-0.034 l 6.8,-7.175 -7.274,3.228 A 2.967,2.967 0 0 1 24.352,44 Z M 7.864,29.062 6.414,27.685 7.791,26.233 9.241,27.61 Z"
       id="path4"
       inkscape:connector-curvature="0" />
    <path
       d="M 23,34 V 9.876 l -10.4,4.608 a 1.01,1.01 0 0 0 -0.533,0.56 0.993,0.993 0 0 0 0.02,0.759 l 0.64,1.428 10.707,24.169 a 1.009,1.009 0 0 0 0.557,0.532 0.992,0.992 0 0 0 0.762,-0.019 L 35.83,37 H 26 a 3,3 0 0 1 -3,-3 z m -7.869,-16.261 -0.811,-1.828 1.828,-0.81 0.811,1.828 z"
       id="path6"
       inkscape:connector-curvature="0" />
    <path
       d="M 44,5 H 26 a 1,1 0 0 0 -1,1 v 28 a 1,1 0 0 0 1,1 h 18 a 1,1 0 0 0 1,-1 V 6 A 1,1 0 0 0 44,5 Z M 27,7 h 2 v 2 h -2 z m 8.515,19.144 a 1,1 0 0 1 -1.03,0 l -3.162,-1.9 a 11.919,11.919 0 0 1 -3.409,-3.074 3.857,3.857 0 0 1 5.4,-5.4 L 35,17.036 v 0 l 1.683,-1.266 a 3.9,3.9 0 0 1 6.166,2.54 3.765,3.765 0 0 1 -0.722,2.807 12.285,12.285 0 0 1 -3.511,3.163 z M 43,33 h -2 v -2 h 2 z"
       id="path8"
       inkscape:connector-curvature="0" />
    <path
       d="M 50,40.09 A 6.008,6.008 0 0 1 54.91,45 H 52.858 A 3.991,3.991 0 0 0 50,42.142 Z m 0.9,5.371 a 7.914,7.914 0 0 0 -2.221,1.094 8.055,8.055 0 0 0 -1.257,-1.782 1.978,1.978 0 0 1 3.478,0.688 z M 48,40.09 v 2.048 A 3.988,3.988 0 0 0 45.891,43.494 7.85,7.85 0 0 0 44.049,42.621 5.983,5.983 0 0 1 48,40.09 Z M 37.445,54.546 a 6,6 0 0 1 -1.313,-6.817 l 1.7,1.153 a 4,4 0 0 0 0.762,3.97 z m -0.19,-8.471 a 5.906,5.906 0 0 1 6.817,-1.3 l -1.148,1.693 a 4,4 0 0 0 -3.97,0.762 z m 5.986,5.267 a 2,2 0 1 1 -0.533,-2.778 2,2 0 0 1 0.533,2.778 z M 39.1,55.67 40.247,53.978 a 3.97,3.97 0 0 0 1.334,0.24 4.011,4.011 0 0 0 2.654,-1 l 1.108,0.745 c 0.019,0.173 0.035,0.345 0.065,0.517 0.017,0.1 0.045,0.191 0.065,0.287 A 5.964,5.964 0 0 1 39.1,55.67 Z m 7.633,-7.17 a 7.976,7.976 0 0 0 -1.3,3.107 l -0.086,-0.058 a 4,4 0 0 0 -0.764,-3.964 l 1.149,-1.7 a 6.048,6.048 0 0 1 1.413,2.084 C 47,48.146 46.861,48.319 46.733,48.5 Z m 2.36,8.859 a 5.949,5.949 0 0 1 -1.222,-6.842 l 1.682,1.183 a 4,4 0 0 0 0.706,3.988 z m -0.068,-8.475 a 5.95,5.95 0 0 1 6.834,-1.212 l -1.178,1.683 a 4,4 0 0 0 -3.981,0.7 z m 5.9,5.352 a 2,2 0 1 1 -0.491,-2.786 1.986,1.986 0 0 1 0.491,2.788 z M 54.328,59 a 5.938,5.938 0 0 1 -3.6,-0.486 L 51.9,56.832 a 3.944,3.944 0 0 0 1.381,0.26 4.073,4.073 0 0 0 0.7,-0.062 3.968,3.968 0 0 0 1.893,-0.907 L 57.548,57.3 A 5.943,5.943 0 0 1 54.328,59 Z M 58.7,55.662 57.02,54.484 a 3.993,3.993 0 0 0 -0.7,-3.98 l 1.172,-1.675 a 5.952,5.952 0 0 1 1.208,6.833 z"
       id="path10"
       inkscape:connector-curvature="0" />
  </g>
</svg>
