<?xml version="1.0" encoding="UTF-8" standalone="no"?>
<svg
   xmlns:dc="http://purl.org/dc/elements/1.1/"
   xmlns:cc="http://creativecommons.org/ns#"
   xmlns:rdf="http://www.w3.org/1999/02/22-rdf-syntax-ns#"
   xmlns:svg="http://www.w3.org/2000/svg"
   xmlns="http://www.w3.org/2000/svg"
   xmlns:sodipodi="http://sodipodi.sourceforge.net/DTD/sodipodi-0.dtd"
   xmlns:inkscape="http://www.inkscape.org/namespaces/inkscape"
   version="1.1"
   x="0px"
   y="0px"
   viewBox="0 0 84.001167 84.001168"
   enable-background="new 0 0 100 100"
   xml:space="preserve"
   id="svg12"
   sodipodi:docname="spy.svg"
   width="84.001167"
   height="84.001167"
   inkscape:version="0.92.5 (2060ec1f9f, 2020-04-08)"><metadata
     id="metadata18"><rdf:RDF><cc:Work
         rdf:about=""><dc:format>image/svg+xml</dc:format><dc:type
           rdf:resource="http://purl.org/dc/dcmitype/StillImage" /><dc:title></dc:title></cc:Work></rdf:RDF></metadata><defs
     id="defs16" /><sodipodi:namedview
     pagecolor="#ffffff"
     bordercolor="#666666"
     borderopacity="1"
     objecttolerance="10"
     gridtolerance="10"
     guidetolerance="10"
     inkscape:pageopacity="0"
     inkscape:pageshadow="2"
     inkscape:window-width="760"
     inkscape:window-height="480"
     id="namedview14"
     showgrid="false"
     inkscape:zoom="1.888"
     inkscape:cx="41.999996"
     inkscape:cy="26.5"
     inkscape:window-x="0"
     inkscape:window-y="0"
     inkscape:window-maximized="0"
     inkscape:current-layer="svg12" /><path
     d="m 13.656996,36.001398 8.008,-26.879999 c 0.958,-2.6950004 2.938,-4.6770004 5.484,-5.5900003 2.546,-0.913 5.341,-0.642 7.667,0.7509999 4.427,2.653 9.932,2.653 14.364,0.003 2.323,-1.3929999 5.124,-1.6669999 7.67,-0.7539999 2.546,0.9129999 4.526,2.8949999 5.435,5.4380003 0.05,0.133 0.088,0.27 0.114,0.409 l 5.437,26.622999 z"
     id="path2"
     inkscape:connector-curvature="0" /><path
     d="m 83.891996,51.802398 c -0.361,1.299 -1.544,2.199 -2.892,2.199 H 2.9999955 c -1.292,0 -2.438,-0.826 -2.845,-2.051 -0.41,-1.226 0.012,-2.574 1.046,-3.349 l 8.799,-6.6 H 71.831996 l 10.713,6.428 c 1.156,0.692 1.707,2.073 1.347,3.373 z"
     id="path4"
     inkscape:connector-curvature="0" /><path
     d="m 71.999996,60.001398 h -60 c -1.657,0 -3.0000005,1.343 -3.0000005,3 v 9 c 0,4.971 4.0290005,9 9.0000005,9 h 12 c 2.832,0 5.499,-1.333 7.198,-3.599 l 3.601,-4.801 c 0.392,-0.523 0.92,-0.6 1.201,-0.6 0.281,0 0.809,0.078 1.201,0.601 l 3.597,4.797 c 1.7,2.267 4.368,3.602 7.202,3.602 h 12 c 4.971,0 9,-4.029 9,-9 v -9 c 0,-1.657 -1.343,-3 -3,-3 z"
     id="path6"
     inkscape:connector-curvature="0" /></svg>