<?xml version="1.0" encoding="UTF-8" standalone="no"?>
<svg
   xmlns:dc="http://purl.org/dc/elements/1.1/"
   xmlns:cc="http://creativecommons.org/ns#"
   xmlns:rdf="http://www.w3.org/1999/02/22-rdf-syntax-ns#"
   xmlns:svg="http://www.w3.org/2000/svg"
   xmlns="http://www.w3.org/2000/svg"
   xmlns:sodipodi="http://sodipodi.sourceforge.net/DTD/sodipodi-0.dtd"
   xmlns:inkscape="http://www.inkscape.org/namespaces/inkscape"
   version="1.1"
   x="0px"
   y="0px"
   viewBox="0 0 247.895 247.89501"
   xml:space="preserve"
   id="svg24"
   sodipodi:docname="stubborn.svg"
   width="247.895"
   height="247.895"
   inkscape:version="0.92.5 (2060ec1f9f, 2020-04-08)"><metadata
     id="metadata30"><rdf:RDF><cc:Work
         rdf:about=""><dc:format>image/svg+xml</dc:format><dc:type
           rdf:resource="http://purl.org/dc/dcmitype/StillImage" /><dc:title></dc:title></cc:Work></rdf:RDF></metadata><defs
     id="defs28" /><sodipodi:namedview
     pagecolor="#ffffff"
     bordercolor="#666666"
     borderopacity="1"
     objecttolerance="10"
     gridtolerance="10"
     guidetolerance="10"
     inkscape:pageopacity="0"
     inkscape:pageshadow="2"
     inkscape:window-width="760"
     inkscape:window-height="480"
     id="namedview26"
     showgrid="false"
     inkscape:zoom="0.76160972"
     inkscape:cx="50.007"
     inkscape:cy="92.960002"
     inkscape:window-x="0"
     inkscape:window-y="0"
     inkscape:window-maximized="0"
     inkscape:current-layer="svg24" /><g
     id="g18"
     transform="translate(73.940502,-8.5449218e-6)"><path
       d="m 78.836,90.02 c 2.816,7.813 5.189,20.631 5.178,40.637 0.002,5.518 -0.174,11.572 -0.564,18.229 -0.258,4.41 3.111,8.195 7.525,8.453 0.156,0.008 0.313,0.012 0.469,0.012 4.207,0.002 7.734,-3.279 7.984,-7.537 0.4,-6.934 0.586,-13.297 0.586,-19.156 C 99.975,100.476 95.155,83.771 88.58,73.726 85.295,68.74 81.455,65.542 77.904,63.773 75.582,62.601 73.453,62.052 71.758,61.808 70.992,61.556 70.178,61.413 69.328,61.413 H 30.693 c -0.85,0 -1.666,0.143 -2.432,0.395 -1.695,0.244 -3.824,0.795 -6.149,1.965 -5.377,2.666 -11.18,8.504 -15.236,18.84 C 2.771,92.99 0.014,107.998 0,130.656 c 0.002,5.857 0.189,12.225 0.596,19.16 0.25,4.252 3.775,7.533 7.98,7.533 0.158,0 0.316,-0.006 0.477,-0.016 4.41,-0.258 7.775,-4.045 7.516,-8.453 C 16.178,142.229 16,136.172 16,130.656 c -0.033,-24.215 3.498,-37.82 6.965,-44.92 v 32.857 18.939 98 c 0,6.83 5.537,12.363 12.363,12.363 6.828,0 12.365,-5.533 12.365,-12.363 v -90.271 h 4.635 v 90.271 c 0,6.83 5.537,12.363 12.363,12.363 6.828,0 12.365,-5.533 12.365,-12.363 v -98 -18.939 -32.808 c 0.592,1.215 1.19,2.61 1.78,4.235 z"
       id="path2"
       inkscape:connector-curvature="0" /><rect
       x="18.011999"
       y="38"
       width="30"
       height="15"
       id="rect4" /><rect
       x="52.012001"
       y="38"
       width="30"
       height="15"
       id="rect6" /><rect
       x="18.011999"
       width="30"
       height="15"
       id="rect8"
       y="0" /><rect
       x="52.012001"
       width="30"
       height="15"
       id="rect10"
       y="0" /><rect
       x="18.011999"
       y="19"
       width="13"
       height="15"
       id="rect12" /><rect
       x="35.012001"
       y="19"
       width="30"
       height="15"
       id="rect14" /><rect
       x="69.012001"
       y="19"
       width="13"
       height="15"
       id="rect16" /></g></svg>