<?xml version="1.0" encoding="UTF-8" standalone="no"?>
<svg
   xmlns:dc="http://purl.org/dc/elements/1.1/"
   xmlns:cc="http://creativecommons.org/ns#"
   xmlns:rdf="http://www.w3.org/1999/02/22-rdf-syntax-ns#"
   xmlns:svg="http://www.w3.org/2000/svg"
   xmlns="http://www.w3.org/2000/svg"
   xmlns:sodipodi="http://sodipodi.sourceforge.net/DTD/sodipodi-0.dtd"
   xmlns:inkscape="http://www.inkscape.org/namespaces/inkscape"
   version="1.1"
   x="0px"
   y="0px"
   viewBox="0 0 65 65"
   enable-background="new 0 0 65 65"
   xml:space="preserve"
   id="svg28"
   sodipodi:docname="text analyst.svg"
   width="65"
   height="65"
   inkscape:version="0.92.5 (2060ec1f9f, 2020-04-08)"><metadata
     id="metadata34"><rdf:RDF><cc:Work
         rdf:about=""><dc:format>image/svg+xml</dc:format><dc:type
           rdf:resource="http://purl.org/dc/dcmitype/StillImage" /><dc:title></dc:title></cc:Work></rdf:RDF></metadata><defs
     id="defs32" /><sodipodi:namedview
     pagecolor="#ffffff"
     bordercolor="#666666"
     borderopacity="1"
     objecttolerance="10"
     gridtolerance="10"
     guidetolerance="10"
     inkscape:pageopacity="0"
     inkscape:pageshadow="2"
     inkscape:window-width="760"
     inkscape:window-height="480"
     id="namedview30"
     showgrid="false"
     inkscape:zoom="2.9046154"
     inkscape:cx="32.5"
     inkscape:cy="40.625"
     inkscape:window-x="0"
     inkscape:window-y="0"
     inkscape:window-maximized="0"
     inkscape:current-layer="svg28" /><g
     id="g22"><g
       id="g12"><path
         d="M 26.7,1.5 H 1.1 C 0.7,1.5 0.3,1.8 0.3,2.3 V 42.4 H 31.7 V 3.9 c -1.2,-1.5 -3,-2.4 -5,-2.4 z m -1.4,37.1 h -17 v -1.5 h 17 z M 28,32.7 H 5.7 V 31.2 H 28 Z m -19.7,-6 v -1.5 h 17 v 1.5 z M 28,20.8 H 5.7 V 19.3 H 28 Z m -19.7,-6 v -1.5 h 17 v 1.5 z M 28,8.9 H 5.7 V 7.4 H 28 Z"
         id="path2"
         inkscape:connector-curvature="0" /><path
         d="M 63.9,1.5 H 38.3 c -2,0 -3.8,0.9 -5,2.4 v 38.5 h 2.1 c -1.1,-2 -1.6,-4.3 -1.6,-6.6 0,-8 6.5,-14.4 14.4,-14.4 7.9,0 14.4,6.5 14.4,14.4 0,2.3 -0.6,4.6 -1.6,6.6 h 3.6 V 2.2 C 64.6,1.8 64.3,1.5 63.9,1.5 Z M 59.3,20.8 H 37 v -1.5 h 22.3 z m -19.6,-6 v -1.5 h 17 v 1.5 z M 59.3,8.9 H 37 V 7.4 h 22.3 z"
         id="path4"
         inkscape:connector-curvature="0" /><path
         d="m 0.4,49.8 c 0,0.4 0.3,0.8 0.8,0.8 h 27.4 c 1.3,0 2.4,0.8 2.9,1.9 0.1,0.1 0.3,0.1 0.3,-0.1 V 43.9 H 0.4 Z"
         id="path6"
         inkscape:connector-curvature="0" /><path
         d="m 43.7,49.4 v 1.1 h -7.2 c -1.3,0 -2.4,0.8 -2.9,1.9 -0.1,0.1 -0.3,0.1 -0.3,-0.1 v -8.5 h 3 c 0.2,0.2 0.3,0.5 0.5,0.7 1.8,2.3 4.2,4 6.9,4.9 z"
         id="path8"
         inkscape:connector-curvature="0" /><path
         d="m 64.6,43.8 v 5.9 c 0,0.4 -0.3,0.8 -0.8,0.8 H 52.7 v -1.1 c 2.7,-0.9 5.1,-2.6 6.9,-4.9 0.2,-0.2 0.3,-0.5 0.5,-0.7 z"
         id="path10"
         inkscape:connector-curvature="0" /></g><g
       id="g16"><path
         d="m 48.2,48.7 c -0.8,0 -1.5,-0.1 -2.4,-0.2 -3.1,-0.6 -5.9,-2.3 -7.9,-4.8 -1.8,-2.3 -2.7,-5 -2.7,-7.9 0,-7.1 5.8,-12.9 12.9,-12.9 7.1,0 12.9,5.8 12.9,12.9 0,2.8 -1,5.6 -2.7,7.9 -1.9,2.5 -4.7,4.2 -7.9,4.8 -0.7,0.1 -1.4,0.2 -2.2,0.2 z m 0,-22.6 c -5.3,0 -9.7,4.3 -9.7,9.7 0,2.1 0.7,4.2 2,5.9 1.5,1.9 3.6,3.2 5.9,3.6 1.3,0.2 2.3,0.2 3.6,0 2.3,-0.4 4.4,-1.7 5.9,-3.6 1.3,-1.7 2,-3.8 2,-5.9 0,-5.4 -4.4,-9.7 -9.7,-9.7 z"
         id="path14"
         inkscape:connector-curvature="0" /></g><g
       id="g20"><path
         d="m 48.2,63.5 v 0 c -2.3,0 -4.1,-2 -3.8,-4.2 l 0.8,-7.7 v -1.8 c 0.1,0 0.2,0.1 0.4,0.1 0.9,0.2 1.8,0.2 2.6,0.2 0.8,0 1.7,-0.1 2.6,-0.3 0.1,0 0.2,0 0.3,-0.1 v 1.9 l 0.8,7.6 c 0.3,2.3 -1.4,4.3 -3.7,4.3 z"
         id="path18"
         inkscape:connector-curvature="0" /></g></g></svg>