<?xml version="1.0" encoding="UTF-8" standalone="no"?>
<svg
   xmlns:dc="http://purl.org/dc/elements/1.1/"
   xmlns:cc="http://creativecommons.org/ns#"
   xmlns:rdf="http://www.w3.org/1999/02/22-rdf-syntax-ns#"
   xmlns:svg="http://www.w3.org/2000/svg"
   xmlns="http://www.w3.org/2000/svg"
   xmlns:sodipodi="http://sodipodi.sourceforge.net/DTD/sodipodi-0.dtd"
   xmlns:inkscape="http://www.inkscape.org/namespaces/inkscape"
   viewBox="0 0 90 90.000002"
   x="0px"
   y="0px"
   version="1.1"
   id="svg16"
   sodipodi:docname="threaten.svg"
   width="90"
   height="90"
   inkscape:version="0.92.5 (2060ec1f9f, 2020-04-08)">
  <metadata
     id="metadata20">
    <rdf:RDF>
      <cc:Work
         rdf:about="">
        <dc:format>image/svg+xml</dc:format>
        <dc:type
           rdf:resource="http://purl.org/dc/dcmitype/StillImage" />
        <dc:title>Icon_Threaten</dc:title>
      </cc:Work>
    </rdf:RDF>
  </metadata>
  <sodipodi:namedview
     pagecolor="#ffffff"
     bordercolor="#666666"
     borderopacity="1"
     objecttolerance="10"
     gridtolerance="10"
     guidetolerance="10"
     inkscape:pageopacity="0"
     inkscape:pageshadow="2"
     inkscape:window-width="760"
     inkscape:window-height="480"
     id="namedview18"
     showgrid="false"
     inkscape:zoom="2.6138724"
     inkscape:cx="45"
     inkscape:cy="45.143749"
     inkscape:window-x="0"
     inkscape:window-y="0"
     inkscape:window-maximized="0"
     inkscape:current-layer="svg16" />
  <defs
     id="defs4">
    <style
       id="style2">.cls-1{fill-rule:evenodd;}</style>
  </defs>
  <title
     id="title6">Icon_Threaten</title>
  <g
     id="g10"
     transform="translate(0,8.8709566)">
    <path
       class="cls-1"
       d="m 83.69,73.77 -5.4,-3.19 c 0,0 6,-15.78 6.28,-18.72 0.28,-2.94 -12.88,-8 -12.88,-8 l 8.08,42.3 H 51.32 c 0,0 2.31,-11 -0.39,-16.49 -2.7,-5.49 -11,-14.46 -11,-14.46 L 11,60.35 8.61,31.48 6.07,29.06 c 0,0 -0.82,-5.5 -1.07,-6.47 -0.25,-0.97 2,-4.59 3.76,-5.66 1.76,-1.07 3.15,-1.74 3.15,-1.74 l 5.09,2.72 -0.47,2.29 2.7,2.22 -3.63,8.26 -2,0.75 5.46,17.69 c 0,0 12.34,-2.19 16.41,-6.35 a 11.9,11.9 0 0 1 1.13,-1 15.62,15.62 0 0 0 14.9,-7.57 c 3.75,-1.55 6.87,-2.69 7.67,-2.93 2,-0.63 10.89,-0.16 15.79,1.89 2.87,1.2 19.41,13.34 20,15.15 0.59,1.81 -11.27,25.46 -11.27,25.46 z M 39.38,39.23 A 12.71,12.71 0 1 1 50.92,25.28 12.84,12.84 0 0 1 39.38,39.23 Z"
       transform="translate(-5,-13.88)"
       id="path8"
       inkscape:connector-curvature="0"
       style="fill-rule:evenodd" />
  </g>
</svg>
