<?xml version="1.0" encoding="UTF-8" standalone="no"?>
<svg
   xmlns:dc="http://purl.org/dc/elements/1.1/"
   xmlns:cc="http://creativecommons.org/ns#"
   xmlns:rdf="http://www.w3.org/1999/02/22-rdf-syntax-ns#"
   xmlns:svg="http://www.w3.org/2000/svg"
   xmlns="http://www.w3.org/2000/svg"
   xmlns:sodipodi="http://sodipodi.sourceforge.net/DTD/sodipodi-0.dtd"
   xmlns:inkscape="http://www.inkscape.org/namespaces/inkscape"
   viewBox="0 0 128 128"
   x="0px"
   y="0px"
   version="1.1"
   id="svg18"
   sodipodi:docname="trickster.svg"
   width="128"
   height="128"
   inkscape:version="0.92.5 (2060ec1f9f, 2020-04-08)">
  <metadata
     id="metadata24">
    <rdf:RDF>
      <cc:Work
         rdf:about="">
        <dc:format>image/svg+xml</dc:format>
        <dc:type
           rdf:resource="http://purl.org/dc/dcmitype/StillImage" />
        <dc:title>Pathological, Liar, mental health, disorder, mental illness, overact, talk</dc:title>
      </cc:Work>
    </rdf:RDF>
  </metadata>
  <defs
     id="defs22" />
  <sodipodi:namedview
     pagecolor="#ffffff"
     bordercolor="#666666"
     borderopacity="1"
     objecttolerance="10"
     gridtolerance="10"
     guidetolerance="10"
     inkscape:pageopacity="0"
     inkscape:pageshadow="2"
     inkscape:window-width="760"
     inkscape:window-height="480"
     id="namedview20"
     showgrid="false"
     inkscape:zoom="1.475"
     inkscape:cx="64"
     inkscape:cy="80"
     inkscape:window-x="0"
     inkscape:window-y="0"
     inkscape:window-maximized="0"
     inkscape:current-layer="svg18" />
  <title
     id="title2">Pathological, Liar, mental health, disorder, mental illness, overact, talk</title>
  <g
     data-name="Layer 5"
     id="g12"
     transform="translate(0,-0.34355014)">
    <path
       d="m 108.918,94.26 c -0.24,-3.782 0.9,-9 3.218,-12 9.227,-11.972 13.318,-22.344 11.386,-35.11 C 120.392,26.462 105.782,15.504 85.58,14.467 63.5,13.32 44.6,27.5 45.2,47.059 c 0.08,2.582 0.532,6.383 0.522,8.867 -0.021,8.822 -7.655,12.447 -7.8,15.255 -0.241,4.61 5.175,3.17 7.085,9.693 2.425,8.28 -1.051,17.724 10.234,17.14 4.5,-0.181 11.82,-1.929 14.956,0.987 2,1.86 3.609,9.973 4.238,13.564 a 2.079,2.079 0 0 0 2.053,1.72 h 33.885 a 2.082,2.082 0 0 0 2.006,-2.66 c -1.127,-3.88 -3.079,-11.292 -3.461,-17.365 z M 84.805,75.67 A 24.669,24.669 0 1 1 109.474,51 24.669,24.669 0 0 1 84.805,75.67 Z"
       id="path4"
       inkscape:connector-curvature="0" />
    <path
       d="m 97.812,53.149 a 0.931,0.931 0 0 1 -0.341,-1.26 5.266,5.266 0 0 0 0.585,-1.846 c 0.215,-1.711 -1.24,-4.461 -4.851,-6.1 -6.554,-3.492 -2.671,-9.338 -5.421,-10.225 -2.208,-0.712 -8.226,4.439 -7.865,8.26 A 0.968,0.968 0 0 1 79.2,43.036 c -5.389,1.355 -7.9,4.963 -7.646,7.009 a 5.342,5.342 0 0 0 0.577,1.849 0.931,0.931 0 0 1 -0.343,1.255 6.52,6.52 0 0 0 -3.513,5.351 c 0,4.538 7.4,8.188 16.53,8.188 9.13,0 16.53,-3.65 16.53,-8.188 a 6.527,6.527 0 0 0 -3.523,-5.351 z"
       id="path6"
       inkscape:connector-curvature="0" />
    <path
       d="M 37.019,49 A 2.644,2.644 0 0 0 36.351,47.395 L 30.77,41.171 a 3.141,3.141 0 0 0 -2.462,-1.2 H 16.454 a 3.139,3.139 0 0 0 -2.462,1.2 L 8.411,47.4 A 2.645,2.645 0 0 0 7.743,49 v 0.011 0.006 A 2.642,2.642 0 0 0 8.56,51.1 l 11.813,11.2 a 3.122,3.122 0 0 0 4.017,0 c 0.02,-0.017 0.04,-0.033 0.058,-0.051 L 36.2,51.1 a 2.64,2.64 0 0 0 0.818,-2.086 v 0 z m -8.711,-6.514 a 0.611,0.611 0 0 1 0.487,0.244 c 0.022,0.028 0.045,0.057 0.069,0.083 l 4.425,4.937 H 30.926 L 25.5,42.488 Z m -1,5.264 H 17.45 l 4.931,-4.784 z M 15.9,42.815 a 1.07,1.07 0 0 0 0.068,-0.083 0.613,0.613 0 0 1 0.488,-0.244 h 2.807 l -5.425,5.264 h -2.366 z m -4.559,7.455 h 2.309 l 3.407,5.42 z m 11.04,9.16 -5.758,-9.16 H 28.139 Z M 27.7,55.693 31.109,50.27 h 2.309 z"
       id="path8"
       inkscape:connector-curvature="0" />
    <path
       d="m 35.623,71.8 c -0.95,0 -3.067,-0.58 -8.8,-2.864 a 19.114,19.114 0 1 1 7.933,-4.015 26.335,26.335 0 0 1 2.227,5.391 1.4,1.4 0 0 1 -0.517,1.2 1.182,1.182 0 0 1 -0.843,0.288 z m -8.708,-5.442 a 1.254,1.254 0 0 1 0.468,0.091 c 2.217,0.887 4.758,1.832 6.436,2.377 -0.477,-1.081 -1.141,-2.463 -1.762,-3.672 A 1.259,1.259 0 0 1 32.416,63.575 16.623,16.623 0 1 0 26.6,66.4 1.28,1.28 0 0 1 26.915,66.358 Z"
       id="path10"
       inkscape:connector-curvature="0" />
  </g>
</svg>
