<?xml version="1.0" encoding="UTF-8" standalone="no"?>
<svg
   xmlns:dc="http://purl.org/dc/elements/1.1/"
   xmlns:cc="http://creativecommons.org/ns#"
   xmlns:rdf="http://www.w3.org/1999/02/22-rdf-syntax-ns#"
   xmlns:svg="http://www.w3.org/2000/svg"
   xmlns="http://www.w3.org/2000/svg"
   xmlns:sodipodi="http://sodipodi.sourceforge.net/DTD/sodipodi-0.dtd"
   xmlns:inkscape="http://www.inkscape.org/namespaces/inkscape"
   version="1.1"
   x="0px"
   y="0px"
   viewBox="0 0 64 64"
   xml:space="preserve"
   id="svg58"
   sodipodi:docname="trivialities.svg"
   width="64"
   height="64"
   inkscape:version="0.92.5 (2060ec1f9f, 2020-04-08)"><metadata
     id="metadata64"><rdf:RDF><cc:Work
         rdf:about=""><dc:format>image/svg+xml</dc:format><dc:type
           rdf:resource="http://purl.org/dc/dcmitype/StillImage" /><dc:title></dc:title></cc:Work></rdf:RDF></metadata><defs
     id="defs62" /><sodipodi:namedview
     pagecolor="#ffffff"
     bordercolor="#666666"
     borderopacity="1"
     objecttolerance="10"
     gridtolerance="10"
     guidetolerance="10"
     inkscape:pageopacity="0"
     inkscape:pageshadow="2"
     inkscape:window-width="760"
     inkscape:window-height="480"
     id="namedview60"
     showgrid="false"
     inkscape:zoom="2.95"
     inkscape:cx="31.905085"
     inkscape:cy="40"
     inkscape:window-x="0"
     inkscape:window-y="0"
     inkscape:window-maximized="0"
     inkscape:current-layer="svg58" /><g
     id="g52"
     transform="translate(0,0.68246885)"><path
       d="m 27.304,20 h 2.609 l -0.5,-6 H 28 c -1.654,0 -3,-1.346 -3,-3 0,-1.654 1.346,-3 3,-3 h 0.16 c 1.548,0 2.861,1.208 2.99,2.751 L 31.253,12 h 1.493 L 32.85,10.751 C 32.979,9.208 34.292,8 35.84,8 H 36 c 1.654,0 3,1.346 3,3 0,1.654 -1.346,3 -3,3 h -1.413 l -0.5,6 h 2.609 C 39.275,18.396 41,15.222 41,12 41,7.037 36.962,3 32,3 c -4.962,0 -9,4.037 -9,9 0,3.222 1.725,6.396 4.304,8 z"
       id="path2"
       inkscape:connector-curvature="0" /><path
       d="m 30,26 v 0.667 c 0,0.544 -0.152,1.058 -0.413,1.506 L 32,30.586 34.413,28.173 C 34.152,27.725 34,27.211 34,26.667 V 26 Z"
       id="path4"
       inkscape:connector-curvature="0" /><path
       d="m 27.924,37 h 8.267 c 0.437,-2.364 1.631,-4.46 3.323,-6.036 L 35.94,29.475 32,33.414 l -3.939,-3.94 -3.233,1.348 c 1.678,1.599 2.812,3.758 3.096,6.178 z"
       id="path6"
       inkscape:connector-curvature="0" /><path
       d="m 37,11 c 0,-0.552 -0.449,-1 -1,-1 h -0.16 c -0.516,0 -0.954,0.402 -0.997,0.917 L 34.753,12 H 36 c 0.551,0 1,-0.448 1,-1 z"
       id="path8"
       inkscape:connector-curvature="0" /><rect
       x="28"
       y="22"
       width="8"
       height="2"
       id="rect10" /><path
       d="M 38,39 V 53.417 L 42.384,51.59 C 42.758,51.434 43,51.071 43,50.667 v -0.951 c -1.873,-1.801 -3,-4.317 -3,-7.041 v -4.396 l 7,-2.333 7,2.333 v 4.396 c 0,2.724 -1.127,5.239 -3,7.041 v 0.951 c 0,0.404 0.242,0.767 0.615,0.923 L 56,53.417 V 39 c 0,-4.963 -4.038,-9 -9,-9 -4.962,0 -9,4.037 -9,9 z"
       id="path12"
       inkscape:connector-curvature="0" /><path
       d="m 43.618,55 h 6.764 l 0.727,-1.455 -0.263,-0.11 c -0.963,-0.401 -1.63,-1.26 -1.8,-2.264 -0.544,0.308 -1.119,0.573 -1.73,0.777 L 47,52.054 46.684,51.949 c -0.61,-0.203 -1.185,-0.469 -1.73,-0.777 -0.17,1.004 -0.837,1.863 -1.801,2.264 l -0.263,0.109 z"
       id="path14"
       inkscape:connector-curvature="0" /><path
       d="m 52,42.676 v -2.955 l -5,-1.667 -5,1.667 v 2.955 c 0,3.239 1.996,6.116 5,7.263 3.004,-1.147 5,-4.024 5,-7.263 z"
       id="path16"
       inkscape:connector-curvature="0" /><polygon
       points="32.08,20 32.58,14 31.42,14 31.92,20 "
       id="polygon18" /><path
       d="M 28.16,10 H 28 c -0.551,0 -1,0.448 -1,1 0,0.552 0.449,1 1,1 h 1.247 l -0.09,-1.083 C 29.113,10.402 28.676,10 28.16,10 Z"
       id="path20"
       inkscape:connector-curvature="0" /><path
       d="M 10.822,46.592 C 10.293,45.383 10,44.057 10,42.676 V 38 h 2.171 c 1.557,0 3.021,-0.606 4.122,-1.707 L 17,35.586 17.707,36.293 C 18.808,37.394 20.272,38 21.829,38 H 24 v 4.676 c 0,1.381 -0.293,2.707 -0.822,3.916 C 24.898,45.305 26,43.272 26,41 V 38.192 C 26,33.675 22.325,30 17.808,30 c -2.188,0 -4.245,0.853 -5.793,2.399 l -0.503,0.504 -0.269,0.066 C 9.333,33.447 8,35.155 8,37.123 V 41 c 0,2.273 1.102,4.306 2.822,5.592 z"
       id="path22"
       inkscape:connector-curvature="0" /><path
       d="m 27,56 -3.667,-1.528 -1.771,6.2 L 17,57.25 12.437,60.672 10.666,54.472 7,56 C 4.883,56.882 3.418,58.783 3.077,61 H 30.924 C 30.582,58.783 29.117,56.882 27,56 Z"
       id="path24"
       inkscape:connector-curvature="0" /><path
       d="m 37,56 c -2.117,0.882 -3.582,2.783 -3.923,5 H 44.382 L 41.04,54.316 Z"
       id="path26"
       inkscape:connector-curvature="0" /><path
       d="M 57,56 52.959,54.316 49.618,61 H 60.923 C 60.582,58.783 59.117,56.882 57,56 Z"
       id="path28"
       inkscape:connector-curvature="0" /><polygon
       points="44.618,57 46.618,61 47.382,61 49.382,57 "
       id="polygon30" /><polygon
       points="20.437,57.328 21.475,53.698 20.939,53.474 18.522,55.892 "
       id="polygon32" /><path
       d="M 22,40 H 21.829 C 20.056,40 18.373,39.414 17,38.335 15.627,39.414 13.944,40 12.171,40 H 12 v 2.676 c 0,3.239 1.996,6.116 5,7.263 3.004,-1.146 5,-4.023 5,-7.263 z"
       id="path34"
       inkscape:connector-curvature="0" /><polygon
       points="13.061,53.474 12.525,53.697 13.562,57.328 15.478,55.892 "
       id="polygon36" /><path
       d="m 19.413,52.173 c -0.179,-0.307 -0.306,-0.643 -0.367,-1.001 -0.544,0.308 -1.119,0.573 -1.73,0.777 L 17,52.054 16.684,51.949 c -0.61,-0.203 -1.185,-0.469 -1.73,-0.777 -0.061,0.358 -0.188,0.695 -0.367,1.001 L 17,54.586 Z"
       id="path38"
       inkscape:connector-curvature="0" /><rect
       x="45"
       y="11"
       width="6"
       height="2"
       id="rect40" /><rect
       x="42.855999"
       y="3"
       transform="matrix(0.8661,-0.4999,0.4999,0.8661,4.1418,23.4603)"
       width="6"
       height="2"
       id="rect42" /><rect
       x="17.143"
       y="1"
       transform="matrix(0.5,-0.866,0.866,0.5,5.6078,17.7129)"
       width="2"
       height="6"
       id="rect44" /><rect
       x="13"
       y="11"
       width="6"
       height="2"
       id="rect46" /><rect
       x="15.143"
       y="19"
       transform="matrix(0.8661,-0.4999,0.4999,0.8661,-7.5685,11.7489)"
       width="6"
       height="2"
       id="rect48" /><rect
       x="44.855999"
       y="17"
       transform="matrix(0.5,-0.866,0.866,0.5,5.6081,49.7133)"
       width="2"
       height="6"
       id="rect50" /></g></svg>