<?xml version="1.0" encoding="UTF-8" standalone="no"?>
<svg
   xmlns:dc="http://purl.org/dc/elements/1.1/"
   xmlns:cc="http://creativecommons.org/ns#"
   xmlns:rdf="http://www.w3.org/1999/02/22-rdf-syntax-ns#"
   xmlns:svg="http://www.w3.org/2000/svg"
   xmlns="http://www.w3.org/2000/svg"
   xmlns:sodipodi="http://sodipodi.sourceforge.net/DTD/sodipodi-0.dtd"
   xmlns:inkscape="http://www.inkscape.org/namespaces/inkscape"
   version="1.1"
   x="0px"
   y="0px"
   viewBox="0 0 306.534 306.53401"
   xml:space="preserve"
   id="svg62"
   sodipodi:docname="underworld.svg"
   width="306.534"
   height="306.534"
   inkscape:version="0.92.5 (2060ec1f9f, 2020-04-08)"><metadata
     id="metadata68"><rdf:RDF><cc:Work
         rdf:about=""><dc:format>image/svg+xml</dc:format><dc:type
           rdf:resource="http://purl.org/dc/dcmitype/StillImage" /><dc:title></dc:title></cc:Work></rdf:RDF></metadata><defs
     id="defs66" /><sodipodi:namedview
     pagecolor="#ffffff"
     bordercolor="#666666"
     borderopacity="1"
     objecttolerance="10"
     gridtolerance="10"
     guidetolerance="10"
     inkscape:pageopacity="0"
     inkscape:pageshadow="2"
     inkscape:window-width="1920"
     inkscape:window-height="1043"
     id="namedview64"
     showgrid="false"
     inkscape:zoom="0.76548508"
     inkscape:cx="-115.52611"
     inkscape:cy="154.15062"
     inkscape:window-x="0"
     inkscape:window-y="0"
     inkscape:window-maximized="1"
     inkscape:current-layer="svg62" /><g
     id="g56"
     transform="translate(0,29.946998)"><rect
       x="87.530998"
       y="185"
       width="35.105"
       height="5"
       id="rect2" /><rect
       x="206.90199"
       y="185"
       width="21.233999"
       height="5"
       id="rect4" /><rect
       x="261.90201"
       y="185"
       width="34.666"
       height="5"
       id="rect6" /><path
       d="M 52.168,157.498 H 34.129 c -2.533,0 -4.859,-0.858 -6.689,-2.283 v 6.892 72.17 c 0,6.83 5.537,12.363 12.363,12.363 5.283,0 9.781,-3.319 11.552,-7.983 0.518,-1.363 0.814,-2.836 0.814,-4.38 v -76.779 z"
       id="path8"
       inkscape:connector-curvature="0" /><path
       d="m 56.803,234.277 c 0,6.83 5.537,12.363 12.363,12.363 6.828,0 12.365,-5.533 12.365,-12.363 v -79.061 c -1.829,1.424 -4.156,2.281 -6.689,2.281 H 56.803 Z"
       id="path10"
       inkscape:connector-curvature="0" /><path
       d="m 24.096,136.338 c -0.066,-2.483 -0.098,-4.863 -0.098,-7.143 -0.025,-11.542 0.792,-20.545 1.988,-27.481 v 45.557 c 0,4.268 3.645,7.729 8.143,7.729 h 40.713 c 4.5,0 8.144,-3.461 8.144,-7.729 v -45.546 c 1.195,6.935 2.012,15.935 1.986,27.47 0,2.279 -0.031,4.66 -0.098,7.143 -0.176,6.624 23.82,7.15 23.99,0.633 0.072,-2.684 0.107,-5.274 0.105,-7.775 C 108.951,106.207 106.18,90.739 101.811,79.673 97.512,68.668 91.028,61.884 84.655,58.736 c -3.232,-1.631 -6.209,-2.272 -8.448,-2.479 0.596,-1.968 1.158,-3.928 1.67,-5.84 1.424,-5.326 2.435,-10.253 2.524,-13.75 C 81.063,10.869 66.402,0 54.486,0 42.568,0 27.908,10.869 28.57,36.666 c 0.11,4.337 1.635,10.865 3.612,17.637 0.189,0.65 0.383,1.301 0.58,1.954 -2.238,0.207 -5.215,0.847 -8.448,2.479 -0.437,0.215 -0.873,0.452 -1.31,0.701 C 17.064,62.835 11.162,69.42 7.157,79.672 2.789,90.738 0.018,106.206 0,129.195 c 0,0.598 0.008,1.217 0.012,1.825 0.012,1.937 0.039,3.908 0.094,5.95 0.169,6.518 24.165,5.992 23.99,-0.632 z M 54.486,19.639 c 9,-10e-4 18,6.105 18,12.319 0,10.193 -5.424,23.309 -12.859,27.697 l 1.982,41.129 -1.998,0.095 -1.941,-40.298 c -1.034,0.374 -2.097,0.585 -3.184,0.585 -1.088,0 -2.15,-0.211 -3.185,-0.585 l -1.943,40.298 -1.995,-0.095 1.982,-41.129 C 41.909,55.266 36.487,42.151 36.487,31.959 36.486,25.744 45.486,19.639 54.486,19.639 Z"
       id="path12"
       inkscape:connector-curvature="0" /><path
       d="m 88.611,143.429 c -0.061,1.308 -0.129,2.631 -0.209,3.987 -0.128,2.167 0.624,4.181 1.941,5.702 1.363,1.575 3.333,2.622 5.576,2.753 0.158,0.009 0.316,0.014 0.473,0.014 4.207,0 7.733,-3.281 7.983,-7.532 0.028,-0.488 0.053,-0.965 0.079,-1.447 0.055,-1.004 0.104,-1.996 0.15,-2.976 -4.541,1.375 -11.66,1.175 -15.993,-0.501 z"
       id="path14"
       inkscape:connector-curvature="0" /><path
       d="m 24.537,156.697 -5.082,-1.797 -1.972,-0.697 c 0.417,-0.324 0.799,-0.688 1.143,-1.086 1.317,-1.52 2.069,-3.534 1.941,-5.701 -0.08,-1.356 -0.147,-2.679 -0.21,-3.986 -4.333,1.677 -11.45,1.876 -15.992,0.499 0.067,1.451 0.142,2.919 0.229,4.423 0.142,2.42 1.348,4.522 3.133,5.887 l -3.795,10.728 15.713,5.558 3.825,-10.815 z"
       id="path16"
       inkscape:connector-curvature="0" /><path
       d="m 54.484,52.459 c 8.824,0 16.002,-9.197 16.002,-20.502 0,-5.016 -8.227,-10.32 -16.002,-10.32 -7.775,0 -15.998,5.305 -15.998,10.32 0,11.305 7.178,20.502 15.998,20.502 z"
       id="path18"
       inkscape:connector-curvature="0" /><path
       d="m 144.068,158.754 c 1.492,0.687 2.934,1.439 4.535,2.658 1.803,1.372 3.301,3.235 4.541,5.362 -1.673,-1.498 -3.44,-2.968 -5.299,-4.276 -1.34,-0.936 -2.723,-1.798 -4.315,-2.533 -1.6,-0.71 -3.414,-1.402 -6,-1.434 -1.113,-0.002 -2.389,0.16 -3.701,0.635 -1.3,0.459 -2.598,1.249 -3.632,2.242 -0.003,0.002 -0.005,0.003 -0.007,0.005 v 0 c -0.007,0.007 -0.015,0.012 -0.021,0.019 -0.043,0.041 -0.079,0.086 -0.12,0.127 -1.546,1.528 -2.422,3.328 -2.886,4.91 -0.482,1.656 -0.615,3.175 -0.621,4.693 0.016,2.985 0.543,6.071 1.498,9.883 0.963,3.799 2.393,8.277 4.385,13.692 1.234,3.349 4.402,5.421 7.771,5.421 0.951,0 1.918,-0.164 2.863,-0.512 4.291,-1.582 6.488,-6.342 4.908,-10.633 -1.855,-5.029 -3.113,-9.027 -3.873,-12.033 -0.205,-0.797 -0.368,-1.517 -0.502,-2.174 1.021,0.799 1.687,1.454 1.787,1.842 0.577,2.294 1.411,5.016 2.478,8.115 0.806,0.852 1.495,1.603 2.001,2.166 0.318,0.352 0.568,0.633 0.733,0.82 0.164,0.187 0.228,0.261 0.228,0.261 1.637,1.898 3.949,2.873 6.273,2.873 0.266,0 0.531,-0.016 0.797,-0.041 1.421,-0.137 2.817,-0.64 4.04,-1.523 1.223,0.883 2.62,1.386 4.041,1.523 0.265,0.025 0.53,0.041 0.796,0.041 2.324,0 4.637,-0.975 6.275,-2.873 0,0 0.063,-0.074 0.229,-0.261 0.164,-0.188 0.412,-0.468 0.73,-0.82 0.508,-0.563 1.197,-1.314 2.002,-2.167 1.067,-3.098 1.899,-5.819 2.479,-8.114 0.1,-0.388 0.767,-1.043 1.787,-1.842 -0.134,0.657 -0.297,1.378 -0.502,2.174 -0.76,3.006 -2.02,7.004 -3.873,12.033 -1.582,4.291 0.615,9.051 4.908,10.633 0.943,0.348 1.91,0.512 2.861,0.512 3.371,0 6.539,-2.072 7.771,-5.421 0.386,-1.048 0.744,-2.051 1.088,-3.03 -0.85,-0.349 -1.626,-0.87 -2.277,-1.555 -1.223,-1.281 -1.869,-2.961 -1.826,-4.732 0.023,-0.944 0.033,-1.872 0.033,-2.785 0,-9.271 -1.152,-17.453 -3.35,-24.03 -1.951,0.195 -3.439,0.769 -4.773,1.36 -1.592,0.735 -2.973,1.598 -4.313,2.533 -1.861,1.31 -3.629,2.78 -5.302,4.279 1.239,-2.128 2.738,-3.992 4.542,-5.365 1.43,-1.088 2.732,-1.798 4.057,-2.429 v -13.24 c 1.028,1.049 2.131,2.406 3.215,4.127 0.607,0.966 1.21,2.036 1.787,3.243 0.004,0.009 0.01,0.016 0.015,0.025 2.959,6.122 5.446,15.532 5.446,29.497 0,0.924 -0.01,1.863 -0.033,2.818 -0.072,2.928 2.242,5.357 5.17,5.428 0.043,0.002 0.086,0.002 0.131,0.002 2.867,0 5.227,-2.289 5.295,-5.173 0.025,-1.05 0.037,-2.074 0.037,-3.075 0,-15.23 -2.713,-26.275 -6.52,-34.143 v 0.002 c -0.644,-1.329 -1.321,-2.558 -2.018,-3.707 -2.291,-3.775 -4.823,-6.61 -7.309,-8.633 -1.627,-1.318 -3.227,-2.301 -4.777,-2.988 -1.399,-0.603 -2.72,-0.996 -4.225,-1.095 -0.429,-0.116 -0.871,-0.198 -1.336,-0.198 h -5.813 c -2.874,6.45 -5.546,11.574 -8.144,15.6 -2.602,3.994 -8.161,10.799 -16.758,10.158 v 0.868 c 0.205,0.084 0.402,0.17 0.593,0.255 z"
       id="path20"
       inkscape:connector-curvature="0" /><path
       d="m 163.613,121.397 12.677,-4.961 c -0.131,-8.12 -6.743,-14.662 -14.894,-14.662 -8.23,0 -14.906,6.672 -14.906,14.904 0,5.829 3.353,10.861 8.227,13.312 0.691,-1.524 1.386,-3.085 2.077,-4.668 1.055,-2.414 3.438,-3.971 6.07,-3.971 0.252,0 0.501,0.018 0.749,0.046 z"
       id="path22"
       inkscape:connector-curvature="0" /><path
       d="m 174.658,123.463 -5.597,2.191 c 0.439,1.169 0.536,2.411 0.297,3.611 2.246,-1.423 4.081,-3.425 5.3,-5.802 z"
       id="path24"
       inkscape:connector-curvature="0" /><path
       d="m 237.654,71.167 c -0.583,0.854 -0.926,1.884 -0.924,2.995 0.027,7.493 1.467,13.103 4.695,17.183 1.604,2.013 3.658,3.505 5.809,4.391 2.156,0.896 4.363,1.22 6.447,1.22 2.912,-0.023 5.634,-0.608 8.105,-1.411 -0.259,6.712 -0.465,15.146 -2.015,23.089 1.565,-1.64 2.896,-3.505 4.002,-5.642 2.82,-5.525 3.228,-11.658 3.219,-14.82 0.004,-3.399 -0.426,-5.695 -0.43,-5.717 -0.693,-3.574 1.648,-7.057 5.223,-7.761 0.426,-0.085 0.857,-0.127 1.289,-0.127 3.15,0 5.881,2.249 6.492,5.345 0.162,0.845 0.676,3.881 0.68,8.256 -0.018,7.724 -1.584,14.728 -4.658,20.822 -4.383,8.775 -12.361,15.482 -22.465,18.885 -0.686,0.235 -1.406,0.355 -2.135,0.355 -2.63,0 -4.974,-1.563 -6.032,-3.933 l -11.183,8.561 c -2.877,2.205 -3.986,6.017 -2.74,9.424 l 7.11,19.418 c -1.829,5.835 -3.533,12.076 -4.993,18.681 -0.984,4.467 1.84,8.887 6.307,9.869 0.6,0.133 1.199,0.197 1.789,0.197 3.803,0 7.229,-2.635 8.078,-6.502 0.364,-1.652 0.75,-3.273 1.146,-4.879 0.889,-0.019 1.788,-0.176 2.67,-0.498 4.293,-1.574 6.5,-6.33 4.93,-10.625 l -2.401,-6.557 c 3.079,-8.993 6.413,-16.786 9.407,-23.045 1.527,-3.192 2.96,-5.972 4.229,-8.324 4.209,-0.134 8.42,-2.07 11.398,-8.576 5.127,-13.902 6.234,-22.584 4.996,-36.635 -0.959,-10.213 -8.207,-15.127 -14.035,-15.086 -1.084,0.007 -2.113,0.26 -3.07,0.708 -0.375,0.15 -0.742,0.333 -1.088,0.575 0,0 0,0 -0.045,0.029 -0.35,0.242 -2.494,1.669 -5.256,2.963 -2.744,1.314 -6.148,2.394 -8.523,2.359 -0.99,0 -1.773,-0.156 -2.375,-0.407 -0.883,-0.407 -1.574,-0.88 -2.426,-2.556 -0.768,-1.566 -1.452,-4.303 -1.536,-8.434 l -0.771,-0.301 z"
       id="path26"
       inkscape:connector-curvature="0" /><rect
       x="231.63499"
       y="57.400002"
       transform="matrix(0.3638,-0.9315,0.9315,0.3638,86.6171,259.1382)"
       width="2.7709999"
       height="17.517"
       id="rect28" /><path
       d="m 247.023,70.329 -4.178,-1.635 -1.01,2.581 6.737,2.636 0.319,0.125 0.013,-0.033 c -0.776,-1.131 -1.406,-2.365 -1.881,-3.674 z"
       id="path30"
       inkscape:connector-curvature="0" /><path
       d="m 226.725,55.377 c 0,2.65 0,4.638 0,4.638 h 1.326 c 0,0 0.002,-1.987 0,-4.638 0.016,-1.164 0.387,-1.873 1.197,-2.43 0.816,-0.553 2.186,-0.887 4.102,-0.883 2.135,0.002 3.965,-0.715 5.256,-1.916 1.291,-1.196 2.035,-2.873 2.033,-4.708 0.002,-1.554 0.385,-2.852 1.264,-3.765 0.877,-0.91 2.322,-1.531 4.697,-1.535 v -1.324 c -2.594,-0.004 -4.459,0.699 -5.652,1.943 -1.191,1.238 -1.635,2.922 -1.633,4.681 -0.02,2.937 -2.287,5.274 -5.965,5.3 -2.057,0.004 -3.668,0.332 -4.838,1.105 -1.178,0.768 -1.801,2.047 -1.787,3.532 z"
       id="path32"
       inkscape:connector-curvature="0" /><path
       d="m 224.076,51.404 c -0.002,-0.785 0.084,-1.333 0.223,-1.67 0.143,-0.338 0.287,-0.488 0.572,-0.637 0.563,-0.307 1.857,-0.357 3.844,-0.345 0.797,-0.03 1.223,0.008 1.734,-0.374 0.168,-0.14 0.303,-0.416 0.293,-0.65 -0.074,-0.678 -0.414,-0.846 -0.729,-1.203 -0.332,-0.32 -0.742,-0.675 -1.143,-1.072 -0.811,-0.797 -1.498,-1.738 -1.482,-2.662 0.016,-1.287 0.803,-1.852 2.02,-2.266 1.195,-0.377 2.631,-0.387 3.281,-0.385 v -1.324 c -0.674,0 -2.223,-0.008 -3.676,0.444 -1.434,0.411 -2.965,1.505 -2.951,3.53 0.012,1.461 0.891,2.582 1.709,3.434 0.455,0.454 0.93,0.889 1.258,1.198 -0.096,0.004 -0.199,0.005 -0.314,0.005 -1.494,0.003 -2.629,-0.006 -3.565,0.19 -0.924,0.172 -1.74,0.71 -2.082,1.624 -0.234,0.592 -0.314,1.289 -0.316,2.162 0,3.311 0,8.61 0,8.61 h 1.324 c 0,0.002 0,-5.298 0,-8.609 z"
       id="path34"
       inkscape:connector-curvature="0" /><ellipse
       transform="matrix(0.0087,-1,1,0.0087,195.1583,326.5239)"
       cx="262.26999"
       cy="64.829002"
       rx="14.902"
       ry="14.903"
       id="ellipse36" /><path
       d="m 250.988,136.905 c 0.566,0 1.145,-0.093 1.713,-0.286 11.084,-3.732 18.02,-10.849 21.705,-18.226 3.723,-7.382 4.502,-14.858 4.514,-20.225 -0.004,-4.642 -0.605,-7.755 -0.652,-8.001 -0.566,-2.872 -3.353,-4.74 -6.227,-4.174 -2.867,0.565 -4.732,3.343 -4.176,6.209 0.016,0.084 0.455,2.488 0.453,5.966 0.01,4.305 -0.693,10.19 -3.367,15.432 -2.717,5.243 -7.094,10.009 -15.676,12.987 -2.771,0.943 -4.248,3.957 -3.305,6.726 0.755,2.205 2.813,3.591 5.018,3.592 z"
       id="path38"
       inkscape:connector-curvature="0" /><rect
       x="167.908"
       y="118.097"
       transform="matrix(0.9312,-0.3645,0.3645,0.9312,-31.3949,72.6048)"
       width="17.517"
       height="2.7709999"
       id="rect40" /><path
       d="m 166.842,122.017 -0.663,0.26 c 0.383,0.222 0.737,0.477 1.064,0.767 z"
       id="path42"
       inkscape:connector-curvature="0" /><path
       d="m 185.507,113.676 h 0.786 c 0,0 0.002,-1.987 0,-4.639 0.018,-1.163 0.387,-1.872 1.197,-2.429 0.818,-0.552 2.188,-0.886 4.104,-0.882 2.135,0 3.965,-0.717 5.254,-1.917 1.293,-1.196 2.037,-2.874 2.033,-4.708 0.002,-1.555 0.387,-2.851 1.266,-3.764 0.877,-0.912 2.322,-1.533 4.695,-1.537 v -1.324 c -2.592,-0.004 -4.457,0.7 -5.65,1.943 -1.193,1.24 -1.637,2.923 -1.635,4.682 -0.018,2.936 -2.287,5.274 -5.963,5.299 -2.059,0.004 -3.668,0.333 -4.838,1.105 -1.18,0.77 -1.803,2.047 -1.785,3.531 0,1.762 0,3.214 0,4.001 0,0.397 0,0.637 0,0.637 h 0.536 z"
       id="path44"
       inkscape:connector-curvature="0" /><path
       d="m 183.395,101.279 c -0.926,0.172 -1.74,0.71 -2.084,1.623 -0.234,0.594 -0.314,1.289 -0.316,2.162 0,3.312 0,8.611 0,8.611 h 1.326 c 0,0 0,-5.3 0,-8.611 -0.002,-0.785 0.084,-1.332 0.221,-1.67 0.145,-0.338 0.289,-0.488 0.572,-0.637 0.564,-0.307 1.857,-0.357 3.844,-0.344 0.797,-0.03 1.225,0.008 1.734,-0.375 0.17,-0.139 0.303,-0.414 0.295,-0.65 -0.076,-0.676 -0.414,-0.846 -0.728,-1.201 -0.334,-0.322 -0.744,-0.676 -1.145,-1.073 -0.809,-0.798 -1.496,-1.739 -1.48,-2.663 0.014,-1.287 0.801,-1.852 2.017,-2.266 1.197,-0.377 2.631,-0.386 3.281,-0.385 v -1.324 c -0.674,0.002 -2.221,-0.008 -3.676,0.445 -1.432,0.411 -2.965,1.504 -2.949,3.529 0.012,1.461 0.891,2.583 1.707,3.434 0.455,0.454 0.93,0.89 1.258,1.199 -0.094,0.004 -0.199,0.005 -0.314,0.005 -1.493,0.004 -2.628,-0.006 -3.563,0.191 z"
       id="path46"
       inkscape:connector-curvature="0" /><path
       d="m 146.07,157.033 c 0.014,0 0.029,0 0.045,0 2.166,-0.008 4.07,-0.834 5.719,-1.981 2.48,-1.758 4.715,-4.347 7.287,-8.299 2.555,-3.957 5.383,-9.314 8.596,-16.652 1.174,-2.682 -0.049,-5.806 -2.731,-6.979 -2.68,-1.174 -5.805,0.049 -6.978,2.729 -4.063,9.297 -7.383,14.92 -9.723,17.899 -1.023,1.315 -1.85,2.102 -2.338,2.479 -0.052,-0.01 -0.104,-0.01 -0.155,-0.019 1.968,-1.913 4.929,-7.556 8.063,-14.337 H 148.6 c -0.372,0 -0.732,0.044 -1.082,0.12 -1.981,0.204 -3.716,1.157 -4.863,2.224 -1.992,1.856 -2.947,3.955 -3.658,6.065 -0.68,2.124 -1.016,4.306 -1.021,6.468 0.006,1.511 0.154,3.004 0.66,4.573 0.51,1.499 1.408,3.366 3.612,4.681 0.023,0.013 0.039,0.03 0.062,0.043 0.286,0.163 0.592,0.305 0.908,0.431 0.886,0.352 1.875,0.555 2.852,0.555 z"
       id="path48"
       inkscape:connector-curvature="0" /><path
       d="m 150.155,85.237 v -8.654 h 11.844 V 75.584 64.931 H 136.31 v 9.653 h -11.846 v 11.651 h 25.691 z M 138.309,66.931 h 21.689 v 7.652 h -21.689 z m 9.847,17.304 h -21.693 v -7.652 h 21.693 z"
       id="path50"
       inkscape:connector-curvature="0" /><path
       d="m 185.155,31.237 h 25.69 v -1 -10.654 H 199 V 9.932 h -25.691 v 9.653 h -11.846 v 11.65 h 23.691 v 0.002 z m 23.69,-2.001 H 187.156 V 21.585 H 199 v -0.001 h 9.845 z M 175.309,11.932 h 21.689 v 7.651 h -11.843 -9.846 z m -11.846,17.303 v -7.65 h 9.847 11.845 l 0.001,3.825 v 3.825 z"
       id="path52"
       inkscape:connector-curvature="0" /><path
       d="m 280.843,44.236 h 25.691 V 43.235 32.584 h -11.845 v -9.653 h -25.691 v 11.653 h 11.845 z m 23.692,-1.999 h -21.693 v -7.652 h 11.848 v 0 h 9.846 v 7.652 z M 270.999,24.932 h 21.688 l 0.002,7.651 H 271 v -7.651 z"
       id="path54"
       inkscape:connector-curvature="0" /></g></svg>