<?xml version="1.0" encoding="UTF-8" standalone="no"?>
<svg
   xmlns:dc="http://purl.org/dc/elements/1.1/"
   xmlns:cc="http://creativecommons.org/ns#"
   xmlns:rdf="http://www.w3.org/1999/02/22-rdf-syntax-ns#"
   xmlns:svg="http://www.w3.org/2000/svg"
   xmlns="http://www.w3.org/2000/svg"
   xmlns:sodipodi="http://sodipodi.sourceforge.net/DTD/sodipodi-0.dtd"
   xmlns:inkscape="http://www.inkscape.org/namespaces/inkscape"
   version="1.1"
   x="0px"
   y="0px"
   viewBox="0 0 67 67"
   enable-background="new 0 0 67 67"
   xml:space="preserve"
   id="svg14"
   sodipodi:docname="vehicle mechanics.svg"
   width="67"
   height="67"
   inkscape:version="0.92.5 (2060ec1f9f, 2020-04-08)"><metadata
     id="metadata20"><rdf:RDF><cc:Work
         rdf:about=""><dc:format>image/svg+xml</dc:format><dc:type
           rdf:resource="http://purl.org/dc/dcmitype/StillImage" /><dc:title></dc:title></cc:Work></rdf:RDF></metadata><defs
     id="defs18" /><sodipodi:namedview
     pagecolor="#ffffff"
     bordercolor="#666666"
     borderopacity="1"
     objecttolerance="10"
     gridtolerance="10"
     guidetolerance="10"
     inkscape:pageopacity="0"
     inkscape:pageshadow="2"
     inkscape:window-width="760"
     inkscape:window-height="480"
     id="namedview16"
     showgrid="false"
     inkscape:zoom="2.8179104"
     inkscape:cx="33.5"
     inkscape:cy="41.875"
     inkscape:window-x="0"
     inkscape:window-y="0"
     inkscape:window-maximized="0"
     inkscape:current-layer="svg14" /><g
     id="g8"><path
       d="m 44.1,19.5 c -1.9,0 -3.4,1.5 -3.4,3.4 0,1.9 1.5,3.4 3.4,3.4 1.9,0 3.4,-1.5 3.4,-3.4 0,-1.9 -1.5,-3.4 -3.4,-3.4 z"
       id="path2"
       inkscape:connector-curvature="0" /><path
       d="M 59.9,7.1 C 55.7,2.9 50,0.5 44,0.5 34.9,0.5 26.5,6 23.1,14.8 L 2.9,49.9 c -1.5,1.8 -2.4,4 -2.4,6.5 0,5.6 4.5,10.1 10.1,10.1 2.5,0 4.8,-0.9 6.5,-2.4 L 50.4,44.5 c 3.6,-1 6.8,-3 9.5,-5.7 8.8,-8.8 8.8,-23 0,-31.7 z M 10.6,61.4 c -2.8,0 -5,-2.2 -5,-5 0,-2.8 2.2,-5 5,-5 2.8,0 5,2.2 5,5 0,2.8 -2.3,5 -5,5 z m 9.3,-1.3 c 0.4,-1.1 0.7,-2.4 0.7,-3.6 0,-5.5 -4.5,-10.1 -10.1,-10.1 -1.3,0 -2.6,0.3 -3.7,0.7 L 21.7,21.3 c -0.9,12.8 9.1,24.5 23.3,24 z m 40.6,-33.9 -3.7,1.3 c -0.1,0.4 -0.3,0.8 -0.5,1.2 l 1.7,3.5 c 0.2,0.4 0.1,0.8 -0.2,1.1 l -3.3,3.3 c -0.3,0.3 -0.8,0.4 -1.1,0.2 l -3.5,-1.7 c -0.4,0.2 -0.8,0.4 -1.2,0.5 l -1.3,3.7 C 47.3,39.7 46.9,40 46.5,40 H 41.9 C 41.5,40 41.1,39.7 41,39.3 L 39.7,35.6 C 39.3,35.5 38.9,35.3 38.5,35.1 L 35,36.8 C 34.6,37 34.2,36.9 33.9,36.6 L 30.6,33.3 C 30.3,33 30.2,32.5 30.4,32.2 l 1.7,-3.5 C 31.9,28.3 31.7,27.9 31.6,27.5 L 27.9,26.2 C 27.3,26 27,25.7 27,25.2 v -4.6 c 0,-0.4 0.3,-0.8 0.7,-0.9 l 3.7,-1.3 c 0.1,-0.4 0.3,-0.8 0.5,-1.2 L 30.2,13.7 C 30,13.3 30.1,12.9 30.4,12.6 L 33.7,9.3 C 34,9 34.5,8.9 34.8,9.1 l 3.5,1.7 c 0.4,-0.2 0.8,-0.4 1.2,-0.5 l 1.3,-3.7 c 0.1,-0.4 0.5,-0.7 0.9,-0.7 h 4.6 c 0.4,0 0.8,0.3 0.9,0.7 l 1.3,3.7 c 0.4,0.1 0.8,0.3 1.2,0.5 L 53.4,9 c 0.4,-0.2 0.8,-0.1 1.1,0.2 l 3.3,3.3 c 0.3,0.3 0.4,0.8 0.2,1.1 l -1.7,3.5 c 0.2,0.4 0.4,0.8 0.5,1.2 l 3.7,1.3 c 0.4,0.1 0.7,0.5 0.7,0.9 v 4.6 c -0.1,0.6 -0.3,0.9 -0.7,1.1 z"
       id="path4"
       inkscape:connector-curvature="0" /><path
       d="m 55.1,19.4 c -0.2,-0.6 -0.5,-1.2 -0.8,-1.8 -0.1,-0.3 -0.2,-0.6 0,-0.9 l 1.6,-3.3 -2.3,-2.3 -3.3,1.6 c -0.3,0.1 -0.6,0.1 -0.9,0 C 48.8,12.4 48.2,12.1 47.6,11.9 47.3,11.8 47.1,11.6 47,11.3 L 45.8,7.8 h -3.2 l -1.2,3.4 c -0.1,0.3 -0.3,0.5 -0.6,0.6 -0.6,0.2 -1.2,0.5 -1.8,0.8 -0.3,0.1 -0.6,0.2 -0.9,0 l -3.3,-1.6 -2.3,2.3 1.6,3.3 c 0.1,0.3 0.1,0.6 0,0.9 -0.3,0.6 -0.6,1.2 -0.8,1.8 -0.1,0.3 -0.3,0.5 -0.6,0.6 L 29,21.3 v 3.2 l 3.5,1.2 c 0.3,0.1 0.5,0.3 0.6,0.6 0.2,0.6 0.5,1.2 0.8,1.8 0.1,0.3 0.2,0.6 0,0.9 l -1.6,3.3 2.3,2.3 3.3,-1.6 c 0.3,-0.1 0.6,-0.1 0.9,0 0.6,0.3 1.2,0.6 1.8,0.8 0.3,0.1 0.5,0.3 0.6,0.6 l 1.2,3.4 h 3.2 l 1.2,-3.5 c 0.1,-0.3 0.3,-0.5 0.6,-0.6 0.6,-0.2 1.3,-0.5 1.8,-0.8 0.3,-0.1 0.6,-0.2 0.9,0 l 3.3,1.6 2.3,-2.3 -1.6,-3.3 C 54,28.6 54,28.3 54.1,28 c 0.3,-0.6 0.6,-1.2 0.8,-1.8 0.1,-0.3 0.3,-0.5 0.6,-0.6 L 59,24.4 V 21.2 L 55.6,20 c -0.2,0 -0.4,-0.3 -0.5,-0.6 z m -11,9 c -3,0 -5.4,-2.4 -5.4,-5.4 0,-3 2.4,-5.4 5.4,-5.4 3,0 5.4,2.4 5.4,5.4 0,2.9 -2.4,5.4 -5.4,5.4 z"
       id="path6"
       inkscape:connector-curvature="0" /></g></svg>